%TF.GenerationSoftware,KiCad,Pcbnew,(5.1.6)-1*%
%TF.CreationDate,2020-10-06T11:03:20+02:00*%
%TF.ProjectId,Bobbycontroller,426f6262-7963-46f6-9e74-726f6c6c6572,rev?*%
%TF.SameCoordinates,Original*%
%TF.FileFunction,Paste,Top*%
%TF.FilePolarity,Positive*%
%FSLAX46Y46*%
G04 Gerber Fmt 4.6, Leading zero omitted, Abs format (unit mm)*
G04 Created by KiCad (PCBNEW (5.1.6)-1) date 2020-10-06 11:03:20*
%MOMM*%
%LPD*%
G01*
G04 APERTURE LIST*
%ADD10R,2.300000X2.500000*%
%ADD11R,0.900000X1.200000*%
%ADD12R,1.200000X0.900000*%
%ADD13R,1.060000X0.650000*%
%ADD14R,0.650000X1.060000*%
%ADD15R,2.500000X3.300000*%
%ADD16R,2.500000X2.300000*%
%ADD17R,3.300000X2.500000*%
%ADD18R,0.900000X0.800000*%
%ADD19R,0.600000X1.000000*%
%ADD20R,0.650000X0.350000*%
%ADD21R,2.000000X1.500000*%
%ADD22R,2.000000X3.800000*%
%ADD23R,5.250000X4.550000*%
%ADD24R,1.100000X4.600000*%
%ADD25R,2.600000X4.500000*%
%ADD26R,2.750000X3.050000*%
%ADD27R,0.800000X2.200000*%
G04 APERTURE END LIST*
%TO.C,R77*%
G36*
G01*
X38650000Y-27643750D02*
X38650000Y-28156250D01*
G75*
G02*
X38431250Y-28375000I-218750J0D01*
G01*
X37993750Y-28375000D01*
G75*
G02*
X37775000Y-28156250I0J218750D01*
G01*
X37775000Y-27643750D01*
G75*
G02*
X37993750Y-27425000I218750J0D01*
G01*
X38431250Y-27425000D01*
G75*
G02*
X38650000Y-27643750I0J-218750D01*
G01*
G37*
G36*
G01*
X40225000Y-27643750D02*
X40225000Y-28156250D01*
G75*
G02*
X40006250Y-28375000I-218750J0D01*
G01*
X39568750Y-28375000D01*
G75*
G02*
X39350000Y-28156250I0J218750D01*
G01*
X39350000Y-27643750D01*
G75*
G02*
X39568750Y-27425000I218750J0D01*
G01*
X40006250Y-27425000D01*
G75*
G02*
X40225000Y-27643750I0J-218750D01*
G01*
G37*
%TD*%
%TO.C,R76*%
G36*
G01*
X42650000Y-28156250D02*
X42650000Y-27643750D01*
G75*
G02*
X42868750Y-27425000I218750J0D01*
G01*
X43306250Y-27425000D01*
G75*
G02*
X43525000Y-27643750I0J-218750D01*
G01*
X43525000Y-28156250D01*
G75*
G02*
X43306250Y-28375000I-218750J0D01*
G01*
X42868750Y-28375000D01*
G75*
G02*
X42650000Y-28156250I0J218750D01*
G01*
G37*
G36*
G01*
X41075000Y-28156250D02*
X41075000Y-27643750D01*
G75*
G02*
X41293750Y-27425000I218750J0D01*
G01*
X41731250Y-27425000D01*
G75*
G02*
X41950000Y-27643750I0J-218750D01*
G01*
X41950000Y-28156250D01*
G75*
G02*
X41731250Y-28375000I-218750J0D01*
G01*
X41293750Y-28375000D01*
G75*
G02*
X41075000Y-28156250I0J218750D01*
G01*
G37*
%TD*%
%TO.C,R75*%
G36*
G01*
X39562500Y-53043750D02*
X39562500Y-53556250D01*
G75*
G02*
X39343750Y-53775000I-218750J0D01*
G01*
X38906250Y-53775000D01*
G75*
G02*
X38687500Y-53556250I0J218750D01*
G01*
X38687500Y-53043750D01*
G75*
G02*
X38906250Y-52825000I218750J0D01*
G01*
X39343750Y-52825000D01*
G75*
G02*
X39562500Y-53043750I0J-218750D01*
G01*
G37*
G36*
G01*
X41137500Y-53043750D02*
X41137500Y-53556250D01*
G75*
G02*
X40918750Y-53775000I-218750J0D01*
G01*
X40481250Y-53775000D01*
G75*
G02*
X40262500Y-53556250I0J218750D01*
G01*
X40262500Y-53043750D01*
G75*
G02*
X40481250Y-52825000I218750J0D01*
G01*
X40918750Y-52825000D01*
G75*
G02*
X41137500Y-53043750I0J-218750D01*
G01*
G37*
%TD*%
%TO.C,R74*%
G36*
G01*
X39550000Y-54743750D02*
X39550000Y-55256250D01*
G75*
G02*
X39331250Y-55475000I-218750J0D01*
G01*
X38893750Y-55475000D01*
G75*
G02*
X38675000Y-55256250I0J218750D01*
G01*
X38675000Y-54743750D01*
G75*
G02*
X38893750Y-54525000I218750J0D01*
G01*
X39331250Y-54525000D01*
G75*
G02*
X39550000Y-54743750I0J-218750D01*
G01*
G37*
G36*
G01*
X41125000Y-54743750D02*
X41125000Y-55256250D01*
G75*
G02*
X40906250Y-55475000I-218750J0D01*
G01*
X40468750Y-55475000D01*
G75*
G02*
X40250000Y-55256250I0J218750D01*
G01*
X40250000Y-54743750D01*
G75*
G02*
X40468750Y-54525000I218750J0D01*
G01*
X40906250Y-54525000D01*
G75*
G02*
X41125000Y-54743750I0J-218750D01*
G01*
G37*
%TD*%
%TO.C,R73*%
G36*
G01*
X53750000Y-82256250D02*
X53750000Y-81743750D01*
G75*
G02*
X53968750Y-81525000I218750J0D01*
G01*
X54406250Y-81525000D01*
G75*
G02*
X54625000Y-81743750I0J-218750D01*
G01*
X54625000Y-82256250D01*
G75*
G02*
X54406250Y-82475000I-218750J0D01*
G01*
X53968750Y-82475000D01*
G75*
G02*
X53750000Y-82256250I0J218750D01*
G01*
G37*
G36*
G01*
X52175000Y-82256250D02*
X52175000Y-81743750D01*
G75*
G02*
X52393750Y-81525000I218750J0D01*
G01*
X52831250Y-81525000D01*
G75*
G02*
X53050000Y-81743750I0J-218750D01*
G01*
X53050000Y-82256250D01*
G75*
G02*
X52831250Y-82475000I-218750J0D01*
G01*
X52393750Y-82475000D01*
G75*
G02*
X52175000Y-82256250I0J218750D01*
G01*
G37*
%TD*%
%TO.C,R72*%
G36*
G01*
X49650000Y-81356250D02*
X49650000Y-80843750D01*
G75*
G02*
X49868750Y-80625000I218750J0D01*
G01*
X50306250Y-80625000D01*
G75*
G02*
X50525000Y-80843750I0J-218750D01*
G01*
X50525000Y-81356250D01*
G75*
G02*
X50306250Y-81575000I-218750J0D01*
G01*
X49868750Y-81575000D01*
G75*
G02*
X49650000Y-81356250I0J218750D01*
G01*
G37*
G36*
G01*
X48075000Y-81356250D02*
X48075000Y-80843750D01*
G75*
G02*
X48293750Y-80625000I218750J0D01*
G01*
X48731250Y-80625000D01*
G75*
G02*
X48950000Y-80843750I0J-218750D01*
G01*
X48950000Y-81356250D01*
G75*
G02*
X48731250Y-81575000I-218750J0D01*
G01*
X48293750Y-81575000D01*
G75*
G02*
X48075000Y-81356250I0J218750D01*
G01*
G37*
%TD*%
%TO.C,R71*%
G36*
G01*
X96143750Y-34050000D02*
X96656250Y-34050000D01*
G75*
G02*
X96875000Y-34268750I0J-218750D01*
G01*
X96875000Y-34706250D01*
G75*
G02*
X96656250Y-34925000I-218750J0D01*
G01*
X96143750Y-34925000D01*
G75*
G02*
X95925000Y-34706250I0J218750D01*
G01*
X95925000Y-34268750D01*
G75*
G02*
X96143750Y-34050000I218750J0D01*
G01*
G37*
G36*
G01*
X96143750Y-32475000D02*
X96656250Y-32475000D01*
G75*
G02*
X96875000Y-32693750I0J-218750D01*
G01*
X96875000Y-33131250D01*
G75*
G02*
X96656250Y-33350000I-218750J0D01*
G01*
X96143750Y-33350000D01*
G75*
G02*
X95925000Y-33131250I0J218750D01*
G01*
X95925000Y-32693750D01*
G75*
G02*
X96143750Y-32475000I218750J0D01*
G01*
G37*
%TD*%
%TO.C,R68*%
G36*
G01*
X95943750Y-38050000D02*
X96456250Y-38050000D01*
G75*
G02*
X96675000Y-38268750I0J-218750D01*
G01*
X96675000Y-38706250D01*
G75*
G02*
X96456250Y-38925000I-218750J0D01*
G01*
X95943750Y-38925000D01*
G75*
G02*
X95725000Y-38706250I0J218750D01*
G01*
X95725000Y-38268750D01*
G75*
G02*
X95943750Y-38050000I218750J0D01*
G01*
G37*
G36*
G01*
X95943750Y-36475000D02*
X96456250Y-36475000D01*
G75*
G02*
X96675000Y-36693750I0J-218750D01*
G01*
X96675000Y-37131250D01*
G75*
G02*
X96456250Y-37350000I-218750J0D01*
G01*
X95943750Y-37350000D01*
G75*
G02*
X95725000Y-37131250I0J218750D01*
G01*
X95725000Y-36693750D01*
G75*
G02*
X95943750Y-36475000I218750J0D01*
G01*
G37*
%TD*%
%TO.C,R65*%
G36*
G01*
X95250000Y-57543750D02*
X95250000Y-58056250D01*
G75*
G02*
X95031250Y-58275000I-218750J0D01*
G01*
X94593750Y-58275000D01*
G75*
G02*
X94375000Y-58056250I0J218750D01*
G01*
X94375000Y-57543750D01*
G75*
G02*
X94593750Y-57325000I218750J0D01*
G01*
X95031250Y-57325000D01*
G75*
G02*
X95250000Y-57543750I0J-218750D01*
G01*
G37*
G36*
G01*
X96825000Y-57543750D02*
X96825000Y-58056250D01*
G75*
G02*
X96606250Y-58275000I-218750J0D01*
G01*
X96168750Y-58275000D01*
G75*
G02*
X95950000Y-58056250I0J218750D01*
G01*
X95950000Y-57543750D01*
G75*
G02*
X96168750Y-57325000I218750J0D01*
G01*
X96606250Y-57325000D01*
G75*
G02*
X96825000Y-57543750I0J-218750D01*
G01*
G37*
%TD*%
%TO.C,R62*%
G36*
G01*
X95250000Y-59243750D02*
X95250000Y-59756250D01*
G75*
G02*
X95031250Y-59975000I-218750J0D01*
G01*
X94593750Y-59975000D01*
G75*
G02*
X94375000Y-59756250I0J218750D01*
G01*
X94375000Y-59243750D01*
G75*
G02*
X94593750Y-59025000I218750J0D01*
G01*
X95031250Y-59025000D01*
G75*
G02*
X95250000Y-59243750I0J-218750D01*
G01*
G37*
G36*
G01*
X96825000Y-59243750D02*
X96825000Y-59756250D01*
G75*
G02*
X96606250Y-59975000I-218750J0D01*
G01*
X96168750Y-59975000D01*
G75*
G02*
X95950000Y-59756250I0J218750D01*
G01*
X95950000Y-59243750D01*
G75*
G02*
X96168750Y-59025000I218750J0D01*
G01*
X96606250Y-59025000D01*
G75*
G02*
X96825000Y-59243750I0J-218750D01*
G01*
G37*
%TD*%
%TO.C,R59*%
G36*
G01*
X93950000Y-84643750D02*
X93950000Y-85156250D01*
G75*
G02*
X93731250Y-85375000I-218750J0D01*
G01*
X93293750Y-85375000D01*
G75*
G02*
X93075000Y-85156250I0J218750D01*
G01*
X93075000Y-84643750D01*
G75*
G02*
X93293750Y-84425000I218750J0D01*
G01*
X93731250Y-84425000D01*
G75*
G02*
X93950000Y-84643750I0J-218750D01*
G01*
G37*
G36*
G01*
X95525000Y-84643750D02*
X95525000Y-85156250D01*
G75*
G02*
X95306250Y-85375000I-218750J0D01*
G01*
X94868750Y-85375000D01*
G75*
G02*
X94650000Y-85156250I0J218750D01*
G01*
X94650000Y-84643750D01*
G75*
G02*
X94868750Y-84425000I218750J0D01*
G01*
X95306250Y-84425000D01*
G75*
G02*
X95525000Y-84643750I0J-218750D01*
G01*
G37*
%TD*%
%TO.C,R52*%
G36*
G01*
X93950000Y-86243750D02*
X93950000Y-86756250D01*
G75*
G02*
X93731250Y-86975000I-218750J0D01*
G01*
X93293750Y-86975000D01*
G75*
G02*
X93075000Y-86756250I0J218750D01*
G01*
X93075000Y-86243750D01*
G75*
G02*
X93293750Y-86025000I218750J0D01*
G01*
X93731250Y-86025000D01*
G75*
G02*
X93950000Y-86243750I0J-218750D01*
G01*
G37*
G36*
G01*
X95525000Y-86243750D02*
X95525000Y-86756250D01*
G75*
G02*
X95306250Y-86975000I-218750J0D01*
G01*
X94868750Y-86975000D01*
G75*
G02*
X94650000Y-86756250I0J218750D01*
G01*
X94650000Y-86243750D01*
G75*
G02*
X94868750Y-86025000I218750J0D01*
G01*
X95306250Y-86025000D01*
G75*
G02*
X95525000Y-86243750I0J-218750D01*
G01*
G37*
%TD*%
D10*
%TO.C,D19*%
X93700000Y-72350000D03*
X93700000Y-76650000D03*
%TD*%
%TO.C,C63*%
G36*
G01*
X76450000Y-60943750D02*
X76450000Y-61456250D01*
G75*
G02*
X76231250Y-61675000I-218750J0D01*
G01*
X75793750Y-61675000D01*
G75*
G02*
X75575000Y-61456250I0J218750D01*
G01*
X75575000Y-60943750D01*
G75*
G02*
X75793750Y-60725000I218750J0D01*
G01*
X76231250Y-60725000D01*
G75*
G02*
X76450000Y-60943750I0J-218750D01*
G01*
G37*
G36*
G01*
X78025000Y-60943750D02*
X78025000Y-61456250D01*
G75*
G02*
X77806250Y-61675000I-218750J0D01*
G01*
X77368750Y-61675000D01*
G75*
G02*
X77150000Y-61456250I0J218750D01*
G01*
X77150000Y-60943750D01*
G75*
G02*
X77368750Y-60725000I218750J0D01*
G01*
X77806250Y-60725000D01*
G75*
G02*
X78025000Y-60943750I0J-218750D01*
G01*
G37*
%TD*%
%TO.C,C62*%
G36*
G01*
X64500000Y-54581250D02*
X64500000Y-54068750D01*
G75*
G02*
X64718750Y-53850000I218750J0D01*
G01*
X65156250Y-53850000D01*
G75*
G02*
X65375000Y-54068750I0J-218750D01*
G01*
X65375000Y-54581250D01*
G75*
G02*
X65156250Y-54800000I-218750J0D01*
G01*
X64718750Y-54800000D01*
G75*
G02*
X64500000Y-54581250I0J218750D01*
G01*
G37*
G36*
G01*
X62925000Y-54581250D02*
X62925000Y-54068750D01*
G75*
G02*
X63143750Y-53850000I218750J0D01*
G01*
X63581250Y-53850000D01*
G75*
G02*
X63800000Y-54068750I0J-218750D01*
G01*
X63800000Y-54581250D01*
G75*
G02*
X63581250Y-54800000I-218750J0D01*
G01*
X63143750Y-54800000D01*
G75*
G02*
X62925000Y-54581250I0J218750D01*
G01*
G37*
%TD*%
%TO.C,C61*%
G36*
G01*
X55843750Y-52475000D02*
X56356250Y-52475000D01*
G75*
G02*
X56575000Y-52693750I0J-218750D01*
G01*
X56575000Y-53131250D01*
G75*
G02*
X56356250Y-53350000I-218750J0D01*
G01*
X55843750Y-53350000D01*
G75*
G02*
X55625000Y-53131250I0J218750D01*
G01*
X55625000Y-52693750D01*
G75*
G02*
X55843750Y-52475000I218750J0D01*
G01*
G37*
G36*
G01*
X55843750Y-50900000D02*
X56356250Y-50900000D01*
G75*
G02*
X56575000Y-51118750I0J-218750D01*
G01*
X56575000Y-51556250D01*
G75*
G02*
X56356250Y-51775000I-218750J0D01*
G01*
X55843750Y-51775000D01*
G75*
G02*
X55625000Y-51556250I0J218750D01*
G01*
X55625000Y-51118750D01*
G75*
G02*
X55843750Y-50900000I218750J0D01*
G01*
G37*
%TD*%
D11*
%TO.C,D0AL4*%
X43550000Y-81300000D03*
X46850000Y-81300000D03*
%TD*%
D12*
%TO.C,D0AL3*%
X95000000Y-91750000D03*
X95000000Y-95050000D03*
%TD*%
%TO.C,R70*%
G36*
G01*
X26275000Y-46475000D02*
X26275000Y-45225000D01*
G75*
G02*
X26525000Y-44975000I250000J0D01*
G01*
X27275000Y-44975000D01*
G75*
G02*
X27525000Y-45225000I0J-250000D01*
G01*
X27525000Y-46475000D01*
G75*
G02*
X27275000Y-46725000I-250000J0D01*
G01*
X26525000Y-46725000D01*
G75*
G02*
X26275000Y-46475000I0J250000D01*
G01*
G37*
G36*
G01*
X23475000Y-46475000D02*
X23475000Y-45225000D01*
G75*
G02*
X23725000Y-44975000I250000J0D01*
G01*
X24475000Y-44975000D01*
G75*
G02*
X24725000Y-45225000I0J-250000D01*
G01*
X24725000Y-46475000D01*
G75*
G02*
X24475000Y-46725000I-250000J0D01*
G01*
X23725000Y-46725000D01*
G75*
G02*
X23475000Y-46475000I0J250000D01*
G01*
G37*
%TD*%
%TO.C,R69*%
G36*
G01*
X32775000Y-25275000D02*
X32775000Y-24025000D01*
G75*
G02*
X33025000Y-23775000I250000J0D01*
G01*
X33775000Y-23775000D01*
G75*
G02*
X34025000Y-24025000I0J-250000D01*
G01*
X34025000Y-25275000D01*
G75*
G02*
X33775000Y-25525000I-250000J0D01*
G01*
X33025000Y-25525000D01*
G75*
G02*
X32775000Y-25275000I0J250000D01*
G01*
G37*
G36*
G01*
X29975000Y-25275000D02*
X29975000Y-24025000D01*
G75*
G02*
X30225000Y-23775000I250000J0D01*
G01*
X30975000Y-23775000D01*
G75*
G02*
X31225000Y-24025000I0J-250000D01*
G01*
X31225000Y-25275000D01*
G75*
G02*
X30975000Y-25525000I-250000J0D01*
G01*
X30225000Y-25525000D01*
G75*
G02*
X29975000Y-25275000I0J250000D01*
G01*
G37*
%TD*%
%TO.C,R67*%
G36*
G01*
X26775000Y-72525000D02*
X26775000Y-71275000D01*
G75*
G02*
X27025000Y-71025000I250000J0D01*
G01*
X27775000Y-71025000D01*
G75*
G02*
X28025000Y-71275000I0J-250000D01*
G01*
X28025000Y-72525000D01*
G75*
G02*
X27775000Y-72775000I-250000J0D01*
G01*
X27025000Y-72775000D01*
G75*
G02*
X26775000Y-72525000I0J250000D01*
G01*
G37*
G36*
G01*
X23975000Y-72525000D02*
X23975000Y-71275000D01*
G75*
G02*
X24225000Y-71025000I250000J0D01*
G01*
X24975000Y-71025000D01*
G75*
G02*
X25225000Y-71275000I0J-250000D01*
G01*
X25225000Y-72525000D01*
G75*
G02*
X24975000Y-72775000I-250000J0D01*
G01*
X24225000Y-72775000D01*
G75*
G02*
X23975000Y-72525000I0J250000D01*
G01*
G37*
%TD*%
%TO.C,R66*%
G36*
G01*
X32775000Y-50575000D02*
X32775000Y-49325000D01*
G75*
G02*
X33025000Y-49075000I250000J0D01*
G01*
X33775000Y-49075000D01*
G75*
G02*
X34025000Y-49325000I0J-250000D01*
G01*
X34025000Y-50575000D01*
G75*
G02*
X33775000Y-50825000I-250000J0D01*
G01*
X33025000Y-50825000D01*
G75*
G02*
X32775000Y-50575000I0J250000D01*
G01*
G37*
G36*
G01*
X29975000Y-50575000D02*
X29975000Y-49325000D01*
G75*
G02*
X30225000Y-49075000I250000J0D01*
G01*
X30975000Y-49075000D01*
G75*
G02*
X31225000Y-49325000I0J-250000D01*
G01*
X31225000Y-50575000D01*
G75*
G02*
X30975000Y-50825000I-250000J0D01*
G01*
X30225000Y-50825000D01*
G75*
G02*
X29975000Y-50575000I0J250000D01*
G01*
G37*
%TD*%
%TO.C,R64*%
G36*
G01*
X26275000Y-98525000D02*
X26275000Y-97275000D01*
G75*
G02*
X26525000Y-97025000I250000J0D01*
G01*
X27275000Y-97025000D01*
G75*
G02*
X27525000Y-97275000I0J-250000D01*
G01*
X27525000Y-98525000D01*
G75*
G02*
X27275000Y-98775000I-250000J0D01*
G01*
X26525000Y-98775000D01*
G75*
G02*
X26275000Y-98525000I0J250000D01*
G01*
G37*
G36*
G01*
X23475000Y-98525000D02*
X23475000Y-97275000D01*
G75*
G02*
X23725000Y-97025000I250000J0D01*
G01*
X24475000Y-97025000D01*
G75*
G02*
X24725000Y-97275000I0J-250000D01*
G01*
X24725000Y-98525000D01*
G75*
G02*
X24475000Y-98775000I-250000J0D01*
G01*
X23725000Y-98775000D01*
G75*
G02*
X23475000Y-98525000I0J250000D01*
G01*
G37*
%TD*%
%TO.C,R63*%
G36*
G01*
X32775000Y-76625000D02*
X32775000Y-75375000D01*
G75*
G02*
X33025000Y-75125000I250000J0D01*
G01*
X33775000Y-75125000D01*
G75*
G02*
X34025000Y-75375000I0J-250000D01*
G01*
X34025000Y-76625000D01*
G75*
G02*
X33775000Y-76875000I-250000J0D01*
G01*
X33025000Y-76875000D01*
G75*
G02*
X32775000Y-76625000I0J250000D01*
G01*
G37*
G36*
G01*
X29975000Y-76625000D02*
X29975000Y-75375000D01*
G75*
G02*
X30225000Y-75125000I250000J0D01*
G01*
X30975000Y-75125000D01*
G75*
G02*
X31225000Y-75375000I0J-250000D01*
G01*
X31225000Y-76625000D01*
G75*
G02*
X30975000Y-76875000I-250000J0D01*
G01*
X30225000Y-76875000D01*
G75*
G02*
X29975000Y-76625000I0J250000D01*
G01*
G37*
%TD*%
%TO.C,R61*%
G36*
G01*
X113225000Y-22025000D02*
X113225000Y-23275000D01*
G75*
G02*
X112975000Y-23525000I-250000J0D01*
G01*
X112225000Y-23525000D01*
G75*
G02*
X111975000Y-23275000I0J250000D01*
G01*
X111975000Y-22025000D01*
G75*
G02*
X112225000Y-21775000I250000J0D01*
G01*
X112975000Y-21775000D01*
G75*
G02*
X113225000Y-22025000I0J-250000D01*
G01*
G37*
G36*
G01*
X116025000Y-22025000D02*
X116025000Y-23275000D01*
G75*
G02*
X115775000Y-23525000I-250000J0D01*
G01*
X115025000Y-23525000D01*
G75*
G02*
X114775000Y-23275000I0J250000D01*
G01*
X114775000Y-22025000D01*
G75*
G02*
X115025000Y-21775000I250000J0D01*
G01*
X115775000Y-21775000D01*
G75*
G02*
X116025000Y-22025000I0J-250000D01*
G01*
G37*
%TD*%
%TO.C,R60*%
G36*
G01*
X107325000Y-43475000D02*
X107325000Y-44725000D01*
G75*
G02*
X107075000Y-44975000I-250000J0D01*
G01*
X106325000Y-44975000D01*
G75*
G02*
X106075000Y-44725000I0J250000D01*
G01*
X106075000Y-43475000D01*
G75*
G02*
X106325000Y-43225000I250000J0D01*
G01*
X107075000Y-43225000D01*
G75*
G02*
X107325000Y-43475000I0J-250000D01*
G01*
G37*
G36*
G01*
X110125000Y-43475000D02*
X110125000Y-44725000D01*
G75*
G02*
X109875000Y-44975000I-250000J0D01*
G01*
X109125000Y-44975000D01*
G75*
G02*
X108875000Y-44725000I0J250000D01*
G01*
X108875000Y-43475000D01*
G75*
G02*
X109125000Y-43225000I250000J0D01*
G01*
X109875000Y-43225000D01*
G75*
G02*
X110125000Y-43475000I0J-250000D01*
G01*
G37*
%TD*%
%TO.C,R58*%
G36*
G01*
X113225000Y-47975000D02*
X113225000Y-49225000D01*
G75*
G02*
X112975000Y-49475000I-250000J0D01*
G01*
X112225000Y-49475000D01*
G75*
G02*
X111975000Y-49225000I0J250000D01*
G01*
X111975000Y-47975000D01*
G75*
G02*
X112225000Y-47725000I250000J0D01*
G01*
X112975000Y-47725000D01*
G75*
G02*
X113225000Y-47975000I0J-250000D01*
G01*
G37*
G36*
G01*
X116025000Y-47975000D02*
X116025000Y-49225000D01*
G75*
G02*
X115775000Y-49475000I-250000J0D01*
G01*
X115025000Y-49475000D01*
G75*
G02*
X114775000Y-49225000I0J250000D01*
G01*
X114775000Y-47975000D01*
G75*
G02*
X115025000Y-47725000I250000J0D01*
G01*
X115775000Y-47725000D01*
G75*
G02*
X116025000Y-47975000I0J-250000D01*
G01*
G37*
%TD*%
%TO.C,R57*%
G36*
G01*
X107475000Y-69875000D02*
X107475000Y-71125000D01*
G75*
G02*
X107225000Y-71375000I-250000J0D01*
G01*
X106475000Y-71375000D01*
G75*
G02*
X106225000Y-71125000I0J250000D01*
G01*
X106225000Y-69875000D01*
G75*
G02*
X106475000Y-69625000I250000J0D01*
G01*
X107225000Y-69625000D01*
G75*
G02*
X107475000Y-69875000I0J-250000D01*
G01*
G37*
G36*
G01*
X110275000Y-69875000D02*
X110275000Y-71125000D01*
G75*
G02*
X110025000Y-71375000I-250000J0D01*
G01*
X109275000Y-71375000D01*
G75*
G02*
X109025000Y-71125000I0J250000D01*
G01*
X109025000Y-69875000D01*
G75*
G02*
X109275000Y-69625000I250000J0D01*
G01*
X110025000Y-69625000D01*
G75*
G02*
X110275000Y-69875000I0J-250000D01*
G01*
G37*
%TD*%
%TO.C,R51*%
G36*
G01*
X113225000Y-73025000D02*
X113225000Y-74275000D01*
G75*
G02*
X112975000Y-74525000I-250000J0D01*
G01*
X112225000Y-74525000D01*
G75*
G02*
X111975000Y-74275000I0J250000D01*
G01*
X111975000Y-73025000D01*
G75*
G02*
X112225000Y-72775000I250000J0D01*
G01*
X112975000Y-72775000D01*
G75*
G02*
X113225000Y-73025000I0J-250000D01*
G01*
G37*
G36*
G01*
X116025000Y-73025000D02*
X116025000Y-74275000D01*
G75*
G02*
X115775000Y-74525000I-250000J0D01*
G01*
X115025000Y-74525000D01*
G75*
G02*
X114775000Y-74275000I0J250000D01*
G01*
X114775000Y-73025000D01*
G75*
G02*
X115025000Y-72775000I250000J0D01*
G01*
X115775000Y-72775000D01*
G75*
G02*
X116025000Y-73025000I0J-250000D01*
G01*
G37*
%TD*%
%TO.C,R50*%
G36*
G01*
X107275000Y-95975000D02*
X107275000Y-97225000D01*
G75*
G02*
X107025000Y-97475000I-250000J0D01*
G01*
X106275000Y-97475000D01*
G75*
G02*
X106025000Y-97225000I0J250000D01*
G01*
X106025000Y-95975000D01*
G75*
G02*
X106275000Y-95725000I250000J0D01*
G01*
X107025000Y-95725000D01*
G75*
G02*
X107275000Y-95975000I0J-250000D01*
G01*
G37*
G36*
G01*
X110075000Y-95975000D02*
X110075000Y-97225000D01*
G75*
G02*
X109825000Y-97475000I-250000J0D01*
G01*
X109075000Y-97475000D01*
G75*
G02*
X108825000Y-97225000I0J250000D01*
G01*
X108825000Y-95975000D01*
G75*
G02*
X109075000Y-95725000I250000J0D01*
G01*
X109825000Y-95725000D01*
G75*
G02*
X110075000Y-95975000I0J-250000D01*
G01*
G37*
%TD*%
D11*
%TO.C,D0AL2*%
X71050000Y-92550000D03*
X67750000Y-92550000D03*
%TD*%
%TO.C,C60*%
G36*
G01*
X67850000Y-94756250D02*
X67850000Y-94243750D01*
G75*
G02*
X68068750Y-94025000I218750J0D01*
G01*
X68506250Y-94025000D01*
G75*
G02*
X68725000Y-94243750I0J-218750D01*
G01*
X68725000Y-94756250D01*
G75*
G02*
X68506250Y-94975000I-218750J0D01*
G01*
X68068750Y-94975000D01*
G75*
G02*
X67850000Y-94756250I0J218750D01*
G01*
G37*
G36*
G01*
X66275000Y-94756250D02*
X66275000Y-94243750D01*
G75*
G02*
X66493750Y-94025000I218750J0D01*
G01*
X66931250Y-94025000D01*
G75*
G02*
X67150000Y-94243750I0J-218750D01*
G01*
X67150000Y-94756250D01*
G75*
G02*
X66931250Y-94975000I-218750J0D01*
G01*
X66493750Y-94975000D01*
G75*
G02*
X66275000Y-94756250I0J218750D01*
G01*
G37*
%TD*%
D13*
%TO.C,U15*%
X55400000Y-95200000D03*
X55400000Y-94250000D03*
X55400000Y-96150000D03*
X53200000Y-96150000D03*
X53200000Y-95200000D03*
X53200000Y-94250000D03*
%TD*%
D14*
%TO.C,U5*%
X84000000Y-93500000D03*
X83050000Y-93500000D03*
X84950000Y-93500000D03*
X84950000Y-95700000D03*
X84000000Y-95700000D03*
X83050000Y-95700000D03*
%TD*%
%TO.C,R18L4*%
G36*
G01*
X63143750Y-91650000D02*
X63656250Y-91650000D01*
G75*
G02*
X63875000Y-91868750I0J-218750D01*
G01*
X63875000Y-92306250D01*
G75*
G02*
X63656250Y-92525000I-218750J0D01*
G01*
X63143750Y-92525000D01*
G75*
G02*
X62925000Y-92306250I0J218750D01*
G01*
X62925000Y-91868750D01*
G75*
G02*
X63143750Y-91650000I218750J0D01*
G01*
G37*
G36*
G01*
X63143750Y-90075000D02*
X63656250Y-90075000D01*
G75*
G02*
X63875000Y-90293750I0J-218750D01*
G01*
X63875000Y-90731250D01*
G75*
G02*
X63656250Y-90950000I-218750J0D01*
G01*
X63143750Y-90950000D01*
G75*
G02*
X62925000Y-90731250I0J218750D01*
G01*
X62925000Y-90293750D01*
G75*
G02*
X63143750Y-90075000I218750J0D01*
G01*
G37*
%TD*%
%TO.C,R18L3*%
G36*
G01*
X73243750Y-91650000D02*
X73756250Y-91650000D01*
G75*
G02*
X73975000Y-91868750I0J-218750D01*
G01*
X73975000Y-92306250D01*
G75*
G02*
X73756250Y-92525000I-218750J0D01*
G01*
X73243750Y-92525000D01*
G75*
G02*
X73025000Y-92306250I0J218750D01*
G01*
X73025000Y-91868750D01*
G75*
G02*
X73243750Y-91650000I218750J0D01*
G01*
G37*
G36*
G01*
X73243750Y-90075000D02*
X73756250Y-90075000D01*
G75*
G02*
X73975000Y-90293750I0J-218750D01*
G01*
X73975000Y-90731250D01*
G75*
G02*
X73756250Y-90950000I-218750J0D01*
G01*
X73243750Y-90950000D01*
G75*
G02*
X73025000Y-90731250I0J218750D01*
G01*
X73025000Y-90293750D01*
G75*
G02*
X73243750Y-90075000I218750J0D01*
G01*
G37*
%TD*%
%TO.C,R17L4*%
G36*
G01*
X59943750Y-91650000D02*
X60456250Y-91650000D01*
G75*
G02*
X60675000Y-91868750I0J-218750D01*
G01*
X60675000Y-92306250D01*
G75*
G02*
X60456250Y-92525000I-218750J0D01*
G01*
X59943750Y-92525000D01*
G75*
G02*
X59725000Y-92306250I0J218750D01*
G01*
X59725000Y-91868750D01*
G75*
G02*
X59943750Y-91650000I218750J0D01*
G01*
G37*
G36*
G01*
X59943750Y-90075000D02*
X60456250Y-90075000D01*
G75*
G02*
X60675000Y-90293750I0J-218750D01*
G01*
X60675000Y-90731250D01*
G75*
G02*
X60456250Y-90950000I-218750J0D01*
G01*
X59943750Y-90950000D01*
G75*
G02*
X59725000Y-90731250I0J218750D01*
G01*
X59725000Y-90293750D01*
G75*
G02*
X59943750Y-90075000I218750J0D01*
G01*
G37*
%TD*%
%TO.C,R17L3*%
G36*
G01*
X76443750Y-91650000D02*
X76956250Y-91650000D01*
G75*
G02*
X77175000Y-91868750I0J-218750D01*
G01*
X77175000Y-92306250D01*
G75*
G02*
X76956250Y-92525000I-218750J0D01*
G01*
X76443750Y-92525000D01*
G75*
G02*
X76225000Y-92306250I0J218750D01*
G01*
X76225000Y-91868750D01*
G75*
G02*
X76443750Y-91650000I218750J0D01*
G01*
G37*
G36*
G01*
X76443750Y-90075000D02*
X76956250Y-90075000D01*
G75*
G02*
X77175000Y-90293750I0J-218750D01*
G01*
X77175000Y-90731250D01*
G75*
G02*
X76956250Y-90950000I-218750J0D01*
G01*
X76443750Y-90950000D01*
G75*
G02*
X76225000Y-90731250I0J218750D01*
G01*
X76225000Y-90293750D01*
G75*
G02*
X76443750Y-90075000I218750J0D01*
G01*
G37*
%TD*%
%TO.C,R16L4*%
G36*
G01*
X56743750Y-91650000D02*
X57256250Y-91650000D01*
G75*
G02*
X57475000Y-91868750I0J-218750D01*
G01*
X57475000Y-92306250D01*
G75*
G02*
X57256250Y-92525000I-218750J0D01*
G01*
X56743750Y-92525000D01*
G75*
G02*
X56525000Y-92306250I0J218750D01*
G01*
X56525000Y-91868750D01*
G75*
G02*
X56743750Y-91650000I218750J0D01*
G01*
G37*
G36*
G01*
X56743750Y-90075000D02*
X57256250Y-90075000D01*
G75*
G02*
X57475000Y-90293750I0J-218750D01*
G01*
X57475000Y-90731250D01*
G75*
G02*
X57256250Y-90950000I-218750J0D01*
G01*
X56743750Y-90950000D01*
G75*
G02*
X56525000Y-90731250I0J218750D01*
G01*
X56525000Y-90293750D01*
G75*
G02*
X56743750Y-90075000I218750J0D01*
G01*
G37*
%TD*%
%TO.C,R16L3*%
G36*
G01*
X79643750Y-91650000D02*
X80156250Y-91650000D01*
G75*
G02*
X80375000Y-91868750I0J-218750D01*
G01*
X80375000Y-92306250D01*
G75*
G02*
X80156250Y-92525000I-218750J0D01*
G01*
X79643750Y-92525000D01*
G75*
G02*
X79425000Y-92306250I0J218750D01*
G01*
X79425000Y-91868750D01*
G75*
G02*
X79643750Y-91650000I218750J0D01*
G01*
G37*
G36*
G01*
X79643750Y-90075000D02*
X80156250Y-90075000D01*
G75*
G02*
X80375000Y-90293750I0J-218750D01*
G01*
X80375000Y-90731250D01*
G75*
G02*
X80156250Y-90950000I-218750J0D01*
G01*
X79643750Y-90950000D01*
G75*
G02*
X79425000Y-90731250I0J218750D01*
G01*
X79425000Y-90293750D01*
G75*
G02*
X79643750Y-90075000I218750J0D01*
G01*
G37*
%TD*%
%TO.C,D34*%
G36*
G01*
X65256250Y-90950000D02*
X64743750Y-90950000D01*
G75*
G02*
X64525000Y-90731250I0J218750D01*
G01*
X64525000Y-90293750D01*
G75*
G02*
X64743750Y-90075000I218750J0D01*
G01*
X65256250Y-90075000D01*
G75*
G02*
X65475000Y-90293750I0J-218750D01*
G01*
X65475000Y-90731250D01*
G75*
G02*
X65256250Y-90950000I-218750J0D01*
G01*
G37*
G36*
G01*
X65256250Y-92525000D02*
X64743750Y-92525000D01*
G75*
G02*
X64525000Y-92306250I0J218750D01*
G01*
X64525000Y-91868750D01*
G75*
G02*
X64743750Y-91650000I218750J0D01*
G01*
X65256250Y-91650000D01*
G75*
G02*
X65475000Y-91868750I0J-218750D01*
G01*
X65475000Y-92306250D01*
G75*
G02*
X65256250Y-92525000I-218750J0D01*
G01*
G37*
%TD*%
%TO.C,D33*%
G36*
G01*
X75356250Y-90950000D02*
X74843750Y-90950000D01*
G75*
G02*
X74625000Y-90731250I0J218750D01*
G01*
X74625000Y-90293750D01*
G75*
G02*
X74843750Y-90075000I218750J0D01*
G01*
X75356250Y-90075000D01*
G75*
G02*
X75575000Y-90293750I0J-218750D01*
G01*
X75575000Y-90731250D01*
G75*
G02*
X75356250Y-90950000I-218750J0D01*
G01*
G37*
G36*
G01*
X75356250Y-92525000D02*
X74843750Y-92525000D01*
G75*
G02*
X74625000Y-92306250I0J218750D01*
G01*
X74625000Y-91868750D01*
G75*
G02*
X74843750Y-91650000I218750J0D01*
G01*
X75356250Y-91650000D01*
G75*
G02*
X75575000Y-91868750I0J-218750D01*
G01*
X75575000Y-92306250D01*
G75*
G02*
X75356250Y-92525000I-218750J0D01*
G01*
G37*
%TD*%
%TO.C,D32*%
G36*
G01*
X62056250Y-90950000D02*
X61543750Y-90950000D01*
G75*
G02*
X61325000Y-90731250I0J218750D01*
G01*
X61325000Y-90293750D01*
G75*
G02*
X61543750Y-90075000I218750J0D01*
G01*
X62056250Y-90075000D01*
G75*
G02*
X62275000Y-90293750I0J-218750D01*
G01*
X62275000Y-90731250D01*
G75*
G02*
X62056250Y-90950000I-218750J0D01*
G01*
G37*
G36*
G01*
X62056250Y-92525000D02*
X61543750Y-92525000D01*
G75*
G02*
X61325000Y-92306250I0J218750D01*
G01*
X61325000Y-91868750D01*
G75*
G02*
X61543750Y-91650000I218750J0D01*
G01*
X62056250Y-91650000D01*
G75*
G02*
X62275000Y-91868750I0J-218750D01*
G01*
X62275000Y-92306250D01*
G75*
G02*
X62056250Y-92525000I-218750J0D01*
G01*
G37*
%TD*%
%TO.C,D31*%
G36*
G01*
X78556250Y-90950000D02*
X78043750Y-90950000D01*
G75*
G02*
X77825000Y-90731250I0J218750D01*
G01*
X77825000Y-90293750D01*
G75*
G02*
X78043750Y-90075000I218750J0D01*
G01*
X78556250Y-90075000D01*
G75*
G02*
X78775000Y-90293750I0J-218750D01*
G01*
X78775000Y-90731250D01*
G75*
G02*
X78556250Y-90950000I-218750J0D01*
G01*
G37*
G36*
G01*
X78556250Y-92525000D02*
X78043750Y-92525000D01*
G75*
G02*
X77825000Y-92306250I0J218750D01*
G01*
X77825000Y-91868750D01*
G75*
G02*
X78043750Y-91650000I218750J0D01*
G01*
X78556250Y-91650000D01*
G75*
G02*
X78775000Y-91868750I0J-218750D01*
G01*
X78775000Y-92306250D01*
G75*
G02*
X78556250Y-92525000I-218750J0D01*
G01*
G37*
%TD*%
%TO.C,D30*%
G36*
G01*
X58843750Y-90962500D02*
X58331250Y-90962500D01*
G75*
G02*
X58112500Y-90743750I0J218750D01*
G01*
X58112500Y-90306250D01*
G75*
G02*
X58331250Y-90087500I218750J0D01*
G01*
X58843750Y-90087500D01*
G75*
G02*
X59062500Y-90306250I0J-218750D01*
G01*
X59062500Y-90743750D01*
G75*
G02*
X58843750Y-90962500I-218750J0D01*
G01*
G37*
G36*
G01*
X58843750Y-92537500D02*
X58331250Y-92537500D01*
G75*
G02*
X58112500Y-92318750I0J218750D01*
G01*
X58112500Y-91881250D01*
G75*
G02*
X58331250Y-91662500I218750J0D01*
G01*
X58843750Y-91662500D01*
G75*
G02*
X59062500Y-91881250I0J-218750D01*
G01*
X59062500Y-92318750D01*
G75*
G02*
X58843750Y-92537500I-218750J0D01*
G01*
G37*
%TD*%
%TO.C,D29*%
G36*
G01*
X81756250Y-90950000D02*
X81243750Y-90950000D01*
G75*
G02*
X81025000Y-90731250I0J218750D01*
G01*
X81025000Y-90293750D01*
G75*
G02*
X81243750Y-90075000I218750J0D01*
G01*
X81756250Y-90075000D01*
G75*
G02*
X81975000Y-90293750I0J-218750D01*
G01*
X81975000Y-90731250D01*
G75*
G02*
X81756250Y-90950000I-218750J0D01*
G01*
G37*
G36*
G01*
X81756250Y-92525000D02*
X81243750Y-92525000D01*
G75*
G02*
X81025000Y-92306250I0J218750D01*
G01*
X81025000Y-91868750D01*
G75*
G02*
X81243750Y-91650000I218750J0D01*
G01*
X81756250Y-91650000D01*
G75*
G02*
X81975000Y-91868750I0J-218750D01*
G01*
X81975000Y-92306250D01*
G75*
G02*
X81756250Y-92525000I-218750J0D01*
G01*
G37*
%TD*%
D15*
%TO.C,D28*%
X18900000Y-25000000D03*
X25700000Y-25000000D03*
%TD*%
%TO.C,D27*%
X18900000Y-77000000D03*
X25700000Y-77000000D03*
%TD*%
%TO.C,D26*%
X18900000Y-51100000D03*
X25700000Y-51100000D03*
%TD*%
%TO.C,D25*%
X121100000Y-69000000D03*
X114300000Y-69000000D03*
%TD*%
%TO.C,D24*%
X121100000Y-43000000D03*
X114300000Y-43000000D03*
%TD*%
%TO.C,D23*%
X119600000Y-94900000D03*
X112800000Y-94900000D03*
%TD*%
D16*
%TO.C,D22*%
X74600000Y-52640000D03*
X70300000Y-52640000D03*
%TD*%
D17*
%TO.C,D21*%
X52880000Y-48770000D03*
X52880000Y-41970000D03*
%TD*%
%TO.C,R49*%
G36*
G01*
X84513750Y-81560000D02*
X85026250Y-81560000D01*
G75*
G02*
X85245000Y-81778750I0J-218750D01*
G01*
X85245000Y-82216250D01*
G75*
G02*
X85026250Y-82435000I-218750J0D01*
G01*
X84513750Y-82435000D01*
G75*
G02*
X84295000Y-82216250I0J218750D01*
G01*
X84295000Y-81778750D01*
G75*
G02*
X84513750Y-81560000I218750J0D01*
G01*
G37*
G36*
G01*
X84513750Y-79985000D02*
X85026250Y-79985000D01*
G75*
G02*
X85245000Y-80203750I0J-218750D01*
G01*
X85245000Y-80641250D01*
G75*
G02*
X85026250Y-80860000I-218750J0D01*
G01*
X84513750Y-80860000D01*
G75*
G02*
X84295000Y-80641250I0J218750D01*
G01*
X84295000Y-80203750D01*
G75*
G02*
X84513750Y-79985000I218750J0D01*
G01*
G37*
%TD*%
%TO.C,R48*%
G36*
G01*
X84513750Y-78540000D02*
X85026250Y-78540000D01*
G75*
G02*
X85245000Y-78758750I0J-218750D01*
G01*
X85245000Y-79196250D01*
G75*
G02*
X85026250Y-79415000I-218750J0D01*
G01*
X84513750Y-79415000D01*
G75*
G02*
X84295000Y-79196250I0J218750D01*
G01*
X84295000Y-78758750D01*
G75*
G02*
X84513750Y-78540000I218750J0D01*
G01*
G37*
G36*
G01*
X84513750Y-76965000D02*
X85026250Y-76965000D01*
G75*
G02*
X85245000Y-77183750I0J-218750D01*
G01*
X85245000Y-77621250D01*
G75*
G02*
X85026250Y-77840000I-218750J0D01*
G01*
X84513750Y-77840000D01*
G75*
G02*
X84295000Y-77621250I0J218750D01*
G01*
X84295000Y-77183750D01*
G75*
G02*
X84513750Y-76965000I218750J0D01*
G01*
G37*
%TD*%
%TO.C,R47*%
G36*
G01*
X82993750Y-81570000D02*
X83506250Y-81570000D01*
G75*
G02*
X83725000Y-81788750I0J-218750D01*
G01*
X83725000Y-82226250D01*
G75*
G02*
X83506250Y-82445000I-218750J0D01*
G01*
X82993750Y-82445000D01*
G75*
G02*
X82775000Y-82226250I0J218750D01*
G01*
X82775000Y-81788750D01*
G75*
G02*
X82993750Y-81570000I218750J0D01*
G01*
G37*
G36*
G01*
X82993750Y-79995000D02*
X83506250Y-79995000D01*
G75*
G02*
X83725000Y-80213750I0J-218750D01*
G01*
X83725000Y-80651250D01*
G75*
G02*
X83506250Y-80870000I-218750J0D01*
G01*
X82993750Y-80870000D01*
G75*
G02*
X82775000Y-80651250I0J218750D01*
G01*
X82775000Y-80213750D01*
G75*
G02*
X82993750Y-79995000I218750J0D01*
G01*
G37*
%TD*%
%TO.C,R46*%
G36*
G01*
X82803750Y-78550000D02*
X83316250Y-78550000D01*
G75*
G02*
X83535000Y-78768750I0J-218750D01*
G01*
X83535000Y-79206250D01*
G75*
G02*
X83316250Y-79425000I-218750J0D01*
G01*
X82803750Y-79425000D01*
G75*
G02*
X82585000Y-79206250I0J218750D01*
G01*
X82585000Y-78768750D01*
G75*
G02*
X82803750Y-78550000I218750J0D01*
G01*
G37*
G36*
G01*
X82803750Y-76975000D02*
X83316250Y-76975000D01*
G75*
G02*
X83535000Y-77193750I0J-218750D01*
G01*
X83535000Y-77631250D01*
G75*
G02*
X83316250Y-77850000I-218750J0D01*
G01*
X82803750Y-77850000D01*
G75*
G02*
X82585000Y-77631250I0J218750D01*
G01*
X82585000Y-77193750D01*
G75*
G02*
X82803750Y-76975000I218750J0D01*
G01*
G37*
%TD*%
%TO.C,R45*%
G36*
G01*
X94010000Y-82733750D02*
X94010000Y-83246250D01*
G75*
G02*
X93791250Y-83465000I-218750J0D01*
G01*
X93353750Y-83465000D01*
G75*
G02*
X93135000Y-83246250I0J218750D01*
G01*
X93135000Y-82733750D01*
G75*
G02*
X93353750Y-82515000I218750J0D01*
G01*
X93791250Y-82515000D01*
G75*
G02*
X94010000Y-82733750I0J-218750D01*
G01*
G37*
G36*
G01*
X95585000Y-82733750D02*
X95585000Y-83246250D01*
G75*
G02*
X95366250Y-83465000I-218750J0D01*
G01*
X94928750Y-83465000D01*
G75*
G02*
X94710000Y-83246250I0J218750D01*
G01*
X94710000Y-82733750D01*
G75*
G02*
X94928750Y-82515000I218750J0D01*
G01*
X95366250Y-82515000D01*
G75*
G02*
X95585000Y-82733750I0J-218750D01*
G01*
G37*
%TD*%
%TO.C,F1*%
G36*
G01*
X52525000Y-38245000D02*
X52525000Y-39495000D01*
G75*
G02*
X52275000Y-39745000I-250000J0D01*
G01*
X51525000Y-39745000D01*
G75*
G02*
X51275000Y-39495000I0J250000D01*
G01*
X51275000Y-38245000D01*
G75*
G02*
X51525000Y-37995000I250000J0D01*
G01*
X52275000Y-37995000D01*
G75*
G02*
X52525000Y-38245000I0J-250000D01*
G01*
G37*
G36*
G01*
X55325000Y-38245000D02*
X55325000Y-39495000D01*
G75*
G02*
X55075000Y-39745000I-250000J0D01*
G01*
X54325000Y-39745000D01*
G75*
G02*
X54075000Y-39495000I0J250000D01*
G01*
X54075000Y-38245000D01*
G75*
G02*
X54325000Y-37995000I250000J0D01*
G01*
X55075000Y-37995000D01*
G75*
G02*
X55325000Y-38245000I0J-250000D01*
G01*
G37*
%TD*%
D12*
%TO.C,D20*%
X85350000Y-62960000D03*
X85350000Y-66260000D03*
%TD*%
%TO.C,D18*%
X90440000Y-72300000D03*
X90440000Y-75600000D03*
%TD*%
D18*
%TO.C,D17*%
X92080000Y-79760000D03*
X90080000Y-80710000D03*
X90080000Y-78810000D03*
%TD*%
%TO.C,C45*%
G36*
G01*
X86023750Y-81570000D02*
X86536250Y-81570000D01*
G75*
G02*
X86755000Y-81788750I0J-218750D01*
G01*
X86755000Y-82226250D01*
G75*
G02*
X86536250Y-82445000I-218750J0D01*
G01*
X86023750Y-82445000D01*
G75*
G02*
X85805000Y-82226250I0J218750D01*
G01*
X85805000Y-81788750D01*
G75*
G02*
X86023750Y-81570000I218750J0D01*
G01*
G37*
G36*
G01*
X86023750Y-79995000D02*
X86536250Y-79995000D01*
G75*
G02*
X86755000Y-80213750I0J-218750D01*
G01*
X86755000Y-80651250D01*
G75*
G02*
X86536250Y-80870000I-218750J0D01*
G01*
X86023750Y-80870000D01*
G75*
G02*
X85805000Y-80651250I0J218750D01*
G01*
X85805000Y-80213750D01*
G75*
G02*
X86023750Y-79995000I218750J0D01*
G01*
G37*
%TD*%
%TO.C,C44*%
G36*
G01*
X85550000Y-71056250D02*
X85550000Y-70543750D01*
G75*
G02*
X85768750Y-70325000I218750J0D01*
G01*
X86206250Y-70325000D01*
G75*
G02*
X86425000Y-70543750I0J-218750D01*
G01*
X86425000Y-71056250D01*
G75*
G02*
X86206250Y-71275000I-218750J0D01*
G01*
X85768750Y-71275000D01*
G75*
G02*
X85550000Y-71056250I0J218750D01*
G01*
G37*
G36*
G01*
X83975000Y-71056250D02*
X83975000Y-70543750D01*
G75*
G02*
X84193750Y-70325000I218750J0D01*
G01*
X84631250Y-70325000D01*
G75*
G02*
X84850000Y-70543750I0J-218750D01*
G01*
X84850000Y-71056250D01*
G75*
G02*
X84631250Y-71275000I-218750J0D01*
G01*
X84193750Y-71275000D01*
G75*
G02*
X83975000Y-71056250I0J218750D01*
G01*
G37*
%TD*%
%TO.C,C43*%
G36*
G01*
X84520000Y-75503750D02*
X84520000Y-76016250D01*
G75*
G02*
X84301250Y-76235000I-218750J0D01*
G01*
X83863750Y-76235000D01*
G75*
G02*
X83645000Y-76016250I0J218750D01*
G01*
X83645000Y-75503750D01*
G75*
G02*
X83863750Y-75285000I218750J0D01*
G01*
X84301250Y-75285000D01*
G75*
G02*
X84520000Y-75503750I0J-218750D01*
G01*
G37*
G36*
G01*
X86095000Y-75503750D02*
X86095000Y-76016250D01*
G75*
G02*
X85876250Y-76235000I-218750J0D01*
G01*
X85438750Y-76235000D01*
G75*
G02*
X85220000Y-76016250I0J218750D01*
G01*
X85220000Y-75503750D01*
G75*
G02*
X85438750Y-75285000I218750J0D01*
G01*
X85876250Y-75285000D01*
G75*
G02*
X86095000Y-75503750I0J-218750D01*
G01*
G37*
%TD*%
%TO.C,C42*%
G36*
G01*
X95486250Y-80120000D02*
X94573750Y-80120000D01*
G75*
G02*
X94330000Y-79876250I0J243750D01*
G01*
X94330000Y-79388750D01*
G75*
G02*
X94573750Y-79145000I243750J0D01*
G01*
X95486250Y-79145000D01*
G75*
G02*
X95730000Y-79388750I0J-243750D01*
G01*
X95730000Y-79876250D01*
G75*
G02*
X95486250Y-80120000I-243750J0D01*
G01*
G37*
G36*
G01*
X95486250Y-81995000D02*
X94573750Y-81995000D01*
G75*
G02*
X94330000Y-81751250I0J243750D01*
G01*
X94330000Y-81263750D01*
G75*
G02*
X94573750Y-81020000I243750J0D01*
G01*
X95486250Y-81020000D01*
G75*
G02*
X95730000Y-81263750I0J-243750D01*
G01*
X95730000Y-81751250D01*
G75*
G02*
X95486250Y-81995000I-243750J0D01*
G01*
G37*
%TD*%
%TO.C,C41*%
G36*
G01*
X90620000Y-82153750D02*
X90620000Y-83066250D01*
G75*
G02*
X90376250Y-83310000I-243750J0D01*
G01*
X89888750Y-83310000D01*
G75*
G02*
X89645000Y-83066250I0J243750D01*
G01*
X89645000Y-82153750D01*
G75*
G02*
X89888750Y-81910000I243750J0D01*
G01*
X90376250Y-81910000D01*
G75*
G02*
X90620000Y-82153750I0J-243750D01*
G01*
G37*
G36*
G01*
X92495000Y-82153750D02*
X92495000Y-83066250D01*
G75*
G02*
X92251250Y-83310000I-243750J0D01*
G01*
X91763750Y-83310000D01*
G75*
G02*
X91520000Y-83066250I0J243750D01*
G01*
X91520000Y-82153750D01*
G75*
G02*
X91763750Y-81910000I243750J0D01*
G01*
X92251250Y-81910000D01*
G75*
G02*
X92495000Y-82153750I0J-243750D01*
G01*
G37*
%TD*%
%TO.C,C40*%
G36*
G01*
X56080000Y-79433750D02*
X56080000Y-80346250D01*
G75*
G02*
X55836250Y-80590000I-243750J0D01*
G01*
X55348750Y-80590000D01*
G75*
G02*
X55105000Y-80346250I0J243750D01*
G01*
X55105000Y-79433750D01*
G75*
G02*
X55348750Y-79190000I243750J0D01*
G01*
X55836250Y-79190000D01*
G75*
G02*
X56080000Y-79433750I0J-243750D01*
G01*
G37*
G36*
G01*
X57955000Y-79433750D02*
X57955000Y-80346250D01*
G75*
G02*
X57711250Y-80590000I-243750J0D01*
G01*
X57223750Y-80590000D01*
G75*
G02*
X56980000Y-80346250I0J243750D01*
G01*
X56980000Y-79433750D01*
G75*
G02*
X57223750Y-79190000I243750J0D01*
G01*
X57711250Y-79190000D01*
G75*
G02*
X57955000Y-79433750I0J-243750D01*
G01*
G37*
%TD*%
%TO.C,C39*%
G36*
G01*
X56370000Y-77863750D02*
X56370000Y-78376250D01*
G75*
G02*
X56151250Y-78595000I-218750J0D01*
G01*
X55713750Y-78595000D01*
G75*
G02*
X55495000Y-78376250I0J218750D01*
G01*
X55495000Y-77863750D01*
G75*
G02*
X55713750Y-77645000I218750J0D01*
G01*
X56151250Y-77645000D01*
G75*
G02*
X56370000Y-77863750I0J-218750D01*
G01*
G37*
G36*
G01*
X57945000Y-77863750D02*
X57945000Y-78376250D01*
G75*
G02*
X57726250Y-78595000I-218750J0D01*
G01*
X57288750Y-78595000D01*
G75*
G02*
X57070000Y-78376250I0J218750D01*
G01*
X57070000Y-77863750D01*
G75*
G02*
X57288750Y-77645000I218750J0D01*
G01*
X57726250Y-77645000D01*
G75*
G02*
X57945000Y-77863750I0J-218750D01*
G01*
G37*
%TD*%
%TO.C,C23*%
G36*
G01*
X63402500Y-83753750D02*
X63402500Y-84266250D01*
G75*
G02*
X63183750Y-84485000I-218750J0D01*
G01*
X62746250Y-84485000D01*
G75*
G02*
X62527500Y-84266250I0J218750D01*
G01*
X62527500Y-83753750D01*
G75*
G02*
X62746250Y-83535000I218750J0D01*
G01*
X63183750Y-83535000D01*
G75*
G02*
X63402500Y-83753750I0J-218750D01*
G01*
G37*
G36*
G01*
X64977500Y-83753750D02*
X64977500Y-84266250D01*
G75*
G02*
X64758750Y-84485000I-218750J0D01*
G01*
X64321250Y-84485000D01*
G75*
G02*
X64102500Y-84266250I0J218750D01*
G01*
X64102500Y-83753750D01*
G75*
G02*
X64321250Y-83535000I218750J0D01*
G01*
X64758750Y-83535000D01*
G75*
G02*
X64977500Y-83753750I0J-218750D01*
G01*
G37*
%TD*%
%TO.C,C22*%
G36*
G01*
X63640000Y-66276250D02*
X63640000Y-65363750D01*
G75*
G02*
X63883750Y-65120000I243750J0D01*
G01*
X64371250Y-65120000D01*
G75*
G02*
X64615000Y-65363750I0J-243750D01*
G01*
X64615000Y-66276250D01*
G75*
G02*
X64371250Y-66520000I-243750J0D01*
G01*
X63883750Y-66520000D01*
G75*
G02*
X63640000Y-66276250I0J243750D01*
G01*
G37*
G36*
G01*
X61765000Y-66276250D02*
X61765000Y-65363750D01*
G75*
G02*
X62008750Y-65120000I243750J0D01*
G01*
X62496250Y-65120000D01*
G75*
G02*
X62740000Y-65363750I0J-243750D01*
G01*
X62740000Y-66276250D01*
G75*
G02*
X62496250Y-66520000I-243750J0D01*
G01*
X62008750Y-66520000D01*
G75*
G02*
X61765000Y-66276250I0J243750D01*
G01*
G37*
%TD*%
%TO.C,C21*%
G36*
G01*
X69800000Y-83893750D02*
X69800000Y-84406250D01*
G75*
G02*
X69581250Y-84625000I-218750J0D01*
G01*
X69143750Y-84625000D01*
G75*
G02*
X68925000Y-84406250I0J218750D01*
G01*
X68925000Y-83893750D01*
G75*
G02*
X69143750Y-83675000I218750J0D01*
G01*
X69581250Y-83675000D01*
G75*
G02*
X69800000Y-83893750I0J-218750D01*
G01*
G37*
G36*
G01*
X71375000Y-83893750D02*
X71375000Y-84406250D01*
G75*
G02*
X71156250Y-84625000I-218750J0D01*
G01*
X70718750Y-84625000D01*
G75*
G02*
X70500000Y-84406250I0J218750D01*
G01*
X70500000Y-83893750D01*
G75*
G02*
X70718750Y-83675000I218750J0D01*
G01*
X71156250Y-83675000D01*
G75*
G02*
X71375000Y-83893750I0J-218750D01*
G01*
G37*
%TD*%
%TO.C,C20*%
G36*
G01*
X63522500Y-67916250D02*
X63522500Y-67403750D01*
G75*
G02*
X63741250Y-67185000I218750J0D01*
G01*
X64178750Y-67185000D01*
G75*
G02*
X64397500Y-67403750I0J-218750D01*
G01*
X64397500Y-67916250D01*
G75*
G02*
X64178750Y-68135000I-218750J0D01*
G01*
X63741250Y-68135000D01*
G75*
G02*
X63522500Y-67916250I0J218750D01*
G01*
G37*
G36*
G01*
X61947500Y-67916250D02*
X61947500Y-67403750D01*
G75*
G02*
X62166250Y-67185000I218750J0D01*
G01*
X62603750Y-67185000D01*
G75*
G02*
X62822500Y-67403750I0J-218750D01*
G01*
X62822500Y-67916250D01*
G75*
G02*
X62603750Y-68135000I-218750J0D01*
G01*
X62166250Y-68135000D01*
G75*
G02*
X61947500Y-67916250I0J218750D01*
G01*
G37*
%TD*%
%TO.C,C19*%
G36*
G01*
X74893750Y-72550000D02*
X75406250Y-72550000D01*
G75*
G02*
X75625000Y-72768750I0J-218750D01*
G01*
X75625000Y-73206250D01*
G75*
G02*
X75406250Y-73425000I-218750J0D01*
G01*
X74893750Y-73425000D01*
G75*
G02*
X74675000Y-73206250I0J218750D01*
G01*
X74675000Y-72768750D01*
G75*
G02*
X74893750Y-72550000I218750J0D01*
G01*
G37*
G36*
G01*
X74893750Y-70975000D02*
X75406250Y-70975000D01*
G75*
G02*
X75625000Y-71193750I0J-218750D01*
G01*
X75625000Y-71631250D01*
G75*
G02*
X75406250Y-71850000I-218750J0D01*
G01*
X74893750Y-71850000D01*
G75*
G02*
X74675000Y-71631250I0J218750D01*
G01*
X74675000Y-71193750D01*
G75*
G02*
X74893750Y-70975000I218750J0D01*
G01*
G37*
%TD*%
%TO.C,C6*%
G36*
G01*
X84210000Y-68193750D02*
X84210000Y-68706250D01*
G75*
G02*
X83991250Y-68925000I-218750J0D01*
G01*
X83553750Y-68925000D01*
G75*
G02*
X83335000Y-68706250I0J218750D01*
G01*
X83335000Y-68193750D01*
G75*
G02*
X83553750Y-67975000I218750J0D01*
G01*
X83991250Y-67975000D01*
G75*
G02*
X84210000Y-68193750I0J-218750D01*
G01*
G37*
G36*
G01*
X85785000Y-68193750D02*
X85785000Y-68706250D01*
G75*
G02*
X85566250Y-68925000I-218750J0D01*
G01*
X85128750Y-68925000D01*
G75*
G02*
X84910000Y-68706250I0J218750D01*
G01*
X84910000Y-68193750D01*
G75*
G02*
X85128750Y-67975000I218750J0D01*
G01*
X85566250Y-67975000D01*
G75*
G02*
X85785000Y-68193750I0J-218750D01*
G01*
G37*
%TD*%
D19*
%TO.C,U7*%
X84320000Y-72690000D03*
X85095000Y-72690000D03*
X85095000Y-73890000D03*
X84320000Y-73890000D03*
D20*
X86257500Y-72315000D03*
X86257500Y-72965000D03*
X86257500Y-73615000D03*
X86257500Y-74265000D03*
X83157500Y-74265000D03*
X83157500Y-73615000D03*
X83157500Y-72965000D03*
X83157500Y-72315000D03*
%TD*%
%TO.C,R40R1*%
G36*
G01*
X65356250Y-27550000D02*
X64843750Y-27550000D01*
G75*
G02*
X64625000Y-27331250I0J218750D01*
G01*
X64625000Y-26893750D01*
G75*
G02*
X64843750Y-26675000I218750J0D01*
G01*
X65356250Y-26675000D01*
G75*
G02*
X65575000Y-26893750I0J-218750D01*
G01*
X65575000Y-27331250D01*
G75*
G02*
X65356250Y-27550000I-218750J0D01*
G01*
G37*
G36*
G01*
X65356250Y-29125000D02*
X64843750Y-29125000D01*
G75*
G02*
X64625000Y-28906250I0J218750D01*
G01*
X64625000Y-28468750D01*
G75*
G02*
X64843750Y-28250000I218750J0D01*
G01*
X65356250Y-28250000D01*
G75*
G02*
X65575000Y-28468750I0J-218750D01*
G01*
X65575000Y-28906250D01*
G75*
G02*
X65356250Y-29125000I-218750J0D01*
G01*
G37*
%TD*%
%TO.C,R40L1*%
G36*
G01*
X74806250Y-29037500D02*
X74293750Y-29037500D01*
G75*
G02*
X74075000Y-28818750I0J218750D01*
G01*
X74075000Y-28381250D01*
G75*
G02*
X74293750Y-28162500I218750J0D01*
G01*
X74806250Y-28162500D01*
G75*
G02*
X75025000Y-28381250I0J-218750D01*
G01*
X75025000Y-28818750D01*
G75*
G02*
X74806250Y-29037500I-218750J0D01*
G01*
G37*
G36*
G01*
X74806250Y-30612500D02*
X74293750Y-30612500D01*
G75*
G02*
X74075000Y-30393750I0J218750D01*
G01*
X74075000Y-29956250D01*
G75*
G02*
X74293750Y-29737500I218750J0D01*
G01*
X74806250Y-29737500D01*
G75*
G02*
X75025000Y-29956250I0J-218750D01*
G01*
X75025000Y-30393750D01*
G75*
G02*
X74806250Y-30612500I-218750J0D01*
G01*
G37*
%TD*%
%TO.C,R39R1*%
G36*
G01*
X65281250Y-30900000D02*
X64768750Y-30900000D01*
G75*
G02*
X64550000Y-30681250I0J218750D01*
G01*
X64550000Y-30243750D01*
G75*
G02*
X64768750Y-30025000I218750J0D01*
G01*
X65281250Y-30025000D01*
G75*
G02*
X65500000Y-30243750I0J-218750D01*
G01*
X65500000Y-30681250D01*
G75*
G02*
X65281250Y-30900000I-218750J0D01*
G01*
G37*
G36*
G01*
X65281250Y-32475000D02*
X64768750Y-32475000D01*
G75*
G02*
X64550000Y-32256250I0J218750D01*
G01*
X64550000Y-31818750D01*
G75*
G02*
X64768750Y-31600000I218750J0D01*
G01*
X65281250Y-31600000D01*
G75*
G02*
X65500000Y-31818750I0J-218750D01*
G01*
X65500000Y-32256250D01*
G75*
G02*
X65281250Y-32475000I-218750J0D01*
G01*
G37*
%TD*%
%TO.C,R39L1*%
G36*
G01*
X74831250Y-32100000D02*
X74318750Y-32100000D01*
G75*
G02*
X74100000Y-31881250I0J218750D01*
G01*
X74100000Y-31443750D01*
G75*
G02*
X74318750Y-31225000I218750J0D01*
G01*
X74831250Y-31225000D01*
G75*
G02*
X75050000Y-31443750I0J-218750D01*
G01*
X75050000Y-31881250D01*
G75*
G02*
X74831250Y-32100000I-218750J0D01*
G01*
G37*
G36*
G01*
X74831250Y-33675000D02*
X74318750Y-33675000D01*
G75*
G02*
X74100000Y-33456250I0J218750D01*
G01*
X74100000Y-33018750D01*
G75*
G02*
X74318750Y-32800000I218750J0D01*
G01*
X74831250Y-32800000D01*
G75*
G02*
X75050000Y-33018750I0J-218750D01*
G01*
X75050000Y-33456250D01*
G75*
G02*
X74831250Y-33675000I-218750J0D01*
G01*
G37*
%TD*%
%TO.C,R38R1*%
G36*
G01*
X61700000Y-27668750D02*
X61700000Y-28181250D01*
G75*
G02*
X61481250Y-28400000I-218750J0D01*
G01*
X61043750Y-28400000D01*
G75*
G02*
X60825000Y-28181250I0J218750D01*
G01*
X60825000Y-27668750D01*
G75*
G02*
X61043750Y-27450000I218750J0D01*
G01*
X61481250Y-27450000D01*
G75*
G02*
X61700000Y-27668750I0J-218750D01*
G01*
G37*
G36*
G01*
X63275000Y-27668750D02*
X63275000Y-28181250D01*
G75*
G02*
X63056250Y-28400000I-218750J0D01*
G01*
X62618750Y-28400000D01*
G75*
G02*
X62400000Y-28181250I0J218750D01*
G01*
X62400000Y-27668750D01*
G75*
G02*
X62618750Y-27450000I218750J0D01*
G01*
X63056250Y-27450000D01*
G75*
G02*
X63275000Y-27668750I0J-218750D01*
G01*
G37*
%TD*%
%TO.C,R38L1*%
G36*
G01*
X78350000Y-28256250D02*
X78350000Y-27743750D01*
G75*
G02*
X78568750Y-27525000I218750J0D01*
G01*
X79006250Y-27525000D01*
G75*
G02*
X79225000Y-27743750I0J-218750D01*
G01*
X79225000Y-28256250D01*
G75*
G02*
X79006250Y-28475000I-218750J0D01*
G01*
X78568750Y-28475000D01*
G75*
G02*
X78350000Y-28256250I0J218750D01*
G01*
G37*
G36*
G01*
X76775000Y-28256250D02*
X76775000Y-27743750D01*
G75*
G02*
X76993750Y-27525000I218750J0D01*
G01*
X77431250Y-27525000D01*
G75*
G02*
X77650000Y-27743750I0J-218750D01*
G01*
X77650000Y-28256250D01*
G75*
G02*
X77431250Y-28475000I-218750J0D01*
G01*
X76993750Y-28475000D01*
G75*
G02*
X76775000Y-28256250I0J218750D01*
G01*
G37*
%TD*%
%TO.C,R37R1*%
G36*
G01*
X69031250Y-35537500D02*
X68518750Y-35537500D01*
G75*
G02*
X68300000Y-35318750I0J218750D01*
G01*
X68300000Y-34881250D01*
G75*
G02*
X68518750Y-34662500I218750J0D01*
G01*
X69031250Y-34662500D01*
G75*
G02*
X69250000Y-34881250I0J-218750D01*
G01*
X69250000Y-35318750D01*
G75*
G02*
X69031250Y-35537500I-218750J0D01*
G01*
G37*
G36*
G01*
X69031250Y-37112500D02*
X68518750Y-37112500D01*
G75*
G02*
X68300000Y-36893750I0J218750D01*
G01*
X68300000Y-36456250D01*
G75*
G02*
X68518750Y-36237500I218750J0D01*
G01*
X69031250Y-36237500D01*
G75*
G02*
X69250000Y-36456250I0J-218750D01*
G01*
X69250000Y-36893750D01*
G75*
G02*
X69031250Y-37112500I-218750J0D01*
G01*
G37*
%TD*%
%TO.C,R37L1*%
G36*
G01*
X71506250Y-35525000D02*
X70993750Y-35525000D01*
G75*
G02*
X70775000Y-35306250I0J218750D01*
G01*
X70775000Y-34868750D01*
G75*
G02*
X70993750Y-34650000I218750J0D01*
G01*
X71506250Y-34650000D01*
G75*
G02*
X71725000Y-34868750I0J-218750D01*
G01*
X71725000Y-35306250D01*
G75*
G02*
X71506250Y-35525000I-218750J0D01*
G01*
G37*
G36*
G01*
X71506250Y-37100000D02*
X70993750Y-37100000D01*
G75*
G02*
X70775000Y-36881250I0J218750D01*
G01*
X70775000Y-36443750D01*
G75*
G02*
X70993750Y-36225000I218750J0D01*
G01*
X71506250Y-36225000D01*
G75*
G02*
X71725000Y-36443750I0J-218750D01*
G01*
X71725000Y-36881250D01*
G75*
G02*
X71506250Y-37100000I-218750J0D01*
G01*
G37*
%TD*%
%TO.C,R21L2*%
G36*
G01*
X57256250Y-94150000D02*
X56743750Y-94150000D01*
G75*
G02*
X56525000Y-93931250I0J218750D01*
G01*
X56525000Y-93493750D01*
G75*
G02*
X56743750Y-93275000I218750J0D01*
G01*
X57256250Y-93275000D01*
G75*
G02*
X57475000Y-93493750I0J-218750D01*
G01*
X57475000Y-93931250D01*
G75*
G02*
X57256250Y-94150000I-218750J0D01*
G01*
G37*
G36*
G01*
X57256250Y-95725000D02*
X56743750Y-95725000D01*
G75*
G02*
X56525000Y-95506250I0J218750D01*
G01*
X56525000Y-95068750D01*
G75*
G02*
X56743750Y-94850000I218750J0D01*
G01*
X57256250Y-94850000D01*
G75*
G02*
X57475000Y-95068750I0J-218750D01*
G01*
X57475000Y-95506250D01*
G75*
G02*
X57256250Y-95725000I-218750J0D01*
G01*
G37*
%TD*%
%TO.C,R21L1*%
G36*
G01*
X80156250Y-94150000D02*
X79643750Y-94150000D01*
G75*
G02*
X79425000Y-93931250I0J218750D01*
G01*
X79425000Y-93493750D01*
G75*
G02*
X79643750Y-93275000I218750J0D01*
G01*
X80156250Y-93275000D01*
G75*
G02*
X80375000Y-93493750I0J-218750D01*
G01*
X80375000Y-93931250D01*
G75*
G02*
X80156250Y-94150000I-218750J0D01*
G01*
G37*
G36*
G01*
X80156250Y-95725000D02*
X79643750Y-95725000D01*
G75*
G02*
X79425000Y-95506250I0J218750D01*
G01*
X79425000Y-95068750D01*
G75*
G02*
X79643750Y-94850000I218750J0D01*
G01*
X80156250Y-94850000D01*
G75*
G02*
X80375000Y-95068750I0J-218750D01*
G01*
X80375000Y-95506250D01*
G75*
G02*
X80156250Y-95725000I-218750J0D01*
G01*
G37*
%TD*%
%TO.C,R20L2*%
G36*
G01*
X60456250Y-94150000D02*
X59943750Y-94150000D01*
G75*
G02*
X59725000Y-93931250I0J218750D01*
G01*
X59725000Y-93493750D01*
G75*
G02*
X59943750Y-93275000I218750J0D01*
G01*
X60456250Y-93275000D01*
G75*
G02*
X60675000Y-93493750I0J-218750D01*
G01*
X60675000Y-93931250D01*
G75*
G02*
X60456250Y-94150000I-218750J0D01*
G01*
G37*
G36*
G01*
X60456250Y-95725000D02*
X59943750Y-95725000D01*
G75*
G02*
X59725000Y-95506250I0J218750D01*
G01*
X59725000Y-95068750D01*
G75*
G02*
X59943750Y-94850000I218750J0D01*
G01*
X60456250Y-94850000D01*
G75*
G02*
X60675000Y-95068750I0J-218750D01*
G01*
X60675000Y-95506250D01*
G75*
G02*
X60456250Y-95725000I-218750J0D01*
G01*
G37*
%TD*%
%TO.C,R20L1*%
G36*
G01*
X76956250Y-94150000D02*
X76443750Y-94150000D01*
G75*
G02*
X76225000Y-93931250I0J218750D01*
G01*
X76225000Y-93493750D01*
G75*
G02*
X76443750Y-93275000I218750J0D01*
G01*
X76956250Y-93275000D01*
G75*
G02*
X77175000Y-93493750I0J-218750D01*
G01*
X77175000Y-93931250D01*
G75*
G02*
X76956250Y-94150000I-218750J0D01*
G01*
G37*
G36*
G01*
X76956250Y-95725000D02*
X76443750Y-95725000D01*
G75*
G02*
X76225000Y-95506250I0J218750D01*
G01*
X76225000Y-95068750D01*
G75*
G02*
X76443750Y-94850000I218750J0D01*
G01*
X76956250Y-94850000D01*
G75*
G02*
X77175000Y-95068750I0J-218750D01*
G01*
X77175000Y-95506250D01*
G75*
G02*
X76956250Y-95725000I-218750J0D01*
G01*
G37*
%TD*%
%TO.C,R19L2*%
G36*
G01*
X63656250Y-94150000D02*
X63143750Y-94150000D01*
G75*
G02*
X62925000Y-93931250I0J218750D01*
G01*
X62925000Y-93493750D01*
G75*
G02*
X63143750Y-93275000I218750J0D01*
G01*
X63656250Y-93275000D01*
G75*
G02*
X63875000Y-93493750I0J-218750D01*
G01*
X63875000Y-93931250D01*
G75*
G02*
X63656250Y-94150000I-218750J0D01*
G01*
G37*
G36*
G01*
X63656250Y-95725000D02*
X63143750Y-95725000D01*
G75*
G02*
X62925000Y-95506250I0J218750D01*
G01*
X62925000Y-95068750D01*
G75*
G02*
X63143750Y-94850000I218750J0D01*
G01*
X63656250Y-94850000D01*
G75*
G02*
X63875000Y-95068750I0J-218750D01*
G01*
X63875000Y-95506250D01*
G75*
G02*
X63656250Y-95725000I-218750J0D01*
G01*
G37*
%TD*%
%TO.C,R19L1*%
G36*
G01*
X73756250Y-94150000D02*
X73243750Y-94150000D01*
G75*
G02*
X73025000Y-93931250I0J218750D01*
G01*
X73025000Y-93493750D01*
G75*
G02*
X73243750Y-93275000I218750J0D01*
G01*
X73756250Y-93275000D01*
G75*
G02*
X73975000Y-93493750I0J-218750D01*
G01*
X73975000Y-93931250D01*
G75*
G02*
X73756250Y-94150000I-218750J0D01*
G01*
G37*
G36*
G01*
X73756250Y-95725000D02*
X73243750Y-95725000D01*
G75*
G02*
X73025000Y-95506250I0J218750D01*
G01*
X73025000Y-95068750D01*
G75*
G02*
X73243750Y-94850000I218750J0D01*
G01*
X73756250Y-94850000D01*
G75*
G02*
X73975000Y-95068750I0J-218750D01*
G01*
X73975000Y-95506250D01*
G75*
G02*
X73756250Y-95725000I-218750J0D01*
G01*
G37*
%TD*%
%TO.C,R18L2*%
G36*
G01*
X64743750Y-94850000D02*
X65256250Y-94850000D01*
G75*
G02*
X65475000Y-95068750I0J-218750D01*
G01*
X65475000Y-95506250D01*
G75*
G02*
X65256250Y-95725000I-218750J0D01*
G01*
X64743750Y-95725000D01*
G75*
G02*
X64525000Y-95506250I0J218750D01*
G01*
X64525000Y-95068750D01*
G75*
G02*
X64743750Y-94850000I218750J0D01*
G01*
G37*
G36*
G01*
X64743750Y-93275000D02*
X65256250Y-93275000D01*
G75*
G02*
X65475000Y-93493750I0J-218750D01*
G01*
X65475000Y-93931250D01*
G75*
G02*
X65256250Y-94150000I-218750J0D01*
G01*
X64743750Y-94150000D01*
G75*
G02*
X64525000Y-93931250I0J218750D01*
G01*
X64525000Y-93493750D01*
G75*
G02*
X64743750Y-93275000I218750J0D01*
G01*
G37*
%TD*%
%TO.C,R18L1*%
G36*
G01*
X74843750Y-94850000D02*
X75356250Y-94850000D01*
G75*
G02*
X75575000Y-95068750I0J-218750D01*
G01*
X75575000Y-95506250D01*
G75*
G02*
X75356250Y-95725000I-218750J0D01*
G01*
X74843750Y-95725000D01*
G75*
G02*
X74625000Y-95506250I0J218750D01*
G01*
X74625000Y-95068750D01*
G75*
G02*
X74843750Y-94850000I218750J0D01*
G01*
G37*
G36*
G01*
X74843750Y-93275000D02*
X75356250Y-93275000D01*
G75*
G02*
X75575000Y-93493750I0J-218750D01*
G01*
X75575000Y-93931250D01*
G75*
G02*
X75356250Y-94150000I-218750J0D01*
G01*
X74843750Y-94150000D01*
G75*
G02*
X74625000Y-93931250I0J218750D01*
G01*
X74625000Y-93493750D01*
G75*
G02*
X74843750Y-93275000I218750J0D01*
G01*
G37*
%TD*%
%TO.C,R17L2*%
G36*
G01*
X61543750Y-94850000D02*
X62056250Y-94850000D01*
G75*
G02*
X62275000Y-95068750I0J-218750D01*
G01*
X62275000Y-95506250D01*
G75*
G02*
X62056250Y-95725000I-218750J0D01*
G01*
X61543750Y-95725000D01*
G75*
G02*
X61325000Y-95506250I0J218750D01*
G01*
X61325000Y-95068750D01*
G75*
G02*
X61543750Y-94850000I218750J0D01*
G01*
G37*
G36*
G01*
X61543750Y-93275000D02*
X62056250Y-93275000D01*
G75*
G02*
X62275000Y-93493750I0J-218750D01*
G01*
X62275000Y-93931250D01*
G75*
G02*
X62056250Y-94150000I-218750J0D01*
G01*
X61543750Y-94150000D01*
G75*
G02*
X61325000Y-93931250I0J218750D01*
G01*
X61325000Y-93493750D01*
G75*
G02*
X61543750Y-93275000I218750J0D01*
G01*
G37*
%TD*%
%TO.C,R17L1*%
G36*
G01*
X78043750Y-94850000D02*
X78556250Y-94850000D01*
G75*
G02*
X78775000Y-95068750I0J-218750D01*
G01*
X78775000Y-95506250D01*
G75*
G02*
X78556250Y-95725000I-218750J0D01*
G01*
X78043750Y-95725000D01*
G75*
G02*
X77825000Y-95506250I0J218750D01*
G01*
X77825000Y-95068750D01*
G75*
G02*
X78043750Y-94850000I218750J0D01*
G01*
G37*
G36*
G01*
X78043750Y-93275000D02*
X78556250Y-93275000D01*
G75*
G02*
X78775000Y-93493750I0J-218750D01*
G01*
X78775000Y-93931250D01*
G75*
G02*
X78556250Y-94150000I-218750J0D01*
G01*
X78043750Y-94150000D01*
G75*
G02*
X77825000Y-93931250I0J218750D01*
G01*
X77825000Y-93493750D01*
G75*
G02*
X78043750Y-93275000I218750J0D01*
G01*
G37*
%TD*%
%TO.C,R16L2*%
G36*
G01*
X58343750Y-94850000D02*
X58856250Y-94850000D01*
G75*
G02*
X59075000Y-95068750I0J-218750D01*
G01*
X59075000Y-95506250D01*
G75*
G02*
X58856250Y-95725000I-218750J0D01*
G01*
X58343750Y-95725000D01*
G75*
G02*
X58125000Y-95506250I0J218750D01*
G01*
X58125000Y-95068750D01*
G75*
G02*
X58343750Y-94850000I218750J0D01*
G01*
G37*
G36*
G01*
X58343750Y-93275000D02*
X58856250Y-93275000D01*
G75*
G02*
X59075000Y-93493750I0J-218750D01*
G01*
X59075000Y-93931250D01*
G75*
G02*
X58856250Y-94150000I-218750J0D01*
G01*
X58343750Y-94150000D01*
G75*
G02*
X58125000Y-93931250I0J218750D01*
G01*
X58125000Y-93493750D01*
G75*
G02*
X58343750Y-93275000I218750J0D01*
G01*
G37*
%TD*%
%TO.C,R16L1*%
G36*
G01*
X81243750Y-94850000D02*
X81756250Y-94850000D01*
G75*
G02*
X81975000Y-95068750I0J-218750D01*
G01*
X81975000Y-95506250D01*
G75*
G02*
X81756250Y-95725000I-218750J0D01*
G01*
X81243750Y-95725000D01*
G75*
G02*
X81025000Y-95506250I0J218750D01*
G01*
X81025000Y-95068750D01*
G75*
G02*
X81243750Y-94850000I218750J0D01*
G01*
G37*
G36*
G01*
X81243750Y-93275000D02*
X81756250Y-93275000D01*
G75*
G02*
X81975000Y-93493750I0J-218750D01*
G01*
X81975000Y-93931250D01*
G75*
G02*
X81756250Y-94150000I-218750J0D01*
G01*
X81243750Y-94150000D01*
G75*
G02*
X81025000Y-93931250I0J218750D01*
G01*
X81025000Y-93493750D01*
G75*
G02*
X81243750Y-93275000I218750J0D01*
G01*
G37*
%TD*%
%TO.C,R56*%
G36*
G01*
X48256250Y-91650000D02*
X47743750Y-91650000D01*
G75*
G02*
X47525000Y-91431250I0J218750D01*
G01*
X47525000Y-90993750D01*
G75*
G02*
X47743750Y-90775000I218750J0D01*
G01*
X48256250Y-90775000D01*
G75*
G02*
X48475000Y-90993750I0J-218750D01*
G01*
X48475000Y-91431250D01*
G75*
G02*
X48256250Y-91650000I-218750J0D01*
G01*
G37*
G36*
G01*
X48256250Y-93225000D02*
X47743750Y-93225000D01*
G75*
G02*
X47525000Y-93006250I0J218750D01*
G01*
X47525000Y-92568750D01*
G75*
G02*
X47743750Y-92350000I218750J0D01*
G01*
X48256250Y-92350000D01*
G75*
G02*
X48475000Y-92568750I0J-218750D01*
G01*
X48475000Y-93006250D01*
G75*
G02*
X48256250Y-93225000I-218750J0D01*
G01*
G37*
%TD*%
%TO.C,R55*%
G36*
G01*
X55268750Y-28300000D02*
X55781250Y-28300000D01*
G75*
G02*
X56000000Y-28518750I0J-218750D01*
G01*
X56000000Y-28956250D01*
G75*
G02*
X55781250Y-29175000I-218750J0D01*
G01*
X55268750Y-29175000D01*
G75*
G02*
X55050000Y-28956250I0J218750D01*
G01*
X55050000Y-28518750D01*
G75*
G02*
X55268750Y-28300000I218750J0D01*
G01*
G37*
G36*
G01*
X55268750Y-26725000D02*
X55781250Y-26725000D01*
G75*
G02*
X56000000Y-26943750I0J-218750D01*
G01*
X56000000Y-27381250D01*
G75*
G02*
X55781250Y-27600000I-218750J0D01*
G01*
X55268750Y-27600000D01*
G75*
G02*
X55050000Y-27381250I0J218750D01*
G01*
X55050000Y-26943750D01*
G75*
G02*
X55268750Y-26725000I218750J0D01*
G01*
G37*
%TD*%
%TO.C,R54*%
G36*
G01*
X53768750Y-28300000D02*
X54281250Y-28300000D01*
G75*
G02*
X54500000Y-28518750I0J-218750D01*
G01*
X54500000Y-28956250D01*
G75*
G02*
X54281250Y-29175000I-218750J0D01*
G01*
X53768750Y-29175000D01*
G75*
G02*
X53550000Y-28956250I0J218750D01*
G01*
X53550000Y-28518750D01*
G75*
G02*
X53768750Y-28300000I218750J0D01*
G01*
G37*
G36*
G01*
X53768750Y-26725000D02*
X54281250Y-26725000D01*
G75*
G02*
X54500000Y-26943750I0J-218750D01*
G01*
X54500000Y-27381250D01*
G75*
G02*
X54281250Y-27600000I-218750J0D01*
G01*
X53768750Y-27600000D01*
G75*
G02*
X53550000Y-27381250I0J218750D01*
G01*
X53550000Y-26943750D01*
G75*
G02*
X53768750Y-26725000I218750J0D01*
G01*
G37*
%TD*%
%TO.C,R53*%
G36*
G01*
X52781250Y-27600000D02*
X52268750Y-27600000D01*
G75*
G02*
X52050000Y-27381250I0J218750D01*
G01*
X52050000Y-26943750D01*
G75*
G02*
X52268750Y-26725000I218750J0D01*
G01*
X52781250Y-26725000D01*
G75*
G02*
X53000000Y-26943750I0J-218750D01*
G01*
X53000000Y-27381250D01*
G75*
G02*
X52781250Y-27600000I-218750J0D01*
G01*
G37*
G36*
G01*
X52781250Y-29175000D02*
X52268750Y-29175000D01*
G75*
G02*
X52050000Y-28956250I0J218750D01*
G01*
X52050000Y-28518750D01*
G75*
G02*
X52268750Y-28300000I218750J0D01*
G01*
X52781250Y-28300000D01*
G75*
G02*
X53000000Y-28518750I0J-218750D01*
G01*
X53000000Y-28956250D01*
G75*
G02*
X52781250Y-29175000I-218750J0D01*
G01*
G37*
%TD*%
%TO.C,R44*%
G36*
G01*
X45875000Y-35206250D02*
X45875000Y-34693750D01*
G75*
G02*
X46093750Y-34475000I218750J0D01*
G01*
X46531250Y-34475000D01*
G75*
G02*
X46750000Y-34693750I0J-218750D01*
G01*
X46750000Y-35206250D01*
G75*
G02*
X46531250Y-35425000I-218750J0D01*
G01*
X46093750Y-35425000D01*
G75*
G02*
X45875000Y-35206250I0J218750D01*
G01*
G37*
G36*
G01*
X44300000Y-35206250D02*
X44300000Y-34693750D01*
G75*
G02*
X44518750Y-34475000I218750J0D01*
G01*
X44956250Y-34475000D01*
G75*
G02*
X45175000Y-34693750I0J-218750D01*
G01*
X45175000Y-35206250D01*
G75*
G02*
X44956250Y-35425000I-218750J0D01*
G01*
X44518750Y-35425000D01*
G75*
G02*
X44300000Y-35206250I0J218750D01*
G01*
G37*
%TD*%
%TO.C,R43*%
G36*
G01*
X45875000Y-33706250D02*
X45875000Y-33193750D01*
G75*
G02*
X46093750Y-32975000I218750J0D01*
G01*
X46531250Y-32975000D01*
G75*
G02*
X46750000Y-33193750I0J-218750D01*
G01*
X46750000Y-33706250D01*
G75*
G02*
X46531250Y-33925000I-218750J0D01*
G01*
X46093750Y-33925000D01*
G75*
G02*
X45875000Y-33706250I0J218750D01*
G01*
G37*
G36*
G01*
X44300000Y-33706250D02*
X44300000Y-33193750D01*
G75*
G02*
X44518750Y-32975000I218750J0D01*
G01*
X44956250Y-32975000D01*
G75*
G02*
X45175000Y-33193750I0J-218750D01*
G01*
X45175000Y-33706250D01*
G75*
G02*
X44956250Y-33925000I-218750J0D01*
G01*
X44518750Y-33925000D01*
G75*
G02*
X44300000Y-33706250I0J218750D01*
G01*
G37*
%TD*%
%TO.C,R42*%
G36*
G01*
X45875000Y-32206250D02*
X45875000Y-31693750D01*
G75*
G02*
X46093750Y-31475000I218750J0D01*
G01*
X46531250Y-31475000D01*
G75*
G02*
X46750000Y-31693750I0J-218750D01*
G01*
X46750000Y-32206250D01*
G75*
G02*
X46531250Y-32425000I-218750J0D01*
G01*
X46093750Y-32425000D01*
G75*
G02*
X45875000Y-32206250I0J218750D01*
G01*
G37*
G36*
G01*
X44300000Y-32206250D02*
X44300000Y-31693750D01*
G75*
G02*
X44518750Y-31475000I218750J0D01*
G01*
X44956250Y-31475000D01*
G75*
G02*
X45175000Y-31693750I0J-218750D01*
G01*
X45175000Y-32206250D01*
G75*
G02*
X44956250Y-32425000I-218750J0D01*
G01*
X44518750Y-32425000D01*
G75*
G02*
X44300000Y-32206250I0J218750D01*
G01*
G37*
%TD*%
%TO.C,R41*%
G36*
G01*
X45875000Y-30706250D02*
X45875000Y-30193750D01*
G75*
G02*
X46093750Y-29975000I218750J0D01*
G01*
X46531250Y-29975000D01*
G75*
G02*
X46750000Y-30193750I0J-218750D01*
G01*
X46750000Y-30706250D01*
G75*
G02*
X46531250Y-30925000I-218750J0D01*
G01*
X46093750Y-30925000D01*
G75*
G02*
X45875000Y-30706250I0J218750D01*
G01*
G37*
G36*
G01*
X44300000Y-30706250D02*
X44300000Y-30193750D01*
G75*
G02*
X44518750Y-29975000I218750J0D01*
G01*
X44956250Y-29975000D01*
G75*
G02*
X45175000Y-30193750I0J-218750D01*
G01*
X45175000Y-30706250D01*
G75*
G02*
X44956250Y-30925000I-218750J0D01*
G01*
X44518750Y-30925000D01*
G75*
G02*
X44300000Y-30706250I0J218750D01*
G01*
G37*
%TD*%
%TO.C,R40*%
G36*
G01*
X59366250Y-51695000D02*
X58853750Y-51695000D01*
G75*
G02*
X58635000Y-51476250I0J218750D01*
G01*
X58635000Y-51038750D01*
G75*
G02*
X58853750Y-50820000I218750J0D01*
G01*
X59366250Y-50820000D01*
G75*
G02*
X59585000Y-51038750I0J-218750D01*
G01*
X59585000Y-51476250D01*
G75*
G02*
X59366250Y-51695000I-218750J0D01*
G01*
G37*
G36*
G01*
X59366250Y-53270000D02*
X58853750Y-53270000D01*
G75*
G02*
X58635000Y-53051250I0J218750D01*
G01*
X58635000Y-52613750D01*
G75*
G02*
X58853750Y-52395000I218750J0D01*
G01*
X59366250Y-52395000D01*
G75*
G02*
X59585000Y-52613750I0J-218750D01*
G01*
X59585000Y-53051250D01*
G75*
G02*
X59366250Y-53270000I-218750J0D01*
G01*
G37*
%TD*%
%TO.C,R39*%
G36*
G01*
X61066250Y-51720000D02*
X60553750Y-51720000D01*
G75*
G02*
X60335000Y-51501250I0J218750D01*
G01*
X60335000Y-51063750D01*
G75*
G02*
X60553750Y-50845000I218750J0D01*
G01*
X61066250Y-50845000D01*
G75*
G02*
X61285000Y-51063750I0J-218750D01*
G01*
X61285000Y-51501250D01*
G75*
G02*
X61066250Y-51720000I-218750J0D01*
G01*
G37*
G36*
G01*
X61066250Y-53295000D02*
X60553750Y-53295000D01*
G75*
G02*
X60335000Y-53076250I0J218750D01*
G01*
X60335000Y-52638750D01*
G75*
G02*
X60553750Y-52420000I218750J0D01*
G01*
X61066250Y-52420000D01*
G75*
G02*
X61285000Y-52638750I0J-218750D01*
G01*
X61285000Y-53076250D01*
G75*
G02*
X61066250Y-53295000I-218750J0D01*
G01*
G37*
%TD*%
%TO.C,R38*%
G36*
G01*
X89743750Y-95350000D02*
X90256250Y-95350000D01*
G75*
G02*
X90475000Y-95568750I0J-218750D01*
G01*
X90475000Y-96006250D01*
G75*
G02*
X90256250Y-96225000I-218750J0D01*
G01*
X89743750Y-96225000D01*
G75*
G02*
X89525000Y-96006250I0J218750D01*
G01*
X89525000Y-95568750D01*
G75*
G02*
X89743750Y-95350000I218750J0D01*
G01*
G37*
G36*
G01*
X89743750Y-93775000D02*
X90256250Y-93775000D01*
G75*
G02*
X90475000Y-93993750I0J-218750D01*
G01*
X90475000Y-94431250D01*
G75*
G02*
X90256250Y-94650000I-218750J0D01*
G01*
X89743750Y-94650000D01*
G75*
G02*
X89525000Y-94431250I0J218750D01*
G01*
X89525000Y-93993750D01*
G75*
G02*
X89743750Y-93775000I218750J0D01*
G01*
G37*
%TD*%
%TO.C,R37*%
G36*
G01*
X46243750Y-95350000D02*
X46756250Y-95350000D01*
G75*
G02*
X46975000Y-95568750I0J-218750D01*
G01*
X46975000Y-96006250D01*
G75*
G02*
X46756250Y-96225000I-218750J0D01*
G01*
X46243750Y-96225000D01*
G75*
G02*
X46025000Y-96006250I0J218750D01*
G01*
X46025000Y-95568750D01*
G75*
G02*
X46243750Y-95350000I218750J0D01*
G01*
G37*
G36*
G01*
X46243750Y-93775000D02*
X46756250Y-93775000D01*
G75*
G02*
X46975000Y-93993750I0J-218750D01*
G01*
X46975000Y-94431250D01*
G75*
G02*
X46756250Y-94650000I-218750J0D01*
G01*
X46243750Y-94650000D01*
G75*
G02*
X46025000Y-94431250I0J218750D01*
G01*
X46025000Y-93993750D01*
G75*
G02*
X46243750Y-93775000I218750J0D01*
G01*
G37*
%TD*%
%TO.C,R36*%
G36*
G01*
X91243750Y-95350000D02*
X91756250Y-95350000D01*
G75*
G02*
X91975000Y-95568750I0J-218750D01*
G01*
X91975000Y-96006250D01*
G75*
G02*
X91756250Y-96225000I-218750J0D01*
G01*
X91243750Y-96225000D01*
G75*
G02*
X91025000Y-96006250I0J218750D01*
G01*
X91025000Y-95568750D01*
G75*
G02*
X91243750Y-95350000I218750J0D01*
G01*
G37*
G36*
G01*
X91243750Y-93775000D02*
X91756250Y-93775000D01*
G75*
G02*
X91975000Y-93993750I0J-218750D01*
G01*
X91975000Y-94431250D01*
G75*
G02*
X91756250Y-94650000I-218750J0D01*
G01*
X91243750Y-94650000D01*
G75*
G02*
X91025000Y-94431250I0J218750D01*
G01*
X91025000Y-93993750D01*
G75*
G02*
X91243750Y-93775000I218750J0D01*
G01*
G37*
%TD*%
%TO.C,R35*%
G36*
G01*
X44743750Y-95350000D02*
X45256250Y-95350000D01*
G75*
G02*
X45475000Y-95568750I0J-218750D01*
G01*
X45475000Y-96006250D01*
G75*
G02*
X45256250Y-96225000I-218750J0D01*
G01*
X44743750Y-96225000D01*
G75*
G02*
X44525000Y-96006250I0J218750D01*
G01*
X44525000Y-95568750D01*
G75*
G02*
X44743750Y-95350000I218750J0D01*
G01*
G37*
G36*
G01*
X44743750Y-93775000D02*
X45256250Y-93775000D01*
G75*
G02*
X45475000Y-93993750I0J-218750D01*
G01*
X45475000Y-94431250D01*
G75*
G02*
X45256250Y-94650000I-218750J0D01*
G01*
X44743750Y-94650000D01*
G75*
G02*
X44525000Y-94431250I0J218750D01*
G01*
X44525000Y-93993750D01*
G75*
G02*
X44743750Y-93775000I218750J0D01*
G01*
G37*
%TD*%
%TO.C,R34*%
G36*
G01*
X26275000Y-44125000D02*
X26275000Y-42875000D01*
G75*
G02*
X26525000Y-42625000I250000J0D01*
G01*
X27275000Y-42625000D01*
G75*
G02*
X27525000Y-42875000I0J-250000D01*
G01*
X27525000Y-44125000D01*
G75*
G02*
X27275000Y-44375000I-250000J0D01*
G01*
X26525000Y-44375000D01*
G75*
G02*
X26275000Y-44125000I0J250000D01*
G01*
G37*
G36*
G01*
X23475000Y-44125000D02*
X23475000Y-42875000D01*
G75*
G02*
X23725000Y-42625000I250000J0D01*
G01*
X24475000Y-42625000D01*
G75*
G02*
X24725000Y-42875000I0J-250000D01*
G01*
X24725000Y-44125000D01*
G75*
G02*
X24475000Y-44375000I-250000J0D01*
G01*
X23725000Y-44375000D01*
G75*
G02*
X23475000Y-44125000I0J250000D01*
G01*
G37*
%TD*%
%TO.C,R33*%
G36*
G01*
X32775000Y-27625000D02*
X32775000Y-26375000D01*
G75*
G02*
X33025000Y-26125000I250000J0D01*
G01*
X33775000Y-26125000D01*
G75*
G02*
X34025000Y-26375000I0J-250000D01*
G01*
X34025000Y-27625000D01*
G75*
G02*
X33775000Y-27875000I-250000J0D01*
G01*
X33025000Y-27875000D01*
G75*
G02*
X32775000Y-27625000I0J250000D01*
G01*
G37*
G36*
G01*
X29975000Y-27625000D02*
X29975000Y-26375000D01*
G75*
G02*
X30225000Y-26125000I250000J0D01*
G01*
X30975000Y-26125000D01*
G75*
G02*
X31225000Y-26375000I0J-250000D01*
G01*
X31225000Y-27625000D01*
G75*
G02*
X30975000Y-27875000I-250000J0D01*
G01*
X30225000Y-27875000D01*
G75*
G02*
X29975000Y-27625000I0J250000D01*
G01*
G37*
%TD*%
%TO.C,R32*%
G36*
G01*
X26775000Y-70125000D02*
X26775000Y-68875000D01*
G75*
G02*
X27025000Y-68625000I250000J0D01*
G01*
X27775000Y-68625000D01*
G75*
G02*
X28025000Y-68875000I0J-250000D01*
G01*
X28025000Y-70125000D01*
G75*
G02*
X27775000Y-70375000I-250000J0D01*
G01*
X27025000Y-70375000D01*
G75*
G02*
X26775000Y-70125000I0J250000D01*
G01*
G37*
G36*
G01*
X23975000Y-70125000D02*
X23975000Y-68875000D01*
G75*
G02*
X24225000Y-68625000I250000J0D01*
G01*
X24975000Y-68625000D01*
G75*
G02*
X25225000Y-68875000I0J-250000D01*
G01*
X25225000Y-70125000D01*
G75*
G02*
X24975000Y-70375000I-250000J0D01*
G01*
X24225000Y-70375000D01*
G75*
G02*
X23975000Y-70125000I0J250000D01*
G01*
G37*
%TD*%
%TO.C,R31*%
G36*
G01*
X44250000Y-63256250D02*
X44250000Y-62743750D01*
G75*
G02*
X44468750Y-62525000I218750J0D01*
G01*
X44906250Y-62525000D01*
G75*
G02*
X45125000Y-62743750I0J-218750D01*
G01*
X45125000Y-63256250D01*
G75*
G02*
X44906250Y-63475000I-218750J0D01*
G01*
X44468750Y-63475000D01*
G75*
G02*
X44250000Y-63256250I0J218750D01*
G01*
G37*
G36*
G01*
X42675000Y-63256250D02*
X42675000Y-62743750D01*
G75*
G02*
X42893750Y-62525000I218750J0D01*
G01*
X43331250Y-62525000D01*
G75*
G02*
X43550000Y-62743750I0J-218750D01*
G01*
X43550000Y-63256250D01*
G75*
G02*
X43331250Y-63475000I-218750J0D01*
G01*
X42893750Y-63475000D01*
G75*
G02*
X42675000Y-63256250I0J218750D01*
G01*
G37*
%TD*%
%TO.C,R30*%
G36*
G01*
X45550000Y-56243750D02*
X45550000Y-56756250D01*
G75*
G02*
X45331250Y-56975000I-218750J0D01*
G01*
X44893750Y-56975000D01*
G75*
G02*
X44675000Y-56756250I0J218750D01*
G01*
X44675000Y-56243750D01*
G75*
G02*
X44893750Y-56025000I218750J0D01*
G01*
X45331250Y-56025000D01*
G75*
G02*
X45550000Y-56243750I0J-218750D01*
G01*
G37*
G36*
G01*
X47125000Y-56243750D02*
X47125000Y-56756250D01*
G75*
G02*
X46906250Y-56975000I-218750J0D01*
G01*
X46468750Y-56975000D01*
G75*
G02*
X46250000Y-56756250I0J218750D01*
G01*
X46250000Y-56243750D01*
G75*
G02*
X46468750Y-56025000I218750J0D01*
G01*
X46906250Y-56025000D01*
G75*
G02*
X47125000Y-56243750I0J-218750D01*
G01*
G37*
%TD*%
%TO.C,R29*%
G36*
G01*
X44250000Y-64856250D02*
X44250000Y-64343750D01*
G75*
G02*
X44468750Y-64125000I218750J0D01*
G01*
X44906250Y-64125000D01*
G75*
G02*
X45125000Y-64343750I0J-218750D01*
G01*
X45125000Y-64856250D01*
G75*
G02*
X44906250Y-65075000I-218750J0D01*
G01*
X44468750Y-65075000D01*
G75*
G02*
X44250000Y-64856250I0J218750D01*
G01*
G37*
G36*
G01*
X42675000Y-64856250D02*
X42675000Y-64343750D01*
G75*
G02*
X42893750Y-64125000I218750J0D01*
G01*
X43331250Y-64125000D01*
G75*
G02*
X43550000Y-64343750I0J-218750D01*
G01*
X43550000Y-64856250D01*
G75*
G02*
X43331250Y-65075000I-218750J0D01*
G01*
X42893750Y-65075000D01*
G75*
G02*
X42675000Y-64856250I0J218750D01*
G01*
G37*
%TD*%
%TO.C,R28*%
G36*
G01*
X32775000Y-53625000D02*
X32775000Y-52375000D01*
G75*
G02*
X33025000Y-52125000I250000J0D01*
G01*
X33775000Y-52125000D01*
G75*
G02*
X34025000Y-52375000I0J-250000D01*
G01*
X34025000Y-53625000D01*
G75*
G02*
X33775000Y-53875000I-250000J0D01*
G01*
X33025000Y-53875000D01*
G75*
G02*
X32775000Y-53625000I0J250000D01*
G01*
G37*
G36*
G01*
X29975000Y-53625000D02*
X29975000Y-52375000D01*
G75*
G02*
X30225000Y-52125000I250000J0D01*
G01*
X30975000Y-52125000D01*
G75*
G02*
X31225000Y-52375000I0J-250000D01*
G01*
X31225000Y-53625000D01*
G75*
G02*
X30975000Y-53875000I-250000J0D01*
G01*
X30225000Y-53875000D01*
G75*
G02*
X29975000Y-53625000I0J250000D01*
G01*
G37*
%TD*%
%TO.C,R27*%
G36*
G01*
X48606250Y-57200000D02*
X48093750Y-57200000D01*
G75*
G02*
X47875000Y-56981250I0J218750D01*
G01*
X47875000Y-56543750D01*
G75*
G02*
X48093750Y-56325000I218750J0D01*
G01*
X48606250Y-56325000D01*
G75*
G02*
X48825000Y-56543750I0J-218750D01*
G01*
X48825000Y-56981250D01*
G75*
G02*
X48606250Y-57200000I-218750J0D01*
G01*
G37*
G36*
G01*
X48606250Y-58775000D02*
X48093750Y-58775000D01*
G75*
G02*
X47875000Y-58556250I0J218750D01*
G01*
X47875000Y-58118750D01*
G75*
G02*
X48093750Y-57900000I218750J0D01*
G01*
X48606250Y-57900000D01*
G75*
G02*
X48825000Y-58118750I0J-218750D01*
G01*
X48825000Y-58556250D01*
G75*
G02*
X48606250Y-58775000I-218750J0D01*
G01*
G37*
%TD*%
%TO.C,R26*%
G36*
G01*
X44000000Y-37156250D02*
X44000000Y-36643750D01*
G75*
G02*
X44218750Y-36425000I218750J0D01*
G01*
X44656250Y-36425000D01*
G75*
G02*
X44875000Y-36643750I0J-218750D01*
G01*
X44875000Y-37156250D01*
G75*
G02*
X44656250Y-37375000I-218750J0D01*
G01*
X44218750Y-37375000D01*
G75*
G02*
X44000000Y-37156250I0J218750D01*
G01*
G37*
G36*
G01*
X42425000Y-37156250D02*
X42425000Y-36643750D01*
G75*
G02*
X42643750Y-36425000I218750J0D01*
G01*
X43081250Y-36425000D01*
G75*
G02*
X43300000Y-36643750I0J-218750D01*
G01*
X43300000Y-37156250D01*
G75*
G02*
X43081250Y-37375000I-218750J0D01*
G01*
X42643750Y-37375000D01*
G75*
G02*
X42425000Y-37156250I0J218750D01*
G01*
G37*
%TD*%
%TO.C,R25*%
G36*
G01*
X46850000Y-46793750D02*
X46850000Y-47306250D01*
G75*
G02*
X46631250Y-47525000I-218750J0D01*
G01*
X46193750Y-47525000D01*
G75*
G02*
X45975000Y-47306250I0J218750D01*
G01*
X45975000Y-46793750D01*
G75*
G02*
X46193750Y-46575000I218750J0D01*
G01*
X46631250Y-46575000D01*
G75*
G02*
X46850000Y-46793750I0J-218750D01*
G01*
G37*
G36*
G01*
X48425000Y-46793750D02*
X48425000Y-47306250D01*
G75*
G02*
X48206250Y-47525000I-218750J0D01*
G01*
X47768750Y-47525000D01*
G75*
G02*
X47550000Y-47306250I0J218750D01*
G01*
X47550000Y-46793750D01*
G75*
G02*
X47768750Y-46575000I218750J0D01*
G01*
X48206250Y-46575000D01*
G75*
G02*
X48425000Y-46793750I0J-218750D01*
G01*
G37*
%TD*%
%TO.C,R24*%
G36*
G01*
X44000000Y-38706250D02*
X44000000Y-38193750D01*
G75*
G02*
X44218750Y-37975000I218750J0D01*
G01*
X44656250Y-37975000D01*
G75*
G02*
X44875000Y-38193750I0J-218750D01*
G01*
X44875000Y-38706250D01*
G75*
G02*
X44656250Y-38925000I-218750J0D01*
G01*
X44218750Y-38925000D01*
G75*
G02*
X44000000Y-38706250I0J218750D01*
G01*
G37*
G36*
G01*
X42425000Y-38706250D02*
X42425000Y-38193750D01*
G75*
G02*
X42643750Y-37975000I218750J0D01*
G01*
X43081250Y-37975000D01*
G75*
G02*
X43300000Y-38193750I0J-218750D01*
G01*
X43300000Y-38706250D01*
G75*
G02*
X43081250Y-38925000I-218750J0D01*
G01*
X42643750Y-38925000D01*
G75*
G02*
X42425000Y-38706250I0J218750D01*
G01*
G37*
%TD*%
%TO.C,R23*%
G36*
G01*
X44143750Y-41100000D02*
X44656250Y-41100000D01*
G75*
G02*
X44875000Y-41318750I0J-218750D01*
G01*
X44875000Y-41756250D01*
G75*
G02*
X44656250Y-41975000I-218750J0D01*
G01*
X44143750Y-41975000D01*
G75*
G02*
X43925000Y-41756250I0J218750D01*
G01*
X43925000Y-41318750D01*
G75*
G02*
X44143750Y-41100000I218750J0D01*
G01*
G37*
G36*
G01*
X44143750Y-39525000D02*
X44656250Y-39525000D01*
G75*
G02*
X44875000Y-39743750I0J-218750D01*
G01*
X44875000Y-40181250D01*
G75*
G02*
X44656250Y-40400000I-218750J0D01*
G01*
X44143750Y-40400000D01*
G75*
G02*
X43925000Y-40181250I0J218750D01*
G01*
X43925000Y-39743750D01*
G75*
G02*
X44143750Y-39525000I218750J0D01*
G01*
G37*
%TD*%
%TO.C,R22*%
G36*
G01*
X46293750Y-43250000D02*
X46806250Y-43250000D01*
G75*
G02*
X47025000Y-43468750I0J-218750D01*
G01*
X47025000Y-43906250D01*
G75*
G02*
X46806250Y-44125000I-218750J0D01*
G01*
X46293750Y-44125000D01*
G75*
G02*
X46075000Y-43906250I0J218750D01*
G01*
X46075000Y-43468750D01*
G75*
G02*
X46293750Y-43250000I218750J0D01*
G01*
G37*
G36*
G01*
X46293750Y-41675000D02*
X46806250Y-41675000D01*
G75*
G02*
X47025000Y-41893750I0J-218750D01*
G01*
X47025000Y-42331250D01*
G75*
G02*
X46806250Y-42550000I-218750J0D01*
G01*
X46293750Y-42550000D01*
G75*
G02*
X46075000Y-42331250I0J218750D01*
G01*
X46075000Y-41893750D01*
G75*
G02*
X46293750Y-41675000I218750J0D01*
G01*
G37*
%TD*%
%TO.C,R21*%
G36*
G01*
X26275000Y-96125000D02*
X26275000Y-94875000D01*
G75*
G02*
X26525000Y-94625000I250000J0D01*
G01*
X27275000Y-94625000D01*
G75*
G02*
X27525000Y-94875000I0J-250000D01*
G01*
X27525000Y-96125000D01*
G75*
G02*
X27275000Y-96375000I-250000J0D01*
G01*
X26525000Y-96375000D01*
G75*
G02*
X26275000Y-96125000I0J250000D01*
G01*
G37*
G36*
G01*
X23475000Y-96125000D02*
X23475000Y-94875000D01*
G75*
G02*
X23725000Y-94625000I250000J0D01*
G01*
X24475000Y-94625000D01*
G75*
G02*
X24725000Y-94875000I0J-250000D01*
G01*
X24725000Y-96125000D01*
G75*
G02*
X24475000Y-96375000I-250000J0D01*
G01*
X23725000Y-96375000D01*
G75*
G02*
X23475000Y-96125000I0J250000D01*
G01*
G37*
%TD*%
%TO.C,R20*%
G36*
G01*
X91267500Y-90126250D02*
X91267500Y-89613750D01*
G75*
G02*
X91486250Y-89395000I218750J0D01*
G01*
X91923750Y-89395000D01*
G75*
G02*
X92142500Y-89613750I0J-218750D01*
G01*
X92142500Y-90126250D01*
G75*
G02*
X91923750Y-90345000I-218750J0D01*
G01*
X91486250Y-90345000D01*
G75*
G02*
X91267500Y-90126250I0J218750D01*
G01*
G37*
G36*
G01*
X89692500Y-90126250D02*
X89692500Y-89613750D01*
G75*
G02*
X89911250Y-89395000I218750J0D01*
G01*
X90348750Y-89395000D01*
G75*
G02*
X90567500Y-89613750I0J-218750D01*
G01*
X90567500Y-90126250D01*
G75*
G02*
X90348750Y-90345000I-218750J0D01*
G01*
X89911250Y-90345000D01*
G75*
G02*
X89692500Y-90126250I0J218750D01*
G01*
G37*
%TD*%
%TO.C,R19*%
G36*
G01*
X56206250Y-75480000D02*
X55693750Y-75480000D01*
G75*
G02*
X55475000Y-75261250I0J218750D01*
G01*
X55475000Y-74823750D01*
G75*
G02*
X55693750Y-74605000I218750J0D01*
G01*
X56206250Y-74605000D01*
G75*
G02*
X56425000Y-74823750I0J-218750D01*
G01*
X56425000Y-75261250D01*
G75*
G02*
X56206250Y-75480000I-218750J0D01*
G01*
G37*
G36*
G01*
X56206250Y-77055000D02*
X55693750Y-77055000D01*
G75*
G02*
X55475000Y-76836250I0J218750D01*
G01*
X55475000Y-76398750D01*
G75*
G02*
X55693750Y-76180000I218750J0D01*
G01*
X56206250Y-76180000D01*
G75*
G02*
X56425000Y-76398750I0J-218750D01*
G01*
X56425000Y-76836250D01*
G75*
G02*
X56206250Y-77055000I-218750J0D01*
G01*
G37*
%TD*%
%TO.C,R18*%
G36*
G01*
X32775000Y-79625000D02*
X32775000Y-78375000D01*
G75*
G02*
X33025000Y-78125000I250000J0D01*
G01*
X33775000Y-78125000D01*
G75*
G02*
X34025000Y-78375000I0J-250000D01*
G01*
X34025000Y-79625000D01*
G75*
G02*
X33775000Y-79875000I-250000J0D01*
G01*
X33025000Y-79875000D01*
G75*
G02*
X32775000Y-79625000I0J250000D01*
G01*
G37*
G36*
G01*
X29975000Y-79625000D02*
X29975000Y-78375000D01*
G75*
G02*
X30225000Y-78125000I250000J0D01*
G01*
X30975000Y-78125000D01*
G75*
G02*
X31225000Y-78375000I0J-250000D01*
G01*
X31225000Y-79625000D01*
G75*
G02*
X30975000Y-79875000I-250000J0D01*
G01*
X30225000Y-79875000D01*
G75*
G02*
X29975000Y-79625000I0J250000D01*
G01*
G37*
%TD*%
%TO.C,R12*%
G36*
G01*
X93393750Y-54337500D02*
X93906250Y-54337500D01*
G75*
G02*
X94125000Y-54556250I0J-218750D01*
G01*
X94125000Y-54993750D01*
G75*
G02*
X93906250Y-55212500I-218750J0D01*
G01*
X93393750Y-55212500D01*
G75*
G02*
X93175000Y-54993750I0J218750D01*
G01*
X93175000Y-54556250D01*
G75*
G02*
X93393750Y-54337500I218750J0D01*
G01*
G37*
G36*
G01*
X93393750Y-52762500D02*
X93906250Y-52762500D01*
G75*
G02*
X94125000Y-52981250I0J-218750D01*
G01*
X94125000Y-53418750D01*
G75*
G02*
X93906250Y-53637500I-218750J0D01*
G01*
X93393750Y-53637500D01*
G75*
G02*
X93175000Y-53418750I0J218750D01*
G01*
X93175000Y-52981250D01*
G75*
G02*
X93393750Y-52762500I218750J0D01*
G01*
G37*
%TD*%
%TO.C,R11*%
G36*
G01*
X94650000Y-43643750D02*
X94650000Y-44156250D01*
G75*
G02*
X94431250Y-44375000I-218750J0D01*
G01*
X93993750Y-44375000D01*
G75*
G02*
X93775000Y-44156250I0J218750D01*
G01*
X93775000Y-43643750D01*
G75*
G02*
X93993750Y-43425000I218750J0D01*
G01*
X94431250Y-43425000D01*
G75*
G02*
X94650000Y-43643750I0J-218750D01*
G01*
G37*
G36*
G01*
X96225000Y-43643750D02*
X96225000Y-44156250D01*
G75*
G02*
X96006250Y-44375000I-218750J0D01*
G01*
X95568750Y-44375000D01*
G75*
G02*
X95350000Y-44156250I0J218750D01*
G01*
X95350000Y-43643750D01*
G75*
G02*
X95568750Y-43425000I218750J0D01*
G01*
X96006250Y-43425000D01*
G75*
G02*
X96225000Y-43643750I0J-218750D01*
G01*
G37*
%TD*%
%TO.C,R9*%
G36*
G01*
X91093750Y-54300000D02*
X91606250Y-54300000D01*
G75*
G02*
X91825000Y-54518750I0J-218750D01*
G01*
X91825000Y-54956250D01*
G75*
G02*
X91606250Y-55175000I-218750J0D01*
G01*
X91093750Y-55175000D01*
G75*
G02*
X90875000Y-54956250I0J218750D01*
G01*
X90875000Y-54518750D01*
G75*
G02*
X91093750Y-54300000I218750J0D01*
G01*
G37*
G36*
G01*
X91093750Y-52725000D02*
X91606250Y-52725000D01*
G75*
G02*
X91825000Y-52943750I0J-218750D01*
G01*
X91825000Y-53381250D01*
G75*
G02*
X91606250Y-53600000I-218750J0D01*
G01*
X91093750Y-53600000D01*
G75*
G02*
X90875000Y-53381250I0J218750D01*
G01*
X90875000Y-52943750D01*
G75*
G02*
X91093750Y-52725000I218750J0D01*
G01*
G37*
%TD*%
%TO.C,R8*%
G36*
G01*
X89393750Y-54312500D02*
X89906250Y-54312500D01*
G75*
G02*
X90125000Y-54531250I0J-218750D01*
G01*
X90125000Y-54968750D01*
G75*
G02*
X89906250Y-55187500I-218750J0D01*
G01*
X89393750Y-55187500D01*
G75*
G02*
X89175000Y-54968750I0J218750D01*
G01*
X89175000Y-54531250D01*
G75*
G02*
X89393750Y-54312500I218750J0D01*
G01*
G37*
G36*
G01*
X89393750Y-52737500D02*
X89906250Y-52737500D01*
G75*
G02*
X90125000Y-52956250I0J-218750D01*
G01*
X90125000Y-53393750D01*
G75*
G02*
X89906250Y-53612500I-218750J0D01*
G01*
X89393750Y-53612500D01*
G75*
G02*
X89175000Y-53393750I0J218750D01*
G01*
X89175000Y-52956250D01*
G75*
G02*
X89393750Y-52737500I218750J0D01*
G01*
G37*
%TD*%
%TO.C,R7*%
G36*
G01*
X99850000Y-48143750D02*
X99850000Y-48656250D01*
G75*
G02*
X99631250Y-48875000I-218750J0D01*
G01*
X99193750Y-48875000D01*
G75*
G02*
X98975000Y-48656250I0J218750D01*
G01*
X98975000Y-48143750D01*
G75*
G02*
X99193750Y-47925000I218750J0D01*
G01*
X99631250Y-47925000D01*
G75*
G02*
X99850000Y-48143750I0J-218750D01*
G01*
G37*
G36*
G01*
X101425000Y-48143750D02*
X101425000Y-48656250D01*
G75*
G02*
X101206250Y-48875000I-218750J0D01*
G01*
X100768750Y-48875000D01*
G75*
G02*
X100550000Y-48656250I0J218750D01*
G01*
X100550000Y-48143750D01*
G75*
G02*
X100768750Y-47925000I218750J0D01*
G01*
X101206250Y-47925000D01*
G75*
G02*
X101425000Y-48143750I0J-218750D01*
G01*
G37*
%TD*%
%TO.C,R6*%
G36*
G01*
X94393750Y-32100000D02*
X94906250Y-32100000D01*
G75*
G02*
X95125000Y-32318750I0J-218750D01*
G01*
X95125000Y-32756250D01*
G75*
G02*
X94906250Y-32975000I-218750J0D01*
G01*
X94393750Y-32975000D01*
G75*
G02*
X94175000Y-32756250I0J218750D01*
G01*
X94175000Y-32318750D01*
G75*
G02*
X94393750Y-32100000I218750J0D01*
G01*
G37*
G36*
G01*
X94393750Y-30525000D02*
X94906250Y-30525000D01*
G75*
G02*
X95125000Y-30743750I0J-218750D01*
G01*
X95125000Y-31181250D01*
G75*
G02*
X94906250Y-31400000I-218750J0D01*
G01*
X94393750Y-31400000D01*
G75*
G02*
X94175000Y-31181250I0J218750D01*
G01*
X94175000Y-30743750D01*
G75*
G02*
X94393750Y-30525000I218750J0D01*
G01*
G37*
%TD*%
%TO.C,R5*%
G36*
G01*
X99850000Y-51293750D02*
X99850000Y-51806250D01*
G75*
G02*
X99631250Y-52025000I-218750J0D01*
G01*
X99193750Y-52025000D01*
G75*
G02*
X98975000Y-51806250I0J218750D01*
G01*
X98975000Y-51293750D01*
G75*
G02*
X99193750Y-51075000I218750J0D01*
G01*
X99631250Y-51075000D01*
G75*
G02*
X99850000Y-51293750I0J-218750D01*
G01*
G37*
G36*
G01*
X101425000Y-51293750D02*
X101425000Y-51806250D01*
G75*
G02*
X101206250Y-52025000I-218750J0D01*
G01*
X100768750Y-52025000D01*
G75*
G02*
X100550000Y-51806250I0J218750D01*
G01*
X100550000Y-51293750D01*
G75*
G02*
X100768750Y-51075000I218750J0D01*
G01*
X101206250Y-51075000D01*
G75*
G02*
X101425000Y-51293750I0J-218750D01*
G01*
G37*
%TD*%
%TO.C,R4*%
G36*
G01*
X99862500Y-49743750D02*
X99862500Y-50256250D01*
G75*
G02*
X99643750Y-50475000I-218750J0D01*
G01*
X99206250Y-50475000D01*
G75*
G02*
X98987500Y-50256250I0J218750D01*
G01*
X98987500Y-49743750D01*
G75*
G02*
X99206250Y-49525000I218750J0D01*
G01*
X99643750Y-49525000D01*
G75*
G02*
X99862500Y-49743750I0J-218750D01*
G01*
G37*
G36*
G01*
X101437500Y-49743750D02*
X101437500Y-50256250D01*
G75*
G02*
X101218750Y-50475000I-218750J0D01*
G01*
X100781250Y-50475000D01*
G75*
G02*
X100562500Y-50256250I0J218750D01*
G01*
X100562500Y-49743750D01*
G75*
G02*
X100781250Y-49525000I218750J0D01*
G01*
X101218750Y-49525000D01*
G75*
G02*
X101437500Y-49743750I0J-218750D01*
G01*
G37*
%TD*%
%TO.C,R3*%
G36*
G01*
X96700000Y-29043750D02*
X96700000Y-29556250D01*
G75*
G02*
X96481250Y-29775000I-218750J0D01*
G01*
X96043750Y-29775000D01*
G75*
G02*
X95825000Y-29556250I0J218750D01*
G01*
X95825000Y-29043750D01*
G75*
G02*
X96043750Y-28825000I218750J0D01*
G01*
X96481250Y-28825000D01*
G75*
G02*
X96700000Y-29043750I0J-218750D01*
G01*
G37*
G36*
G01*
X98275000Y-29043750D02*
X98275000Y-29556250D01*
G75*
G02*
X98056250Y-29775000I-218750J0D01*
G01*
X97618750Y-29775000D01*
G75*
G02*
X97400000Y-29556250I0J218750D01*
G01*
X97400000Y-29043750D01*
G75*
G02*
X97618750Y-28825000I218750J0D01*
G01*
X98056250Y-28825000D01*
G75*
G02*
X98275000Y-29043750I0J-218750D01*
G01*
G37*
%TD*%
%TO.C,R2*%
G36*
G01*
X96700000Y-30693750D02*
X96700000Y-31206250D01*
G75*
G02*
X96481250Y-31425000I-218750J0D01*
G01*
X96043750Y-31425000D01*
G75*
G02*
X95825000Y-31206250I0J218750D01*
G01*
X95825000Y-30693750D01*
G75*
G02*
X96043750Y-30475000I218750J0D01*
G01*
X96481250Y-30475000D01*
G75*
G02*
X96700000Y-30693750I0J-218750D01*
G01*
G37*
G36*
G01*
X98275000Y-30693750D02*
X98275000Y-31206250D01*
G75*
G02*
X98056250Y-31425000I-218750J0D01*
G01*
X97618750Y-31425000D01*
G75*
G02*
X97400000Y-31206250I0J218750D01*
G01*
X97400000Y-30693750D01*
G75*
G02*
X97618750Y-30475000I218750J0D01*
G01*
X98056250Y-30475000D01*
G75*
G02*
X98275000Y-30693750I0J-218750D01*
G01*
G37*
%TD*%
%TO.C,R1*%
G36*
G01*
X46556250Y-63500000D02*
X46043750Y-63500000D01*
G75*
G02*
X45825000Y-63281250I0J218750D01*
G01*
X45825000Y-62843750D01*
G75*
G02*
X46043750Y-62625000I218750J0D01*
G01*
X46556250Y-62625000D01*
G75*
G02*
X46775000Y-62843750I0J-218750D01*
G01*
X46775000Y-63281250D01*
G75*
G02*
X46556250Y-63500000I-218750J0D01*
G01*
G37*
G36*
G01*
X46556250Y-65075000D02*
X46043750Y-65075000D01*
G75*
G02*
X45825000Y-64856250I0J218750D01*
G01*
X45825000Y-64418750D01*
G75*
G02*
X46043750Y-64200000I218750J0D01*
G01*
X46556250Y-64200000D01*
G75*
G02*
X46775000Y-64418750I0J-218750D01*
G01*
X46775000Y-64856250D01*
G75*
G02*
X46556250Y-65075000I-218750J0D01*
G01*
G37*
%TD*%
D18*
%TO.C,Q6*%
X52500000Y-92000000D03*
X50500000Y-92950000D03*
X50500000Y-91050000D03*
%TD*%
D11*
%TO.C,D1AR1*%
X52150000Y-86000000D03*
X48850000Y-86000000D03*
%TD*%
%TO.C,D0AL1*%
X71050000Y-90150000D03*
X67750000Y-90150000D03*
%TD*%
%TO.C,D16*%
G36*
G01*
X48175000Y-34693750D02*
X48175000Y-35206250D01*
G75*
G02*
X47956250Y-35425000I-218750J0D01*
G01*
X47518750Y-35425000D01*
G75*
G02*
X47300000Y-35206250I0J218750D01*
G01*
X47300000Y-34693750D01*
G75*
G02*
X47518750Y-34475000I218750J0D01*
G01*
X47956250Y-34475000D01*
G75*
G02*
X48175000Y-34693750I0J-218750D01*
G01*
G37*
G36*
G01*
X49750000Y-34693750D02*
X49750000Y-35206250D01*
G75*
G02*
X49531250Y-35425000I-218750J0D01*
G01*
X49093750Y-35425000D01*
G75*
G02*
X48875000Y-35206250I0J218750D01*
G01*
X48875000Y-34693750D01*
G75*
G02*
X49093750Y-34475000I218750J0D01*
G01*
X49531250Y-34475000D01*
G75*
G02*
X49750000Y-34693750I0J-218750D01*
G01*
G37*
%TD*%
%TO.C,D15*%
G36*
G01*
X48175000Y-33193750D02*
X48175000Y-33706250D01*
G75*
G02*
X47956250Y-33925000I-218750J0D01*
G01*
X47518750Y-33925000D01*
G75*
G02*
X47300000Y-33706250I0J218750D01*
G01*
X47300000Y-33193750D01*
G75*
G02*
X47518750Y-32975000I218750J0D01*
G01*
X47956250Y-32975000D01*
G75*
G02*
X48175000Y-33193750I0J-218750D01*
G01*
G37*
G36*
G01*
X49750000Y-33193750D02*
X49750000Y-33706250D01*
G75*
G02*
X49531250Y-33925000I-218750J0D01*
G01*
X49093750Y-33925000D01*
G75*
G02*
X48875000Y-33706250I0J218750D01*
G01*
X48875000Y-33193750D01*
G75*
G02*
X49093750Y-32975000I218750J0D01*
G01*
X49531250Y-32975000D01*
G75*
G02*
X49750000Y-33193750I0J-218750D01*
G01*
G37*
%TD*%
%TO.C,D14*%
G36*
G01*
X48175000Y-31693750D02*
X48175000Y-32206250D01*
G75*
G02*
X47956250Y-32425000I-218750J0D01*
G01*
X47518750Y-32425000D01*
G75*
G02*
X47300000Y-32206250I0J218750D01*
G01*
X47300000Y-31693750D01*
G75*
G02*
X47518750Y-31475000I218750J0D01*
G01*
X47956250Y-31475000D01*
G75*
G02*
X48175000Y-31693750I0J-218750D01*
G01*
G37*
G36*
G01*
X49750000Y-31693750D02*
X49750000Y-32206250D01*
G75*
G02*
X49531250Y-32425000I-218750J0D01*
G01*
X49093750Y-32425000D01*
G75*
G02*
X48875000Y-32206250I0J218750D01*
G01*
X48875000Y-31693750D01*
G75*
G02*
X49093750Y-31475000I218750J0D01*
G01*
X49531250Y-31475000D01*
G75*
G02*
X49750000Y-31693750I0J-218750D01*
G01*
G37*
%TD*%
%TO.C,D13*%
G36*
G01*
X48175000Y-30193750D02*
X48175000Y-30706250D01*
G75*
G02*
X47956250Y-30925000I-218750J0D01*
G01*
X47518750Y-30925000D01*
G75*
G02*
X47300000Y-30706250I0J218750D01*
G01*
X47300000Y-30193750D01*
G75*
G02*
X47518750Y-29975000I218750J0D01*
G01*
X47956250Y-29975000D01*
G75*
G02*
X48175000Y-30193750I0J-218750D01*
G01*
G37*
G36*
G01*
X49750000Y-30193750D02*
X49750000Y-30706250D01*
G75*
G02*
X49531250Y-30925000I-218750J0D01*
G01*
X49093750Y-30925000D01*
G75*
G02*
X48875000Y-30706250I0J218750D01*
G01*
X48875000Y-30193750D01*
G75*
G02*
X49093750Y-29975000I218750J0D01*
G01*
X49531250Y-29975000D01*
G75*
G02*
X49750000Y-30193750I0J-218750D01*
G01*
G37*
%TD*%
%TO.C,D12*%
X64390000Y-51700000D03*
X67690000Y-51700000D03*
%TD*%
%TO.C,D11*%
X39150000Y-37000000D03*
X35850000Y-37000000D03*
%TD*%
%TO.C,D10*%
X39150000Y-63000000D03*
X35850000Y-63000000D03*
%TD*%
%TO.C,D9*%
X39150000Y-88500000D03*
X35850000Y-88500000D03*
%TD*%
%TO.C,D8*%
X100850000Y-31000000D03*
X104150000Y-31000000D03*
%TD*%
%TO.C,D7*%
X100850000Y-57000000D03*
X104150000Y-57000000D03*
%TD*%
D12*
%TO.C,D6*%
X97450000Y-48350000D03*
X97450000Y-51650000D03*
%TD*%
D11*
%TO.C,D5*%
X47450000Y-60950000D03*
X44150000Y-60950000D03*
%TD*%
D12*
%TO.C,D4*%
X46400000Y-40200000D03*
X46400000Y-36900000D03*
%TD*%
%TO.C,D3*%
X93650000Y-38300000D03*
X93650000Y-35000000D03*
%TD*%
%TO.C,D2*%
G36*
G01*
X93780000Y-89613750D02*
X93780000Y-90126250D01*
G75*
G02*
X93561250Y-90345000I-218750J0D01*
G01*
X93123750Y-90345000D01*
G75*
G02*
X92905000Y-90126250I0J218750D01*
G01*
X92905000Y-89613750D01*
G75*
G02*
X93123750Y-89395000I218750J0D01*
G01*
X93561250Y-89395000D01*
G75*
G02*
X93780000Y-89613750I0J-218750D01*
G01*
G37*
G36*
G01*
X95355000Y-89613750D02*
X95355000Y-90126250D01*
G75*
G02*
X95136250Y-90345000I-218750J0D01*
G01*
X94698750Y-90345000D01*
G75*
G02*
X94480000Y-90126250I0J218750D01*
G01*
X94480000Y-89613750D01*
G75*
G02*
X94698750Y-89395000I218750J0D01*
G01*
X95136250Y-89395000D01*
G75*
G02*
X95355000Y-89613750I0J-218750D01*
G01*
G37*
%TD*%
D11*
%TO.C,D1*%
X100850000Y-83000000D03*
X104150000Y-83000000D03*
%TD*%
%TO.C,C18R1*%
G36*
G01*
X67650000Y-33318750D02*
X67650000Y-33831250D01*
G75*
G02*
X67431250Y-34050000I-218750J0D01*
G01*
X66993750Y-34050000D01*
G75*
G02*
X66775000Y-33831250I0J218750D01*
G01*
X66775000Y-33318750D01*
G75*
G02*
X66993750Y-33100000I218750J0D01*
G01*
X67431250Y-33100000D01*
G75*
G02*
X67650000Y-33318750I0J-218750D01*
G01*
G37*
G36*
G01*
X69225000Y-33318750D02*
X69225000Y-33831250D01*
G75*
G02*
X69006250Y-34050000I-218750J0D01*
G01*
X68568750Y-34050000D01*
G75*
G02*
X68350000Y-33831250I0J218750D01*
G01*
X68350000Y-33318750D01*
G75*
G02*
X68568750Y-33100000I218750J0D01*
G01*
X69006250Y-33100000D01*
G75*
G02*
X69225000Y-33318750I0J-218750D01*
G01*
G37*
%TD*%
%TO.C,C18L1*%
G36*
G01*
X71978000Y-34081250D02*
X71978000Y-33568750D01*
G75*
G02*
X72196750Y-33350000I218750J0D01*
G01*
X72634250Y-33350000D01*
G75*
G02*
X72853000Y-33568750I0J-218750D01*
G01*
X72853000Y-34081250D01*
G75*
G02*
X72634250Y-34300000I-218750J0D01*
G01*
X72196750Y-34300000D01*
G75*
G02*
X71978000Y-34081250I0J218750D01*
G01*
G37*
G36*
G01*
X70403000Y-34081250D02*
X70403000Y-33568750D01*
G75*
G02*
X70621750Y-33350000I218750J0D01*
G01*
X71059250Y-33350000D01*
G75*
G02*
X71278000Y-33568750I0J-218750D01*
G01*
X71278000Y-34081250D01*
G75*
G02*
X71059250Y-34300000I-218750J0D01*
G01*
X70621750Y-34300000D01*
G75*
G02*
X70403000Y-34081250I0J218750D01*
G01*
G37*
%TD*%
%TO.C,C37*%
G36*
G01*
X62816250Y-51770000D02*
X62303750Y-51770000D01*
G75*
G02*
X62085000Y-51551250I0J218750D01*
G01*
X62085000Y-51113750D01*
G75*
G02*
X62303750Y-50895000I218750J0D01*
G01*
X62816250Y-50895000D01*
G75*
G02*
X63035000Y-51113750I0J-218750D01*
G01*
X63035000Y-51551250D01*
G75*
G02*
X62816250Y-51770000I-218750J0D01*
G01*
G37*
G36*
G01*
X62816250Y-53345000D02*
X62303750Y-53345000D01*
G75*
G02*
X62085000Y-53126250I0J218750D01*
G01*
X62085000Y-52688750D01*
G75*
G02*
X62303750Y-52470000I218750J0D01*
G01*
X62816250Y-52470000D01*
G75*
G02*
X63035000Y-52688750I0J-218750D01*
G01*
X63035000Y-53126250D01*
G75*
G02*
X62816250Y-53345000I-218750J0D01*
G01*
G37*
%TD*%
%TO.C,C10*%
G36*
G01*
X50106250Y-53000000D02*
X49593750Y-53000000D01*
G75*
G02*
X49375000Y-52781250I0J218750D01*
G01*
X49375000Y-52343750D01*
G75*
G02*
X49593750Y-52125000I218750J0D01*
G01*
X50106250Y-52125000D01*
G75*
G02*
X50325000Y-52343750I0J-218750D01*
G01*
X50325000Y-52781250D01*
G75*
G02*
X50106250Y-53000000I-218750J0D01*
G01*
G37*
G36*
G01*
X50106250Y-54575000D02*
X49593750Y-54575000D01*
G75*
G02*
X49375000Y-54356250I0J218750D01*
G01*
X49375000Y-53918750D01*
G75*
G02*
X49593750Y-53700000I218750J0D01*
G01*
X50106250Y-53700000D01*
G75*
G02*
X50325000Y-53918750I0J-218750D01*
G01*
X50325000Y-54356250D01*
G75*
G02*
X50106250Y-54575000I-218750J0D01*
G01*
G37*
%TD*%
%TO.C,C7*%
G36*
G01*
X94993750Y-54300000D02*
X95506250Y-54300000D01*
G75*
G02*
X95725000Y-54518750I0J-218750D01*
G01*
X95725000Y-54956250D01*
G75*
G02*
X95506250Y-55175000I-218750J0D01*
G01*
X94993750Y-55175000D01*
G75*
G02*
X94775000Y-54956250I0J218750D01*
G01*
X94775000Y-54518750D01*
G75*
G02*
X94993750Y-54300000I218750J0D01*
G01*
G37*
G36*
G01*
X94993750Y-52725000D02*
X95506250Y-52725000D01*
G75*
G02*
X95725000Y-52943750I0J-218750D01*
G01*
X95725000Y-53381250D01*
G75*
G02*
X95506250Y-53600000I-218750J0D01*
G01*
X94993750Y-53600000D01*
G75*
G02*
X94775000Y-53381250I0J218750D01*
G01*
X94775000Y-52943750D01*
G75*
G02*
X94993750Y-52725000I218750J0D01*
G01*
G37*
%TD*%
%TO.C,C5*%
G36*
G01*
X89616250Y-57860000D02*
X89103750Y-57860000D01*
G75*
G02*
X88885000Y-57641250I0J218750D01*
G01*
X88885000Y-57203750D01*
G75*
G02*
X89103750Y-56985000I218750J0D01*
G01*
X89616250Y-56985000D01*
G75*
G02*
X89835000Y-57203750I0J-218750D01*
G01*
X89835000Y-57641250D01*
G75*
G02*
X89616250Y-57860000I-218750J0D01*
G01*
G37*
G36*
G01*
X89616250Y-59435000D02*
X89103750Y-59435000D01*
G75*
G02*
X88885000Y-59216250I0J218750D01*
G01*
X88885000Y-58778750D01*
G75*
G02*
X89103750Y-58560000I218750J0D01*
G01*
X89616250Y-58560000D01*
G75*
G02*
X89835000Y-58778750I0J-218750D01*
G01*
X89835000Y-59216250D01*
G75*
G02*
X89616250Y-59435000I-218750J0D01*
G01*
G37*
%TD*%
%TO.C,C4*%
G36*
G01*
X57193750Y-76180000D02*
X57706250Y-76180000D01*
G75*
G02*
X57925000Y-76398750I0J-218750D01*
G01*
X57925000Y-76836250D01*
G75*
G02*
X57706250Y-77055000I-218750J0D01*
G01*
X57193750Y-77055000D01*
G75*
G02*
X56975000Y-76836250I0J218750D01*
G01*
X56975000Y-76398750D01*
G75*
G02*
X57193750Y-76180000I218750J0D01*
G01*
G37*
G36*
G01*
X57193750Y-74605000D02*
X57706250Y-74605000D01*
G75*
G02*
X57925000Y-74823750I0J-218750D01*
G01*
X57925000Y-75261250D01*
G75*
G02*
X57706250Y-75480000I-218750J0D01*
G01*
X57193750Y-75480000D01*
G75*
G02*
X56975000Y-75261250I0J218750D01*
G01*
X56975000Y-74823750D01*
G75*
G02*
X57193750Y-74605000I218750J0D01*
G01*
G37*
%TD*%
%TO.C,C3*%
G36*
G01*
X76346250Y-56890000D02*
X75833750Y-56890000D01*
G75*
G02*
X75615000Y-56671250I0J218750D01*
G01*
X75615000Y-56233750D01*
G75*
G02*
X75833750Y-56015000I218750J0D01*
G01*
X76346250Y-56015000D01*
G75*
G02*
X76565000Y-56233750I0J-218750D01*
G01*
X76565000Y-56671250D01*
G75*
G02*
X76346250Y-56890000I-218750J0D01*
G01*
G37*
G36*
G01*
X76346250Y-58465000D02*
X75833750Y-58465000D01*
G75*
G02*
X75615000Y-58246250I0J218750D01*
G01*
X75615000Y-57808750D01*
G75*
G02*
X75833750Y-57590000I218750J0D01*
G01*
X76346250Y-57590000D01*
G75*
G02*
X76565000Y-57808750I0J-218750D01*
G01*
X76565000Y-58246250D01*
G75*
G02*
X76346250Y-58465000I-218750J0D01*
G01*
G37*
%TD*%
%TO.C,C2*%
G36*
G01*
X70200000Y-94243750D02*
X70200000Y-94756250D01*
G75*
G02*
X69981250Y-94975000I-218750J0D01*
G01*
X69543750Y-94975000D01*
G75*
G02*
X69325000Y-94756250I0J218750D01*
G01*
X69325000Y-94243750D01*
G75*
G02*
X69543750Y-94025000I218750J0D01*
G01*
X69981250Y-94025000D01*
G75*
G02*
X70200000Y-94243750I0J-218750D01*
G01*
G37*
G36*
G01*
X71775000Y-94243750D02*
X71775000Y-94756250D01*
G75*
G02*
X71556250Y-94975000I-218750J0D01*
G01*
X71118750Y-94975000D01*
G75*
G02*
X70900000Y-94756250I0J218750D01*
G01*
X70900000Y-94243750D01*
G75*
G02*
X71118750Y-94025000I218750J0D01*
G01*
X71556250Y-94025000D01*
G75*
G02*
X71775000Y-94243750I0J-218750D01*
G01*
G37*
%TD*%
%TO.C,U14*%
G36*
G01*
X68350000Y-31855000D02*
X68350000Y-32155000D01*
G75*
G02*
X68200000Y-32305000I-150000J0D01*
G01*
X66550000Y-32305000D01*
G75*
G02*
X66400000Y-32155000I0J150000D01*
G01*
X66400000Y-31855000D01*
G75*
G02*
X66550000Y-31705000I150000J0D01*
G01*
X68200000Y-31705000D01*
G75*
G02*
X68350000Y-31855000I0J-150000D01*
G01*
G37*
G36*
G01*
X68350000Y-30585000D02*
X68350000Y-30885000D01*
G75*
G02*
X68200000Y-31035000I-150000J0D01*
G01*
X66550000Y-31035000D01*
G75*
G02*
X66400000Y-30885000I0J150000D01*
G01*
X66400000Y-30585000D01*
G75*
G02*
X66550000Y-30435000I150000J0D01*
G01*
X68200000Y-30435000D01*
G75*
G02*
X68350000Y-30585000I0J-150000D01*
G01*
G37*
G36*
G01*
X68350000Y-29315000D02*
X68350000Y-29615000D01*
G75*
G02*
X68200000Y-29765000I-150000J0D01*
G01*
X66550000Y-29765000D01*
G75*
G02*
X66400000Y-29615000I0J150000D01*
G01*
X66400000Y-29315000D01*
G75*
G02*
X66550000Y-29165000I150000J0D01*
G01*
X68200000Y-29165000D01*
G75*
G02*
X68350000Y-29315000I0J-150000D01*
G01*
G37*
G36*
G01*
X68350000Y-28045000D02*
X68350000Y-28345000D01*
G75*
G02*
X68200000Y-28495000I-150000J0D01*
G01*
X66550000Y-28495000D01*
G75*
G02*
X66400000Y-28345000I0J150000D01*
G01*
X66400000Y-28045000D01*
G75*
G02*
X66550000Y-27895000I150000J0D01*
G01*
X68200000Y-27895000D01*
G75*
G02*
X68350000Y-28045000I0J-150000D01*
G01*
G37*
G36*
G01*
X73300000Y-28045000D02*
X73300000Y-28345000D01*
G75*
G02*
X73150000Y-28495000I-150000J0D01*
G01*
X71500000Y-28495000D01*
G75*
G02*
X71350000Y-28345000I0J150000D01*
G01*
X71350000Y-28045000D01*
G75*
G02*
X71500000Y-27895000I150000J0D01*
G01*
X73150000Y-27895000D01*
G75*
G02*
X73300000Y-28045000I0J-150000D01*
G01*
G37*
G36*
G01*
X73300000Y-29315000D02*
X73300000Y-29615000D01*
G75*
G02*
X73150000Y-29765000I-150000J0D01*
G01*
X71500000Y-29765000D01*
G75*
G02*
X71350000Y-29615000I0J150000D01*
G01*
X71350000Y-29315000D01*
G75*
G02*
X71500000Y-29165000I150000J0D01*
G01*
X73150000Y-29165000D01*
G75*
G02*
X73300000Y-29315000I0J-150000D01*
G01*
G37*
G36*
G01*
X73300000Y-30585000D02*
X73300000Y-30885000D01*
G75*
G02*
X73150000Y-31035000I-150000J0D01*
G01*
X71500000Y-31035000D01*
G75*
G02*
X71350000Y-30885000I0J150000D01*
G01*
X71350000Y-30585000D01*
G75*
G02*
X71500000Y-30435000I150000J0D01*
G01*
X73150000Y-30435000D01*
G75*
G02*
X73300000Y-30585000I0J-150000D01*
G01*
G37*
G36*
G01*
X73300000Y-31855000D02*
X73300000Y-32155000D01*
G75*
G02*
X73150000Y-32305000I-150000J0D01*
G01*
X71500000Y-32305000D01*
G75*
G02*
X71350000Y-32155000I0J150000D01*
G01*
X71350000Y-31855000D01*
G75*
G02*
X71500000Y-31705000I150000J0D01*
G01*
X73150000Y-31705000D01*
G75*
G02*
X73300000Y-31855000I0J-150000D01*
G01*
G37*
%TD*%
%TO.C,U13*%
G36*
G01*
X37500000Y-34755000D02*
X37500000Y-35055000D01*
G75*
G02*
X37350000Y-35205000I-150000J0D01*
G01*
X35700000Y-35205000D01*
G75*
G02*
X35550000Y-35055000I0J150000D01*
G01*
X35550000Y-34755000D01*
G75*
G02*
X35700000Y-34605000I150000J0D01*
G01*
X37350000Y-34605000D01*
G75*
G02*
X37500000Y-34755000I0J-150000D01*
G01*
G37*
G36*
G01*
X37500000Y-33485000D02*
X37500000Y-33785000D01*
G75*
G02*
X37350000Y-33935000I-150000J0D01*
G01*
X35700000Y-33935000D01*
G75*
G02*
X35550000Y-33785000I0J150000D01*
G01*
X35550000Y-33485000D01*
G75*
G02*
X35700000Y-33335000I150000J0D01*
G01*
X37350000Y-33335000D01*
G75*
G02*
X37500000Y-33485000I0J-150000D01*
G01*
G37*
G36*
G01*
X37500000Y-32215000D02*
X37500000Y-32515000D01*
G75*
G02*
X37350000Y-32665000I-150000J0D01*
G01*
X35700000Y-32665000D01*
G75*
G02*
X35550000Y-32515000I0J150000D01*
G01*
X35550000Y-32215000D01*
G75*
G02*
X35700000Y-32065000I150000J0D01*
G01*
X37350000Y-32065000D01*
G75*
G02*
X37500000Y-32215000I0J-150000D01*
G01*
G37*
G36*
G01*
X37500000Y-30945000D02*
X37500000Y-31245000D01*
G75*
G02*
X37350000Y-31395000I-150000J0D01*
G01*
X35700000Y-31395000D01*
G75*
G02*
X35550000Y-31245000I0J150000D01*
G01*
X35550000Y-30945000D01*
G75*
G02*
X35700000Y-30795000I150000J0D01*
G01*
X37350000Y-30795000D01*
G75*
G02*
X37500000Y-30945000I0J-150000D01*
G01*
G37*
G36*
G01*
X42450000Y-30945000D02*
X42450000Y-31245000D01*
G75*
G02*
X42300000Y-31395000I-150000J0D01*
G01*
X40650000Y-31395000D01*
G75*
G02*
X40500000Y-31245000I0J150000D01*
G01*
X40500000Y-30945000D01*
G75*
G02*
X40650000Y-30795000I150000J0D01*
G01*
X42300000Y-30795000D01*
G75*
G02*
X42450000Y-30945000I0J-150000D01*
G01*
G37*
G36*
G01*
X42450000Y-32215000D02*
X42450000Y-32515000D01*
G75*
G02*
X42300000Y-32665000I-150000J0D01*
G01*
X40650000Y-32665000D01*
G75*
G02*
X40500000Y-32515000I0J150000D01*
G01*
X40500000Y-32215000D01*
G75*
G02*
X40650000Y-32065000I150000J0D01*
G01*
X42300000Y-32065000D01*
G75*
G02*
X42450000Y-32215000I0J-150000D01*
G01*
G37*
G36*
G01*
X42450000Y-33485000D02*
X42450000Y-33785000D01*
G75*
G02*
X42300000Y-33935000I-150000J0D01*
G01*
X40650000Y-33935000D01*
G75*
G02*
X40500000Y-33785000I0J150000D01*
G01*
X40500000Y-33485000D01*
G75*
G02*
X40650000Y-33335000I150000J0D01*
G01*
X42300000Y-33335000D01*
G75*
G02*
X42450000Y-33485000I0J-150000D01*
G01*
G37*
G36*
G01*
X42450000Y-34755000D02*
X42450000Y-35055000D01*
G75*
G02*
X42300000Y-35205000I-150000J0D01*
G01*
X40650000Y-35205000D01*
G75*
G02*
X40500000Y-35055000I0J150000D01*
G01*
X40500000Y-34755000D01*
G75*
G02*
X40650000Y-34605000I150000J0D01*
G01*
X42300000Y-34605000D01*
G75*
G02*
X42450000Y-34755000I0J-150000D01*
G01*
G37*
%TD*%
%TO.C,U12*%
G36*
G01*
X37500000Y-60755000D02*
X37500000Y-61055000D01*
G75*
G02*
X37350000Y-61205000I-150000J0D01*
G01*
X35700000Y-61205000D01*
G75*
G02*
X35550000Y-61055000I0J150000D01*
G01*
X35550000Y-60755000D01*
G75*
G02*
X35700000Y-60605000I150000J0D01*
G01*
X37350000Y-60605000D01*
G75*
G02*
X37500000Y-60755000I0J-150000D01*
G01*
G37*
G36*
G01*
X37500000Y-59485000D02*
X37500000Y-59785000D01*
G75*
G02*
X37350000Y-59935000I-150000J0D01*
G01*
X35700000Y-59935000D01*
G75*
G02*
X35550000Y-59785000I0J150000D01*
G01*
X35550000Y-59485000D01*
G75*
G02*
X35700000Y-59335000I150000J0D01*
G01*
X37350000Y-59335000D01*
G75*
G02*
X37500000Y-59485000I0J-150000D01*
G01*
G37*
G36*
G01*
X37500000Y-58215000D02*
X37500000Y-58515000D01*
G75*
G02*
X37350000Y-58665000I-150000J0D01*
G01*
X35700000Y-58665000D01*
G75*
G02*
X35550000Y-58515000I0J150000D01*
G01*
X35550000Y-58215000D01*
G75*
G02*
X35700000Y-58065000I150000J0D01*
G01*
X37350000Y-58065000D01*
G75*
G02*
X37500000Y-58215000I0J-150000D01*
G01*
G37*
G36*
G01*
X37500000Y-56945000D02*
X37500000Y-57245000D01*
G75*
G02*
X37350000Y-57395000I-150000J0D01*
G01*
X35700000Y-57395000D01*
G75*
G02*
X35550000Y-57245000I0J150000D01*
G01*
X35550000Y-56945000D01*
G75*
G02*
X35700000Y-56795000I150000J0D01*
G01*
X37350000Y-56795000D01*
G75*
G02*
X37500000Y-56945000I0J-150000D01*
G01*
G37*
G36*
G01*
X42450000Y-56945000D02*
X42450000Y-57245000D01*
G75*
G02*
X42300000Y-57395000I-150000J0D01*
G01*
X40650000Y-57395000D01*
G75*
G02*
X40500000Y-57245000I0J150000D01*
G01*
X40500000Y-56945000D01*
G75*
G02*
X40650000Y-56795000I150000J0D01*
G01*
X42300000Y-56795000D01*
G75*
G02*
X42450000Y-56945000I0J-150000D01*
G01*
G37*
G36*
G01*
X42450000Y-58215000D02*
X42450000Y-58515000D01*
G75*
G02*
X42300000Y-58665000I-150000J0D01*
G01*
X40650000Y-58665000D01*
G75*
G02*
X40500000Y-58515000I0J150000D01*
G01*
X40500000Y-58215000D01*
G75*
G02*
X40650000Y-58065000I150000J0D01*
G01*
X42300000Y-58065000D01*
G75*
G02*
X42450000Y-58215000I0J-150000D01*
G01*
G37*
G36*
G01*
X42450000Y-59485000D02*
X42450000Y-59785000D01*
G75*
G02*
X42300000Y-59935000I-150000J0D01*
G01*
X40650000Y-59935000D01*
G75*
G02*
X40500000Y-59785000I0J150000D01*
G01*
X40500000Y-59485000D01*
G75*
G02*
X40650000Y-59335000I150000J0D01*
G01*
X42300000Y-59335000D01*
G75*
G02*
X42450000Y-59485000I0J-150000D01*
G01*
G37*
G36*
G01*
X42450000Y-60755000D02*
X42450000Y-61055000D01*
G75*
G02*
X42300000Y-61205000I-150000J0D01*
G01*
X40650000Y-61205000D01*
G75*
G02*
X40500000Y-61055000I0J150000D01*
G01*
X40500000Y-60755000D01*
G75*
G02*
X40650000Y-60605000I150000J0D01*
G01*
X42300000Y-60605000D01*
G75*
G02*
X42450000Y-60755000I0J-150000D01*
G01*
G37*
%TD*%
%TO.C,U11*%
G36*
G01*
X37500000Y-86255000D02*
X37500000Y-86555000D01*
G75*
G02*
X37350000Y-86705000I-150000J0D01*
G01*
X35700000Y-86705000D01*
G75*
G02*
X35550000Y-86555000I0J150000D01*
G01*
X35550000Y-86255000D01*
G75*
G02*
X35700000Y-86105000I150000J0D01*
G01*
X37350000Y-86105000D01*
G75*
G02*
X37500000Y-86255000I0J-150000D01*
G01*
G37*
G36*
G01*
X37500000Y-84985000D02*
X37500000Y-85285000D01*
G75*
G02*
X37350000Y-85435000I-150000J0D01*
G01*
X35700000Y-85435000D01*
G75*
G02*
X35550000Y-85285000I0J150000D01*
G01*
X35550000Y-84985000D01*
G75*
G02*
X35700000Y-84835000I150000J0D01*
G01*
X37350000Y-84835000D01*
G75*
G02*
X37500000Y-84985000I0J-150000D01*
G01*
G37*
G36*
G01*
X37500000Y-83715000D02*
X37500000Y-84015000D01*
G75*
G02*
X37350000Y-84165000I-150000J0D01*
G01*
X35700000Y-84165000D01*
G75*
G02*
X35550000Y-84015000I0J150000D01*
G01*
X35550000Y-83715000D01*
G75*
G02*
X35700000Y-83565000I150000J0D01*
G01*
X37350000Y-83565000D01*
G75*
G02*
X37500000Y-83715000I0J-150000D01*
G01*
G37*
G36*
G01*
X37500000Y-82445000D02*
X37500000Y-82745000D01*
G75*
G02*
X37350000Y-82895000I-150000J0D01*
G01*
X35700000Y-82895000D01*
G75*
G02*
X35550000Y-82745000I0J150000D01*
G01*
X35550000Y-82445000D01*
G75*
G02*
X35700000Y-82295000I150000J0D01*
G01*
X37350000Y-82295000D01*
G75*
G02*
X37500000Y-82445000I0J-150000D01*
G01*
G37*
G36*
G01*
X42450000Y-82445000D02*
X42450000Y-82745000D01*
G75*
G02*
X42300000Y-82895000I-150000J0D01*
G01*
X40650000Y-82895000D01*
G75*
G02*
X40500000Y-82745000I0J150000D01*
G01*
X40500000Y-82445000D01*
G75*
G02*
X40650000Y-82295000I150000J0D01*
G01*
X42300000Y-82295000D01*
G75*
G02*
X42450000Y-82445000I0J-150000D01*
G01*
G37*
G36*
G01*
X42450000Y-83715000D02*
X42450000Y-84015000D01*
G75*
G02*
X42300000Y-84165000I-150000J0D01*
G01*
X40650000Y-84165000D01*
G75*
G02*
X40500000Y-84015000I0J150000D01*
G01*
X40500000Y-83715000D01*
G75*
G02*
X40650000Y-83565000I150000J0D01*
G01*
X42300000Y-83565000D01*
G75*
G02*
X42450000Y-83715000I0J-150000D01*
G01*
G37*
G36*
G01*
X42450000Y-84985000D02*
X42450000Y-85285000D01*
G75*
G02*
X42300000Y-85435000I-150000J0D01*
G01*
X40650000Y-85435000D01*
G75*
G02*
X40500000Y-85285000I0J150000D01*
G01*
X40500000Y-84985000D01*
G75*
G02*
X40650000Y-84835000I150000J0D01*
G01*
X42300000Y-84835000D01*
G75*
G02*
X42450000Y-84985000I0J-150000D01*
G01*
G37*
G36*
G01*
X42450000Y-86255000D02*
X42450000Y-86555000D01*
G75*
G02*
X42300000Y-86705000I-150000J0D01*
G01*
X40650000Y-86705000D01*
G75*
G02*
X40500000Y-86555000I0J150000D01*
G01*
X40500000Y-86255000D01*
G75*
G02*
X40650000Y-86105000I150000J0D01*
G01*
X42300000Y-86105000D01*
G75*
G02*
X42450000Y-86255000I0J-150000D01*
G01*
G37*
%TD*%
%TO.C,U10*%
G36*
G01*
X102500000Y-33245000D02*
X102500000Y-32945000D01*
G75*
G02*
X102650000Y-32795000I150000J0D01*
G01*
X104300000Y-32795000D01*
G75*
G02*
X104450000Y-32945000I0J-150000D01*
G01*
X104450000Y-33245000D01*
G75*
G02*
X104300000Y-33395000I-150000J0D01*
G01*
X102650000Y-33395000D01*
G75*
G02*
X102500000Y-33245000I0J150000D01*
G01*
G37*
G36*
G01*
X102500000Y-34515000D02*
X102500000Y-34215000D01*
G75*
G02*
X102650000Y-34065000I150000J0D01*
G01*
X104300000Y-34065000D01*
G75*
G02*
X104450000Y-34215000I0J-150000D01*
G01*
X104450000Y-34515000D01*
G75*
G02*
X104300000Y-34665000I-150000J0D01*
G01*
X102650000Y-34665000D01*
G75*
G02*
X102500000Y-34515000I0J150000D01*
G01*
G37*
G36*
G01*
X102500000Y-35785000D02*
X102500000Y-35485000D01*
G75*
G02*
X102650000Y-35335000I150000J0D01*
G01*
X104300000Y-35335000D01*
G75*
G02*
X104450000Y-35485000I0J-150000D01*
G01*
X104450000Y-35785000D01*
G75*
G02*
X104300000Y-35935000I-150000J0D01*
G01*
X102650000Y-35935000D01*
G75*
G02*
X102500000Y-35785000I0J150000D01*
G01*
G37*
G36*
G01*
X102500000Y-37055000D02*
X102500000Y-36755000D01*
G75*
G02*
X102650000Y-36605000I150000J0D01*
G01*
X104300000Y-36605000D01*
G75*
G02*
X104450000Y-36755000I0J-150000D01*
G01*
X104450000Y-37055000D01*
G75*
G02*
X104300000Y-37205000I-150000J0D01*
G01*
X102650000Y-37205000D01*
G75*
G02*
X102500000Y-37055000I0J150000D01*
G01*
G37*
G36*
G01*
X97550000Y-37055000D02*
X97550000Y-36755000D01*
G75*
G02*
X97700000Y-36605000I150000J0D01*
G01*
X99350000Y-36605000D01*
G75*
G02*
X99500000Y-36755000I0J-150000D01*
G01*
X99500000Y-37055000D01*
G75*
G02*
X99350000Y-37205000I-150000J0D01*
G01*
X97700000Y-37205000D01*
G75*
G02*
X97550000Y-37055000I0J150000D01*
G01*
G37*
G36*
G01*
X97550000Y-35785000D02*
X97550000Y-35485000D01*
G75*
G02*
X97700000Y-35335000I150000J0D01*
G01*
X99350000Y-35335000D01*
G75*
G02*
X99500000Y-35485000I0J-150000D01*
G01*
X99500000Y-35785000D01*
G75*
G02*
X99350000Y-35935000I-150000J0D01*
G01*
X97700000Y-35935000D01*
G75*
G02*
X97550000Y-35785000I0J150000D01*
G01*
G37*
G36*
G01*
X97550000Y-34515000D02*
X97550000Y-34215000D01*
G75*
G02*
X97700000Y-34065000I150000J0D01*
G01*
X99350000Y-34065000D01*
G75*
G02*
X99500000Y-34215000I0J-150000D01*
G01*
X99500000Y-34515000D01*
G75*
G02*
X99350000Y-34665000I-150000J0D01*
G01*
X97700000Y-34665000D01*
G75*
G02*
X97550000Y-34515000I0J150000D01*
G01*
G37*
G36*
G01*
X97550000Y-33245000D02*
X97550000Y-32945000D01*
G75*
G02*
X97700000Y-32795000I150000J0D01*
G01*
X99350000Y-32795000D01*
G75*
G02*
X99500000Y-32945000I0J-150000D01*
G01*
X99500000Y-33245000D01*
G75*
G02*
X99350000Y-33395000I-150000J0D01*
G01*
X97700000Y-33395000D01*
G75*
G02*
X97550000Y-33245000I0J150000D01*
G01*
G37*
%TD*%
%TO.C,U9*%
G36*
G01*
X102500000Y-59245000D02*
X102500000Y-58945000D01*
G75*
G02*
X102650000Y-58795000I150000J0D01*
G01*
X104300000Y-58795000D01*
G75*
G02*
X104450000Y-58945000I0J-150000D01*
G01*
X104450000Y-59245000D01*
G75*
G02*
X104300000Y-59395000I-150000J0D01*
G01*
X102650000Y-59395000D01*
G75*
G02*
X102500000Y-59245000I0J150000D01*
G01*
G37*
G36*
G01*
X102500000Y-60515000D02*
X102500000Y-60215000D01*
G75*
G02*
X102650000Y-60065000I150000J0D01*
G01*
X104300000Y-60065000D01*
G75*
G02*
X104450000Y-60215000I0J-150000D01*
G01*
X104450000Y-60515000D01*
G75*
G02*
X104300000Y-60665000I-150000J0D01*
G01*
X102650000Y-60665000D01*
G75*
G02*
X102500000Y-60515000I0J150000D01*
G01*
G37*
G36*
G01*
X102500000Y-61785000D02*
X102500000Y-61485000D01*
G75*
G02*
X102650000Y-61335000I150000J0D01*
G01*
X104300000Y-61335000D01*
G75*
G02*
X104450000Y-61485000I0J-150000D01*
G01*
X104450000Y-61785000D01*
G75*
G02*
X104300000Y-61935000I-150000J0D01*
G01*
X102650000Y-61935000D01*
G75*
G02*
X102500000Y-61785000I0J150000D01*
G01*
G37*
G36*
G01*
X102500000Y-63055000D02*
X102500000Y-62755000D01*
G75*
G02*
X102650000Y-62605000I150000J0D01*
G01*
X104300000Y-62605000D01*
G75*
G02*
X104450000Y-62755000I0J-150000D01*
G01*
X104450000Y-63055000D01*
G75*
G02*
X104300000Y-63205000I-150000J0D01*
G01*
X102650000Y-63205000D01*
G75*
G02*
X102500000Y-63055000I0J150000D01*
G01*
G37*
G36*
G01*
X97550000Y-63055000D02*
X97550000Y-62755000D01*
G75*
G02*
X97700000Y-62605000I150000J0D01*
G01*
X99350000Y-62605000D01*
G75*
G02*
X99500000Y-62755000I0J-150000D01*
G01*
X99500000Y-63055000D01*
G75*
G02*
X99350000Y-63205000I-150000J0D01*
G01*
X97700000Y-63205000D01*
G75*
G02*
X97550000Y-63055000I0J150000D01*
G01*
G37*
G36*
G01*
X97550000Y-61785000D02*
X97550000Y-61485000D01*
G75*
G02*
X97700000Y-61335000I150000J0D01*
G01*
X99350000Y-61335000D01*
G75*
G02*
X99500000Y-61485000I0J-150000D01*
G01*
X99500000Y-61785000D01*
G75*
G02*
X99350000Y-61935000I-150000J0D01*
G01*
X97700000Y-61935000D01*
G75*
G02*
X97550000Y-61785000I0J150000D01*
G01*
G37*
G36*
G01*
X97550000Y-60515000D02*
X97550000Y-60215000D01*
G75*
G02*
X97700000Y-60065000I150000J0D01*
G01*
X99350000Y-60065000D01*
G75*
G02*
X99500000Y-60215000I0J-150000D01*
G01*
X99500000Y-60515000D01*
G75*
G02*
X99350000Y-60665000I-150000J0D01*
G01*
X97700000Y-60665000D01*
G75*
G02*
X97550000Y-60515000I0J150000D01*
G01*
G37*
G36*
G01*
X97550000Y-59245000D02*
X97550000Y-58945000D01*
G75*
G02*
X97700000Y-58795000I150000J0D01*
G01*
X99350000Y-58795000D01*
G75*
G02*
X99500000Y-58945000I0J-150000D01*
G01*
X99500000Y-59245000D01*
G75*
G02*
X99350000Y-59395000I-150000J0D01*
G01*
X97700000Y-59395000D01*
G75*
G02*
X97550000Y-59245000I0J150000D01*
G01*
G37*
%TD*%
%TO.C,U8*%
G36*
G01*
X102500000Y-85245000D02*
X102500000Y-84945000D01*
G75*
G02*
X102650000Y-84795000I150000J0D01*
G01*
X104300000Y-84795000D01*
G75*
G02*
X104450000Y-84945000I0J-150000D01*
G01*
X104450000Y-85245000D01*
G75*
G02*
X104300000Y-85395000I-150000J0D01*
G01*
X102650000Y-85395000D01*
G75*
G02*
X102500000Y-85245000I0J150000D01*
G01*
G37*
G36*
G01*
X102500000Y-86515000D02*
X102500000Y-86215000D01*
G75*
G02*
X102650000Y-86065000I150000J0D01*
G01*
X104300000Y-86065000D01*
G75*
G02*
X104450000Y-86215000I0J-150000D01*
G01*
X104450000Y-86515000D01*
G75*
G02*
X104300000Y-86665000I-150000J0D01*
G01*
X102650000Y-86665000D01*
G75*
G02*
X102500000Y-86515000I0J150000D01*
G01*
G37*
G36*
G01*
X102500000Y-87785000D02*
X102500000Y-87485000D01*
G75*
G02*
X102650000Y-87335000I150000J0D01*
G01*
X104300000Y-87335000D01*
G75*
G02*
X104450000Y-87485000I0J-150000D01*
G01*
X104450000Y-87785000D01*
G75*
G02*
X104300000Y-87935000I-150000J0D01*
G01*
X102650000Y-87935000D01*
G75*
G02*
X102500000Y-87785000I0J150000D01*
G01*
G37*
G36*
G01*
X102500000Y-89055000D02*
X102500000Y-88755000D01*
G75*
G02*
X102650000Y-88605000I150000J0D01*
G01*
X104300000Y-88605000D01*
G75*
G02*
X104450000Y-88755000I0J-150000D01*
G01*
X104450000Y-89055000D01*
G75*
G02*
X104300000Y-89205000I-150000J0D01*
G01*
X102650000Y-89205000D01*
G75*
G02*
X102500000Y-89055000I0J150000D01*
G01*
G37*
G36*
G01*
X97550000Y-89055000D02*
X97550000Y-88755000D01*
G75*
G02*
X97700000Y-88605000I150000J0D01*
G01*
X99350000Y-88605000D01*
G75*
G02*
X99500000Y-88755000I0J-150000D01*
G01*
X99500000Y-89055000D01*
G75*
G02*
X99350000Y-89205000I-150000J0D01*
G01*
X97700000Y-89205000D01*
G75*
G02*
X97550000Y-89055000I0J150000D01*
G01*
G37*
G36*
G01*
X97550000Y-87785000D02*
X97550000Y-87485000D01*
G75*
G02*
X97700000Y-87335000I150000J0D01*
G01*
X99350000Y-87335000D01*
G75*
G02*
X99500000Y-87485000I0J-150000D01*
G01*
X99500000Y-87785000D01*
G75*
G02*
X99350000Y-87935000I-150000J0D01*
G01*
X97700000Y-87935000D01*
G75*
G02*
X97550000Y-87785000I0J150000D01*
G01*
G37*
G36*
G01*
X97550000Y-86515000D02*
X97550000Y-86215000D01*
G75*
G02*
X97700000Y-86065000I150000J0D01*
G01*
X99350000Y-86065000D01*
G75*
G02*
X99500000Y-86215000I0J-150000D01*
G01*
X99500000Y-86515000D01*
G75*
G02*
X99350000Y-86665000I-150000J0D01*
G01*
X97700000Y-86665000D01*
G75*
G02*
X97550000Y-86515000I0J150000D01*
G01*
G37*
G36*
G01*
X97550000Y-85245000D02*
X97550000Y-84945000D01*
G75*
G02*
X97700000Y-84795000I150000J0D01*
G01*
X99350000Y-84795000D01*
G75*
G02*
X99500000Y-84945000I0J-150000D01*
G01*
X99500000Y-85245000D01*
G75*
G02*
X99350000Y-85395000I-150000J0D01*
G01*
X97700000Y-85395000D01*
G75*
G02*
X97550000Y-85245000I0J150000D01*
G01*
G37*
%TD*%
%TO.C,U6*%
G36*
G01*
X95005000Y-50100000D02*
X95305000Y-50100000D01*
G75*
G02*
X95455000Y-50250000I0J-150000D01*
G01*
X95455000Y-51900000D01*
G75*
G02*
X95305000Y-52050000I-150000J0D01*
G01*
X95005000Y-52050000D01*
G75*
G02*
X94855000Y-51900000I0J150000D01*
G01*
X94855000Y-50250000D01*
G75*
G02*
X95005000Y-50100000I150000J0D01*
G01*
G37*
G36*
G01*
X93735000Y-50100000D02*
X94035000Y-50100000D01*
G75*
G02*
X94185000Y-50250000I0J-150000D01*
G01*
X94185000Y-51900000D01*
G75*
G02*
X94035000Y-52050000I-150000J0D01*
G01*
X93735000Y-52050000D01*
G75*
G02*
X93585000Y-51900000I0J150000D01*
G01*
X93585000Y-50250000D01*
G75*
G02*
X93735000Y-50100000I150000J0D01*
G01*
G37*
G36*
G01*
X92465000Y-50100000D02*
X92765000Y-50100000D01*
G75*
G02*
X92915000Y-50250000I0J-150000D01*
G01*
X92915000Y-51900000D01*
G75*
G02*
X92765000Y-52050000I-150000J0D01*
G01*
X92465000Y-52050000D01*
G75*
G02*
X92315000Y-51900000I0J150000D01*
G01*
X92315000Y-50250000D01*
G75*
G02*
X92465000Y-50100000I150000J0D01*
G01*
G37*
G36*
G01*
X91195000Y-50100000D02*
X91495000Y-50100000D01*
G75*
G02*
X91645000Y-50250000I0J-150000D01*
G01*
X91645000Y-51900000D01*
G75*
G02*
X91495000Y-52050000I-150000J0D01*
G01*
X91195000Y-52050000D01*
G75*
G02*
X91045000Y-51900000I0J150000D01*
G01*
X91045000Y-50250000D01*
G75*
G02*
X91195000Y-50100000I150000J0D01*
G01*
G37*
G36*
G01*
X91195000Y-45150000D02*
X91495000Y-45150000D01*
G75*
G02*
X91645000Y-45300000I0J-150000D01*
G01*
X91645000Y-46950000D01*
G75*
G02*
X91495000Y-47100000I-150000J0D01*
G01*
X91195000Y-47100000D01*
G75*
G02*
X91045000Y-46950000I0J150000D01*
G01*
X91045000Y-45300000D01*
G75*
G02*
X91195000Y-45150000I150000J0D01*
G01*
G37*
G36*
G01*
X92465000Y-45150000D02*
X92765000Y-45150000D01*
G75*
G02*
X92915000Y-45300000I0J-150000D01*
G01*
X92915000Y-46950000D01*
G75*
G02*
X92765000Y-47100000I-150000J0D01*
G01*
X92465000Y-47100000D01*
G75*
G02*
X92315000Y-46950000I0J150000D01*
G01*
X92315000Y-45300000D01*
G75*
G02*
X92465000Y-45150000I150000J0D01*
G01*
G37*
G36*
G01*
X93735000Y-45150000D02*
X94035000Y-45150000D01*
G75*
G02*
X94185000Y-45300000I0J-150000D01*
G01*
X94185000Y-46950000D01*
G75*
G02*
X94035000Y-47100000I-150000J0D01*
G01*
X93735000Y-47100000D01*
G75*
G02*
X93585000Y-46950000I0J150000D01*
G01*
X93585000Y-45300000D01*
G75*
G02*
X93735000Y-45150000I150000J0D01*
G01*
G37*
G36*
G01*
X95005000Y-45150000D02*
X95305000Y-45150000D01*
G75*
G02*
X95455000Y-45300000I0J-150000D01*
G01*
X95455000Y-46950000D01*
G75*
G02*
X95305000Y-47100000I-150000J0D01*
G01*
X95005000Y-47100000D01*
G75*
G02*
X94855000Y-46950000I0J150000D01*
G01*
X94855000Y-45300000D01*
G75*
G02*
X95005000Y-45150000I150000J0D01*
G01*
G37*
%TD*%
%TO.C,U4*%
G36*
G01*
X47605000Y-53350000D02*
X47905000Y-53350000D01*
G75*
G02*
X48055000Y-53500000I0J-150000D01*
G01*
X48055000Y-55150000D01*
G75*
G02*
X47905000Y-55300000I-150000J0D01*
G01*
X47605000Y-55300000D01*
G75*
G02*
X47455000Y-55150000I0J150000D01*
G01*
X47455000Y-53500000D01*
G75*
G02*
X47605000Y-53350000I150000J0D01*
G01*
G37*
G36*
G01*
X46335000Y-53350000D02*
X46635000Y-53350000D01*
G75*
G02*
X46785000Y-53500000I0J-150000D01*
G01*
X46785000Y-55150000D01*
G75*
G02*
X46635000Y-55300000I-150000J0D01*
G01*
X46335000Y-55300000D01*
G75*
G02*
X46185000Y-55150000I0J150000D01*
G01*
X46185000Y-53500000D01*
G75*
G02*
X46335000Y-53350000I150000J0D01*
G01*
G37*
G36*
G01*
X45065000Y-53350000D02*
X45365000Y-53350000D01*
G75*
G02*
X45515000Y-53500000I0J-150000D01*
G01*
X45515000Y-55150000D01*
G75*
G02*
X45365000Y-55300000I-150000J0D01*
G01*
X45065000Y-55300000D01*
G75*
G02*
X44915000Y-55150000I0J150000D01*
G01*
X44915000Y-53500000D01*
G75*
G02*
X45065000Y-53350000I150000J0D01*
G01*
G37*
G36*
G01*
X43795000Y-53350000D02*
X44095000Y-53350000D01*
G75*
G02*
X44245000Y-53500000I0J-150000D01*
G01*
X44245000Y-55150000D01*
G75*
G02*
X44095000Y-55300000I-150000J0D01*
G01*
X43795000Y-55300000D01*
G75*
G02*
X43645000Y-55150000I0J150000D01*
G01*
X43645000Y-53500000D01*
G75*
G02*
X43795000Y-53350000I150000J0D01*
G01*
G37*
G36*
G01*
X43795000Y-48400000D02*
X44095000Y-48400000D01*
G75*
G02*
X44245000Y-48550000I0J-150000D01*
G01*
X44245000Y-50200000D01*
G75*
G02*
X44095000Y-50350000I-150000J0D01*
G01*
X43795000Y-50350000D01*
G75*
G02*
X43645000Y-50200000I0J150000D01*
G01*
X43645000Y-48550000D01*
G75*
G02*
X43795000Y-48400000I150000J0D01*
G01*
G37*
G36*
G01*
X45065000Y-48400000D02*
X45365000Y-48400000D01*
G75*
G02*
X45515000Y-48550000I0J-150000D01*
G01*
X45515000Y-50200000D01*
G75*
G02*
X45365000Y-50350000I-150000J0D01*
G01*
X45065000Y-50350000D01*
G75*
G02*
X44915000Y-50200000I0J150000D01*
G01*
X44915000Y-48550000D01*
G75*
G02*
X45065000Y-48400000I150000J0D01*
G01*
G37*
G36*
G01*
X46335000Y-48400000D02*
X46635000Y-48400000D01*
G75*
G02*
X46785000Y-48550000I0J-150000D01*
G01*
X46785000Y-50200000D01*
G75*
G02*
X46635000Y-50350000I-150000J0D01*
G01*
X46335000Y-50350000D01*
G75*
G02*
X46185000Y-50200000I0J150000D01*
G01*
X46185000Y-48550000D01*
G75*
G02*
X46335000Y-48400000I150000J0D01*
G01*
G37*
G36*
G01*
X47605000Y-48400000D02*
X47905000Y-48400000D01*
G75*
G02*
X48055000Y-48550000I0J-150000D01*
G01*
X48055000Y-50200000D01*
G75*
G02*
X47905000Y-50350000I-150000J0D01*
G01*
X47605000Y-50350000D01*
G75*
G02*
X47455000Y-50200000I0J150000D01*
G01*
X47455000Y-48550000D01*
G75*
G02*
X47605000Y-48400000I150000J0D01*
G01*
G37*
%TD*%
%TO.C,U3*%
G36*
G01*
X62550000Y-70855000D02*
X62550000Y-69455000D01*
G75*
G02*
X62625000Y-69380000I75000J0D01*
G01*
X62775000Y-69380000D01*
G75*
G02*
X62850000Y-69455000I0J-75000D01*
G01*
X62850000Y-70855000D01*
G75*
G02*
X62775000Y-70930000I-75000J0D01*
G01*
X62625000Y-70930000D01*
G75*
G02*
X62550000Y-70855000I0J75000D01*
G01*
G37*
G36*
G01*
X63050000Y-70855000D02*
X63050000Y-69455000D01*
G75*
G02*
X63125000Y-69380000I75000J0D01*
G01*
X63275000Y-69380000D01*
G75*
G02*
X63350000Y-69455000I0J-75000D01*
G01*
X63350000Y-70855000D01*
G75*
G02*
X63275000Y-70930000I-75000J0D01*
G01*
X63125000Y-70930000D01*
G75*
G02*
X63050000Y-70855000I0J75000D01*
G01*
G37*
G36*
G01*
X63550000Y-70855000D02*
X63550000Y-69455000D01*
G75*
G02*
X63625000Y-69380000I75000J0D01*
G01*
X63775000Y-69380000D01*
G75*
G02*
X63850000Y-69455000I0J-75000D01*
G01*
X63850000Y-70855000D01*
G75*
G02*
X63775000Y-70930000I-75000J0D01*
G01*
X63625000Y-70930000D01*
G75*
G02*
X63550000Y-70855000I0J75000D01*
G01*
G37*
G36*
G01*
X64050000Y-70855000D02*
X64050000Y-69455000D01*
G75*
G02*
X64125000Y-69380000I75000J0D01*
G01*
X64275000Y-69380000D01*
G75*
G02*
X64350000Y-69455000I0J-75000D01*
G01*
X64350000Y-70855000D01*
G75*
G02*
X64275000Y-70930000I-75000J0D01*
G01*
X64125000Y-70930000D01*
G75*
G02*
X64050000Y-70855000I0J75000D01*
G01*
G37*
G36*
G01*
X64550000Y-70855000D02*
X64550000Y-69455000D01*
G75*
G02*
X64625000Y-69380000I75000J0D01*
G01*
X64775000Y-69380000D01*
G75*
G02*
X64850000Y-69455000I0J-75000D01*
G01*
X64850000Y-70855000D01*
G75*
G02*
X64775000Y-70930000I-75000J0D01*
G01*
X64625000Y-70930000D01*
G75*
G02*
X64550000Y-70855000I0J75000D01*
G01*
G37*
G36*
G01*
X65050000Y-70855000D02*
X65050000Y-69455000D01*
G75*
G02*
X65125000Y-69380000I75000J0D01*
G01*
X65275000Y-69380000D01*
G75*
G02*
X65350000Y-69455000I0J-75000D01*
G01*
X65350000Y-70855000D01*
G75*
G02*
X65275000Y-70930000I-75000J0D01*
G01*
X65125000Y-70930000D01*
G75*
G02*
X65050000Y-70855000I0J75000D01*
G01*
G37*
G36*
G01*
X65550000Y-70855000D02*
X65550000Y-69455000D01*
G75*
G02*
X65625000Y-69380000I75000J0D01*
G01*
X65775000Y-69380000D01*
G75*
G02*
X65850000Y-69455000I0J-75000D01*
G01*
X65850000Y-70855000D01*
G75*
G02*
X65775000Y-70930000I-75000J0D01*
G01*
X65625000Y-70930000D01*
G75*
G02*
X65550000Y-70855000I0J75000D01*
G01*
G37*
G36*
G01*
X66050000Y-70855000D02*
X66050000Y-69455000D01*
G75*
G02*
X66125000Y-69380000I75000J0D01*
G01*
X66275000Y-69380000D01*
G75*
G02*
X66350000Y-69455000I0J-75000D01*
G01*
X66350000Y-70855000D01*
G75*
G02*
X66275000Y-70930000I-75000J0D01*
G01*
X66125000Y-70930000D01*
G75*
G02*
X66050000Y-70855000I0J75000D01*
G01*
G37*
G36*
G01*
X66550000Y-70855000D02*
X66550000Y-69455000D01*
G75*
G02*
X66625000Y-69380000I75000J0D01*
G01*
X66775000Y-69380000D01*
G75*
G02*
X66850000Y-69455000I0J-75000D01*
G01*
X66850000Y-70855000D01*
G75*
G02*
X66775000Y-70930000I-75000J0D01*
G01*
X66625000Y-70930000D01*
G75*
G02*
X66550000Y-70855000I0J75000D01*
G01*
G37*
G36*
G01*
X67050000Y-70855000D02*
X67050000Y-69455000D01*
G75*
G02*
X67125000Y-69380000I75000J0D01*
G01*
X67275000Y-69380000D01*
G75*
G02*
X67350000Y-69455000I0J-75000D01*
G01*
X67350000Y-70855000D01*
G75*
G02*
X67275000Y-70930000I-75000J0D01*
G01*
X67125000Y-70930000D01*
G75*
G02*
X67050000Y-70855000I0J75000D01*
G01*
G37*
G36*
G01*
X67550000Y-70855000D02*
X67550000Y-69455000D01*
G75*
G02*
X67625000Y-69380000I75000J0D01*
G01*
X67775000Y-69380000D01*
G75*
G02*
X67850000Y-69455000I0J-75000D01*
G01*
X67850000Y-70855000D01*
G75*
G02*
X67775000Y-70930000I-75000J0D01*
G01*
X67625000Y-70930000D01*
G75*
G02*
X67550000Y-70855000I0J75000D01*
G01*
G37*
G36*
G01*
X68050000Y-70855000D02*
X68050000Y-69455000D01*
G75*
G02*
X68125000Y-69380000I75000J0D01*
G01*
X68275000Y-69380000D01*
G75*
G02*
X68350000Y-69455000I0J-75000D01*
G01*
X68350000Y-70855000D01*
G75*
G02*
X68275000Y-70930000I-75000J0D01*
G01*
X68125000Y-70930000D01*
G75*
G02*
X68050000Y-70855000I0J75000D01*
G01*
G37*
G36*
G01*
X68550000Y-70855000D02*
X68550000Y-69455000D01*
G75*
G02*
X68625000Y-69380000I75000J0D01*
G01*
X68775000Y-69380000D01*
G75*
G02*
X68850000Y-69455000I0J-75000D01*
G01*
X68850000Y-70855000D01*
G75*
G02*
X68775000Y-70930000I-75000J0D01*
G01*
X68625000Y-70930000D01*
G75*
G02*
X68550000Y-70855000I0J75000D01*
G01*
G37*
G36*
G01*
X69050000Y-70855000D02*
X69050000Y-69455000D01*
G75*
G02*
X69125000Y-69380000I75000J0D01*
G01*
X69275000Y-69380000D01*
G75*
G02*
X69350000Y-69455000I0J-75000D01*
G01*
X69350000Y-70855000D01*
G75*
G02*
X69275000Y-70930000I-75000J0D01*
G01*
X69125000Y-70930000D01*
G75*
G02*
X69050000Y-70855000I0J75000D01*
G01*
G37*
G36*
G01*
X69550000Y-70855000D02*
X69550000Y-69455000D01*
G75*
G02*
X69625000Y-69380000I75000J0D01*
G01*
X69775000Y-69380000D01*
G75*
G02*
X69850000Y-69455000I0J-75000D01*
G01*
X69850000Y-70855000D01*
G75*
G02*
X69775000Y-70930000I-75000J0D01*
G01*
X69625000Y-70930000D01*
G75*
G02*
X69550000Y-70855000I0J75000D01*
G01*
G37*
G36*
G01*
X70050000Y-70855000D02*
X70050000Y-69455000D01*
G75*
G02*
X70125000Y-69380000I75000J0D01*
G01*
X70275000Y-69380000D01*
G75*
G02*
X70350000Y-69455000I0J-75000D01*
G01*
X70350000Y-70855000D01*
G75*
G02*
X70275000Y-70930000I-75000J0D01*
G01*
X70125000Y-70930000D01*
G75*
G02*
X70050000Y-70855000I0J75000D01*
G01*
G37*
G36*
G01*
X71350000Y-72155000D02*
X71350000Y-72005000D01*
G75*
G02*
X71425000Y-71930000I75000J0D01*
G01*
X72825000Y-71930000D01*
G75*
G02*
X72900000Y-72005000I0J-75000D01*
G01*
X72900000Y-72155000D01*
G75*
G02*
X72825000Y-72230000I-75000J0D01*
G01*
X71425000Y-72230000D01*
G75*
G02*
X71350000Y-72155000I0J75000D01*
G01*
G37*
G36*
G01*
X71350000Y-72655000D02*
X71350000Y-72505000D01*
G75*
G02*
X71425000Y-72430000I75000J0D01*
G01*
X72825000Y-72430000D01*
G75*
G02*
X72900000Y-72505000I0J-75000D01*
G01*
X72900000Y-72655000D01*
G75*
G02*
X72825000Y-72730000I-75000J0D01*
G01*
X71425000Y-72730000D01*
G75*
G02*
X71350000Y-72655000I0J75000D01*
G01*
G37*
G36*
G01*
X71350000Y-73155000D02*
X71350000Y-73005000D01*
G75*
G02*
X71425000Y-72930000I75000J0D01*
G01*
X72825000Y-72930000D01*
G75*
G02*
X72900000Y-73005000I0J-75000D01*
G01*
X72900000Y-73155000D01*
G75*
G02*
X72825000Y-73230000I-75000J0D01*
G01*
X71425000Y-73230000D01*
G75*
G02*
X71350000Y-73155000I0J75000D01*
G01*
G37*
G36*
G01*
X71350000Y-73655000D02*
X71350000Y-73505000D01*
G75*
G02*
X71425000Y-73430000I75000J0D01*
G01*
X72825000Y-73430000D01*
G75*
G02*
X72900000Y-73505000I0J-75000D01*
G01*
X72900000Y-73655000D01*
G75*
G02*
X72825000Y-73730000I-75000J0D01*
G01*
X71425000Y-73730000D01*
G75*
G02*
X71350000Y-73655000I0J75000D01*
G01*
G37*
G36*
G01*
X71350000Y-74155000D02*
X71350000Y-74005000D01*
G75*
G02*
X71425000Y-73930000I75000J0D01*
G01*
X72825000Y-73930000D01*
G75*
G02*
X72900000Y-74005000I0J-75000D01*
G01*
X72900000Y-74155000D01*
G75*
G02*
X72825000Y-74230000I-75000J0D01*
G01*
X71425000Y-74230000D01*
G75*
G02*
X71350000Y-74155000I0J75000D01*
G01*
G37*
G36*
G01*
X71350000Y-74655000D02*
X71350000Y-74505000D01*
G75*
G02*
X71425000Y-74430000I75000J0D01*
G01*
X72825000Y-74430000D01*
G75*
G02*
X72900000Y-74505000I0J-75000D01*
G01*
X72900000Y-74655000D01*
G75*
G02*
X72825000Y-74730000I-75000J0D01*
G01*
X71425000Y-74730000D01*
G75*
G02*
X71350000Y-74655000I0J75000D01*
G01*
G37*
G36*
G01*
X71350000Y-75155000D02*
X71350000Y-75005000D01*
G75*
G02*
X71425000Y-74930000I75000J0D01*
G01*
X72825000Y-74930000D01*
G75*
G02*
X72900000Y-75005000I0J-75000D01*
G01*
X72900000Y-75155000D01*
G75*
G02*
X72825000Y-75230000I-75000J0D01*
G01*
X71425000Y-75230000D01*
G75*
G02*
X71350000Y-75155000I0J75000D01*
G01*
G37*
G36*
G01*
X71350000Y-75655000D02*
X71350000Y-75505000D01*
G75*
G02*
X71425000Y-75430000I75000J0D01*
G01*
X72825000Y-75430000D01*
G75*
G02*
X72900000Y-75505000I0J-75000D01*
G01*
X72900000Y-75655000D01*
G75*
G02*
X72825000Y-75730000I-75000J0D01*
G01*
X71425000Y-75730000D01*
G75*
G02*
X71350000Y-75655000I0J75000D01*
G01*
G37*
G36*
G01*
X71350000Y-76155000D02*
X71350000Y-76005000D01*
G75*
G02*
X71425000Y-75930000I75000J0D01*
G01*
X72825000Y-75930000D01*
G75*
G02*
X72900000Y-76005000I0J-75000D01*
G01*
X72900000Y-76155000D01*
G75*
G02*
X72825000Y-76230000I-75000J0D01*
G01*
X71425000Y-76230000D01*
G75*
G02*
X71350000Y-76155000I0J75000D01*
G01*
G37*
G36*
G01*
X71350000Y-76655000D02*
X71350000Y-76505000D01*
G75*
G02*
X71425000Y-76430000I75000J0D01*
G01*
X72825000Y-76430000D01*
G75*
G02*
X72900000Y-76505000I0J-75000D01*
G01*
X72900000Y-76655000D01*
G75*
G02*
X72825000Y-76730000I-75000J0D01*
G01*
X71425000Y-76730000D01*
G75*
G02*
X71350000Y-76655000I0J75000D01*
G01*
G37*
G36*
G01*
X71350000Y-77155000D02*
X71350000Y-77005000D01*
G75*
G02*
X71425000Y-76930000I75000J0D01*
G01*
X72825000Y-76930000D01*
G75*
G02*
X72900000Y-77005000I0J-75000D01*
G01*
X72900000Y-77155000D01*
G75*
G02*
X72825000Y-77230000I-75000J0D01*
G01*
X71425000Y-77230000D01*
G75*
G02*
X71350000Y-77155000I0J75000D01*
G01*
G37*
G36*
G01*
X71350000Y-77655000D02*
X71350000Y-77505000D01*
G75*
G02*
X71425000Y-77430000I75000J0D01*
G01*
X72825000Y-77430000D01*
G75*
G02*
X72900000Y-77505000I0J-75000D01*
G01*
X72900000Y-77655000D01*
G75*
G02*
X72825000Y-77730000I-75000J0D01*
G01*
X71425000Y-77730000D01*
G75*
G02*
X71350000Y-77655000I0J75000D01*
G01*
G37*
G36*
G01*
X71350000Y-78155000D02*
X71350000Y-78005000D01*
G75*
G02*
X71425000Y-77930000I75000J0D01*
G01*
X72825000Y-77930000D01*
G75*
G02*
X72900000Y-78005000I0J-75000D01*
G01*
X72900000Y-78155000D01*
G75*
G02*
X72825000Y-78230000I-75000J0D01*
G01*
X71425000Y-78230000D01*
G75*
G02*
X71350000Y-78155000I0J75000D01*
G01*
G37*
G36*
G01*
X71350000Y-78655000D02*
X71350000Y-78505000D01*
G75*
G02*
X71425000Y-78430000I75000J0D01*
G01*
X72825000Y-78430000D01*
G75*
G02*
X72900000Y-78505000I0J-75000D01*
G01*
X72900000Y-78655000D01*
G75*
G02*
X72825000Y-78730000I-75000J0D01*
G01*
X71425000Y-78730000D01*
G75*
G02*
X71350000Y-78655000I0J75000D01*
G01*
G37*
G36*
G01*
X71350000Y-79155000D02*
X71350000Y-79005000D01*
G75*
G02*
X71425000Y-78930000I75000J0D01*
G01*
X72825000Y-78930000D01*
G75*
G02*
X72900000Y-79005000I0J-75000D01*
G01*
X72900000Y-79155000D01*
G75*
G02*
X72825000Y-79230000I-75000J0D01*
G01*
X71425000Y-79230000D01*
G75*
G02*
X71350000Y-79155000I0J75000D01*
G01*
G37*
G36*
G01*
X71350000Y-79655000D02*
X71350000Y-79505000D01*
G75*
G02*
X71425000Y-79430000I75000J0D01*
G01*
X72825000Y-79430000D01*
G75*
G02*
X72900000Y-79505000I0J-75000D01*
G01*
X72900000Y-79655000D01*
G75*
G02*
X72825000Y-79730000I-75000J0D01*
G01*
X71425000Y-79730000D01*
G75*
G02*
X71350000Y-79655000I0J75000D01*
G01*
G37*
G36*
G01*
X70050000Y-82205000D02*
X70050000Y-80805000D01*
G75*
G02*
X70125000Y-80730000I75000J0D01*
G01*
X70275000Y-80730000D01*
G75*
G02*
X70350000Y-80805000I0J-75000D01*
G01*
X70350000Y-82205000D01*
G75*
G02*
X70275000Y-82280000I-75000J0D01*
G01*
X70125000Y-82280000D01*
G75*
G02*
X70050000Y-82205000I0J75000D01*
G01*
G37*
G36*
G01*
X69550000Y-82205000D02*
X69550000Y-80805000D01*
G75*
G02*
X69625000Y-80730000I75000J0D01*
G01*
X69775000Y-80730000D01*
G75*
G02*
X69850000Y-80805000I0J-75000D01*
G01*
X69850000Y-82205000D01*
G75*
G02*
X69775000Y-82280000I-75000J0D01*
G01*
X69625000Y-82280000D01*
G75*
G02*
X69550000Y-82205000I0J75000D01*
G01*
G37*
G36*
G01*
X69050000Y-82205000D02*
X69050000Y-80805000D01*
G75*
G02*
X69125000Y-80730000I75000J0D01*
G01*
X69275000Y-80730000D01*
G75*
G02*
X69350000Y-80805000I0J-75000D01*
G01*
X69350000Y-82205000D01*
G75*
G02*
X69275000Y-82280000I-75000J0D01*
G01*
X69125000Y-82280000D01*
G75*
G02*
X69050000Y-82205000I0J75000D01*
G01*
G37*
G36*
G01*
X68550000Y-82205000D02*
X68550000Y-80805000D01*
G75*
G02*
X68625000Y-80730000I75000J0D01*
G01*
X68775000Y-80730000D01*
G75*
G02*
X68850000Y-80805000I0J-75000D01*
G01*
X68850000Y-82205000D01*
G75*
G02*
X68775000Y-82280000I-75000J0D01*
G01*
X68625000Y-82280000D01*
G75*
G02*
X68550000Y-82205000I0J75000D01*
G01*
G37*
G36*
G01*
X68050000Y-82205000D02*
X68050000Y-80805000D01*
G75*
G02*
X68125000Y-80730000I75000J0D01*
G01*
X68275000Y-80730000D01*
G75*
G02*
X68350000Y-80805000I0J-75000D01*
G01*
X68350000Y-82205000D01*
G75*
G02*
X68275000Y-82280000I-75000J0D01*
G01*
X68125000Y-82280000D01*
G75*
G02*
X68050000Y-82205000I0J75000D01*
G01*
G37*
G36*
G01*
X67550000Y-82205000D02*
X67550000Y-80805000D01*
G75*
G02*
X67625000Y-80730000I75000J0D01*
G01*
X67775000Y-80730000D01*
G75*
G02*
X67850000Y-80805000I0J-75000D01*
G01*
X67850000Y-82205000D01*
G75*
G02*
X67775000Y-82280000I-75000J0D01*
G01*
X67625000Y-82280000D01*
G75*
G02*
X67550000Y-82205000I0J75000D01*
G01*
G37*
G36*
G01*
X67050000Y-82205000D02*
X67050000Y-80805000D01*
G75*
G02*
X67125000Y-80730000I75000J0D01*
G01*
X67275000Y-80730000D01*
G75*
G02*
X67350000Y-80805000I0J-75000D01*
G01*
X67350000Y-82205000D01*
G75*
G02*
X67275000Y-82280000I-75000J0D01*
G01*
X67125000Y-82280000D01*
G75*
G02*
X67050000Y-82205000I0J75000D01*
G01*
G37*
G36*
G01*
X66550000Y-82205000D02*
X66550000Y-80805000D01*
G75*
G02*
X66625000Y-80730000I75000J0D01*
G01*
X66775000Y-80730000D01*
G75*
G02*
X66850000Y-80805000I0J-75000D01*
G01*
X66850000Y-82205000D01*
G75*
G02*
X66775000Y-82280000I-75000J0D01*
G01*
X66625000Y-82280000D01*
G75*
G02*
X66550000Y-82205000I0J75000D01*
G01*
G37*
G36*
G01*
X66050000Y-82205000D02*
X66050000Y-80805000D01*
G75*
G02*
X66125000Y-80730000I75000J0D01*
G01*
X66275000Y-80730000D01*
G75*
G02*
X66350000Y-80805000I0J-75000D01*
G01*
X66350000Y-82205000D01*
G75*
G02*
X66275000Y-82280000I-75000J0D01*
G01*
X66125000Y-82280000D01*
G75*
G02*
X66050000Y-82205000I0J75000D01*
G01*
G37*
G36*
G01*
X65550000Y-82205000D02*
X65550000Y-80805000D01*
G75*
G02*
X65625000Y-80730000I75000J0D01*
G01*
X65775000Y-80730000D01*
G75*
G02*
X65850000Y-80805000I0J-75000D01*
G01*
X65850000Y-82205000D01*
G75*
G02*
X65775000Y-82280000I-75000J0D01*
G01*
X65625000Y-82280000D01*
G75*
G02*
X65550000Y-82205000I0J75000D01*
G01*
G37*
G36*
G01*
X65050000Y-82205000D02*
X65050000Y-80805000D01*
G75*
G02*
X65125000Y-80730000I75000J0D01*
G01*
X65275000Y-80730000D01*
G75*
G02*
X65350000Y-80805000I0J-75000D01*
G01*
X65350000Y-82205000D01*
G75*
G02*
X65275000Y-82280000I-75000J0D01*
G01*
X65125000Y-82280000D01*
G75*
G02*
X65050000Y-82205000I0J75000D01*
G01*
G37*
G36*
G01*
X64550000Y-82205000D02*
X64550000Y-80805000D01*
G75*
G02*
X64625000Y-80730000I75000J0D01*
G01*
X64775000Y-80730000D01*
G75*
G02*
X64850000Y-80805000I0J-75000D01*
G01*
X64850000Y-82205000D01*
G75*
G02*
X64775000Y-82280000I-75000J0D01*
G01*
X64625000Y-82280000D01*
G75*
G02*
X64550000Y-82205000I0J75000D01*
G01*
G37*
G36*
G01*
X64050000Y-82205000D02*
X64050000Y-80805000D01*
G75*
G02*
X64125000Y-80730000I75000J0D01*
G01*
X64275000Y-80730000D01*
G75*
G02*
X64350000Y-80805000I0J-75000D01*
G01*
X64350000Y-82205000D01*
G75*
G02*
X64275000Y-82280000I-75000J0D01*
G01*
X64125000Y-82280000D01*
G75*
G02*
X64050000Y-82205000I0J75000D01*
G01*
G37*
G36*
G01*
X63550000Y-82205000D02*
X63550000Y-80805000D01*
G75*
G02*
X63625000Y-80730000I75000J0D01*
G01*
X63775000Y-80730000D01*
G75*
G02*
X63850000Y-80805000I0J-75000D01*
G01*
X63850000Y-82205000D01*
G75*
G02*
X63775000Y-82280000I-75000J0D01*
G01*
X63625000Y-82280000D01*
G75*
G02*
X63550000Y-82205000I0J75000D01*
G01*
G37*
G36*
G01*
X63050000Y-82205000D02*
X63050000Y-80805000D01*
G75*
G02*
X63125000Y-80730000I75000J0D01*
G01*
X63275000Y-80730000D01*
G75*
G02*
X63350000Y-80805000I0J-75000D01*
G01*
X63350000Y-82205000D01*
G75*
G02*
X63275000Y-82280000I-75000J0D01*
G01*
X63125000Y-82280000D01*
G75*
G02*
X63050000Y-82205000I0J75000D01*
G01*
G37*
G36*
G01*
X62550000Y-82205000D02*
X62550000Y-80805000D01*
G75*
G02*
X62625000Y-80730000I75000J0D01*
G01*
X62775000Y-80730000D01*
G75*
G02*
X62850000Y-80805000I0J-75000D01*
G01*
X62850000Y-82205000D01*
G75*
G02*
X62775000Y-82280000I-75000J0D01*
G01*
X62625000Y-82280000D01*
G75*
G02*
X62550000Y-82205000I0J75000D01*
G01*
G37*
G36*
G01*
X60000000Y-79655000D02*
X60000000Y-79505000D01*
G75*
G02*
X60075000Y-79430000I75000J0D01*
G01*
X61475000Y-79430000D01*
G75*
G02*
X61550000Y-79505000I0J-75000D01*
G01*
X61550000Y-79655000D01*
G75*
G02*
X61475000Y-79730000I-75000J0D01*
G01*
X60075000Y-79730000D01*
G75*
G02*
X60000000Y-79655000I0J75000D01*
G01*
G37*
G36*
G01*
X60000000Y-79155000D02*
X60000000Y-79005000D01*
G75*
G02*
X60075000Y-78930000I75000J0D01*
G01*
X61475000Y-78930000D01*
G75*
G02*
X61550000Y-79005000I0J-75000D01*
G01*
X61550000Y-79155000D01*
G75*
G02*
X61475000Y-79230000I-75000J0D01*
G01*
X60075000Y-79230000D01*
G75*
G02*
X60000000Y-79155000I0J75000D01*
G01*
G37*
G36*
G01*
X60000000Y-78655000D02*
X60000000Y-78505000D01*
G75*
G02*
X60075000Y-78430000I75000J0D01*
G01*
X61475000Y-78430000D01*
G75*
G02*
X61550000Y-78505000I0J-75000D01*
G01*
X61550000Y-78655000D01*
G75*
G02*
X61475000Y-78730000I-75000J0D01*
G01*
X60075000Y-78730000D01*
G75*
G02*
X60000000Y-78655000I0J75000D01*
G01*
G37*
G36*
G01*
X60000000Y-78155000D02*
X60000000Y-78005000D01*
G75*
G02*
X60075000Y-77930000I75000J0D01*
G01*
X61475000Y-77930000D01*
G75*
G02*
X61550000Y-78005000I0J-75000D01*
G01*
X61550000Y-78155000D01*
G75*
G02*
X61475000Y-78230000I-75000J0D01*
G01*
X60075000Y-78230000D01*
G75*
G02*
X60000000Y-78155000I0J75000D01*
G01*
G37*
G36*
G01*
X60000000Y-77655000D02*
X60000000Y-77505000D01*
G75*
G02*
X60075000Y-77430000I75000J0D01*
G01*
X61475000Y-77430000D01*
G75*
G02*
X61550000Y-77505000I0J-75000D01*
G01*
X61550000Y-77655000D01*
G75*
G02*
X61475000Y-77730000I-75000J0D01*
G01*
X60075000Y-77730000D01*
G75*
G02*
X60000000Y-77655000I0J75000D01*
G01*
G37*
G36*
G01*
X60000000Y-77155000D02*
X60000000Y-77005000D01*
G75*
G02*
X60075000Y-76930000I75000J0D01*
G01*
X61475000Y-76930000D01*
G75*
G02*
X61550000Y-77005000I0J-75000D01*
G01*
X61550000Y-77155000D01*
G75*
G02*
X61475000Y-77230000I-75000J0D01*
G01*
X60075000Y-77230000D01*
G75*
G02*
X60000000Y-77155000I0J75000D01*
G01*
G37*
G36*
G01*
X60000000Y-76655000D02*
X60000000Y-76505000D01*
G75*
G02*
X60075000Y-76430000I75000J0D01*
G01*
X61475000Y-76430000D01*
G75*
G02*
X61550000Y-76505000I0J-75000D01*
G01*
X61550000Y-76655000D01*
G75*
G02*
X61475000Y-76730000I-75000J0D01*
G01*
X60075000Y-76730000D01*
G75*
G02*
X60000000Y-76655000I0J75000D01*
G01*
G37*
G36*
G01*
X60000000Y-76155000D02*
X60000000Y-76005000D01*
G75*
G02*
X60075000Y-75930000I75000J0D01*
G01*
X61475000Y-75930000D01*
G75*
G02*
X61550000Y-76005000I0J-75000D01*
G01*
X61550000Y-76155000D01*
G75*
G02*
X61475000Y-76230000I-75000J0D01*
G01*
X60075000Y-76230000D01*
G75*
G02*
X60000000Y-76155000I0J75000D01*
G01*
G37*
G36*
G01*
X60000000Y-75655000D02*
X60000000Y-75505000D01*
G75*
G02*
X60075000Y-75430000I75000J0D01*
G01*
X61475000Y-75430000D01*
G75*
G02*
X61550000Y-75505000I0J-75000D01*
G01*
X61550000Y-75655000D01*
G75*
G02*
X61475000Y-75730000I-75000J0D01*
G01*
X60075000Y-75730000D01*
G75*
G02*
X60000000Y-75655000I0J75000D01*
G01*
G37*
G36*
G01*
X60000000Y-75155000D02*
X60000000Y-75005000D01*
G75*
G02*
X60075000Y-74930000I75000J0D01*
G01*
X61475000Y-74930000D01*
G75*
G02*
X61550000Y-75005000I0J-75000D01*
G01*
X61550000Y-75155000D01*
G75*
G02*
X61475000Y-75230000I-75000J0D01*
G01*
X60075000Y-75230000D01*
G75*
G02*
X60000000Y-75155000I0J75000D01*
G01*
G37*
G36*
G01*
X60000000Y-74655000D02*
X60000000Y-74505000D01*
G75*
G02*
X60075000Y-74430000I75000J0D01*
G01*
X61475000Y-74430000D01*
G75*
G02*
X61550000Y-74505000I0J-75000D01*
G01*
X61550000Y-74655000D01*
G75*
G02*
X61475000Y-74730000I-75000J0D01*
G01*
X60075000Y-74730000D01*
G75*
G02*
X60000000Y-74655000I0J75000D01*
G01*
G37*
G36*
G01*
X60000000Y-74155000D02*
X60000000Y-74005000D01*
G75*
G02*
X60075000Y-73930000I75000J0D01*
G01*
X61475000Y-73930000D01*
G75*
G02*
X61550000Y-74005000I0J-75000D01*
G01*
X61550000Y-74155000D01*
G75*
G02*
X61475000Y-74230000I-75000J0D01*
G01*
X60075000Y-74230000D01*
G75*
G02*
X60000000Y-74155000I0J75000D01*
G01*
G37*
G36*
G01*
X60000000Y-73655000D02*
X60000000Y-73505000D01*
G75*
G02*
X60075000Y-73430000I75000J0D01*
G01*
X61475000Y-73430000D01*
G75*
G02*
X61550000Y-73505000I0J-75000D01*
G01*
X61550000Y-73655000D01*
G75*
G02*
X61475000Y-73730000I-75000J0D01*
G01*
X60075000Y-73730000D01*
G75*
G02*
X60000000Y-73655000I0J75000D01*
G01*
G37*
G36*
G01*
X60000000Y-73155000D02*
X60000000Y-73005000D01*
G75*
G02*
X60075000Y-72930000I75000J0D01*
G01*
X61475000Y-72930000D01*
G75*
G02*
X61550000Y-73005000I0J-75000D01*
G01*
X61550000Y-73155000D01*
G75*
G02*
X61475000Y-73230000I-75000J0D01*
G01*
X60075000Y-73230000D01*
G75*
G02*
X60000000Y-73155000I0J75000D01*
G01*
G37*
G36*
G01*
X60000000Y-72655000D02*
X60000000Y-72505000D01*
G75*
G02*
X60075000Y-72430000I75000J0D01*
G01*
X61475000Y-72430000D01*
G75*
G02*
X61550000Y-72505000I0J-75000D01*
G01*
X61550000Y-72655000D01*
G75*
G02*
X61475000Y-72730000I-75000J0D01*
G01*
X60075000Y-72730000D01*
G75*
G02*
X60000000Y-72655000I0J75000D01*
G01*
G37*
G36*
G01*
X60000000Y-72155000D02*
X60000000Y-72005000D01*
G75*
G02*
X60075000Y-71930000I75000J0D01*
G01*
X61475000Y-71930000D01*
G75*
G02*
X61550000Y-72005000I0J-75000D01*
G01*
X61550000Y-72155000D01*
G75*
G02*
X61475000Y-72230000I-75000J0D01*
G01*
X60075000Y-72230000D01*
G75*
G02*
X60000000Y-72155000I0J75000D01*
G01*
G37*
%TD*%
D21*
%TO.C,U2*%
X81620000Y-68210000D03*
X81620000Y-63610000D03*
X81620000Y-65910000D03*
D22*
X75320000Y-65910000D03*
%TD*%
D23*
%TO.C,U1*%
X85585000Y-52690000D03*
X80035000Y-47840000D03*
X80035000Y-52690000D03*
X85585000Y-47840000D03*
D24*
X85350000Y-59415000D03*
X80270000Y-59415000D03*
%TD*%
%TO.C,R0NL2*%
G36*
G01*
X34605000Y-15535001D02*
X34605000Y-12684999D01*
G75*
G02*
X34854999Y-12435000I249999J0D01*
G01*
X35705001Y-12435000D01*
G75*
G02*
X35955000Y-12684999I0J-249999D01*
G01*
X35955000Y-15535001D01*
G75*
G02*
X35705001Y-15785000I-249999J0D01*
G01*
X34854999Y-15785000D01*
G75*
G02*
X34605000Y-15535001I0J249999D01*
G01*
G37*
G36*
G01*
X28805000Y-15535001D02*
X28805000Y-12684999D01*
G75*
G02*
X29054999Y-12435000I249999J0D01*
G01*
X29905001Y-12435000D01*
G75*
G02*
X30155000Y-12684999I0J-249999D01*
G01*
X30155000Y-15535001D01*
G75*
G02*
X29905001Y-15785000I-249999J0D01*
G01*
X29054999Y-15785000D01*
G75*
G02*
X28805000Y-15535001I0J249999D01*
G01*
G37*
%TD*%
%TO.C,R0NL1*%
G36*
G01*
X105705000Y-12574999D02*
X105705000Y-15425001D01*
G75*
G02*
X105455001Y-15675000I-249999J0D01*
G01*
X104604999Y-15675000D01*
G75*
G02*
X104355000Y-15425001I0J249999D01*
G01*
X104355000Y-12574999D01*
G75*
G02*
X104604999Y-12325000I249999J0D01*
G01*
X105455001Y-12325000D01*
G75*
G02*
X105705000Y-12574999I0J-249999D01*
G01*
G37*
G36*
G01*
X111505000Y-12574999D02*
X111505000Y-15425001D01*
G75*
G02*
X111255001Y-15675000I-249999J0D01*
G01*
X110404999Y-15675000D01*
G75*
G02*
X110155000Y-15425001I0J249999D01*
G01*
X110155000Y-12574999D01*
G75*
G02*
X110404999Y-12325000I249999J0D01*
G01*
X111255001Y-12325000D01*
G75*
G02*
X111505000Y-12574999I0J-249999D01*
G01*
G37*
%TD*%
%TO.C,R0N1L2*%
G36*
G01*
X34605000Y-20425001D02*
X34605000Y-17574999D01*
G75*
G02*
X34854999Y-17325000I249999J0D01*
G01*
X35705001Y-17325000D01*
G75*
G02*
X35955000Y-17574999I0J-249999D01*
G01*
X35955000Y-20425001D01*
G75*
G02*
X35705001Y-20675000I-249999J0D01*
G01*
X34854999Y-20675000D01*
G75*
G02*
X34605000Y-20425001I0J249999D01*
G01*
G37*
G36*
G01*
X28805000Y-20425001D02*
X28805000Y-17574999D01*
G75*
G02*
X29054999Y-17325000I249999J0D01*
G01*
X29905001Y-17325000D01*
G75*
G02*
X30155000Y-17574999I0J-249999D01*
G01*
X30155000Y-20425001D01*
G75*
G02*
X29905001Y-20675000I-249999J0D01*
G01*
X29054999Y-20675000D01*
G75*
G02*
X28805000Y-20425001I0J249999D01*
G01*
G37*
%TD*%
%TO.C,R0N1L1*%
G36*
G01*
X105705000Y-17464999D02*
X105705000Y-20315001D01*
G75*
G02*
X105455001Y-20565000I-249999J0D01*
G01*
X104604999Y-20565000D01*
G75*
G02*
X104355000Y-20315001I0J249999D01*
G01*
X104355000Y-17464999D01*
G75*
G02*
X104604999Y-17215000I249999J0D01*
G01*
X105455001Y-17215000D01*
G75*
G02*
X105705000Y-17464999I0J-249999D01*
G01*
G37*
G36*
G01*
X111505000Y-17464999D02*
X111505000Y-20315001D01*
G75*
G02*
X111255001Y-20565000I-249999J0D01*
G01*
X110404999Y-20565000D01*
G75*
G02*
X110155000Y-20315001I0J249999D01*
G01*
X110155000Y-17464999D01*
G75*
G02*
X110404999Y-17215000I249999J0D01*
G01*
X111255001Y-17215000D01*
G75*
G02*
X111505000Y-17464999I0J-249999D01*
G01*
G37*
%TD*%
%TO.C,R17*%
G36*
G01*
X113225000Y-24375000D02*
X113225000Y-25625000D01*
G75*
G02*
X112975000Y-25875000I-250000J0D01*
G01*
X112225000Y-25875000D01*
G75*
G02*
X111975000Y-25625000I0J250000D01*
G01*
X111975000Y-24375000D01*
G75*
G02*
X112225000Y-24125000I250000J0D01*
G01*
X112975000Y-24125000D01*
G75*
G02*
X113225000Y-24375000I0J-250000D01*
G01*
G37*
G36*
G01*
X116025000Y-24375000D02*
X116025000Y-25625000D01*
G75*
G02*
X115775000Y-25875000I-250000J0D01*
G01*
X115025000Y-25875000D01*
G75*
G02*
X114775000Y-25625000I0J250000D01*
G01*
X114775000Y-24375000D01*
G75*
G02*
X115025000Y-24125000I250000J0D01*
G01*
X115775000Y-24125000D01*
G75*
G02*
X116025000Y-24375000I0J-250000D01*
G01*
G37*
%TD*%
%TO.C,R16*%
G36*
G01*
X107325000Y-40375000D02*
X107325000Y-41625000D01*
G75*
G02*
X107075000Y-41875000I-250000J0D01*
G01*
X106325000Y-41875000D01*
G75*
G02*
X106075000Y-41625000I0J250000D01*
G01*
X106075000Y-40375000D01*
G75*
G02*
X106325000Y-40125000I250000J0D01*
G01*
X107075000Y-40125000D01*
G75*
G02*
X107325000Y-40375000I0J-250000D01*
G01*
G37*
G36*
G01*
X110125000Y-40375000D02*
X110125000Y-41625000D01*
G75*
G02*
X109875000Y-41875000I-250000J0D01*
G01*
X109125000Y-41875000D01*
G75*
G02*
X108875000Y-41625000I0J250000D01*
G01*
X108875000Y-40375000D01*
G75*
G02*
X109125000Y-40125000I250000J0D01*
G01*
X109875000Y-40125000D01*
G75*
G02*
X110125000Y-40375000I0J-250000D01*
G01*
G37*
%TD*%
%TO.C,R15*%
G36*
G01*
X113225000Y-50375000D02*
X113225000Y-51625000D01*
G75*
G02*
X112975000Y-51875000I-250000J0D01*
G01*
X112225000Y-51875000D01*
G75*
G02*
X111975000Y-51625000I0J250000D01*
G01*
X111975000Y-50375000D01*
G75*
G02*
X112225000Y-50125000I250000J0D01*
G01*
X112975000Y-50125000D01*
G75*
G02*
X113225000Y-50375000I0J-250000D01*
G01*
G37*
G36*
G01*
X116025000Y-50375000D02*
X116025000Y-51625000D01*
G75*
G02*
X115775000Y-51875000I-250000J0D01*
G01*
X115025000Y-51875000D01*
G75*
G02*
X114775000Y-51625000I0J250000D01*
G01*
X114775000Y-50375000D01*
G75*
G02*
X115025000Y-50125000I250000J0D01*
G01*
X115775000Y-50125000D01*
G75*
G02*
X116025000Y-50375000I0J-250000D01*
G01*
G37*
%TD*%
%TO.C,R14*%
G36*
G01*
X107429000Y-66375000D02*
X107429000Y-67625000D01*
G75*
G02*
X107179000Y-67875000I-250000J0D01*
G01*
X106429000Y-67875000D01*
G75*
G02*
X106179000Y-67625000I0J250000D01*
G01*
X106179000Y-66375000D01*
G75*
G02*
X106429000Y-66125000I250000J0D01*
G01*
X107179000Y-66125000D01*
G75*
G02*
X107429000Y-66375000I0J-250000D01*
G01*
G37*
G36*
G01*
X110229000Y-66375000D02*
X110229000Y-67625000D01*
G75*
G02*
X109979000Y-67875000I-250000J0D01*
G01*
X109229000Y-67875000D01*
G75*
G02*
X108979000Y-67625000I0J250000D01*
G01*
X108979000Y-66375000D01*
G75*
G02*
X109229000Y-66125000I250000J0D01*
G01*
X109979000Y-66125000D01*
G75*
G02*
X110229000Y-66375000I0J-250000D01*
G01*
G37*
%TD*%
%TO.C,R13*%
G36*
G01*
X107325000Y-92375000D02*
X107325000Y-93625000D01*
G75*
G02*
X107075000Y-93875000I-250000J0D01*
G01*
X106325000Y-93875000D01*
G75*
G02*
X106075000Y-93625000I0J250000D01*
G01*
X106075000Y-92375000D01*
G75*
G02*
X106325000Y-92125000I250000J0D01*
G01*
X107075000Y-92125000D01*
G75*
G02*
X107325000Y-92375000I0J-250000D01*
G01*
G37*
G36*
G01*
X110125000Y-92375000D02*
X110125000Y-93625000D01*
G75*
G02*
X109875000Y-93875000I-250000J0D01*
G01*
X109125000Y-93875000D01*
G75*
G02*
X108875000Y-93625000I0J250000D01*
G01*
X108875000Y-92375000D01*
G75*
G02*
X109125000Y-92125000I250000J0D01*
G01*
X109875000Y-92125000D01*
G75*
G02*
X110125000Y-92375000I0J-250000D01*
G01*
G37*
%TD*%
%TO.C,R10*%
G36*
G01*
X113225000Y-75375000D02*
X113225000Y-76625000D01*
G75*
G02*
X112975000Y-76875000I-250000J0D01*
G01*
X112225000Y-76875000D01*
G75*
G02*
X111975000Y-76625000I0J250000D01*
G01*
X111975000Y-75375000D01*
G75*
G02*
X112225000Y-75125000I250000J0D01*
G01*
X112975000Y-75125000D01*
G75*
G02*
X113225000Y-75375000I0J-250000D01*
G01*
G37*
G36*
G01*
X116025000Y-75375000D02*
X116025000Y-76625000D01*
G75*
G02*
X115775000Y-76875000I-250000J0D01*
G01*
X115025000Y-76875000D01*
G75*
G02*
X114775000Y-76625000I0J250000D01*
G01*
X114775000Y-75375000D01*
G75*
G02*
X115025000Y-75125000I250000J0D01*
G01*
X115775000Y-75125000D01*
G75*
G02*
X116025000Y-75375000I0J-250000D01*
G01*
G37*
%TD*%
D25*
%TO.C,L1*%
X74770000Y-43930000D03*
X65370000Y-43930000D03*
%TD*%
D26*
%TO.C,Buck1*%
X61645000Y-44245000D03*
X58595000Y-40895000D03*
X58595000Y-44245000D03*
X61645000Y-40895000D03*
D27*
X62400000Y-48870000D03*
X61260000Y-48870000D03*
X60120000Y-48870000D03*
X58980000Y-48870000D03*
X57840000Y-48870000D03*
%TD*%
M02*
