%TF.GenerationSoftware,KiCad,Pcbnew,(5.1.6)-1*%
%TF.CreationDate,2020-10-06T11:03:20+02:00*%
%TF.ProjectId,Bobbycontroller,426f6262-7963-46f6-9e74-726f6c6c6572,rev?*%
%TF.SameCoordinates,Original*%
%TF.FileFunction,Legend,Bot*%
%TF.FilePolarity,Positive*%
%FSLAX46Y46*%
G04 Gerber Fmt 4.6, Leading zero omitted, Abs format (unit mm)*
G04 Created by KiCad (PCBNEW (5.1.6)-1) date 2020-10-06 11:03:20*
%MOMM*%
%LPD*%
G01*
G04 APERTURE LIST*
%ADD10C,0.120000*%
%ADD11C,0.150000*%
G04 APERTURE END LIST*
D10*
%TO.C,C69*%
X16597936Y-35590000D02*
X17802064Y-35590000D01*
X16597936Y-37410000D02*
X17802064Y-37410000D01*
%TO.C,C68*%
X16497936Y-87490000D02*
X17702064Y-87490000D01*
X16497936Y-89310000D02*
X17702064Y-89310000D01*
%TO.C,C67*%
X16597936Y-61690000D02*
X17802064Y-61690000D01*
X16597936Y-63510000D02*
X17802064Y-63510000D01*
%TO.C,C66*%
X123902064Y-58410000D02*
X122697936Y-58410000D01*
X123902064Y-56590000D02*
X122697936Y-56590000D01*
%TO.C,C65*%
X123902064Y-84410000D02*
X122697936Y-84410000D01*
X123902064Y-82590000D02*
X122697936Y-82590000D01*
%TO.C,C64*%
X123902064Y-32410000D02*
X122697936Y-32410000D01*
X123902064Y-30590000D02*
X122697936Y-30590000D01*
%TO.C,C59*%
X61240000Y-17182064D02*
X61240000Y-15977936D01*
X59420000Y-17182064D02*
X59420000Y-15977936D01*
%TO.C,C58*%
X78210000Y-17102064D02*
X78210000Y-15897936D01*
X76390000Y-17102064D02*
X76390000Y-15897936D01*
%TO.C,C57*%
X63510000Y-17182064D02*
X63510000Y-15977936D01*
X61690000Y-17182064D02*
X61690000Y-15977936D01*
%TO.C,C56*%
X47610000Y-17102064D02*
X47610000Y-15897936D01*
X45790000Y-17102064D02*
X45790000Y-15897936D01*
%TO.C,C55*%
X80510000Y-17102064D02*
X80510000Y-15897936D01*
X78690000Y-17102064D02*
X78690000Y-15897936D01*
%TO.C,C54*%
X65810000Y-17182064D02*
X65810000Y-15977936D01*
X63990000Y-17182064D02*
X63990000Y-15977936D01*
%TO.C,C53*%
X49910000Y-17092064D02*
X49910000Y-15887936D01*
X48090000Y-17092064D02*
X48090000Y-15887936D01*
%TO.C,C52*%
X87510000Y-17102064D02*
X87510000Y-15897936D01*
X85690000Y-17102064D02*
X85690000Y-15897936D01*
%TO.C,C51*%
X75910000Y-17102064D02*
X75910000Y-15897936D01*
X74090000Y-17102064D02*
X74090000Y-15897936D01*
%TO.C,C50*%
X52210000Y-17092064D02*
X52210000Y-15887936D01*
X50390000Y-17092064D02*
X50390000Y-15887936D01*
%TO.C,C49*%
X89730000Y-17102064D02*
X89730000Y-15897936D01*
X87910000Y-17102064D02*
X87910000Y-15897936D01*
%TO.C,C48*%
X54510000Y-17102064D02*
X54510000Y-15897936D01*
X52690000Y-17102064D02*
X52690000Y-15897936D01*
%TO.C,C47*%
X92010000Y-17102064D02*
X92010000Y-15897936D01*
X90190000Y-17102064D02*
X90190000Y-15897936D01*
%TO.C,C46*%
X94310000Y-17102064D02*
X94310000Y-15897936D01*
X92490000Y-17102064D02*
X92490000Y-15897936D01*
%TO.C,V11*%
X24550000Y-46200000D02*
X23050000Y-46200000D01*
X23050000Y-46200000D02*
X23050000Y-44390000D01*
X23050000Y-44390000D02*
X17925000Y-44390000D01*
X24550000Y-35800000D02*
X23050000Y-35800000D01*
X23050000Y-35800000D02*
X23050000Y-37610000D01*
X23050000Y-37610000D02*
X21950000Y-37610000D01*
%TO.C,V10*%
X27450000Y-21800000D02*
X28950000Y-21800000D01*
X28950000Y-21800000D02*
X28950000Y-23610000D01*
X28950000Y-23610000D02*
X34075000Y-23610000D01*
X27450000Y-32200000D02*
X28950000Y-32200000D01*
X28950000Y-32200000D02*
X28950000Y-30390000D01*
X28950000Y-30390000D02*
X30050000Y-30390000D01*
%TO.C,V9*%
X24550000Y-72200000D02*
X23050000Y-72200000D01*
X23050000Y-72200000D02*
X23050000Y-70390000D01*
X23050000Y-70390000D02*
X17925000Y-70390000D01*
X24550000Y-61800000D02*
X23050000Y-61800000D01*
X23050000Y-61800000D02*
X23050000Y-63610000D01*
X23050000Y-63610000D02*
X21950000Y-63610000D01*
%TO.C,V8*%
X27450000Y-47800000D02*
X28950000Y-47800000D01*
X28950000Y-47800000D02*
X28950000Y-49610000D01*
X28950000Y-49610000D02*
X34075000Y-49610000D01*
X27450000Y-58200000D02*
X28950000Y-58200000D01*
X28950000Y-58200000D02*
X28950000Y-56390000D01*
X28950000Y-56390000D02*
X30050000Y-56390000D01*
%TO.C,V7*%
X24550000Y-98200000D02*
X23050000Y-98200000D01*
X23050000Y-98200000D02*
X23050000Y-96390000D01*
X23050000Y-96390000D02*
X17925000Y-96390000D01*
X24550000Y-87800000D02*
X23050000Y-87800000D01*
X23050000Y-87800000D02*
X23050000Y-89610000D01*
X23050000Y-89610000D02*
X21950000Y-89610000D01*
%TO.C,V6*%
X27450000Y-73800000D02*
X28950000Y-73800000D01*
X28950000Y-73800000D02*
X28950000Y-75610000D01*
X28950000Y-75610000D02*
X34075000Y-75610000D01*
X27450000Y-84200000D02*
X28950000Y-84200000D01*
X28950000Y-84200000D02*
X28950000Y-82390000D01*
X28950000Y-82390000D02*
X30050000Y-82390000D01*
%TO.C,V5*%
X115450000Y-21800000D02*
X116950000Y-21800000D01*
X116950000Y-21800000D02*
X116950000Y-23610000D01*
X116950000Y-23610000D02*
X122075000Y-23610000D01*
X115450000Y-32200000D02*
X116950000Y-32200000D01*
X116950000Y-32200000D02*
X116950000Y-30390000D01*
X116950000Y-30390000D02*
X118050000Y-30390000D01*
%TO.C,V4*%
X112550000Y-46200000D02*
X111050000Y-46200000D01*
X111050000Y-46200000D02*
X111050000Y-44390000D01*
X111050000Y-44390000D02*
X105925000Y-44390000D01*
X112550000Y-35800000D02*
X111050000Y-35800000D01*
X111050000Y-35800000D02*
X111050000Y-37610000D01*
X111050000Y-37610000D02*
X109950000Y-37610000D01*
%TO.C,V3*%
X115450000Y-47800000D02*
X116950000Y-47800000D01*
X116950000Y-47800000D02*
X116950000Y-49610000D01*
X116950000Y-49610000D02*
X122075000Y-49610000D01*
X115450000Y-58200000D02*
X116950000Y-58200000D01*
X116950000Y-58200000D02*
X116950000Y-56390000D01*
X116950000Y-56390000D02*
X118050000Y-56390000D01*
%TO.C,V2*%
X112550000Y-72200000D02*
X111050000Y-72200000D01*
X111050000Y-72200000D02*
X111050000Y-70390000D01*
X111050000Y-70390000D02*
X105925000Y-70390000D01*
X112550000Y-61800000D02*
X111050000Y-61800000D01*
X111050000Y-61800000D02*
X111050000Y-63610000D01*
X111050000Y-63610000D02*
X109950000Y-63610000D01*
%TO.C,V1*%
X115450000Y-73800000D02*
X116950000Y-73800000D01*
X116950000Y-73800000D02*
X116950000Y-75610000D01*
X116950000Y-75610000D02*
X122075000Y-75610000D01*
X115450000Y-84200000D02*
X116950000Y-84200000D01*
X116950000Y-84200000D02*
X116950000Y-82390000D01*
X116950000Y-82390000D02*
X118050000Y-82390000D01*
%TO.C,V0*%
X112550000Y-98200000D02*
X111050000Y-98200000D01*
X111050000Y-98200000D02*
X111050000Y-96390000D01*
X111050000Y-96390000D02*
X105925000Y-96390000D01*
X112550000Y-87800000D02*
X111050000Y-87800000D01*
X111050000Y-87800000D02*
X111050000Y-89610000D01*
X111050000Y-89610000D02*
X109950000Y-89610000D01*
%TO.C,C69*%
D11*
X13642857Y-36957142D02*
X13690476Y-37004761D01*
X13833333Y-37052380D01*
X13928571Y-37052380D01*
X14071428Y-37004761D01*
X14166666Y-36909523D01*
X14214285Y-36814285D01*
X14261904Y-36623809D01*
X14261904Y-36480952D01*
X14214285Y-36290476D01*
X14166666Y-36195238D01*
X14071428Y-36100000D01*
X13928571Y-36052380D01*
X13833333Y-36052380D01*
X13690476Y-36100000D01*
X13642857Y-36147619D01*
X12785714Y-36052380D02*
X12976190Y-36052380D01*
X13071428Y-36100000D01*
X13119047Y-36147619D01*
X13214285Y-36290476D01*
X13261904Y-36480952D01*
X13261904Y-36861904D01*
X13214285Y-36957142D01*
X13166666Y-37004761D01*
X13071428Y-37052380D01*
X12880952Y-37052380D01*
X12785714Y-37004761D01*
X12738095Y-36957142D01*
X12690476Y-36861904D01*
X12690476Y-36623809D01*
X12738095Y-36528571D01*
X12785714Y-36480952D01*
X12880952Y-36433333D01*
X13071428Y-36433333D01*
X13166666Y-36480952D01*
X13214285Y-36528571D01*
X13261904Y-36623809D01*
X12214285Y-37052380D02*
X12023809Y-37052380D01*
X11928571Y-37004761D01*
X11880952Y-36957142D01*
X11785714Y-36814285D01*
X11738095Y-36623809D01*
X11738095Y-36242857D01*
X11785714Y-36147619D01*
X11833333Y-36100000D01*
X11928571Y-36052380D01*
X12119047Y-36052380D01*
X12214285Y-36100000D01*
X12261904Y-36147619D01*
X12309523Y-36242857D01*
X12309523Y-36480952D01*
X12261904Y-36576190D01*
X12214285Y-36623809D01*
X12119047Y-36671428D01*
X11928571Y-36671428D01*
X11833333Y-36623809D01*
X11785714Y-36576190D01*
X11738095Y-36480952D01*
%TO.C,C68*%
X13442857Y-88857142D02*
X13490476Y-88904761D01*
X13633333Y-88952380D01*
X13728571Y-88952380D01*
X13871428Y-88904761D01*
X13966666Y-88809523D01*
X14014285Y-88714285D01*
X14061904Y-88523809D01*
X14061904Y-88380952D01*
X14014285Y-88190476D01*
X13966666Y-88095238D01*
X13871428Y-88000000D01*
X13728571Y-87952380D01*
X13633333Y-87952380D01*
X13490476Y-88000000D01*
X13442857Y-88047619D01*
X12585714Y-87952380D02*
X12776190Y-87952380D01*
X12871428Y-88000000D01*
X12919047Y-88047619D01*
X13014285Y-88190476D01*
X13061904Y-88380952D01*
X13061904Y-88761904D01*
X13014285Y-88857142D01*
X12966666Y-88904761D01*
X12871428Y-88952380D01*
X12680952Y-88952380D01*
X12585714Y-88904761D01*
X12538095Y-88857142D01*
X12490476Y-88761904D01*
X12490476Y-88523809D01*
X12538095Y-88428571D01*
X12585714Y-88380952D01*
X12680952Y-88333333D01*
X12871428Y-88333333D01*
X12966666Y-88380952D01*
X13014285Y-88428571D01*
X13061904Y-88523809D01*
X11919047Y-88380952D02*
X12014285Y-88333333D01*
X12061904Y-88285714D01*
X12109523Y-88190476D01*
X12109523Y-88142857D01*
X12061904Y-88047619D01*
X12014285Y-88000000D01*
X11919047Y-87952380D01*
X11728571Y-87952380D01*
X11633333Y-88000000D01*
X11585714Y-88047619D01*
X11538095Y-88142857D01*
X11538095Y-88190476D01*
X11585714Y-88285714D01*
X11633333Y-88333333D01*
X11728571Y-88380952D01*
X11919047Y-88380952D01*
X12014285Y-88428571D01*
X12061904Y-88476190D01*
X12109523Y-88571428D01*
X12109523Y-88761904D01*
X12061904Y-88857142D01*
X12014285Y-88904761D01*
X11919047Y-88952380D01*
X11728571Y-88952380D01*
X11633333Y-88904761D01*
X11585714Y-88857142D01*
X11538095Y-88761904D01*
X11538095Y-88571428D01*
X11585714Y-88476190D01*
X11633333Y-88428571D01*
X11728571Y-88380952D01*
%TO.C,C67*%
X17842857Y-64777142D02*
X17890476Y-64824761D01*
X18033333Y-64872380D01*
X18128571Y-64872380D01*
X18271428Y-64824761D01*
X18366666Y-64729523D01*
X18414285Y-64634285D01*
X18461904Y-64443809D01*
X18461904Y-64300952D01*
X18414285Y-64110476D01*
X18366666Y-64015238D01*
X18271428Y-63920000D01*
X18128571Y-63872380D01*
X18033333Y-63872380D01*
X17890476Y-63920000D01*
X17842857Y-63967619D01*
X16985714Y-63872380D02*
X17176190Y-63872380D01*
X17271428Y-63920000D01*
X17319047Y-63967619D01*
X17414285Y-64110476D01*
X17461904Y-64300952D01*
X17461904Y-64681904D01*
X17414285Y-64777142D01*
X17366666Y-64824761D01*
X17271428Y-64872380D01*
X17080952Y-64872380D01*
X16985714Y-64824761D01*
X16938095Y-64777142D01*
X16890476Y-64681904D01*
X16890476Y-64443809D01*
X16938095Y-64348571D01*
X16985714Y-64300952D01*
X17080952Y-64253333D01*
X17271428Y-64253333D01*
X17366666Y-64300952D01*
X17414285Y-64348571D01*
X17461904Y-64443809D01*
X16557142Y-63872380D02*
X15890476Y-63872380D01*
X16319047Y-64872380D01*
%TO.C,C66*%
X128042857Y-57957142D02*
X128090476Y-58004761D01*
X128233333Y-58052380D01*
X128328571Y-58052380D01*
X128471428Y-58004761D01*
X128566666Y-57909523D01*
X128614285Y-57814285D01*
X128661904Y-57623809D01*
X128661904Y-57480952D01*
X128614285Y-57290476D01*
X128566666Y-57195238D01*
X128471428Y-57100000D01*
X128328571Y-57052380D01*
X128233333Y-57052380D01*
X128090476Y-57100000D01*
X128042857Y-57147619D01*
X127185714Y-57052380D02*
X127376190Y-57052380D01*
X127471428Y-57100000D01*
X127519047Y-57147619D01*
X127614285Y-57290476D01*
X127661904Y-57480952D01*
X127661904Y-57861904D01*
X127614285Y-57957142D01*
X127566666Y-58004761D01*
X127471428Y-58052380D01*
X127280952Y-58052380D01*
X127185714Y-58004761D01*
X127138095Y-57957142D01*
X127090476Y-57861904D01*
X127090476Y-57623809D01*
X127138095Y-57528571D01*
X127185714Y-57480952D01*
X127280952Y-57433333D01*
X127471428Y-57433333D01*
X127566666Y-57480952D01*
X127614285Y-57528571D01*
X127661904Y-57623809D01*
X126233333Y-57052380D02*
X126423809Y-57052380D01*
X126519047Y-57100000D01*
X126566666Y-57147619D01*
X126661904Y-57290476D01*
X126709523Y-57480952D01*
X126709523Y-57861904D01*
X126661904Y-57957142D01*
X126614285Y-58004761D01*
X126519047Y-58052380D01*
X126328571Y-58052380D01*
X126233333Y-58004761D01*
X126185714Y-57957142D01*
X126138095Y-57861904D01*
X126138095Y-57623809D01*
X126185714Y-57528571D01*
X126233333Y-57480952D01*
X126328571Y-57433333D01*
X126519047Y-57433333D01*
X126614285Y-57480952D01*
X126661904Y-57528571D01*
X126709523Y-57623809D01*
%TO.C,C65*%
X128042857Y-84057142D02*
X128090476Y-84104761D01*
X128233333Y-84152380D01*
X128328571Y-84152380D01*
X128471428Y-84104761D01*
X128566666Y-84009523D01*
X128614285Y-83914285D01*
X128661904Y-83723809D01*
X128661904Y-83580952D01*
X128614285Y-83390476D01*
X128566666Y-83295238D01*
X128471428Y-83200000D01*
X128328571Y-83152380D01*
X128233333Y-83152380D01*
X128090476Y-83200000D01*
X128042857Y-83247619D01*
X127185714Y-83152380D02*
X127376190Y-83152380D01*
X127471428Y-83200000D01*
X127519047Y-83247619D01*
X127614285Y-83390476D01*
X127661904Y-83580952D01*
X127661904Y-83961904D01*
X127614285Y-84057142D01*
X127566666Y-84104761D01*
X127471428Y-84152380D01*
X127280952Y-84152380D01*
X127185714Y-84104761D01*
X127138095Y-84057142D01*
X127090476Y-83961904D01*
X127090476Y-83723809D01*
X127138095Y-83628571D01*
X127185714Y-83580952D01*
X127280952Y-83533333D01*
X127471428Y-83533333D01*
X127566666Y-83580952D01*
X127614285Y-83628571D01*
X127661904Y-83723809D01*
X126185714Y-83152380D02*
X126661904Y-83152380D01*
X126709523Y-83628571D01*
X126661904Y-83580952D01*
X126566666Y-83533333D01*
X126328571Y-83533333D01*
X126233333Y-83580952D01*
X126185714Y-83628571D01*
X126138095Y-83723809D01*
X126138095Y-83961904D01*
X126185714Y-84057142D01*
X126233333Y-84104761D01*
X126328571Y-84152380D01*
X126566666Y-84152380D01*
X126661904Y-84104761D01*
X126709523Y-84057142D01*
%TO.C,C64*%
X127742857Y-31857142D02*
X127790476Y-31904761D01*
X127933333Y-31952380D01*
X128028571Y-31952380D01*
X128171428Y-31904761D01*
X128266666Y-31809523D01*
X128314285Y-31714285D01*
X128361904Y-31523809D01*
X128361904Y-31380952D01*
X128314285Y-31190476D01*
X128266666Y-31095238D01*
X128171428Y-31000000D01*
X128028571Y-30952380D01*
X127933333Y-30952380D01*
X127790476Y-31000000D01*
X127742857Y-31047619D01*
X126885714Y-30952380D02*
X127076190Y-30952380D01*
X127171428Y-31000000D01*
X127219047Y-31047619D01*
X127314285Y-31190476D01*
X127361904Y-31380952D01*
X127361904Y-31761904D01*
X127314285Y-31857142D01*
X127266666Y-31904761D01*
X127171428Y-31952380D01*
X126980952Y-31952380D01*
X126885714Y-31904761D01*
X126838095Y-31857142D01*
X126790476Y-31761904D01*
X126790476Y-31523809D01*
X126838095Y-31428571D01*
X126885714Y-31380952D01*
X126980952Y-31333333D01*
X127171428Y-31333333D01*
X127266666Y-31380952D01*
X127314285Y-31428571D01*
X127361904Y-31523809D01*
X125933333Y-31285714D02*
X125933333Y-31952380D01*
X126171428Y-30904761D02*
X126409523Y-31619047D01*
X125790476Y-31619047D01*
%TO.C,C59*%
X60657142Y-19657142D02*
X60704761Y-19609523D01*
X60752380Y-19466666D01*
X60752380Y-19371428D01*
X60704761Y-19228571D01*
X60609523Y-19133333D01*
X60514285Y-19085714D01*
X60323809Y-19038095D01*
X60180952Y-19038095D01*
X59990476Y-19085714D01*
X59895238Y-19133333D01*
X59800000Y-19228571D01*
X59752380Y-19371428D01*
X59752380Y-19466666D01*
X59800000Y-19609523D01*
X59847619Y-19657142D01*
X59752380Y-20561904D02*
X59752380Y-20085714D01*
X60228571Y-20038095D01*
X60180952Y-20085714D01*
X60133333Y-20180952D01*
X60133333Y-20419047D01*
X60180952Y-20514285D01*
X60228571Y-20561904D01*
X60323809Y-20609523D01*
X60561904Y-20609523D01*
X60657142Y-20561904D01*
X60704761Y-20514285D01*
X60752380Y-20419047D01*
X60752380Y-20180952D01*
X60704761Y-20085714D01*
X60657142Y-20038095D01*
X60752380Y-21085714D02*
X60752380Y-21276190D01*
X60704761Y-21371428D01*
X60657142Y-21419047D01*
X60514285Y-21514285D01*
X60323809Y-21561904D01*
X59942857Y-21561904D01*
X59847619Y-21514285D01*
X59800000Y-21466666D01*
X59752380Y-21371428D01*
X59752380Y-21180952D01*
X59800000Y-21085714D01*
X59847619Y-21038095D01*
X59942857Y-20990476D01*
X60180952Y-20990476D01*
X60276190Y-21038095D01*
X60323809Y-21085714D01*
X60371428Y-21180952D01*
X60371428Y-21371428D01*
X60323809Y-21466666D01*
X60276190Y-21514285D01*
X60180952Y-21561904D01*
%TO.C,C58*%
X77657142Y-19557142D02*
X77704761Y-19509523D01*
X77752380Y-19366666D01*
X77752380Y-19271428D01*
X77704761Y-19128571D01*
X77609523Y-19033333D01*
X77514285Y-18985714D01*
X77323809Y-18938095D01*
X77180952Y-18938095D01*
X76990476Y-18985714D01*
X76895238Y-19033333D01*
X76800000Y-19128571D01*
X76752380Y-19271428D01*
X76752380Y-19366666D01*
X76800000Y-19509523D01*
X76847619Y-19557142D01*
X76752380Y-20461904D02*
X76752380Y-19985714D01*
X77228571Y-19938095D01*
X77180952Y-19985714D01*
X77133333Y-20080952D01*
X77133333Y-20319047D01*
X77180952Y-20414285D01*
X77228571Y-20461904D01*
X77323809Y-20509523D01*
X77561904Y-20509523D01*
X77657142Y-20461904D01*
X77704761Y-20414285D01*
X77752380Y-20319047D01*
X77752380Y-20080952D01*
X77704761Y-19985714D01*
X77657142Y-19938095D01*
X77180952Y-21080952D02*
X77133333Y-20985714D01*
X77085714Y-20938095D01*
X76990476Y-20890476D01*
X76942857Y-20890476D01*
X76847619Y-20938095D01*
X76800000Y-20985714D01*
X76752380Y-21080952D01*
X76752380Y-21271428D01*
X76800000Y-21366666D01*
X76847619Y-21414285D01*
X76942857Y-21461904D01*
X76990476Y-21461904D01*
X77085714Y-21414285D01*
X77133333Y-21366666D01*
X77180952Y-21271428D01*
X77180952Y-21080952D01*
X77228571Y-20985714D01*
X77276190Y-20938095D01*
X77371428Y-20890476D01*
X77561904Y-20890476D01*
X77657142Y-20938095D01*
X77704761Y-20985714D01*
X77752380Y-21080952D01*
X77752380Y-21271428D01*
X77704761Y-21366666D01*
X77657142Y-21414285D01*
X77561904Y-21461904D01*
X77371428Y-21461904D01*
X77276190Y-21414285D01*
X77228571Y-21366666D01*
X77180952Y-21271428D01*
%TO.C,C57*%
X62957142Y-19557142D02*
X63004761Y-19509523D01*
X63052380Y-19366666D01*
X63052380Y-19271428D01*
X63004761Y-19128571D01*
X62909523Y-19033333D01*
X62814285Y-18985714D01*
X62623809Y-18938095D01*
X62480952Y-18938095D01*
X62290476Y-18985714D01*
X62195238Y-19033333D01*
X62100000Y-19128571D01*
X62052380Y-19271428D01*
X62052380Y-19366666D01*
X62100000Y-19509523D01*
X62147619Y-19557142D01*
X62052380Y-20461904D02*
X62052380Y-19985714D01*
X62528571Y-19938095D01*
X62480952Y-19985714D01*
X62433333Y-20080952D01*
X62433333Y-20319047D01*
X62480952Y-20414285D01*
X62528571Y-20461904D01*
X62623809Y-20509523D01*
X62861904Y-20509523D01*
X62957142Y-20461904D01*
X63004761Y-20414285D01*
X63052380Y-20319047D01*
X63052380Y-20080952D01*
X63004761Y-19985714D01*
X62957142Y-19938095D01*
X62052380Y-20842857D02*
X62052380Y-21509523D01*
X63052380Y-21080952D01*
%TO.C,C56*%
X47157142Y-19657142D02*
X47204761Y-19609523D01*
X47252380Y-19466666D01*
X47252380Y-19371428D01*
X47204761Y-19228571D01*
X47109523Y-19133333D01*
X47014285Y-19085714D01*
X46823809Y-19038095D01*
X46680952Y-19038095D01*
X46490476Y-19085714D01*
X46395238Y-19133333D01*
X46300000Y-19228571D01*
X46252380Y-19371428D01*
X46252380Y-19466666D01*
X46300000Y-19609523D01*
X46347619Y-19657142D01*
X46252380Y-20561904D02*
X46252380Y-20085714D01*
X46728571Y-20038095D01*
X46680952Y-20085714D01*
X46633333Y-20180952D01*
X46633333Y-20419047D01*
X46680952Y-20514285D01*
X46728571Y-20561904D01*
X46823809Y-20609523D01*
X47061904Y-20609523D01*
X47157142Y-20561904D01*
X47204761Y-20514285D01*
X47252380Y-20419047D01*
X47252380Y-20180952D01*
X47204761Y-20085714D01*
X47157142Y-20038095D01*
X46252380Y-21466666D02*
X46252380Y-21276190D01*
X46300000Y-21180952D01*
X46347619Y-21133333D01*
X46490476Y-21038095D01*
X46680952Y-20990476D01*
X47061904Y-20990476D01*
X47157142Y-21038095D01*
X47204761Y-21085714D01*
X47252380Y-21180952D01*
X47252380Y-21371428D01*
X47204761Y-21466666D01*
X47157142Y-21514285D01*
X47061904Y-21561904D01*
X46823809Y-21561904D01*
X46728571Y-21514285D01*
X46680952Y-21466666D01*
X46633333Y-21371428D01*
X46633333Y-21180952D01*
X46680952Y-21085714D01*
X46728571Y-21038095D01*
X46823809Y-20990476D01*
%TO.C,C55*%
X79957142Y-19657142D02*
X80004761Y-19609523D01*
X80052380Y-19466666D01*
X80052380Y-19371428D01*
X80004761Y-19228571D01*
X79909523Y-19133333D01*
X79814285Y-19085714D01*
X79623809Y-19038095D01*
X79480952Y-19038095D01*
X79290476Y-19085714D01*
X79195238Y-19133333D01*
X79100000Y-19228571D01*
X79052380Y-19371428D01*
X79052380Y-19466666D01*
X79100000Y-19609523D01*
X79147619Y-19657142D01*
X79052380Y-20561904D02*
X79052380Y-20085714D01*
X79528571Y-20038095D01*
X79480952Y-20085714D01*
X79433333Y-20180952D01*
X79433333Y-20419047D01*
X79480952Y-20514285D01*
X79528571Y-20561904D01*
X79623809Y-20609523D01*
X79861904Y-20609523D01*
X79957142Y-20561904D01*
X80004761Y-20514285D01*
X80052380Y-20419047D01*
X80052380Y-20180952D01*
X80004761Y-20085714D01*
X79957142Y-20038095D01*
X79052380Y-21514285D02*
X79052380Y-21038095D01*
X79528571Y-20990476D01*
X79480952Y-21038095D01*
X79433333Y-21133333D01*
X79433333Y-21371428D01*
X79480952Y-21466666D01*
X79528571Y-21514285D01*
X79623809Y-21561904D01*
X79861904Y-21561904D01*
X79957142Y-21514285D01*
X80004761Y-21466666D01*
X80052380Y-21371428D01*
X80052380Y-21133333D01*
X80004761Y-21038095D01*
X79957142Y-20990476D01*
%TO.C,C54*%
X65257142Y-19757142D02*
X65304761Y-19709523D01*
X65352380Y-19566666D01*
X65352380Y-19471428D01*
X65304761Y-19328571D01*
X65209523Y-19233333D01*
X65114285Y-19185714D01*
X64923809Y-19138095D01*
X64780952Y-19138095D01*
X64590476Y-19185714D01*
X64495238Y-19233333D01*
X64400000Y-19328571D01*
X64352380Y-19471428D01*
X64352380Y-19566666D01*
X64400000Y-19709523D01*
X64447619Y-19757142D01*
X64352380Y-20661904D02*
X64352380Y-20185714D01*
X64828571Y-20138095D01*
X64780952Y-20185714D01*
X64733333Y-20280952D01*
X64733333Y-20519047D01*
X64780952Y-20614285D01*
X64828571Y-20661904D01*
X64923809Y-20709523D01*
X65161904Y-20709523D01*
X65257142Y-20661904D01*
X65304761Y-20614285D01*
X65352380Y-20519047D01*
X65352380Y-20280952D01*
X65304761Y-20185714D01*
X65257142Y-20138095D01*
X64685714Y-21566666D02*
X65352380Y-21566666D01*
X64304761Y-21328571D02*
X65019047Y-21090476D01*
X65019047Y-21709523D01*
%TO.C,C53*%
X49357142Y-19657142D02*
X49404761Y-19609523D01*
X49452380Y-19466666D01*
X49452380Y-19371428D01*
X49404761Y-19228571D01*
X49309523Y-19133333D01*
X49214285Y-19085714D01*
X49023809Y-19038095D01*
X48880952Y-19038095D01*
X48690476Y-19085714D01*
X48595238Y-19133333D01*
X48500000Y-19228571D01*
X48452380Y-19371428D01*
X48452380Y-19466666D01*
X48500000Y-19609523D01*
X48547619Y-19657142D01*
X48452380Y-20561904D02*
X48452380Y-20085714D01*
X48928571Y-20038095D01*
X48880952Y-20085714D01*
X48833333Y-20180952D01*
X48833333Y-20419047D01*
X48880952Y-20514285D01*
X48928571Y-20561904D01*
X49023809Y-20609523D01*
X49261904Y-20609523D01*
X49357142Y-20561904D01*
X49404761Y-20514285D01*
X49452380Y-20419047D01*
X49452380Y-20180952D01*
X49404761Y-20085714D01*
X49357142Y-20038095D01*
X48452380Y-20942857D02*
X48452380Y-21561904D01*
X48833333Y-21228571D01*
X48833333Y-21371428D01*
X48880952Y-21466666D01*
X48928571Y-21514285D01*
X49023809Y-21561904D01*
X49261904Y-21561904D01*
X49357142Y-21514285D01*
X49404761Y-21466666D01*
X49452380Y-21371428D01*
X49452380Y-21085714D01*
X49404761Y-20990476D01*
X49357142Y-20942857D01*
%TO.C,C52*%
X86957142Y-19557142D02*
X87004761Y-19509523D01*
X87052380Y-19366666D01*
X87052380Y-19271428D01*
X87004761Y-19128571D01*
X86909523Y-19033333D01*
X86814285Y-18985714D01*
X86623809Y-18938095D01*
X86480952Y-18938095D01*
X86290476Y-18985714D01*
X86195238Y-19033333D01*
X86100000Y-19128571D01*
X86052380Y-19271428D01*
X86052380Y-19366666D01*
X86100000Y-19509523D01*
X86147619Y-19557142D01*
X86052380Y-20461904D02*
X86052380Y-19985714D01*
X86528571Y-19938095D01*
X86480952Y-19985714D01*
X86433333Y-20080952D01*
X86433333Y-20319047D01*
X86480952Y-20414285D01*
X86528571Y-20461904D01*
X86623809Y-20509523D01*
X86861904Y-20509523D01*
X86957142Y-20461904D01*
X87004761Y-20414285D01*
X87052380Y-20319047D01*
X87052380Y-20080952D01*
X87004761Y-19985714D01*
X86957142Y-19938095D01*
X86147619Y-20890476D02*
X86100000Y-20938095D01*
X86052380Y-21033333D01*
X86052380Y-21271428D01*
X86100000Y-21366666D01*
X86147619Y-21414285D01*
X86242857Y-21461904D01*
X86338095Y-21461904D01*
X86480952Y-21414285D01*
X87052380Y-20842857D01*
X87052380Y-21461904D01*
%TO.C,C51*%
X75357142Y-19657142D02*
X75404761Y-19609523D01*
X75452380Y-19466666D01*
X75452380Y-19371428D01*
X75404761Y-19228571D01*
X75309523Y-19133333D01*
X75214285Y-19085714D01*
X75023809Y-19038095D01*
X74880952Y-19038095D01*
X74690476Y-19085714D01*
X74595238Y-19133333D01*
X74500000Y-19228571D01*
X74452380Y-19371428D01*
X74452380Y-19466666D01*
X74500000Y-19609523D01*
X74547619Y-19657142D01*
X74452380Y-20561904D02*
X74452380Y-20085714D01*
X74928571Y-20038095D01*
X74880952Y-20085714D01*
X74833333Y-20180952D01*
X74833333Y-20419047D01*
X74880952Y-20514285D01*
X74928571Y-20561904D01*
X75023809Y-20609523D01*
X75261904Y-20609523D01*
X75357142Y-20561904D01*
X75404761Y-20514285D01*
X75452380Y-20419047D01*
X75452380Y-20180952D01*
X75404761Y-20085714D01*
X75357142Y-20038095D01*
X75452380Y-21561904D02*
X75452380Y-20990476D01*
X75452380Y-21276190D02*
X74452380Y-21276190D01*
X74595238Y-21180952D01*
X74690476Y-21085714D01*
X74738095Y-20990476D01*
%TO.C,C50*%
X51657142Y-19657142D02*
X51704761Y-19609523D01*
X51752380Y-19466666D01*
X51752380Y-19371428D01*
X51704761Y-19228571D01*
X51609523Y-19133333D01*
X51514285Y-19085714D01*
X51323809Y-19038095D01*
X51180952Y-19038095D01*
X50990476Y-19085714D01*
X50895238Y-19133333D01*
X50800000Y-19228571D01*
X50752380Y-19371428D01*
X50752380Y-19466666D01*
X50800000Y-19609523D01*
X50847619Y-19657142D01*
X50752380Y-20561904D02*
X50752380Y-20085714D01*
X51228571Y-20038095D01*
X51180952Y-20085714D01*
X51133333Y-20180952D01*
X51133333Y-20419047D01*
X51180952Y-20514285D01*
X51228571Y-20561904D01*
X51323809Y-20609523D01*
X51561904Y-20609523D01*
X51657142Y-20561904D01*
X51704761Y-20514285D01*
X51752380Y-20419047D01*
X51752380Y-20180952D01*
X51704761Y-20085714D01*
X51657142Y-20038095D01*
X50752380Y-21228571D02*
X50752380Y-21323809D01*
X50800000Y-21419047D01*
X50847619Y-21466666D01*
X50942857Y-21514285D01*
X51133333Y-21561904D01*
X51371428Y-21561904D01*
X51561904Y-21514285D01*
X51657142Y-21466666D01*
X51704761Y-21419047D01*
X51752380Y-21323809D01*
X51752380Y-21228571D01*
X51704761Y-21133333D01*
X51657142Y-21085714D01*
X51561904Y-21038095D01*
X51371428Y-20990476D01*
X51133333Y-20990476D01*
X50942857Y-21038095D01*
X50847619Y-21085714D01*
X50800000Y-21133333D01*
X50752380Y-21228571D01*
%TO.C,C49*%
X89357142Y-19557142D02*
X89404761Y-19509523D01*
X89452380Y-19366666D01*
X89452380Y-19271428D01*
X89404761Y-19128571D01*
X89309523Y-19033333D01*
X89214285Y-18985714D01*
X89023809Y-18938095D01*
X88880952Y-18938095D01*
X88690476Y-18985714D01*
X88595238Y-19033333D01*
X88500000Y-19128571D01*
X88452380Y-19271428D01*
X88452380Y-19366666D01*
X88500000Y-19509523D01*
X88547619Y-19557142D01*
X88785714Y-20414285D02*
X89452380Y-20414285D01*
X88404761Y-20176190D02*
X89119047Y-19938095D01*
X89119047Y-20557142D01*
X89452380Y-20985714D02*
X89452380Y-21176190D01*
X89404761Y-21271428D01*
X89357142Y-21319047D01*
X89214285Y-21414285D01*
X89023809Y-21461904D01*
X88642857Y-21461904D01*
X88547619Y-21414285D01*
X88500000Y-21366666D01*
X88452380Y-21271428D01*
X88452380Y-21080952D01*
X88500000Y-20985714D01*
X88547619Y-20938095D01*
X88642857Y-20890476D01*
X88880952Y-20890476D01*
X88976190Y-20938095D01*
X89023809Y-20985714D01*
X89071428Y-21080952D01*
X89071428Y-21271428D01*
X89023809Y-21366666D01*
X88976190Y-21414285D01*
X88880952Y-21461904D01*
%TO.C,C48*%
X54057142Y-19657142D02*
X54104761Y-19609523D01*
X54152380Y-19466666D01*
X54152380Y-19371428D01*
X54104761Y-19228571D01*
X54009523Y-19133333D01*
X53914285Y-19085714D01*
X53723809Y-19038095D01*
X53580952Y-19038095D01*
X53390476Y-19085714D01*
X53295238Y-19133333D01*
X53200000Y-19228571D01*
X53152380Y-19371428D01*
X53152380Y-19466666D01*
X53200000Y-19609523D01*
X53247619Y-19657142D01*
X53485714Y-20514285D02*
X54152380Y-20514285D01*
X53104761Y-20276190D02*
X53819047Y-20038095D01*
X53819047Y-20657142D01*
X53580952Y-21180952D02*
X53533333Y-21085714D01*
X53485714Y-21038095D01*
X53390476Y-20990476D01*
X53342857Y-20990476D01*
X53247619Y-21038095D01*
X53200000Y-21085714D01*
X53152380Y-21180952D01*
X53152380Y-21371428D01*
X53200000Y-21466666D01*
X53247619Y-21514285D01*
X53342857Y-21561904D01*
X53390476Y-21561904D01*
X53485714Y-21514285D01*
X53533333Y-21466666D01*
X53580952Y-21371428D01*
X53580952Y-21180952D01*
X53628571Y-21085714D01*
X53676190Y-21038095D01*
X53771428Y-20990476D01*
X53961904Y-20990476D01*
X54057142Y-21038095D01*
X54104761Y-21085714D01*
X54152380Y-21180952D01*
X54152380Y-21371428D01*
X54104761Y-21466666D01*
X54057142Y-21514285D01*
X53961904Y-21561904D01*
X53771428Y-21561904D01*
X53676190Y-21514285D01*
X53628571Y-21466666D01*
X53580952Y-21371428D01*
%TO.C,C47*%
X91457142Y-19657142D02*
X91504761Y-19609523D01*
X91552380Y-19466666D01*
X91552380Y-19371428D01*
X91504761Y-19228571D01*
X91409523Y-19133333D01*
X91314285Y-19085714D01*
X91123809Y-19038095D01*
X90980952Y-19038095D01*
X90790476Y-19085714D01*
X90695238Y-19133333D01*
X90600000Y-19228571D01*
X90552380Y-19371428D01*
X90552380Y-19466666D01*
X90600000Y-19609523D01*
X90647619Y-19657142D01*
X90885714Y-20514285D02*
X91552380Y-20514285D01*
X90504761Y-20276190D02*
X91219047Y-20038095D01*
X91219047Y-20657142D01*
X90552380Y-20942857D02*
X90552380Y-21609523D01*
X91552380Y-21180952D01*
%TO.C,C46*%
X93657142Y-19657142D02*
X93704761Y-19609523D01*
X93752380Y-19466666D01*
X93752380Y-19371428D01*
X93704761Y-19228571D01*
X93609523Y-19133333D01*
X93514285Y-19085714D01*
X93323809Y-19038095D01*
X93180952Y-19038095D01*
X92990476Y-19085714D01*
X92895238Y-19133333D01*
X92800000Y-19228571D01*
X92752380Y-19371428D01*
X92752380Y-19466666D01*
X92800000Y-19609523D01*
X92847619Y-19657142D01*
X93085714Y-20514285D02*
X93752380Y-20514285D01*
X92704761Y-20276190D02*
X93419047Y-20038095D01*
X93419047Y-20657142D01*
X92752380Y-21466666D02*
X92752380Y-21276190D01*
X92800000Y-21180952D01*
X92847619Y-21133333D01*
X92990476Y-21038095D01*
X93180952Y-20990476D01*
X93561904Y-20990476D01*
X93657142Y-21038095D01*
X93704761Y-21085714D01*
X93752380Y-21180952D01*
X93752380Y-21371428D01*
X93704761Y-21466666D01*
X93657142Y-21514285D01*
X93561904Y-21561904D01*
X93323809Y-21561904D01*
X93228571Y-21514285D01*
X93180952Y-21466666D01*
X93133333Y-21371428D01*
X93133333Y-21180952D01*
X93180952Y-21085714D01*
X93228571Y-21038095D01*
X93323809Y-20990476D01*
%TO.C,V11*%
X17285714Y-40852380D02*
X16952380Y-41852380D01*
X16619047Y-40852380D01*
X15761904Y-41852380D02*
X16333333Y-41852380D01*
X16047619Y-41852380D02*
X16047619Y-40852380D01*
X16142857Y-40995238D01*
X16238095Y-41090476D01*
X16333333Y-41138095D01*
X14809523Y-41852380D02*
X15380952Y-41852380D01*
X15095238Y-41852380D02*
X15095238Y-40852380D01*
X15190476Y-40995238D01*
X15285714Y-41090476D01*
X15380952Y-41138095D01*
%TO.C,V10*%
X16685714Y-26052380D02*
X16352380Y-27052380D01*
X16019047Y-26052380D01*
X15161904Y-27052380D02*
X15733333Y-27052380D01*
X15447619Y-27052380D02*
X15447619Y-26052380D01*
X15542857Y-26195238D01*
X15638095Y-26290476D01*
X15733333Y-26338095D01*
X14542857Y-26052380D02*
X14447619Y-26052380D01*
X14352380Y-26100000D01*
X14304761Y-26147619D01*
X14257142Y-26242857D01*
X14209523Y-26433333D01*
X14209523Y-26671428D01*
X14257142Y-26861904D01*
X14304761Y-26957142D01*
X14352380Y-27004761D01*
X14447619Y-27052380D01*
X14542857Y-27052380D01*
X14638095Y-27004761D01*
X14685714Y-26957142D01*
X14733333Y-26861904D01*
X14780952Y-26671428D01*
X14780952Y-26433333D01*
X14733333Y-26242857D01*
X14685714Y-26147619D01*
X14638095Y-26100000D01*
X14542857Y-26052380D01*
%TO.C,V9*%
X16709523Y-78552380D02*
X16376190Y-79552380D01*
X16042857Y-78552380D01*
X15661904Y-79552380D02*
X15471428Y-79552380D01*
X15376190Y-79504761D01*
X15328571Y-79457142D01*
X15233333Y-79314285D01*
X15185714Y-79123809D01*
X15185714Y-78742857D01*
X15233333Y-78647619D01*
X15280952Y-78600000D01*
X15376190Y-78552380D01*
X15566666Y-78552380D01*
X15661904Y-78600000D01*
X15709523Y-78647619D01*
X15757142Y-78742857D01*
X15757142Y-78980952D01*
X15709523Y-79076190D01*
X15661904Y-79123809D01*
X15566666Y-79171428D01*
X15376190Y-79171428D01*
X15280952Y-79123809D01*
X15233333Y-79076190D01*
X15185714Y-78980952D01*
%TO.C,V8*%
X16909523Y-52652380D02*
X16576190Y-53652380D01*
X16242857Y-52652380D01*
X15766666Y-53080952D02*
X15861904Y-53033333D01*
X15909523Y-52985714D01*
X15957142Y-52890476D01*
X15957142Y-52842857D01*
X15909523Y-52747619D01*
X15861904Y-52700000D01*
X15766666Y-52652380D01*
X15576190Y-52652380D01*
X15480952Y-52700000D01*
X15433333Y-52747619D01*
X15385714Y-52842857D01*
X15385714Y-52890476D01*
X15433333Y-52985714D01*
X15480952Y-53033333D01*
X15576190Y-53080952D01*
X15766666Y-53080952D01*
X15861904Y-53128571D01*
X15909523Y-53176190D01*
X15957142Y-53271428D01*
X15957142Y-53461904D01*
X15909523Y-53557142D01*
X15861904Y-53604761D01*
X15766666Y-53652380D01*
X15576190Y-53652380D01*
X15480952Y-53604761D01*
X15433333Y-53557142D01*
X15385714Y-53461904D01*
X15385714Y-53271428D01*
X15433333Y-53176190D01*
X15480952Y-53128571D01*
X15576190Y-53080952D01*
%TO.C,V7*%
X16109523Y-92552380D02*
X15776190Y-93552380D01*
X15442857Y-92552380D01*
X15204761Y-92552380D02*
X14538095Y-92552380D01*
X14966666Y-93552380D01*
%TO.C,V6*%
X14009523Y-62152380D02*
X13676190Y-63152380D01*
X13342857Y-62152380D01*
X12580952Y-62152380D02*
X12771428Y-62152380D01*
X12866666Y-62200000D01*
X12914285Y-62247619D01*
X13009523Y-62390476D01*
X13057142Y-62580952D01*
X13057142Y-62961904D01*
X13009523Y-63057142D01*
X12961904Y-63104761D01*
X12866666Y-63152380D01*
X12676190Y-63152380D01*
X12580952Y-63104761D01*
X12533333Y-63057142D01*
X12485714Y-62961904D01*
X12485714Y-62723809D01*
X12533333Y-62628571D01*
X12580952Y-62580952D01*
X12676190Y-62533333D01*
X12866666Y-62533333D01*
X12961904Y-62580952D01*
X13009523Y-62628571D01*
X13057142Y-62723809D01*
%TO.C,V5*%
X124809523Y-26552380D02*
X124476190Y-27552380D01*
X124142857Y-26552380D01*
X123333333Y-26552380D02*
X123809523Y-26552380D01*
X123857142Y-27028571D01*
X123809523Y-26980952D01*
X123714285Y-26933333D01*
X123476190Y-26933333D01*
X123380952Y-26980952D01*
X123333333Y-27028571D01*
X123285714Y-27123809D01*
X123285714Y-27361904D01*
X123333333Y-27457142D01*
X123380952Y-27504761D01*
X123476190Y-27552380D01*
X123714285Y-27552380D01*
X123809523Y-27504761D01*
X123857142Y-27457142D01*
%TO.C,V4*%
X125309523Y-40652380D02*
X124976190Y-41652380D01*
X124642857Y-40652380D01*
X123880952Y-40985714D02*
X123880952Y-41652380D01*
X124119047Y-40604761D02*
X124357142Y-41319047D01*
X123738095Y-41319047D01*
%TO.C,V3*%
X124809523Y-52552380D02*
X124476190Y-53552380D01*
X124142857Y-52552380D01*
X123904761Y-52552380D02*
X123285714Y-52552380D01*
X123619047Y-52933333D01*
X123476190Y-52933333D01*
X123380952Y-52980952D01*
X123333333Y-53028571D01*
X123285714Y-53123809D01*
X123285714Y-53361904D01*
X123333333Y-53457142D01*
X123380952Y-53504761D01*
X123476190Y-53552380D01*
X123761904Y-53552380D01*
X123857142Y-53504761D01*
X123904761Y-53457142D01*
%TO.C,V2*%
X124609523Y-66052380D02*
X124276190Y-67052380D01*
X123942857Y-66052380D01*
X123657142Y-66147619D02*
X123609523Y-66100000D01*
X123514285Y-66052380D01*
X123276190Y-66052380D01*
X123180952Y-66100000D01*
X123133333Y-66147619D01*
X123085714Y-66242857D01*
X123085714Y-66338095D01*
X123133333Y-66480952D01*
X123704761Y-67052380D01*
X123085714Y-67052380D01*
%TO.C,V1*%
X124609523Y-78652380D02*
X124276190Y-79652380D01*
X123942857Y-78652380D01*
X123085714Y-79652380D02*
X123657142Y-79652380D01*
X123371428Y-79652380D02*
X123371428Y-78652380D01*
X123466666Y-78795238D01*
X123561904Y-78890476D01*
X123657142Y-78938095D01*
%TO.C,V0*%
X124409523Y-92652380D02*
X124076190Y-93652380D01*
X123742857Y-92652380D01*
X123219047Y-92652380D02*
X123123809Y-92652380D01*
X123028571Y-92700000D01*
X122980952Y-92747619D01*
X122933333Y-92842857D01*
X122885714Y-93033333D01*
X122885714Y-93271428D01*
X122933333Y-93461904D01*
X122980952Y-93557142D01*
X123028571Y-93604761D01*
X123123809Y-93652380D01*
X123219047Y-93652380D01*
X123314285Y-93604761D01*
X123361904Y-93557142D01*
X123409523Y-93461904D01*
X123457142Y-93271428D01*
X123457142Y-93033333D01*
X123409523Y-92842857D01*
X123361904Y-92747619D01*
X123314285Y-92700000D01*
X123219047Y-92652380D01*
%TD*%
M02*
