%TF.GenerationSoftware,KiCad,Pcbnew,(5.1.9)-1*%
%TF.CreationDate,2021-03-14T17:38:15+01:00*%
%TF.ProjectId,Bobbycontroller,426f6262-7963-46f6-9e74-726f6c6c6572,rev?*%
%TF.SameCoordinates,Original*%
%TF.FileFunction,Legend,Bot*%
%TF.FilePolarity,Positive*%
%FSLAX46Y46*%
G04 Gerber Fmt 4.6, Leading zero omitted, Abs format (unit mm)*
G04 Created by KiCad (PCBNEW (5.1.9)-1) date 2021-03-14 17:38:15*
%MOMM*%
%LPD*%
G01*
G04 APERTURE LIST*
%ADD10C,0.120000*%
%ADD11C,0.150000*%
G04 APERTURE END LIST*
D10*
%TO.C,C69*%
X16597936Y-35590000D02*
X17802064Y-35590000D01*
X16597936Y-37410000D02*
X17802064Y-37410000D01*
%TO.C,C68*%
X16497936Y-87490000D02*
X17702064Y-87490000D01*
X16497936Y-89310000D02*
X17702064Y-89310000D01*
%TO.C,C67*%
X16597936Y-61690000D02*
X17802064Y-61690000D01*
X16597936Y-63510000D02*
X17802064Y-63510000D01*
%TO.C,C66*%
X123902064Y-58410000D02*
X122697936Y-58410000D01*
X123902064Y-56590000D02*
X122697936Y-56590000D01*
%TO.C,C65*%
X123902064Y-84410000D02*
X122697936Y-84410000D01*
X123902064Y-82590000D02*
X122697936Y-82590000D01*
%TO.C,C64*%
X123902064Y-32410000D02*
X122697936Y-32410000D01*
X123902064Y-30590000D02*
X122697936Y-30590000D01*
%TO.C,C59*%
X61240000Y-17182064D02*
X61240000Y-15977936D01*
X59420000Y-17182064D02*
X59420000Y-15977936D01*
%TO.C,C58*%
X78210000Y-17102064D02*
X78210000Y-15897936D01*
X76390000Y-17102064D02*
X76390000Y-15897936D01*
%TO.C,C57*%
X63510000Y-17182064D02*
X63510000Y-15977936D01*
X61690000Y-17182064D02*
X61690000Y-15977936D01*
%TO.C,C56*%
X47610000Y-17102064D02*
X47610000Y-15897936D01*
X45790000Y-17102064D02*
X45790000Y-15897936D01*
%TO.C,C55*%
X80510000Y-17102064D02*
X80510000Y-15897936D01*
X78690000Y-17102064D02*
X78690000Y-15897936D01*
%TO.C,C54*%
X65810000Y-17182064D02*
X65810000Y-15977936D01*
X63990000Y-17182064D02*
X63990000Y-15977936D01*
%TO.C,C53*%
X49910000Y-17092064D02*
X49910000Y-15887936D01*
X48090000Y-17092064D02*
X48090000Y-15887936D01*
%TO.C,C52*%
X87510000Y-17102064D02*
X87510000Y-15897936D01*
X85690000Y-17102064D02*
X85690000Y-15897936D01*
%TO.C,C51*%
X75910000Y-17102064D02*
X75910000Y-15897936D01*
X74090000Y-17102064D02*
X74090000Y-15897936D01*
%TO.C,C50*%
X52210000Y-17092064D02*
X52210000Y-15887936D01*
X50390000Y-17092064D02*
X50390000Y-15887936D01*
%TO.C,C49*%
X89730000Y-17102064D02*
X89730000Y-15897936D01*
X87910000Y-17102064D02*
X87910000Y-15897936D01*
%TO.C,C48*%
X54510000Y-17102064D02*
X54510000Y-15897936D01*
X52690000Y-17102064D02*
X52690000Y-15897936D01*
%TO.C,C47*%
X92010000Y-17102064D02*
X92010000Y-15897936D01*
X90190000Y-17102064D02*
X90190000Y-15897936D01*
%TO.C,C46*%
X94310000Y-17102064D02*
X94310000Y-15897936D01*
X92490000Y-17102064D02*
X92490000Y-15897936D01*
%TO.C,V11*%
X24550000Y-46200000D02*
X23050000Y-46200000D01*
X23050000Y-46200000D02*
X23050000Y-44390000D01*
X23050000Y-44390000D02*
X17925000Y-44390000D01*
X24550000Y-35800000D02*
X23050000Y-35800000D01*
X23050000Y-35800000D02*
X23050000Y-37610000D01*
X23050000Y-37610000D02*
X21950000Y-37610000D01*
%TO.C,V10*%
X27450000Y-21800000D02*
X28950000Y-21800000D01*
X28950000Y-21800000D02*
X28950000Y-23610000D01*
X28950000Y-23610000D02*
X34075000Y-23610000D01*
X27450000Y-32200000D02*
X28950000Y-32200000D01*
X28950000Y-32200000D02*
X28950000Y-30390000D01*
X28950000Y-30390000D02*
X30050000Y-30390000D01*
%TO.C,V9*%
X24550000Y-72200000D02*
X23050000Y-72200000D01*
X23050000Y-72200000D02*
X23050000Y-70390000D01*
X23050000Y-70390000D02*
X17925000Y-70390000D01*
X24550000Y-61800000D02*
X23050000Y-61800000D01*
X23050000Y-61800000D02*
X23050000Y-63610000D01*
X23050000Y-63610000D02*
X21950000Y-63610000D01*
%TO.C,V8*%
X27450000Y-47800000D02*
X28950000Y-47800000D01*
X28950000Y-47800000D02*
X28950000Y-49610000D01*
X28950000Y-49610000D02*
X34075000Y-49610000D01*
X27450000Y-58200000D02*
X28950000Y-58200000D01*
X28950000Y-58200000D02*
X28950000Y-56390000D01*
X28950000Y-56390000D02*
X30050000Y-56390000D01*
%TO.C,V7*%
X24550000Y-98200000D02*
X23050000Y-98200000D01*
X23050000Y-98200000D02*
X23050000Y-96390000D01*
X23050000Y-96390000D02*
X17925000Y-96390000D01*
X24550000Y-87800000D02*
X23050000Y-87800000D01*
X23050000Y-87800000D02*
X23050000Y-89610000D01*
X23050000Y-89610000D02*
X21950000Y-89610000D01*
%TO.C,V6*%
X27450000Y-73800000D02*
X28950000Y-73800000D01*
X28950000Y-73800000D02*
X28950000Y-75610000D01*
X28950000Y-75610000D02*
X34075000Y-75610000D01*
X27450000Y-84200000D02*
X28950000Y-84200000D01*
X28950000Y-84200000D02*
X28950000Y-82390000D01*
X28950000Y-82390000D02*
X30050000Y-82390000D01*
%TO.C,V5*%
X115450000Y-21800000D02*
X116950000Y-21800000D01*
X116950000Y-21800000D02*
X116950000Y-23610000D01*
X116950000Y-23610000D02*
X122075000Y-23610000D01*
X115450000Y-32200000D02*
X116950000Y-32200000D01*
X116950000Y-32200000D02*
X116950000Y-30390000D01*
X116950000Y-30390000D02*
X118050000Y-30390000D01*
%TO.C,V4*%
X112550000Y-46200000D02*
X111050000Y-46200000D01*
X111050000Y-46200000D02*
X111050000Y-44390000D01*
X111050000Y-44390000D02*
X105925000Y-44390000D01*
X112550000Y-35800000D02*
X111050000Y-35800000D01*
X111050000Y-35800000D02*
X111050000Y-37610000D01*
X111050000Y-37610000D02*
X109950000Y-37610000D01*
%TO.C,V3*%
X115450000Y-47800000D02*
X116950000Y-47800000D01*
X116950000Y-47800000D02*
X116950000Y-49610000D01*
X116950000Y-49610000D02*
X122075000Y-49610000D01*
X115450000Y-58200000D02*
X116950000Y-58200000D01*
X116950000Y-58200000D02*
X116950000Y-56390000D01*
X116950000Y-56390000D02*
X118050000Y-56390000D01*
%TO.C,V2*%
X112550000Y-72200000D02*
X111050000Y-72200000D01*
X111050000Y-72200000D02*
X111050000Y-70390000D01*
X111050000Y-70390000D02*
X105925000Y-70390000D01*
X112550000Y-61800000D02*
X111050000Y-61800000D01*
X111050000Y-61800000D02*
X111050000Y-63610000D01*
X111050000Y-63610000D02*
X109950000Y-63610000D01*
%TO.C,V1*%
X115450000Y-73800000D02*
X116950000Y-73800000D01*
X116950000Y-73800000D02*
X116950000Y-75610000D01*
X116950000Y-75610000D02*
X122075000Y-75610000D01*
X115450000Y-84200000D02*
X116950000Y-84200000D01*
X116950000Y-84200000D02*
X116950000Y-82390000D01*
X116950000Y-82390000D02*
X118050000Y-82390000D01*
%TO.C,V0*%
X112550000Y-98200000D02*
X111050000Y-98200000D01*
X111050000Y-98200000D02*
X111050000Y-96390000D01*
X111050000Y-96390000D02*
X105925000Y-96390000D01*
X112550000Y-87800000D02*
X111050000Y-87800000D01*
X111050000Y-87800000D02*
X111050000Y-89610000D01*
X111050000Y-89610000D02*
X109950000Y-89610000D01*
%TO.C,C81*%
D11*
X85642857Y-89607142D02*
X85690476Y-89654761D01*
X85833333Y-89702380D01*
X85928571Y-89702380D01*
X86071428Y-89654761D01*
X86166666Y-89559523D01*
X86214285Y-89464285D01*
X86261904Y-89273809D01*
X86261904Y-89130952D01*
X86214285Y-88940476D01*
X86166666Y-88845238D01*
X86071428Y-88750000D01*
X85928571Y-88702380D01*
X85833333Y-88702380D01*
X85690476Y-88750000D01*
X85642857Y-88797619D01*
X85071428Y-89130952D02*
X85166666Y-89083333D01*
X85214285Y-89035714D01*
X85261904Y-88940476D01*
X85261904Y-88892857D01*
X85214285Y-88797619D01*
X85166666Y-88750000D01*
X85071428Y-88702380D01*
X84880952Y-88702380D01*
X84785714Y-88750000D01*
X84738095Y-88797619D01*
X84690476Y-88892857D01*
X84690476Y-88940476D01*
X84738095Y-89035714D01*
X84785714Y-89083333D01*
X84880952Y-89130952D01*
X85071428Y-89130952D01*
X85166666Y-89178571D01*
X85214285Y-89226190D01*
X85261904Y-89321428D01*
X85261904Y-89511904D01*
X85214285Y-89607142D01*
X85166666Y-89654761D01*
X85071428Y-89702380D01*
X84880952Y-89702380D01*
X84785714Y-89654761D01*
X84738095Y-89607142D01*
X84690476Y-89511904D01*
X84690476Y-89321428D01*
X84738095Y-89226190D01*
X84785714Y-89178571D01*
X84880952Y-89130952D01*
X83738095Y-89702380D02*
X84309523Y-89702380D01*
X84023809Y-89702380D02*
X84023809Y-88702380D01*
X84119047Y-88845238D01*
X84214285Y-88940476D01*
X84309523Y-88988095D01*
%TO.C,C80*%
X85642857Y-91107142D02*
X85690476Y-91154761D01*
X85833333Y-91202380D01*
X85928571Y-91202380D01*
X86071428Y-91154761D01*
X86166666Y-91059523D01*
X86214285Y-90964285D01*
X86261904Y-90773809D01*
X86261904Y-90630952D01*
X86214285Y-90440476D01*
X86166666Y-90345238D01*
X86071428Y-90250000D01*
X85928571Y-90202380D01*
X85833333Y-90202380D01*
X85690476Y-90250000D01*
X85642857Y-90297619D01*
X85071428Y-90630952D02*
X85166666Y-90583333D01*
X85214285Y-90535714D01*
X85261904Y-90440476D01*
X85261904Y-90392857D01*
X85214285Y-90297619D01*
X85166666Y-90250000D01*
X85071428Y-90202380D01*
X84880952Y-90202380D01*
X84785714Y-90250000D01*
X84738095Y-90297619D01*
X84690476Y-90392857D01*
X84690476Y-90440476D01*
X84738095Y-90535714D01*
X84785714Y-90583333D01*
X84880952Y-90630952D01*
X85071428Y-90630952D01*
X85166666Y-90678571D01*
X85214285Y-90726190D01*
X85261904Y-90821428D01*
X85261904Y-91011904D01*
X85214285Y-91107142D01*
X85166666Y-91154761D01*
X85071428Y-91202380D01*
X84880952Y-91202380D01*
X84785714Y-91154761D01*
X84738095Y-91107142D01*
X84690476Y-91011904D01*
X84690476Y-90821428D01*
X84738095Y-90726190D01*
X84785714Y-90678571D01*
X84880952Y-90630952D01*
X84071428Y-90202380D02*
X83976190Y-90202380D01*
X83880952Y-90250000D01*
X83833333Y-90297619D01*
X83785714Y-90392857D01*
X83738095Y-90583333D01*
X83738095Y-90821428D01*
X83785714Y-91011904D01*
X83833333Y-91107142D01*
X83880952Y-91154761D01*
X83976190Y-91202380D01*
X84071428Y-91202380D01*
X84166666Y-91154761D01*
X84214285Y-91107142D01*
X84261904Y-91011904D01*
X84309523Y-90821428D01*
X84309523Y-90583333D01*
X84261904Y-90392857D01*
X84214285Y-90297619D01*
X84166666Y-90250000D01*
X84071428Y-90202380D01*
%TO.C,C79*%
X88142857Y-85857142D02*
X88190476Y-85904761D01*
X88333333Y-85952380D01*
X88428571Y-85952380D01*
X88571428Y-85904761D01*
X88666666Y-85809523D01*
X88714285Y-85714285D01*
X88761904Y-85523809D01*
X88761904Y-85380952D01*
X88714285Y-85190476D01*
X88666666Y-85095238D01*
X88571428Y-85000000D01*
X88428571Y-84952380D01*
X88333333Y-84952380D01*
X88190476Y-85000000D01*
X88142857Y-85047619D01*
X87809523Y-84952380D02*
X87142857Y-84952380D01*
X87571428Y-85952380D01*
X86714285Y-85952380D02*
X86523809Y-85952380D01*
X86428571Y-85904761D01*
X86380952Y-85857142D01*
X86285714Y-85714285D01*
X86238095Y-85523809D01*
X86238095Y-85142857D01*
X86285714Y-85047619D01*
X86333333Y-85000000D01*
X86428571Y-84952380D01*
X86619047Y-84952380D01*
X86714285Y-85000000D01*
X86761904Y-85047619D01*
X86809523Y-85142857D01*
X86809523Y-85380952D01*
X86761904Y-85476190D01*
X86714285Y-85523809D01*
X86619047Y-85571428D01*
X86428571Y-85571428D01*
X86333333Y-85523809D01*
X86285714Y-85476190D01*
X86238095Y-85380952D01*
%TO.C,C78*%
X93357142Y-91607142D02*
X93404761Y-91559523D01*
X93452380Y-91416666D01*
X93452380Y-91321428D01*
X93404761Y-91178571D01*
X93309523Y-91083333D01*
X93214285Y-91035714D01*
X93023809Y-90988095D01*
X92880952Y-90988095D01*
X92690476Y-91035714D01*
X92595238Y-91083333D01*
X92500000Y-91178571D01*
X92452380Y-91321428D01*
X92452380Y-91416666D01*
X92500000Y-91559523D01*
X92547619Y-91607142D01*
X92452380Y-91940476D02*
X92452380Y-92607142D01*
X93452380Y-92178571D01*
X92880952Y-93130952D02*
X92833333Y-93035714D01*
X92785714Y-92988095D01*
X92690476Y-92940476D01*
X92642857Y-92940476D01*
X92547619Y-92988095D01*
X92500000Y-93035714D01*
X92452380Y-93130952D01*
X92452380Y-93321428D01*
X92500000Y-93416666D01*
X92547619Y-93464285D01*
X92642857Y-93511904D01*
X92690476Y-93511904D01*
X92785714Y-93464285D01*
X92833333Y-93416666D01*
X92880952Y-93321428D01*
X92880952Y-93130952D01*
X92928571Y-93035714D01*
X92976190Y-92988095D01*
X93071428Y-92940476D01*
X93261904Y-92940476D01*
X93357142Y-92988095D01*
X93404761Y-93035714D01*
X93452380Y-93130952D01*
X93452380Y-93321428D01*
X93404761Y-93416666D01*
X93357142Y-93464285D01*
X93261904Y-93511904D01*
X93071428Y-93511904D01*
X92976190Y-93464285D01*
X92928571Y-93416666D01*
X92880952Y-93321428D01*
%TO.C,C77*%
X91142857Y-85857142D02*
X91190476Y-85904761D01*
X91333333Y-85952380D01*
X91428571Y-85952380D01*
X91571428Y-85904761D01*
X91666666Y-85809523D01*
X91714285Y-85714285D01*
X91761904Y-85523809D01*
X91761904Y-85380952D01*
X91714285Y-85190476D01*
X91666666Y-85095238D01*
X91571428Y-85000000D01*
X91428571Y-84952380D01*
X91333333Y-84952380D01*
X91190476Y-85000000D01*
X91142857Y-85047619D01*
X90809523Y-84952380D02*
X90142857Y-84952380D01*
X90571428Y-85952380D01*
X89857142Y-84952380D02*
X89190476Y-84952380D01*
X89619047Y-85952380D01*
%TO.C,D17*%
X90547619Y-80964285D02*
X91547619Y-80964285D01*
X91547619Y-80726190D01*
X91500000Y-80583333D01*
X91404761Y-80488095D01*
X91309523Y-80440476D01*
X91119047Y-80392857D01*
X90976190Y-80392857D01*
X90785714Y-80440476D01*
X90690476Y-80488095D01*
X90595238Y-80583333D01*
X90547619Y-80726190D01*
X90547619Y-80964285D01*
X90547619Y-79440476D02*
X90547619Y-80011904D01*
X90547619Y-79726190D02*
X91547619Y-79726190D01*
X91404761Y-79821428D01*
X91309523Y-79916666D01*
X91261904Y-80011904D01*
X91547619Y-79107142D02*
X91547619Y-78440476D01*
X90547619Y-78869047D01*
%TO.C,R46*%
X77392857Y-82202380D02*
X77726190Y-81726190D01*
X77964285Y-82202380D02*
X77964285Y-81202380D01*
X77583333Y-81202380D01*
X77488095Y-81250000D01*
X77440476Y-81297619D01*
X77392857Y-81392857D01*
X77392857Y-81535714D01*
X77440476Y-81630952D01*
X77488095Y-81678571D01*
X77583333Y-81726190D01*
X77964285Y-81726190D01*
X76535714Y-81535714D02*
X76535714Y-82202380D01*
X76773809Y-81154761D02*
X77011904Y-81869047D01*
X76392857Y-81869047D01*
X75583333Y-81202380D02*
X75773809Y-81202380D01*
X75869047Y-81250000D01*
X75916666Y-81297619D01*
X76011904Y-81440476D01*
X76059523Y-81630952D01*
X76059523Y-82011904D01*
X76011904Y-82107142D01*
X75964285Y-82154761D01*
X75869047Y-82202380D01*
X75678571Y-82202380D01*
X75583333Y-82154761D01*
X75535714Y-82107142D01*
X75488095Y-82011904D01*
X75488095Y-81773809D01*
X75535714Y-81678571D01*
X75583333Y-81630952D01*
X75678571Y-81583333D01*
X75869047Y-81583333D01*
X75964285Y-81630952D01*
X76011904Y-81678571D01*
X76059523Y-81773809D01*
%TO.C,R59*%
X94892857Y-85452380D02*
X95226190Y-84976190D01*
X95464285Y-85452380D02*
X95464285Y-84452380D01*
X95083333Y-84452380D01*
X94988095Y-84500000D01*
X94940476Y-84547619D01*
X94892857Y-84642857D01*
X94892857Y-84785714D01*
X94940476Y-84880952D01*
X94988095Y-84928571D01*
X95083333Y-84976190D01*
X95464285Y-84976190D01*
X93988095Y-84452380D02*
X94464285Y-84452380D01*
X94511904Y-84928571D01*
X94464285Y-84880952D01*
X94369047Y-84833333D01*
X94130952Y-84833333D01*
X94035714Y-84880952D01*
X93988095Y-84928571D01*
X93940476Y-85023809D01*
X93940476Y-85261904D01*
X93988095Y-85357142D01*
X94035714Y-85404761D01*
X94130952Y-85452380D01*
X94369047Y-85452380D01*
X94464285Y-85404761D01*
X94511904Y-85357142D01*
X93464285Y-85452380D02*
X93273809Y-85452380D01*
X93178571Y-85404761D01*
X93130952Y-85357142D01*
X93035714Y-85214285D01*
X92988095Y-85023809D01*
X92988095Y-84642857D01*
X93035714Y-84547619D01*
X93083333Y-84500000D01*
X93178571Y-84452380D01*
X93369047Y-84452380D01*
X93464285Y-84500000D01*
X93511904Y-84547619D01*
X93559523Y-84642857D01*
X93559523Y-84880952D01*
X93511904Y-84976190D01*
X93464285Y-85023809D01*
X93369047Y-85071428D01*
X93178571Y-85071428D01*
X93083333Y-85023809D01*
X93035714Y-84976190D01*
X92988095Y-84880952D01*
%TO.C,R52*%
X95142857Y-86952380D02*
X95476190Y-86476190D01*
X95714285Y-86952380D02*
X95714285Y-85952380D01*
X95333333Y-85952380D01*
X95238095Y-86000000D01*
X95190476Y-86047619D01*
X95142857Y-86142857D01*
X95142857Y-86285714D01*
X95190476Y-86380952D01*
X95238095Y-86428571D01*
X95333333Y-86476190D01*
X95714285Y-86476190D01*
X94238095Y-85952380D02*
X94714285Y-85952380D01*
X94761904Y-86428571D01*
X94714285Y-86380952D01*
X94619047Y-86333333D01*
X94380952Y-86333333D01*
X94285714Y-86380952D01*
X94238095Y-86428571D01*
X94190476Y-86523809D01*
X94190476Y-86761904D01*
X94238095Y-86857142D01*
X94285714Y-86904761D01*
X94380952Y-86952380D01*
X94619047Y-86952380D01*
X94714285Y-86904761D01*
X94761904Y-86857142D01*
X93809523Y-86047619D02*
X93761904Y-86000000D01*
X93666666Y-85952380D01*
X93428571Y-85952380D01*
X93333333Y-86000000D01*
X93285714Y-86047619D01*
X93238095Y-86142857D01*
X93238095Y-86238095D01*
X93285714Y-86380952D01*
X93857142Y-86952380D01*
X93238095Y-86952380D01*
%TO.C,C69*%
X13642857Y-36957142D02*
X13690476Y-37004761D01*
X13833333Y-37052380D01*
X13928571Y-37052380D01*
X14071428Y-37004761D01*
X14166666Y-36909523D01*
X14214285Y-36814285D01*
X14261904Y-36623809D01*
X14261904Y-36480952D01*
X14214285Y-36290476D01*
X14166666Y-36195238D01*
X14071428Y-36100000D01*
X13928571Y-36052380D01*
X13833333Y-36052380D01*
X13690476Y-36100000D01*
X13642857Y-36147619D01*
X12785714Y-36052380D02*
X12976190Y-36052380D01*
X13071428Y-36100000D01*
X13119047Y-36147619D01*
X13214285Y-36290476D01*
X13261904Y-36480952D01*
X13261904Y-36861904D01*
X13214285Y-36957142D01*
X13166666Y-37004761D01*
X13071428Y-37052380D01*
X12880952Y-37052380D01*
X12785714Y-37004761D01*
X12738095Y-36957142D01*
X12690476Y-36861904D01*
X12690476Y-36623809D01*
X12738095Y-36528571D01*
X12785714Y-36480952D01*
X12880952Y-36433333D01*
X13071428Y-36433333D01*
X13166666Y-36480952D01*
X13214285Y-36528571D01*
X13261904Y-36623809D01*
X12214285Y-37052380D02*
X12023809Y-37052380D01*
X11928571Y-37004761D01*
X11880952Y-36957142D01*
X11785714Y-36814285D01*
X11738095Y-36623809D01*
X11738095Y-36242857D01*
X11785714Y-36147619D01*
X11833333Y-36100000D01*
X11928571Y-36052380D01*
X12119047Y-36052380D01*
X12214285Y-36100000D01*
X12261904Y-36147619D01*
X12309523Y-36242857D01*
X12309523Y-36480952D01*
X12261904Y-36576190D01*
X12214285Y-36623809D01*
X12119047Y-36671428D01*
X11928571Y-36671428D01*
X11833333Y-36623809D01*
X11785714Y-36576190D01*
X11738095Y-36480952D01*
%TO.C,C68*%
X13442857Y-88857142D02*
X13490476Y-88904761D01*
X13633333Y-88952380D01*
X13728571Y-88952380D01*
X13871428Y-88904761D01*
X13966666Y-88809523D01*
X14014285Y-88714285D01*
X14061904Y-88523809D01*
X14061904Y-88380952D01*
X14014285Y-88190476D01*
X13966666Y-88095238D01*
X13871428Y-88000000D01*
X13728571Y-87952380D01*
X13633333Y-87952380D01*
X13490476Y-88000000D01*
X13442857Y-88047619D01*
X12585714Y-87952380D02*
X12776190Y-87952380D01*
X12871428Y-88000000D01*
X12919047Y-88047619D01*
X13014285Y-88190476D01*
X13061904Y-88380952D01*
X13061904Y-88761904D01*
X13014285Y-88857142D01*
X12966666Y-88904761D01*
X12871428Y-88952380D01*
X12680952Y-88952380D01*
X12585714Y-88904761D01*
X12538095Y-88857142D01*
X12490476Y-88761904D01*
X12490476Y-88523809D01*
X12538095Y-88428571D01*
X12585714Y-88380952D01*
X12680952Y-88333333D01*
X12871428Y-88333333D01*
X12966666Y-88380952D01*
X13014285Y-88428571D01*
X13061904Y-88523809D01*
X11919047Y-88380952D02*
X12014285Y-88333333D01*
X12061904Y-88285714D01*
X12109523Y-88190476D01*
X12109523Y-88142857D01*
X12061904Y-88047619D01*
X12014285Y-88000000D01*
X11919047Y-87952380D01*
X11728571Y-87952380D01*
X11633333Y-88000000D01*
X11585714Y-88047619D01*
X11538095Y-88142857D01*
X11538095Y-88190476D01*
X11585714Y-88285714D01*
X11633333Y-88333333D01*
X11728571Y-88380952D01*
X11919047Y-88380952D01*
X12014285Y-88428571D01*
X12061904Y-88476190D01*
X12109523Y-88571428D01*
X12109523Y-88761904D01*
X12061904Y-88857142D01*
X12014285Y-88904761D01*
X11919047Y-88952380D01*
X11728571Y-88952380D01*
X11633333Y-88904761D01*
X11585714Y-88857142D01*
X11538095Y-88761904D01*
X11538095Y-88571428D01*
X11585714Y-88476190D01*
X11633333Y-88428571D01*
X11728571Y-88380952D01*
%TO.C,C67*%
X17842857Y-64777142D02*
X17890476Y-64824761D01*
X18033333Y-64872380D01*
X18128571Y-64872380D01*
X18271428Y-64824761D01*
X18366666Y-64729523D01*
X18414285Y-64634285D01*
X18461904Y-64443809D01*
X18461904Y-64300952D01*
X18414285Y-64110476D01*
X18366666Y-64015238D01*
X18271428Y-63920000D01*
X18128571Y-63872380D01*
X18033333Y-63872380D01*
X17890476Y-63920000D01*
X17842857Y-63967619D01*
X16985714Y-63872380D02*
X17176190Y-63872380D01*
X17271428Y-63920000D01*
X17319047Y-63967619D01*
X17414285Y-64110476D01*
X17461904Y-64300952D01*
X17461904Y-64681904D01*
X17414285Y-64777142D01*
X17366666Y-64824761D01*
X17271428Y-64872380D01*
X17080952Y-64872380D01*
X16985714Y-64824761D01*
X16938095Y-64777142D01*
X16890476Y-64681904D01*
X16890476Y-64443809D01*
X16938095Y-64348571D01*
X16985714Y-64300952D01*
X17080952Y-64253333D01*
X17271428Y-64253333D01*
X17366666Y-64300952D01*
X17414285Y-64348571D01*
X17461904Y-64443809D01*
X16557142Y-63872380D02*
X15890476Y-63872380D01*
X16319047Y-64872380D01*
%TO.C,C66*%
X128042857Y-57957142D02*
X128090476Y-58004761D01*
X128233333Y-58052380D01*
X128328571Y-58052380D01*
X128471428Y-58004761D01*
X128566666Y-57909523D01*
X128614285Y-57814285D01*
X128661904Y-57623809D01*
X128661904Y-57480952D01*
X128614285Y-57290476D01*
X128566666Y-57195238D01*
X128471428Y-57100000D01*
X128328571Y-57052380D01*
X128233333Y-57052380D01*
X128090476Y-57100000D01*
X128042857Y-57147619D01*
X127185714Y-57052380D02*
X127376190Y-57052380D01*
X127471428Y-57100000D01*
X127519047Y-57147619D01*
X127614285Y-57290476D01*
X127661904Y-57480952D01*
X127661904Y-57861904D01*
X127614285Y-57957142D01*
X127566666Y-58004761D01*
X127471428Y-58052380D01*
X127280952Y-58052380D01*
X127185714Y-58004761D01*
X127138095Y-57957142D01*
X127090476Y-57861904D01*
X127090476Y-57623809D01*
X127138095Y-57528571D01*
X127185714Y-57480952D01*
X127280952Y-57433333D01*
X127471428Y-57433333D01*
X127566666Y-57480952D01*
X127614285Y-57528571D01*
X127661904Y-57623809D01*
X126233333Y-57052380D02*
X126423809Y-57052380D01*
X126519047Y-57100000D01*
X126566666Y-57147619D01*
X126661904Y-57290476D01*
X126709523Y-57480952D01*
X126709523Y-57861904D01*
X126661904Y-57957142D01*
X126614285Y-58004761D01*
X126519047Y-58052380D01*
X126328571Y-58052380D01*
X126233333Y-58004761D01*
X126185714Y-57957142D01*
X126138095Y-57861904D01*
X126138095Y-57623809D01*
X126185714Y-57528571D01*
X126233333Y-57480952D01*
X126328571Y-57433333D01*
X126519047Y-57433333D01*
X126614285Y-57480952D01*
X126661904Y-57528571D01*
X126709523Y-57623809D01*
%TO.C,C65*%
X128042857Y-84057142D02*
X128090476Y-84104761D01*
X128233333Y-84152380D01*
X128328571Y-84152380D01*
X128471428Y-84104761D01*
X128566666Y-84009523D01*
X128614285Y-83914285D01*
X128661904Y-83723809D01*
X128661904Y-83580952D01*
X128614285Y-83390476D01*
X128566666Y-83295238D01*
X128471428Y-83200000D01*
X128328571Y-83152380D01*
X128233333Y-83152380D01*
X128090476Y-83200000D01*
X128042857Y-83247619D01*
X127185714Y-83152380D02*
X127376190Y-83152380D01*
X127471428Y-83200000D01*
X127519047Y-83247619D01*
X127614285Y-83390476D01*
X127661904Y-83580952D01*
X127661904Y-83961904D01*
X127614285Y-84057142D01*
X127566666Y-84104761D01*
X127471428Y-84152380D01*
X127280952Y-84152380D01*
X127185714Y-84104761D01*
X127138095Y-84057142D01*
X127090476Y-83961904D01*
X127090476Y-83723809D01*
X127138095Y-83628571D01*
X127185714Y-83580952D01*
X127280952Y-83533333D01*
X127471428Y-83533333D01*
X127566666Y-83580952D01*
X127614285Y-83628571D01*
X127661904Y-83723809D01*
X126185714Y-83152380D02*
X126661904Y-83152380D01*
X126709523Y-83628571D01*
X126661904Y-83580952D01*
X126566666Y-83533333D01*
X126328571Y-83533333D01*
X126233333Y-83580952D01*
X126185714Y-83628571D01*
X126138095Y-83723809D01*
X126138095Y-83961904D01*
X126185714Y-84057142D01*
X126233333Y-84104761D01*
X126328571Y-84152380D01*
X126566666Y-84152380D01*
X126661904Y-84104761D01*
X126709523Y-84057142D01*
%TO.C,C64*%
X127742857Y-31857142D02*
X127790476Y-31904761D01*
X127933333Y-31952380D01*
X128028571Y-31952380D01*
X128171428Y-31904761D01*
X128266666Y-31809523D01*
X128314285Y-31714285D01*
X128361904Y-31523809D01*
X128361904Y-31380952D01*
X128314285Y-31190476D01*
X128266666Y-31095238D01*
X128171428Y-31000000D01*
X128028571Y-30952380D01*
X127933333Y-30952380D01*
X127790476Y-31000000D01*
X127742857Y-31047619D01*
X126885714Y-30952380D02*
X127076190Y-30952380D01*
X127171428Y-31000000D01*
X127219047Y-31047619D01*
X127314285Y-31190476D01*
X127361904Y-31380952D01*
X127361904Y-31761904D01*
X127314285Y-31857142D01*
X127266666Y-31904761D01*
X127171428Y-31952380D01*
X126980952Y-31952380D01*
X126885714Y-31904761D01*
X126838095Y-31857142D01*
X126790476Y-31761904D01*
X126790476Y-31523809D01*
X126838095Y-31428571D01*
X126885714Y-31380952D01*
X126980952Y-31333333D01*
X127171428Y-31333333D01*
X127266666Y-31380952D01*
X127314285Y-31428571D01*
X127361904Y-31523809D01*
X125933333Y-31285714D02*
X125933333Y-31952380D01*
X126171428Y-30904761D02*
X126409523Y-31619047D01*
X125790476Y-31619047D01*
%TO.C,D0AL3*%
X95452380Y-91452380D02*
X94452380Y-91452380D01*
X94452380Y-91690476D01*
X94500000Y-91833333D01*
X94595238Y-91928571D01*
X94690476Y-91976190D01*
X94880952Y-92023809D01*
X95023809Y-92023809D01*
X95214285Y-91976190D01*
X95309523Y-91928571D01*
X95404761Y-91833333D01*
X95452380Y-91690476D01*
X95452380Y-91452380D01*
X94452380Y-92642857D02*
X94452380Y-92738095D01*
X94500000Y-92833333D01*
X94547619Y-92880952D01*
X94642857Y-92928571D01*
X94833333Y-92976190D01*
X95071428Y-92976190D01*
X95261904Y-92928571D01*
X95357142Y-92880952D01*
X95404761Y-92833333D01*
X95452380Y-92738095D01*
X95452380Y-92642857D01*
X95404761Y-92547619D01*
X95357142Y-92500000D01*
X95261904Y-92452380D01*
X95071428Y-92404761D01*
X94833333Y-92404761D01*
X94642857Y-92452380D01*
X94547619Y-92500000D01*
X94500000Y-92547619D01*
X94452380Y-92642857D01*
X95166666Y-93357142D02*
X95166666Y-93833333D01*
X95452380Y-93261904D02*
X94452380Y-93595238D01*
X95452380Y-93928571D01*
X95452380Y-94738095D02*
X95452380Y-94261904D01*
X94452380Y-94261904D01*
X94452380Y-94976190D02*
X94452380Y-95595238D01*
X94833333Y-95261904D01*
X94833333Y-95404761D01*
X94880952Y-95500000D01*
X94928571Y-95547619D01*
X95023809Y-95595238D01*
X95261904Y-95595238D01*
X95357142Y-95547619D01*
X95404761Y-95500000D01*
X95452380Y-95404761D01*
X95452380Y-95119047D01*
X95404761Y-95023809D01*
X95357142Y-94976190D01*
%TO.C,U5*%
X84861904Y-93952380D02*
X84861904Y-94761904D01*
X84814285Y-94857142D01*
X84766666Y-94904761D01*
X84671428Y-94952380D01*
X84480952Y-94952380D01*
X84385714Y-94904761D01*
X84338095Y-94857142D01*
X84290476Y-94761904D01*
X84290476Y-93952380D01*
X83338095Y-93952380D02*
X83814285Y-93952380D01*
X83861904Y-94428571D01*
X83814285Y-94380952D01*
X83719047Y-94333333D01*
X83480952Y-94333333D01*
X83385714Y-94380952D01*
X83338095Y-94428571D01*
X83290476Y-94523809D01*
X83290476Y-94761904D01*
X83338095Y-94857142D01*
X83385714Y-94904761D01*
X83480952Y-94952380D01*
X83719047Y-94952380D01*
X83814285Y-94904761D01*
X83861904Y-94857142D01*
%TO.C,C59*%
X60657142Y-19657142D02*
X60704761Y-19609523D01*
X60752380Y-19466666D01*
X60752380Y-19371428D01*
X60704761Y-19228571D01*
X60609523Y-19133333D01*
X60514285Y-19085714D01*
X60323809Y-19038095D01*
X60180952Y-19038095D01*
X59990476Y-19085714D01*
X59895238Y-19133333D01*
X59800000Y-19228571D01*
X59752380Y-19371428D01*
X59752380Y-19466666D01*
X59800000Y-19609523D01*
X59847619Y-19657142D01*
X59752380Y-20561904D02*
X59752380Y-20085714D01*
X60228571Y-20038095D01*
X60180952Y-20085714D01*
X60133333Y-20180952D01*
X60133333Y-20419047D01*
X60180952Y-20514285D01*
X60228571Y-20561904D01*
X60323809Y-20609523D01*
X60561904Y-20609523D01*
X60657142Y-20561904D01*
X60704761Y-20514285D01*
X60752380Y-20419047D01*
X60752380Y-20180952D01*
X60704761Y-20085714D01*
X60657142Y-20038095D01*
X60752380Y-21085714D02*
X60752380Y-21276190D01*
X60704761Y-21371428D01*
X60657142Y-21419047D01*
X60514285Y-21514285D01*
X60323809Y-21561904D01*
X59942857Y-21561904D01*
X59847619Y-21514285D01*
X59800000Y-21466666D01*
X59752380Y-21371428D01*
X59752380Y-21180952D01*
X59800000Y-21085714D01*
X59847619Y-21038095D01*
X59942857Y-20990476D01*
X60180952Y-20990476D01*
X60276190Y-21038095D01*
X60323809Y-21085714D01*
X60371428Y-21180952D01*
X60371428Y-21371428D01*
X60323809Y-21466666D01*
X60276190Y-21514285D01*
X60180952Y-21561904D01*
%TO.C,C58*%
X77657142Y-19557142D02*
X77704761Y-19509523D01*
X77752380Y-19366666D01*
X77752380Y-19271428D01*
X77704761Y-19128571D01*
X77609523Y-19033333D01*
X77514285Y-18985714D01*
X77323809Y-18938095D01*
X77180952Y-18938095D01*
X76990476Y-18985714D01*
X76895238Y-19033333D01*
X76800000Y-19128571D01*
X76752380Y-19271428D01*
X76752380Y-19366666D01*
X76800000Y-19509523D01*
X76847619Y-19557142D01*
X76752380Y-20461904D02*
X76752380Y-19985714D01*
X77228571Y-19938095D01*
X77180952Y-19985714D01*
X77133333Y-20080952D01*
X77133333Y-20319047D01*
X77180952Y-20414285D01*
X77228571Y-20461904D01*
X77323809Y-20509523D01*
X77561904Y-20509523D01*
X77657142Y-20461904D01*
X77704761Y-20414285D01*
X77752380Y-20319047D01*
X77752380Y-20080952D01*
X77704761Y-19985714D01*
X77657142Y-19938095D01*
X77180952Y-21080952D02*
X77133333Y-20985714D01*
X77085714Y-20938095D01*
X76990476Y-20890476D01*
X76942857Y-20890476D01*
X76847619Y-20938095D01*
X76800000Y-20985714D01*
X76752380Y-21080952D01*
X76752380Y-21271428D01*
X76800000Y-21366666D01*
X76847619Y-21414285D01*
X76942857Y-21461904D01*
X76990476Y-21461904D01*
X77085714Y-21414285D01*
X77133333Y-21366666D01*
X77180952Y-21271428D01*
X77180952Y-21080952D01*
X77228571Y-20985714D01*
X77276190Y-20938095D01*
X77371428Y-20890476D01*
X77561904Y-20890476D01*
X77657142Y-20938095D01*
X77704761Y-20985714D01*
X77752380Y-21080952D01*
X77752380Y-21271428D01*
X77704761Y-21366666D01*
X77657142Y-21414285D01*
X77561904Y-21461904D01*
X77371428Y-21461904D01*
X77276190Y-21414285D01*
X77228571Y-21366666D01*
X77180952Y-21271428D01*
%TO.C,C57*%
X62957142Y-19557142D02*
X63004761Y-19509523D01*
X63052380Y-19366666D01*
X63052380Y-19271428D01*
X63004761Y-19128571D01*
X62909523Y-19033333D01*
X62814285Y-18985714D01*
X62623809Y-18938095D01*
X62480952Y-18938095D01*
X62290476Y-18985714D01*
X62195238Y-19033333D01*
X62100000Y-19128571D01*
X62052380Y-19271428D01*
X62052380Y-19366666D01*
X62100000Y-19509523D01*
X62147619Y-19557142D01*
X62052380Y-20461904D02*
X62052380Y-19985714D01*
X62528571Y-19938095D01*
X62480952Y-19985714D01*
X62433333Y-20080952D01*
X62433333Y-20319047D01*
X62480952Y-20414285D01*
X62528571Y-20461904D01*
X62623809Y-20509523D01*
X62861904Y-20509523D01*
X62957142Y-20461904D01*
X63004761Y-20414285D01*
X63052380Y-20319047D01*
X63052380Y-20080952D01*
X63004761Y-19985714D01*
X62957142Y-19938095D01*
X62052380Y-20842857D02*
X62052380Y-21509523D01*
X63052380Y-21080952D01*
%TO.C,C56*%
X47157142Y-19657142D02*
X47204761Y-19609523D01*
X47252380Y-19466666D01*
X47252380Y-19371428D01*
X47204761Y-19228571D01*
X47109523Y-19133333D01*
X47014285Y-19085714D01*
X46823809Y-19038095D01*
X46680952Y-19038095D01*
X46490476Y-19085714D01*
X46395238Y-19133333D01*
X46300000Y-19228571D01*
X46252380Y-19371428D01*
X46252380Y-19466666D01*
X46300000Y-19609523D01*
X46347619Y-19657142D01*
X46252380Y-20561904D02*
X46252380Y-20085714D01*
X46728571Y-20038095D01*
X46680952Y-20085714D01*
X46633333Y-20180952D01*
X46633333Y-20419047D01*
X46680952Y-20514285D01*
X46728571Y-20561904D01*
X46823809Y-20609523D01*
X47061904Y-20609523D01*
X47157142Y-20561904D01*
X47204761Y-20514285D01*
X47252380Y-20419047D01*
X47252380Y-20180952D01*
X47204761Y-20085714D01*
X47157142Y-20038095D01*
X46252380Y-21466666D02*
X46252380Y-21276190D01*
X46300000Y-21180952D01*
X46347619Y-21133333D01*
X46490476Y-21038095D01*
X46680952Y-20990476D01*
X47061904Y-20990476D01*
X47157142Y-21038095D01*
X47204761Y-21085714D01*
X47252380Y-21180952D01*
X47252380Y-21371428D01*
X47204761Y-21466666D01*
X47157142Y-21514285D01*
X47061904Y-21561904D01*
X46823809Y-21561904D01*
X46728571Y-21514285D01*
X46680952Y-21466666D01*
X46633333Y-21371428D01*
X46633333Y-21180952D01*
X46680952Y-21085714D01*
X46728571Y-21038095D01*
X46823809Y-20990476D01*
%TO.C,C55*%
X79957142Y-19657142D02*
X80004761Y-19609523D01*
X80052380Y-19466666D01*
X80052380Y-19371428D01*
X80004761Y-19228571D01*
X79909523Y-19133333D01*
X79814285Y-19085714D01*
X79623809Y-19038095D01*
X79480952Y-19038095D01*
X79290476Y-19085714D01*
X79195238Y-19133333D01*
X79100000Y-19228571D01*
X79052380Y-19371428D01*
X79052380Y-19466666D01*
X79100000Y-19609523D01*
X79147619Y-19657142D01*
X79052380Y-20561904D02*
X79052380Y-20085714D01*
X79528571Y-20038095D01*
X79480952Y-20085714D01*
X79433333Y-20180952D01*
X79433333Y-20419047D01*
X79480952Y-20514285D01*
X79528571Y-20561904D01*
X79623809Y-20609523D01*
X79861904Y-20609523D01*
X79957142Y-20561904D01*
X80004761Y-20514285D01*
X80052380Y-20419047D01*
X80052380Y-20180952D01*
X80004761Y-20085714D01*
X79957142Y-20038095D01*
X79052380Y-21514285D02*
X79052380Y-21038095D01*
X79528571Y-20990476D01*
X79480952Y-21038095D01*
X79433333Y-21133333D01*
X79433333Y-21371428D01*
X79480952Y-21466666D01*
X79528571Y-21514285D01*
X79623809Y-21561904D01*
X79861904Y-21561904D01*
X79957142Y-21514285D01*
X80004761Y-21466666D01*
X80052380Y-21371428D01*
X80052380Y-21133333D01*
X80004761Y-21038095D01*
X79957142Y-20990476D01*
%TO.C,C54*%
X65257142Y-19757142D02*
X65304761Y-19709523D01*
X65352380Y-19566666D01*
X65352380Y-19471428D01*
X65304761Y-19328571D01*
X65209523Y-19233333D01*
X65114285Y-19185714D01*
X64923809Y-19138095D01*
X64780952Y-19138095D01*
X64590476Y-19185714D01*
X64495238Y-19233333D01*
X64400000Y-19328571D01*
X64352380Y-19471428D01*
X64352380Y-19566666D01*
X64400000Y-19709523D01*
X64447619Y-19757142D01*
X64352380Y-20661904D02*
X64352380Y-20185714D01*
X64828571Y-20138095D01*
X64780952Y-20185714D01*
X64733333Y-20280952D01*
X64733333Y-20519047D01*
X64780952Y-20614285D01*
X64828571Y-20661904D01*
X64923809Y-20709523D01*
X65161904Y-20709523D01*
X65257142Y-20661904D01*
X65304761Y-20614285D01*
X65352380Y-20519047D01*
X65352380Y-20280952D01*
X65304761Y-20185714D01*
X65257142Y-20138095D01*
X64685714Y-21566666D02*
X65352380Y-21566666D01*
X64304761Y-21328571D02*
X65019047Y-21090476D01*
X65019047Y-21709523D01*
%TO.C,C53*%
X49357142Y-19657142D02*
X49404761Y-19609523D01*
X49452380Y-19466666D01*
X49452380Y-19371428D01*
X49404761Y-19228571D01*
X49309523Y-19133333D01*
X49214285Y-19085714D01*
X49023809Y-19038095D01*
X48880952Y-19038095D01*
X48690476Y-19085714D01*
X48595238Y-19133333D01*
X48500000Y-19228571D01*
X48452380Y-19371428D01*
X48452380Y-19466666D01*
X48500000Y-19609523D01*
X48547619Y-19657142D01*
X48452380Y-20561904D02*
X48452380Y-20085714D01*
X48928571Y-20038095D01*
X48880952Y-20085714D01*
X48833333Y-20180952D01*
X48833333Y-20419047D01*
X48880952Y-20514285D01*
X48928571Y-20561904D01*
X49023809Y-20609523D01*
X49261904Y-20609523D01*
X49357142Y-20561904D01*
X49404761Y-20514285D01*
X49452380Y-20419047D01*
X49452380Y-20180952D01*
X49404761Y-20085714D01*
X49357142Y-20038095D01*
X48452380Y-20942857D02*
X48452380Y-21561904D01*
X48833333Y-21228571D01*
X48833333Y-21371428D01*
X48880952Y-21466666D01*
X48928571Y-21514285D01*
X49023809Y-21561904D01*
X49261904Y-21561904D01*
X49357142Y-21514285D01*
X49404761Y-21466666D01*
X49452380Y-21371428D01*
X49452380Y-21085714D01*
X49404761Y-20990476D01*
X49357142Y-20942857D01*
%TO.C,C52*%
X86957142Y-19557142D02*
X87004761Y-19509523D01*
X87052380Y-19366666D01*
X87052380Y-19271428D01*
X87004761Y-19128571D01*
X86909523Y-19033333D01*
X86814285Y-18985714D01*
X86623809Y-18938095D01*
X86480952Y-18938095D01*
X86290476Y-18985714D01*
X86195238Y-19033333D01*
X86100000Y-19128571D01*
X86052380Y-19271428D01*
X86052380Y-19366666D01*
X86100000Y-19509523D01*
X86147619Y-19557142D01*
X86052380Y-20461904D02*
X86052380Y-19985714D01*
X86528571Y-19938095D01*
X86480952Y-19985714D01*
X86433333Y-20080952D01*
X86433333Y-20319047D01*
X86480952Y-20414285D01*
X86528571Y-20461904D01*
X86623809Y-20509523D01*
X86861904Y-20509523D01*
X86957142Y-20461904D01*
X87004761Y-20414285D01*
X87052380Y-20319047D01*
X87052380Y-20080952D01*
X87004761Y-19985714D01*
X86957142Y-19938095D01*
X86147619Y-20890476D02*
X86100000Y-20938095D01*
X86052380Y-21033333D01*
X86052380Y-21271428D01*
X86100000Y-21366666D01*
X86147619Y-21414285D01*
X86242857Y-21461904D01*
X86338095Y-21461904D01*
X86480952Y-21414285D01*
X87052380Y-20842857D01*
X87052380Y-21461904D01*
%TO.C,C51*%
X75357142Y-19657142D02*
X75404761Y-19609523D01*
X75452380Y-19466666D01*
X75452380Y-19371428D01*
X75404761Y-19228571D01*
X75309523Y-19133333D01*
X75214285Y-19085714D01*
X75023809Y-19038095D01*
X74880952Y-19038095D01*
X74690476Y-19085714D01*
X74595238Y-19133333D01*
X74500000Y-19228571D01*
X74452380Y-19371428D01*
X74452380Y-19466666D01*
X74500000Y-19609523D01*
X74547619Y-19657142D01*
X74452380Y-20561904D02*
X74452380Y-20085714D01*
X74928571Y-20038095D01*
X74880952Y-20085714D01*
X74833333Y-20180952D01*
X74833333Y-20419047D01*
X74880952Y-20514285D01*
X74928571Y-20561904D01*
X75023809Y-20609523D01*
X75261904Y-20609523D01*
X75357142Y-20561904D01*
X75404761Y-20514285D01*
X75452380Y-20419047D01*
X75452380Y-20180952D01*
X75404761Y-20085714D01*
X75357142Y-20038095D01*
X75452380Y-21561904D02*
X75452380Y-20990476D01*
X75452380Y-21276190D02*
X74452380Y-21276190D01*
X74595238Y-21180952D01*
X74690476Y-21085714D01*
X74738095Y-20990476D01*
%TO.C,C50*%
X51657142Y-19657142D02*
X51704761Y-19609523D01*
X51752380Y-19466666D01*
X51752380Y-19371428D01*
X51704761Y-19228571D01*
X51609523Y-19133333D01*
X51514285Y-19085714D01*
X51323809Y-19038095D01*
X51180952Y-19038095D01*
X50990476Y-19085714D01*
X50895238Y-19133333D01*
X50800000Y-19228571D01*
X50752380Y-19371428D01*
X50752380Y-19466666D01*
X50800000Y-19609523D01*
X50847619Y-19657142D01*
X50752380Y-20561904D02*
X50752380Y-20085714D01*
X51228571Y-20038095D01*
X51180952Y-20085714D01*
X51133333Y-20180952D01*
X51133333Y-20419047D01*
X51180952Y-20514285D01*
X51228571Y-20561904D01*
X51323809Y-20609523D01*
X51561904Y-20609523D01*
X51657142Y-20561904D01*
X51704761Y-20514285D01*
X51752380Y-20419047D01*
X51752380Y-20180952D01*
X51704761Y-20085714D01*
X51657142Y-20038095D01*
X50752380Y-21228571D02*
X50752380Y-21323809D01*
X50800000Y-21419047D01*
X50847619Y-21466666D01*
X50942857Y-21514285D01*
X51133333Y-21561904D01*
X51371428Y-21561904D01*
X51561904Y-21514285D01*
X51657142Y-21466666D01*
X51704761Y-21419047D01*
X51752380Y-21323809D01*
X51752380Y-21228571D01*
X51704761Y-21133333D01*
X51657142Y-21085714D01*
X51561904Y-21038095D01*
X51371428Y-20990476D01*
X51133333Y-20990476D01*
X50942857Y-21038095D01*
X50847619Y-21085714D01*
X50800000Y-21133333D01*
X50752380Y-21228571D01*
%TO.C,C49*%
X89357142Y-19557142D02*
X89404761Y-19509523D01*
X89452380Y-19366666D01*
X89452380Y-19271428D01*
X89404761Y-19128571D01*
X89309523Y-19033333D01*
X89214285Y-18985714D01*
X89023809Y-18938095D01*
X88880952Y-18938095D01*
X88690476Y-18985714D01*
X88595238Y-19033333D01*
X88500000Y-19128571D01*
X88452380Y-19271428D01*
X88452380Y-19366666D01*
X88500000Y-19509523D01*
X88547619Y-19557142D01*
X88785714Y-20414285D02*
X89452380Y-20414285D01*
X88404761Y-20176190D02*
X89119047Y-19938095D01*
X89119047Y-20557142D01*
X89452380Y-20985714D02*
X89452380Y-21176190D01*
X89404761Y-21271428D01*
X89357142Y-21319047D01*
X89214285Y-21414285D01*
X89023809Y-21461904D01*
X88642857Y-21461904D01*
X88547619Y-21414285D01*
X88500000Y-21366666D01*
X88452380Y-21271428D01*
X88452380Y-21080952D01*
X88500000Y-20985714D01*
X88547619Y-20938095D01*
X88642857Y-20890476D01*
X88880952Y-20890476D01*
X88976190Y-20938095D01*
X89023809Y-20985714D01*
X89071428Y-21080952D01*
X89071428Y-21271428D01*
X89023809Y-21366666D01*
X88976190Y-21414285D01*
X88880952Y-21461904D01*
%TO.C,C48*%
X54057142Y-19657142D02*
X54104761Y-19609523D01*
X54152380Y-19466666D01*
X54152380Y-19371428D01*
X54104761Y-19228571D01*
X54009523Y-19133333D01*
X53914285Y-19085714D01*
X53723809Y-19038095D01*
X53580952Y-19038095D01*
X53390476Y-19085714D01*
X53295238Y-19133333D01*
X53200000Y-19228571D01*
X53152380Y-19371428D01*
X53152380Y-19466666D01*
X53200000Y-19609523D01*
X53247619Y-19657142D01*
X53485714Y-20514285D02*
X54152380Y-20514285D01*
X53104761Y-20276190D02*
X53819047Y-20038095D01*
X53819047Y-20657142D01*
X53580952Y-21180952D02*
X53533333Y-21085714D01*
X53485714Y-21038095D01*
X53390476Y-20990476D01*
X53342857Y-20990476D01*
X53247619Y-21038095D01*
X53200000Y-21085714D01*
X53152380Y-21180952D01*
X53152380Y-21371428D01*
X53200000Y-21466666D01*
X53247619Y-21514285D01*
X53342857Y-21561904D01*
X53390476Y-21561904D01*
X53485714Y-21514285D01*
X53533333Y-21466666D01*
X53580952Y-21371428D01*
X53580952Y-21180952D01*
X53628571Y-21085714D01*
X53676190Y-21038095D01*
X53771428Y-20990476D01*
X53961904Y-20990476D01*
X54057142Y-21038095D01*
X54104761Y-21085714D01*
X54152380Y-21180952D01*
X54152380Y-21371428D01*
X54104761Y-21466666D01*
X54057142Y-21514285D01*
X53961904Y-21561904D01*
X53771428Y-21561904D01*
X53676190Y-21514285D01*
X53628571Y-21466666D01*
X53580952Y-21371428D01*
%TO.C,C47*%
X91457142Y-19657142D02*
X91504761Y-19609523D01*
X91552380Y-19466666D01*
X91552380Y-19371428D01*
X91504761Y-19228571D01*
X91409523Y-19133333D01*
X91314285Y-19085714D01*
X91123809Y-19038095D01*
X90980952Y-19038095D01*
X90790476Y-19085714D01*
X90695238Y-19133333D01*
X90600000Y-19228571D01*
X90552380Y-19371428D01*
X90552380Y-19466666D01*
X90600000Y-19609523D01*
X90647619Y-19657142D01*
X90885714Y-20514285D02*
X91552380Y-20514285D01*
X90504761Y-20276190D02*
X91219047Y-20038095D01*
X91219047Y-20657142D01*
X90552380Y-20942857D02*
X90552380Y-21609523D01*
X91552380Y-21180952D01*
%TO.C,C46*%
X93657142Y-19657142D02*
X93704761Y-19609523D01*
X93752380Y-19466666D01*
X93752380Y-19371428D01*
X93704761Y-19228571D01*
X93609523Y-19133333D01*
X93514285Y-19085714D01*
X93323809Y-19038095D01*
X93180952Y-19038095D01*
X92990476Y-19085714D01*
X92895238Y-19133333D01*
X92800000Y-19228571D01*
X92752380Y-19371428D01*
X92752380Y-19466666D01*
X92800000Y-19609523D01*
X92847619Y-19657142D01*
X93085714Y-20514285D02*
X93752380Y-20514285D01*
X92704761Y-20276190D02*
X93419047Y-20038095D01*
X93419047Y-20657142D01*
X92752380Y-21466666D02*
X92752380Y-21276190D01*
X92800000Y-21180952D01*
X92847619Y-21133333D01*
X92990476Y-21038095D01*
X93180952Y-20990476D01*
X93561904Y-20990476D01*
X93657142Y-21038095D01*
X93704761Y-21085714D01*
X93752380Y-21180952D01*
X93752380Y-21371428D01*
X93704761Y-21466666D01*
X93657142Y-21514285D01*
X93561904Y-21561904D01*
X93323809Y-21561904D01*
X93228571Y-21514285D01*
X93180952Y-21466666D01*
X93133333Y-21371428D01*
X93133333Y-21180952D01*
X93180952Y-21085714D01*
X93228571Y-21038095D01*
X93323809Y-20990476D01*
%TO.C,R18L3*%
X73952380Y-81376190D02*
X73476190Y-81042857D01*
X73952380Y-80804761D02*
X72952380Y-80804761D01*
X72952380Y-81185714D01*
X73000000Y-81280952D01*
X73047619Y-81328571D01*
X73142857Y-81376190D01*
X73285714Y-81376190D01*
X73380952Y-81328571D01*
X73428571Y-81280952D01*
X73476190Y-81185714D01*
X73476190Y-80804761D01*
X73952380Y-82328571D02*
X73952380Y-81757142D01*
X73952380Y-82042857D02*
X72952380Y-82042857D01*
X73095238Y-81947619D01*
X73190476Y-81852380D01*
X73238095Y-81757142D01*
X73380952Y-82900000D02*
X73333333Y-82804761D01*
X73285714Y-82757142D01*
X73190476Y-82709523D01*
X73142857Y-82709523D01*
X73047619Y-82757142D01*
X73000000Y-82804761D01*
X72952380Y-82900000D01*
X72952380Y-83090476D01*
X73000000Y-83185714D01*
X73047619Y-83233333D01*
X73142857Y-83280952D01*
X73190476Y-83280952D01*
X73285714Y-83233333D01*
X73333333Y-83185714D01*
X73380952Y-83090476D01*
X73380952Y-82900000D01*
X73428571Y-82804761D01*
X73476190Y-82757142D01*
X73571428Y-82709523D01*
X73761904Y-82709523D01*
X73857142Y-82757142D01*
X73904761Y-82804761D01*
X73952380Y-82900000D01*
X73952380Y-83090476D01*
X73904761Y-83185714D01*
X73857142Y-83233333D01*
X73761904Y-83280952D01*
X73571428Y-83280952D01*
X73476190Y-83233333D01*
X73428571Y-83185714D01*
X73380952Y-83090476D01*
X73952380Y-84185714D02*
X73952380Y-83709523D01*
X72952380Y-83709523D01*
X72952380Y-84423809D02*
X72952380Y-85042857D01*
X73333333Y-84709523D01*
X73333333Y-84852380D01*
X73380952Y-84947619D01*
X73428571Y-84995238D01*
X73523809Y-85042857D01*
X73761904Y-85042857D01*
X73857142Y-84995238D01*
X73904761Y-84947619D01*
X73952380Y-84852380D01*
X73952380Y-84566666D01*
X73904761Y-84471428D01*
X73857142Y-84423809D01*
%TO.C,D33*%
X75552380Y-82585714D02*
X74552380Y-82585714D01*
X74552380Y-82823809D01*
X74600000Y-82966666D01*
X74695238Y-83061904D01*
X74790476Y-83109523D01*
X74980952Y-83157142D01*
X75123809Y-83157142D01*
X75314285Y-83109523D01*
X75409523Y-83061904D01*
X75504761Y-82966666D01*
X75552380Y-82823809D01*
X75552380Y-82585714D01*
X74552380Y-83490476D02*
X74552380Y-84109523D01*
X74933333Y-83776190D01*
X74933333Y-83919047D01*
X74980952Y-84014285D01*
X75028571Y-84061904D01*
X75123809Y-84109523D01*
X75361904Y-84109523D01*
X75457142Y-84061904D01*
X75504761Y-84014285D01*
X75552380Y-83919047D01*
X75552380Y-83633333D01*
X75504761Y-83538095D01*
X75457142Y-83490476D01*
X74552380Y-84442857D02*
X74552380Y-85061904D01*
X74933333Y-84728571D01*
X74933333Y-84871428D01*
X74980952Y-84966666D01*
X75028571Y-85014285D01*
X75123809Y-85061904D01*
X75361904Y-85061904D01*
X75457142Y-85014285D01*
X75504761Y-84966666D01*
X75552380Y-84871428D01*
X75552380Y-84585714D01*
X75504761Y-84490476D01*
X75457142Y-84442857D01*
%TO.C,R49*%
X85202380Y-80607142D02*
X84726190Y-80273809D01*
X85202380Y-80035714D02*
X84202380Y-80035714D01*
X84202380Y-80416666D01*
X84250000Y-80511904D01*
X84297619Y-80559523D01*
X84392857Y-80607142D01*
X84535714Y-80607142D01*
X84630952Y-80559523D01*
X84678571Y-80511904D01*
X84726190Y-80416666D01*
X84726190Y-80035714D01*
X84535714Y-81464285D02*
X85202380Y-81464285D01*
X84154761Y-81226190D02*
X84869047Y-80988095D01*
X84869047Y-81607142D01*
X85202380Y-82035714D02*
X85202380Y-82226190D01*
X85154761Y-82321428D01*
X85107142Y-82369047D01*
X84964285Y-82464285D01*
X84773809Y-82511904D01*
X84392857Y-82511904D01*
X84297619Y-82464285D01*
X84250000Y-82416666D01*
X84202380Y-82321428D01*
X84202380Y-82130952D01*
X84250000Y-82035714D01*
X84297619Y-81988095D01*
X84392857Y-81940476D01*
X84630952Y-81940476D01*
X84726190Y-81988095D01*
X84773809Y-82035714D01*
X84821428Y-82130952D01*
X84821428Y-82321428D01*
X84773809Y-82416666D01*
X84726190Y-82464285D01*
X84630952Y-82511904D01*
%TO.C,R45*%
X95142857Y-83452380D02*
X95476190Y-82976190D01*
X95714285Y-83452380D02*
X95714285Y-82452380D01*
X95333333Y-82452380D01*
X95238095Y-82500000D01*
X95190476Y-82547619D01*
X95142857Y-82642857D01*
X95142857Y-82785714D01*
X95190476Y-82880952D01*
X95238095Y-82928571D01*
X95333333Y-82976190D01*
X95714285Y-82976190D01*
X94285714Y-82785714D02*
X94285714Y-83452380D01*
X94523809Y-82404761D02*
X94761904Y-83119047D01*
X94142857Y-83119047D01*
X93285714Y-82452380D02*
X93761904Y-82452380D01*
X93809523Y-82928571D01*
X93761904Y-82880952D01*
X93666666Y-82833333D01*
X93428571Y-82833333D01*
X93333333Y-82880952D01*
X93285714Y-82928571D01*
X93238095Y-83023809D01*
X93238095Y-83261904D01*
X93285714Y-83357142D01*
X93333333Y-83404761D01*
X93428571Y-83452380D01*
X93666666Y-83452380D01*
X93761904Y-83404761D01*
X93809523Y-83357142D01*
%TO.C,C45*%
X86757142Y-80607142D02*
X86804761Y-80559523D01*
X86852380Y-80416666D01*
X86852380Y-80321428D01*
X86804761Y-80178571D01*
X86709523Y-80083333D01*
X86614285Y-80035714D01*
X86423809Y-79988095D01*
X86280952Y-79988095D01*
X86090476Y-80035714D01*
X85995238Y-80083333D01*
X85900000Y-80178571D01*
X85852380Y-80321428D01*
X85852380Y-80416666D01*
X85900000Y-80559523D01*
X85947619Y-80607142D01*
X86185714Y-81464285D02*
X86852380Y-81464285D01*
X85804761Y-81226190D02*
X86519047Y-80988095D01*
X86519047Y-81607142D01*
X85852380Y-82464285D02*
X85852380Y-81988095D01*
X86328571Y-81940476D01*
X86280952Y-81988095D01*
X86233333Y-82083333D01*
X86233333Y-82321428D01*
X86280952Y-82416666D01*
X86328571Y-82464285D01*
X86423809Y-82511904D01*
X86661904Y-82511904D01*
X86757142Y-82464285D01*
X86804761Y-82416666D01*
X86852380Y-82321428D01*
X86852380Y-82083333D01*
X86804761Y-81988095D01*
X86757142Y-81940476D01*
%TO.C,C40*%
X57607142Y-78607142D02*
X57654761Y-78559523D01*
X57702380Y-78416666D01*
X57702380Y-78321428D01*
X57654761Y-78178571D01*
X57559523Y-78083333D01*
X57464285Y-78035714D01*
X57273809Y-77988095D01*
X57130952Y-77988095D01*
X56940476Y-78035714D01*
X56845238Y-78083333D01*
X56750000Y-78178571D01*
X56702380Y-78321428D01*
X56702380Y-78416666D01*
X56750000Y-78559523D01*
X56797619Y-78607142D01*
X57035714Y-79464285D02*
X57702380Y-79464285D01*
X56654761Y-79226190D02*
X57369047Y-78988095D01*
X57369047Y-79607142D01*
X56702380Y-80178571D02*
X56702380Y-80273809D01*
X56750000Y-80369047D01*
X56797619Y-80416666D01*
X56892857Y-80464285D01*
X57083333Y-80511904D01*
X57321428Y-80511904D01*
X57511904Y-80464285D01*
X57607142Y-80416666D01*
X57654761Y-80369047D01*
X57702380Y-80273809D01*
X57702380Y-80178571D01*
X57654761Y-80083333D01*
X57607142Y-80035714D01*
X57511904Y-79988095D01*
X57321428Y-79940476D01*
X57083333Y-79940476D01*
X56892857Y-79988095D01*
X56797619Y-80035714D01*
X56750000Y-80083333D01*
X56702380Y-80178571D01*
%TO.C,C39*%
X59357142Y-78357142D02*
X59404761Y-78309523D01*
X59452380Y-78166666D01*
X59452380Y-78071428D01*
X59404761Y-77928571D01*
X59309523Y-77833333D01*
X59214285Y-77785714D01*
X59023809Y-77738095D01*
X58880952Y-77738095D01*
X58690476Y-77785714D01*
X58595238Y-77833333D01*
X58500000Y-77928571D01*
X58452380Y-78071428D01*
X58452380Y-78166666D01*
X58500000Y-78309523D01*
X58547619Y-78357142D01*
X58452380Y-78690476D02*
X58452380Y-79309523D01*
X58833333Y-78976190D01*
X58833333Y-79119047D01*
X58880952Y-79214285D01*
X58928571Y-79261904D01*
X59023809Y-79309523D01*
X59261904Y-79309523D01*
X59357142Y-79261904D01*
X59404761Y-79214285D01*
X59452380Y-79119047D01*
X59452380Y-78833333D01*
X59404761Y-78738095D01*
X59357142Y-78690476D01*
X59452380Y-79785714D02*
X59452380Y-79976190D01*
X59404761Y-80071428D01*
X59357142Y-80119047D01*
X59214285Y-80214285D01*
X59023809Y-80261904D01*
X58642857Y-80261904D01*
X58547619Y-80214285D01*
X58500000Y-80166666D01*
X58452380Y-80071428D01*
X58452380Y-79880952D01*
X58500000Y-79785714D01*
X58547619Y-79738095D01*
X58642857Y-79690476D01*
X58880952Y-79690476D01*
X58976190Y-79738095D01*
X59023809Y-79785714D01*
X59071428Y-79880952D01*
X59071428Y-80071428D01*
X59023809Y-80166666D01*
X58976190Y-80214285D01*
X58880952Y-80261904D01*
%TO.C,R20*%
X94202380Y-88607142D02*
X93726190Y-88273809D01*
X94202380Y-88035714D02*
X93202380Y-88035714D01*
X93202380Y-88416666D01*
X93250000Y-88511904D01*
X93297619Y-88559523D01*
X93392857Y-88607142D01*
X93535714Y-88607142D01*
X93630952Y-88559523D01*
X93678571Y-88511904D01*
X93726190Y-88416666D01*
X93726190Y-88035714D01*
X93297619Y-88988095D02*
X93250000Y-89035714D01*
X93202380Y-89130952D01*
X93202380Y-89369047D01*
X93250000Y-89464285D01*
X93297619Y-89511904D01*
X93392857Y-89559523D01*
X93488095Y-89559523D01*
X93630952Y-89511904D01*
X94202380Y-88940476D01*
X94202380Y-89559523D01*
X93202380Y-90178571D02*
X93202380Y-90273809D01*
X93250000Y-90369047D01*
X93297619Y-90416666D01*
X93392857Y-90464285D01*
X93583333Y-90511904D01*
X93821428Y-90511904D01*
X94011904Y-90464285D01*
X94107142Y-90416666D01*
X94154761Y-90369047D01*
X94202380Y-90273809D01*
X94202380Y-90178571D01*
X94154761Y-90083333D01*
X94107142Y-90035714D01*
X94011904Y-89988095D01*
X93821428Y-89940476D01*
X93583333Y-89940476D01*
X93392857Y-89988095D01*
X93297619Y-90035714D01*
X93250000Y-90083333D01*
X93202380Y-90178571D01*
%TO.C,V11*%
X17285714Y-40852380D02*
X16952380Y-41852380D01*
X16619047Y-40852380D01*
X15761904Y-41852380D02*
X16333333Y-41852380D01*
X16047619Y-41852380D02*
X16047619Y-40852380D01*
X16142857Y-40995238D01*
X16238095Y-41090476D01*
X16333333Y-41138095D01*
X14809523Y-41852380D02*
X15380952Y-41852380D01*
X15095238Y-41852380D02*
X15095238Y-40852380D01*
X15190476Y-40995238D01*
X15285714Y-41090476D01*
X15380952Y-41138095D01*
%TO.C,V10*%
X16685714Y-26052380D02*
X16352380Y-27052380D01*
X16019047Y-26052380D01*
X15161904Y-27052380D02*
X15733333Y-27052380D01*
X15447619Y-27052380D02*
X15447619Y-26052380D01*
X15542857Y-26195238D01*
X15638095Y-26290476D01*
X15733333Y-26338095D01*
X14542857Y-26052380D02*
X14447619Y-26052380D01*
X14352380Y-26100000D01*
X14304761Y-26147619D01*
X14257142Y-26242857D01*
X14209523Y-26433333D01*
X14209523Y-26671428D01*
X14257142Y-26861904D01*
X14304761Y-26957142D01*
X14352380Y-27004761D01*
X14447619Y-27052380D01*
X14542857Y-27052380D01*
X14638095Y-27004761D01*
X14685714Y-26957142D01*
X14733333Y-26861904D01*
X14780952Y-26671428D01*
X14780952Y-26433333D01*
X14733333Y-26242857D01*
X14685714Y-26147619D01*
X14638095Y-26100000D01*
X14542857Y-26052380D01*
%TO.C,V9*%
X16709523Y-78552380D02*
X16376190Y-79552380D01*
X16042857Y-78552380D01*
X15661904Y-79552380D02*
X15471428Y-79552380D01*
X15376190Y-79504761D01*
X15328571Y-79457142D01*
X15233333Y-79314285D01*
X15185714Y-79123809D01*
X15185714Y-78742857D01*
X15233333Y-78647619D01*
X15280952Y-78600000D01*
X15376190Y-78552380D01*
X15566666Y-78552380D01*
X15661904Y-78600000D01*
X15709523Y-78647619D01*
X15757142Y-78742857D01*
X15757142Y-78980952D01*
X15709523Y-79076190D01*
X15661904Y-79123809D01*
X15566666Y-79171428D01*
X15376190Y-79171428D01*
X15280952Y-79123809D01*
X15233333Y-79076190D01*
X15185714Y-78980952D01*
%TO.C,V8*%
X16909523Y-52652380D02*
X16576190Y-53652380D01*
X16242857Y-52652380D01*
X15766666Y-53080952D02*
X15861904Y-53033333D01*
X15909523Y-52985714D01*
X15957142Y-52890476D01*
X15957142Y-52842857D01*
X15909523Y-52747619D01*
X15861904Y-52700000D01*
X15766666Y-52652380D01*
X15576190Y-52652380D01*
X15480952Y-52700000D01*
X15433333Y-52747619D01*
X15385714Y-52842857D01*
X15385714Y-52890476D01*
X15433333Y-52985714D01*
X15480952Y-53033333D01*
X15576190Y-53080952D01*
X15766666Y-53080952D01*
X15861904Y-53128571D01*
X15909523Y-53176190D01*
X15957142Y-53271428D01*
X15957142Y-53461904D01*
X15909523Y-53557142D01*
X15861904Y-53604761D01*
X15766666Y-53652380D01*
X15576190Y-53652380D01*
X15480952Y-53604761D01*
X15433333Y-53557142D01*
X15385714Y-53461904D01*
X15385714Y-53271428D01*
X15433333Y-53176190D01*
X15480952Y-53128571D01*
X15576190Y-53080952D01*
%TO.C,V7*%
X16109523Y-92552380D02*
X15776190Y-93552380D01*
X15442857Y-92552380D01*
X15204761Y-92552380D02*
X14538095Y-92552380D01*
X14966666Y-93552380D01*
%TO.C,V6*%
X14009523Y-62152380D02*
X13676190Y-63152380D01*
X13342857Y-62152380D01*
X12580952Y-62152380D02*
X12771428Y-62152380D01*
X12866666Y-62200000D01*
X12914285Y-62247619D01*
X13009523Y-62390476D01*
X13057142Y-62580952D01*
X13057142Y-62961904D01*
X13009523Y-63057142D01*
X12961904Y-63104761D01*
X12866666Y-63152380D01*
X12676190Y-63152380D01*
X12580952Y-63104761D01*
X12533333Y-63057142D01*
X12485714Y-62961904D01*
X12485714Y-62723809D01*
X12533333Y-62628571D01*
X12580952Y-62580952D01*
X12676190Y-62533333D01*
X12866666Y-62533333D01*
X12961904Y-62580952D01*
X13009523Y-62628571D01*
X13057142Y-62723809D01*
%TO.C,V5*%
X124809523Y-26552380D02*
X124476190Y-27552380D01*
X124142857Y-26552380D01*
X123333333Y-26552380D02*
X123809523Y-26552380D01*
X123857142Y-27028571D01*
X123809523Y-26980952D01*
X123714285Y-26933333D01*
X123476190Y-26933333D01*
X123380952Y-26980952D01*
X123333333Y-27028571D01*
X123285714Y-27123809D01*
X123285714Y-27361904D01*
X123333333Y-27457142D01*
X123380952Y-27504761D01*
X123476190Y-27552380D01*
X123714285Y-27552380D01*
X123809523Y-27504761D01*
X123857142Y-27457142D01*
%TO.C,V4*%
X125309523Y-40652380D02*
X124976190Y-41652380D01*
X124642857Y-40652380D01*
X123880952Y-40985714D02*
X123880952Y-41652380D01*
X124119047Y-40604761D02*
X124357142Y-41319047D01*
X123738095Y-41319047D01*
%TO.C,V3*%
X124809523Y-52552380D02*
X124476190Y-53552380D01*
X124142857Y-52552380D01*
X123904761Y-52552380D02*
X123285714Y-52552380D01*
X123619047Y-52933333D01*
X123476190Y-52933333D01*
X123380952Y-52980952D01*
X123333333Y-53028571D01*
X123285714Y-53123809D01*
X123285714Y-53361904D01*
X123333333Y-53457142D01*
X123380952Y-53504761D01*
X123476190Y-53552380D01*
X123761904Y-53552380D01*
X123857142Y-53504761D01*
X123904761Y-53457142D01*
%TO.C,V2*%
X124609523Y-66052380D02*
X124276190Y-67052380D01*
X123942857Y-66052380D01*
X123657142Y-66147619D02*
X123609523Y-66100000D01*
X123514285Y-66052380D01*
X123276190Y-66052380D01*
X123180952Y-66100000D01*
X123133333Y-66147619D01*
X123085714Y-66242857D01*
X123085714Y-66338095D01*
X123133333Y-66480952D01*
X123704761Y-67052380D01*
X123085714Y-67052380D01*
%TO.C,V1*%
X124609523Y-78652380D02*
X124276190Y-79652380D01*
X123942857Y-78652380D01*
X123085714Y-79652380D02*
X123657142Y-79652380D01*
X123371428Y-79652380D02*
X123371428Y-78652380D01*
X123466666Y-78795238D01*
X123561904Y-78890476D01*
X123657142Y-78938095D01*
%TO.C,V0*%
X124409523Y-92652380D02*
X124076190Y-93652380D01*
X123742857Y-92652380D01*
X123219047Y-92652380D02*
X123123809Y-92652380D01*
X123028571Y-92700000D01*
X122980952Y-92747619D01*
X122933333Y-92842857D01*
X122885714Y-93033333D01*
X122885714Y-93271428D01*
X122933333Y-93461904D01*
X122980952Y-93557142D01*
X123028571Y-93604761D01*
X123123809Y-93652380D01*
X123219047Y-93652380D01*
X123314285Y-93604761D01*
X123361904Y-93557142D01*
X123409523Y-93461904D01*
X123457142Y-93271428D01*
X123457142Y-93033333D01*
X123409523Y-92842857D01*
X123361904Y-92747619D01*
X123314285Y-92700000D01*
X123219047Y-92652380D01*
%TD*%
M02*
