%TF.GenerationSoftware,KiCad,Pcbnew,(5.1.6)-1*%
%TF.CreationDate,2020-10-06T11:03:20+02:00*%
%TF.ProjectId,Bobbycontroller,426f6262-7963-46f6-9e74-726f6c6c6572,rev?*%
%TF.SameCoordinates,Original*%
%TF.FileFunction,Paste,Bot*%
%TF.FilePolarity,Positive*%
%FSLAX46Y46*%
G04 Gerber Fmt 4.6, Leading zero omitted, Abs format (unit mm)*
G04 Created by KiCad (PCBNEW (5.1.6)-1) date 2020-10-06 11:03:20*
%MOMM*%
%LPD*%
G01*
G04 APERTURE LIST*
%ADD10R,4.550000X5.250000*%
%ADD11R,4.600000X1.100000*%
G04 APERTURE END LIST*
%TO.C,C69*%
G36*
G01*
X17975000Y-37125000D02*
X17975000Y-35875000D01*
G75*
G02*
X18225000Y-35625000I250000J0D01*
G01*
X18975000Y-35625000D01*
G75*
G02*
X19225000Y-35875000I0J-250000D01*
G01*
X19225000Y-37125000D01*
G75*
G02*
X18975000Y-37375000I-250000J0D01*
G01*
X18225000Y-37375000D01*
G75*
G02*
X17975000Y-37125000I0J250000D01*
G01*
G37*
G36*
G01*
X15175000Y-37125000D02*
X15175000Y-35875000D01*
G75*
G02*
X15425000Y-35625000I250000J0D01*
G01*
X16175000Y-35625000D01*
G75*
G02*
X16425000Y-35875000I0J-250000D01*
G01*
X16425000Y-37125000D01*
G75*
G02*
X16175000Y-37375000I-250000J0D01*
G01*
X15425000Y-37375000D01*
G75*
G02*
X15175000Y-37125000I0J250000D01*
G01*
G37*
%TD*%
%TO.C,C68*%
G36*
G01*
X17875000Y-89025000D02*
X17875000Y-87775000D01*
G75*
G02*
X18125000Y-87525000I250000J0D01*
G01*
X18875000Y-87525000D01*
G75*
G02*
X19125000Y-87775000I0J-250000D01*
G01*
X19125000Y-89025000D01*
G75*
G02*
X18875000Y-89275000I-250000J0D01*
G01*
X18125000Y-89275000D01*
G75*
G02*
X17875000Y-89025000I0J250000D01*
G01*
G37*
G36*
G01*
X15075000Y-89025000D02*
X15075000Y-87775000D01*
G75*
G02*
X15325000Y-87525000I250000J0D01*
G01*
X16075000Y-87525000D01*
G75*
G02*
X16325000Y-87775000I0J-250000D01*
G01*
X16325000Y-89025000D01*
G75*
G02*
X16075000Y-89275000I-250000J0D01*
G01*
X15325000Y-89275000D01*
G75*
G02*
X15075000Y-89025000I0J250000D01*
G01*
G37*
%TD*%
%TO.C,C67*%
G36*
G01*
X17975000Y-63225000D02*
X17975000Y-61975000D01*
G75*
G02*
X18225000Y-61725000I250000J0D01*
G01*
X18975000Y-61725000D01*
G75*
G02*
X19225000Y-61975000I0J-250000D01*
G01*
X19225000Y-63225000D01*
G75*
G02*
X18975000Y-63475000I-250000J0D01*
G01*
X18225000Y-63475000D01*
G75*
G02*
X17975000Y-63225000I0J250000D01*
G01*
G37*
G36*
G01*
X15175000Y-63225000D02*
X15175000Y-61975000D01*
G75*
G02*
X15425000Y-61725000I250000J0D01*
G01*
X16175000Y-61725000D01*
G75*
G02*
X16425000Y-61975000I0J-250000D01*
G01*
X16425000Y-63225000D01*
G75*
G02*
X16175000Y-63475000I-250000J0D01*
G01*
X15425000Y-63475000D01*
G75*
G02*
X15175000Y-63225000I0J250000D01*
G01*
G37*
%TD*%
%TO.C,C66*%
G36*
G01*
X122525000Y-56875000D02*
X122525000Y-58125000D01*
G75*
G02*
X122275000Y-58375000I-250000J0D01*
G01*
X121525000Y-58375000D01*
G75*
G02*
X121275000Y-58125000I0J250000D01*
G01*
X121275000Y-56875000D01*
G75*
G02*
X121525000Y-56625000I250000J0D01*
G01*
X122275000Y-56625000D01*
G75*
G02*
X122525000Y-56875000I0J-250000D01*
G01*
G37*
G36*
G01*
X125325000Y-56875000D02*
X125325000Y-58125000D01*
G75*
G02*
X125075000Y-58375000I-250000J0D01*
G01*
X124325000Y-58375000D01*
G75*
G02*
X124075000Y-58125000I0J250000D01*
G01*
X124075000Y-56875000D01*
G75*
G02*
X124325000Y-56625000I250000J0D01*
G01*
X125075000Y-56625000D01*
G75*
G02*
X125325000Y-56875000I0J-250000D01*
G01*
G37*
%TD*%
%TO.C,C65*%
G36*
G01*
X122525000Y-82875000D02*
X122525000Y-84125000D01*
G75*
G02*
X122275000Y-84375000I-250000J0D01*
G01*
X121525000Y-84375000D01*
G75*
G02*
X121275000Y-84125000I0J250000D01*
G01*
X121275000Y-82875000D01*
G75*
G02*
X121525000Y-82625000I250000J0D01*
G01*
X122275000Y-82625000D01*
G75*
G02*
X122525000Y-82875000I0J-250000D01*
G01*
G37*
G36*
G01*
X125325000Y-82875000D02*
X125325000Y-84125000D01*
G75*
G02*
X125075000Y-84375000I-250000J0D01*
G01*
X124325000Y-84375000D01*
G75*
G02*
X124075000Y-84125000I0J250000D01*
G01*
X124075000Y-82875000D01*
G75*
G02*
X124325000Y-82625000I250000J0D01*
G01*
X125075000Y-82625000D01*
G75*
G02*
X125325000Y-82875000I0J-250000D01*
G01*
G37*
%TD*%
%TO.C,C64*%
G36*
G01*
X122525000Y-30875000D02*
X122525000Y-32125000D01*
G75*
G02*
X122275000Y-32375000I-250000J0D01*
G01*
X121525000Y-32375000D01*
G75*
G02*
X121275000Y-32125000I0J250000D01*
G01*
X121275000Y-30875000D01*
G75*
G02*
X121525000Y-30625000I250000J0D01*
G01*
X122275000Y-30625000D01*
G75*
G02*
X122525000Y-30875000I0J-250000D01*
G01*
G37*
G36*
G01*
X125325000Y-30875000D02*
X125325000Y-32125000D01*
G75*
G02*
X125075000Y-32375000I-250000J0D01*
G01*
X124325000Y-32375000D01*
G75*
G02*
X124075000Y-32125000I0J250000D01*
G01*
X124075000Y-30875000D01*
G75*
G02*
X124325000Y-30625000I250000J0D01*
G01*
X125075000Y-30625000D01*
G75*
G02*
X125325000Y-30875000I0J-250000D01*
G01*
G37*
%TD*%
%TO.C,C59*%
G36*
G01*
X60955000Y-15805000D02*
X59705000Y-15805000D01*
G75*
G02*
X59455000Y-15555000I0J250000D01*
G01*
X59455000Y-14805000D01*
G75*
G02*
X59705000Y-14555000I250000J0D01*
G01*
X60955000Y-14555000D01*
G75*
G02*
X61205000Y-14805000I0J-250000D01*
G01*
X61205000Y-15555000D01*
G75*
G02*
X60955000Y-15805000I-250000J0D01*
G01*
G37*
G36*
G01*
X60955000Y-18605000D02*
X59705000Y-18605000D01*
G75*
G02*
X59455000Y-18355000I0J250000D01*
G01*
X59455000Y-17605000D01*
G75*
G02*
X59705000Y-17355000I250000J0D01*
G01*
X60955000Y-17355000D01*
G75*
G02*
X61205000Y-17605000I0J-250000D01*
G01*
X61205000Y-18355000D01*
G75*
G02*
X60955000Y-18605000I-250000J0D01*
G01*
G37*
%TD*%
%TO.C,C58*%
G36*
G01*
X77925000Y-15725000D02*
X76675000Y-15725000D01*
G75*
G02*
X76425000Y-15475000I0J250000D01*
G01*
X76425000Y-14725000D01*
G75*
G02*
X76675000Y-14475000I250000J0D01*
G01*
X77925000Y-14475000D01*
G75*
G02*
X78175000Y-14725000I0J-250000D01*
G01*
X78175000Y-15475000D01*
G75*
G02*
X77925000Y-15725000I-250000J0D01*
G01*
G37*
G36*
G01*
X77925000Y-18525000D02*
X76675000Y-18525000D01*
G75*
G02*
X76425000Y-18275000I0J250000D01*
G01*
X76425000Y-17525000D01*
G75*
G02*
X76675000Y-17275000I250000J0D01*
G01*
X77925000Y-17275000D01*
G75*
G02*
X78175000Y-17525000I0J-250000D01*
G01*
X78175000Y-18275000D01*
G75*
G02*
X77925000Y-18525000I-250000J0D01*
G01*
G37*
%TD*%
%TO.C,C57*%
G36*
G01*
X63225000Y-15805000D02*
X61975000Y-15805000D01*
G75*
G02*
X61725000Y-15555000I0J250000D01*
G01*
X61725000Y-14805000D01*
G75*
G02*
X61975000Y-14555000I250000J0D01*
G01*
X63225000Y-14555000D01*
G75*
G02*
X63475000Y-14805000I0J-250000D01*
G01*
X63475000Y-15555000D01*
G75*
G02*
X63225000Y-15805000I-250000J0D01*
G01*
G37*
G36*
G01*
X63225000Y-18605000D02*
X61975000Y-18605000D01*
G75*
G02*
X61725000Y-18355000I0J250000D01*
G01*
X61725000Y-17605000D01*
G75*
G02*
X61975000Y-17355000I250000J0D01*
G01*
X63225000Y-17355000D01*
G75*
G02*
X63475000Y-17605000I0J-250000D01*
G01*
X63475000Y-18355000D01*
G75*
G02*
X63225000Y-18605000I-250000J0D01*
G01*
G37*
%TD*%
%TO.C,C56*%
G36*
G01*
X47325000Y-15725000D02*
X46075000Y-15725000D01*
G75*
G02*
X45825000Y-15475000I0J250000D01*
G01*
X45825000Y-14725000D01*
G75*
G02*
X46075000Y-14475000I250000J0D01*
G01*
X47325000Y-14475000D01*
G75*
G02*
X47575000Y-14725000I0J-250000D01*
G01*
X47575000Y-15475000D01*
G75*
G02*
X47325000Y-15725000I-250000J0D01*
G01*
G37*
G36*
G01*
X47325000Y-18525000D02*
X46075000Y-18525000D01*
G75*
G02*
X45825000Y-18275000I0J250000D01*
G01*
X45825000Y-17525000D01*
G75*
G02*
X46075000Y-17275000I250000J0D01*
G01*
X47325000Y-17275000D01*
G75*
G02*
X47575000Y-17525000I0J-250000D01*
G01*
X47575000Y-18275000D01*
G75*
G02*
X47325000Y-18525000I-250000J0D01*
G01*
G37*
%TD*%
%TO.C,C55*%
G36*
G01*
X80225000Y-15725000D02*
X78975000Y-15725000D01*
G75*
G02*
X78725000Y-15475000I0J250000D01*
G01*
X78725000Y-14725000D01*
G75*
G02*
X78975000Y-14475000I250000J0D01*
G01*
X80225000Y-14475000D01*
G75*
G02*
X80475000Y-14725000I0J-250000D01*
G01*
X80475000Y-15475000D01*
G75*
G02*
X80225000Y-15725000I-250000J0D01*
G01*
G37*
G36*
G01*
X80225000Y-18525000D02*
X78975000Y-18525000D01*
G75*
G02*
X78725000Y-18275000I0J250000D01*
G01*
X78725000Y-17525000D01*
G75*
G02*
X78975000Y-17275000I250000J0D01*
G01*
X80225000Y-17275000D01*
G75*
G02*
X80475000Y-17525000I0J-250000D01*
G01*
X80475000Y-18275000D01*
G75*
G02*
X80225000Y-18525000I-250000J0D01*
G01*
G37*
%TD*%
%TO.C,C54*%
G36*
G01*
X65525000Y-15805000D02*
X64275000Y-15805000D01*
G75*
G02*
X64025000Y-15555000I0J250000D01*
G01*
X64025000Y-14805000D01*
G75*
G02*
X64275000Y-14555000I250000J0D01*
G01*
X65525000Y-14555000D01*
G75*
G02*
X65775000Y-14805000I0J-250000D01*
G01*
X65775000Y-15555000D01*
G75*
G02*
X65525000Y-15805000I-250000J0D01*
G01*
G37*
G36*
G01*
X65525000Y-18605000D02*
X64275000Y-18605000D01*
G75*
G02*
X64025000Y-18355000I0J250000D01*
G01*
X64025000Y-17605000D01*
G75*
G02*
X64275000Y-17355000I250000J0D01*
G01*
X65525000Y-17355000D01*
G75*
G02*
X65775000Y-17605000I0J-250000D01*
G01*
X65775000Y-18355000D01*
G75*
G02*
X65525000Y-18605000I-250000J0D01*
G01*
G37*
%TD*%
%TO.C,C53*%
G36*
G01*
X49625000Y-15715000D02*
X48375000Y-15715000D01*
G75*
G02*
X48125000Y-15465000I0J250000D01*
G01*
X48125000Y-14715000D01*
G75*
G02*
X48375000Y-14465000I250000J0D01*
G01*
X49625000Y-14465000D01*
G75*
G02*
X49875000Y-14715000I0J-250000D01*
G01*
X49875000Y-15465000D01*
G75*
G02*
X49625000Y-15715000I-250000J0D01*
G01*
G37*
G36*
G01*
X49625000Y-18515000D02*
X48375000Y-18515000D01*
G75*
G02*
X48125000Y-18265000I0J250000D01*
G01*
X48125000Y-17515000D01*
G75*
G02*
X48375000Y-17265000I250000J0D01*
G01*
X49625000Y-17265000D01*
G75*
G02*
X49875000Y-17515000I0J-250000D01*
G01*
X49875000Y-18265000D01*
G75*
G02*
X49625000Y-18515000I-250000J0D01*
G01*
G37*
%TD*%
%TO.C,C52*%
G36*
G01*
X87225000Y-15725000D02*
X85975000Y-15725000D01*
G75*
G02*
X85725000Y-15475000I0J250000D01*
G01*
X85725000Y-14725000D01*
G75*
G02*
X85975000Y-14475000I250000J0D01*
G01*
X87225000Y-14475000D01*
G75*
G02*
X87475000Y-14725000I0J-250000D01*
G01*
X87475000Y-15475000D01*
G75*
G02*
X87225000Y-15725000I-250000J0D01*
G01*
G37*
G36*
G01*
X87225000Y-18525000D02*
X85975000Y-18525000D01*
G75*
G02*
X85725000Y-18275000I0J250000D01*
G01*
X85725000Y-17525000D01*
G75*
G02*
X85975000Y-17275000I250000J0D01*
G01*
X87225000Y-17275000D01*
G75*
G02*
X87475000Y-17525000I0J-250000D01*
G01*
X87475000Y-18275000D01*
G75*
G02*
X87225000Y-18525000I-250000J0D01*
G01*
G37*
%TD*%
%TO.C,C51*%
G36*
G01*
X75625000Y-15725000D02*
X74375000Y-15725000D01*
G75*
G02*
X74125000Y-15475000I0J250000D01*
G01*
X74125000Y-14725000D01*
G75*
G02*
X74375000Y-14475000I250000J0D01*
G01*
X75625000Y-14475000D01*
G75*
G02*
X75875000Y-14725000I0J-250000D01*
G01*
X75875000Y-15475000D01*
G75*
G02*
X75625000Y-15725000I-250000J0D01*
G01*
G37*
G36*
G01*
X75625000Y-18525000D02*
X74375000Y-18525000D01*
G75*
G02*
X74125000Y-18275000I0J250000D01*
G01*
X74125000Y-17525000D01*
G75*
G02*
X74375000Y-17275000I250000J0D01*
G01*
X75625000Y-17275000D01*
G75*
G02*
X75875000Y-17525000I0J-250000D01*
G01*
X75875000Y-18275000D01*
G75*
G02*
X75625000Y-18525000I-250000J0D01*
G01*
G37*
%TD*%
%TO.C,C50*%
G36*
G01*
X51925000Y-15715000D02*
X50675000Y-15715000D01*
G75*
G02*
X50425000Y-15465000I0J250000D01*
G01*
X50425000Y-14715000D01*
G75*
G02*
X50675000Y-14465000I250000J0D01*
G01*
X51925000Y-14465000D01*
G75*
G02*
X52175000Y-14715000I0J-250000D01*
G01*
X52175000Y-15465000D01*
G75*
G02*
X51925000Y-15715000I-250000J0D01*
G01*
G37*
G36*
G01*
X51925000Y-18515000D02*
X50675000Y-18515000D01*
G75*
G02*
X50425000Y-18265000I0J250000D01*
G01*
X50425000Y-17515000D01*
G75*
G02*
X50675000Y-17265000I250000J0D01*
G01*
X51925000Y-17265000D01*
G75*
G02*
X52175000Y-17515000I0J-250000D01*
G01*
X52175000Y-18265000D01*
G75*
G02*
X51925000Y-18515000I-250000J0D01*
G01*
G37*
%TD*%
%TO.C,C49*%
G36*
G01*
X89445000Y-15725000D02*
X88195000Y-15725000D01*
G75*
G02*
X87945000Y-15475000I0J250000D01*
G01*
X87945000Y-14725000D01*
G75*
G02*
X88195000Y-14475000I250000J0D01*
G01*
X89445000Y-14475000D01*
G75*
G02*
X89695000Y-14725000I0J-250000D01*
G01*
X89695000Y-15475000D01*
G75*
G02*
X89445000Y-15725000I-250000J0D01*
G01*
G37*
G36*
G01*
X89445000Y-18525000D02*
X88195000Y-18525000D01*
G75*
G02*
X87945000Y-18275000I0J250000D01*
G01*
X87945000Y-17525000D01*
G75*
G02*
X88195000Y-17275000I250000J0D01*
G01*
X89445000Y-17275000D01*
G75*
G02*
X89695000Y-17525000I0J-250000D01*
G01*
X89695000Y-18275000D01*
G75*
G02*
X89445000Y-18525000I-250000J0D01*
G01*
G37*
%TD*%
%TO.C,C48*%
G36*
G01*
X54225000Y-15725000D02*
X52975000Y-15725000D01*
G75*
G02*
X52725000Y-15475000I0J250000D01*
G01*
X52725000Y-14725000D01*
G75*
G02*
X52975000Y-14475000I250000J0D01*
G01*
X54225000Y-14475000D01*
G75*
G02*
X54475000Y-14725000I0J-250000D01*
G01*
X54475000Y-15475000D01*
G75*
G02*
X54225000Y-15725000I-250000J0D01*
G01*
G37*
G36*
G01*
X54225000Y-18525000D02*
X52975000Y-18525000D01*
G75*
G02*
X52725000Y-18275000I0J250000D01*
G01*
X52725000Y-17525000D01*
G75*
G02*
X52975000Y-17275000I250000J0D01*
G01*
X54225000Y-17275000D01*
G75*
G02*
X54475000Y-17525000I0J-250000D01*
G01*
X54475000Y-18275000D01*
G75*
G02*
X54225000Y-18525000I-250000J0D01*
G01*
G37*
%TD*%
%TO.C,C47*%
G36*
G01*
X91725000Y-15725000D02*
X90475000Y-15725000D01*
G75*
G02*
X90225000Y-15475000I0J250000D01*
G01*
X90225000Y-14725000D01*
G75*
G02*
X90475000Y-14475000I250000J0D01*
G01*
X91725000Y-14475000D01*
G75*
G02*
X91975000Y-14725000I0J-250000D01*
G01*
X91975000Y-15475000D01*
G75*
G02*
X91725000Y-15725000I-250000J0D01*
G01*
G37*
G36*
G01*
X91725000Y-18525000D02*
X90475000Y-18525000D01*
G75*
G02*
X90225000Y-18275000I0J250000D01*
G01*
X90225000Y-17525000D01*
G75*
G02*
X90475000Y-17275000I250000J0D01*
G01*
X91725000Y-17275000D01*
G75*
G02*
X91975000Y-17525000I0J-250000D01*
G01*
X91975000Y-18275000D01*
G75*
G02*
X91725000Y-18525000I-250000J0D01*
G01*
G37*
%TD*%
%TO.C,C46*%
G36*
G01*
X94025000Y-15725000D02*
X92775000Y-15725000D01*
G75*
G02*
X92525000Y-15475000I0J250000D01*
G01*
X92525000Y-14725000D01*
G75*
G02*
X92775000Y-14475000I250000J0D01*
G01*
X94025000Y-14475000D01*
G75*
G02*
X94275000Y-14725000I0J-250000D01*
G01*
X94275000Y-15475000D01*
G75*
G02*
X94025000Y-15725000I-250000J0D01*
G01*
G37*
G36*
G01*
X94025000Y-18525000D02*
X92775000Y-18525000D01*
G75*
G02*
X92525000Y-18275000I0J250000D01*
G01*
X92525000Y-17525000D01*
G75*
G02*
X92775000Y-17275000I250000J0D01*
G01*
X94025000Y-17275000D01*
G75*
G02*
X94275000Y-17525000I0J-250000D01*
G01*
X94275000Y-18275000D01*
G75*
G02*
X94025000Y-18525000I-250000J0D01*
G01*
G37*
%TD*%
D10*
%TO.C,V11*%
X26950000Y-38225000D03*
X31800000Y-43775000D03*
X26950000Y-43775000D03*
X31800000Y-38225000D03*
D11*
X20225000Y-38460000D03*
X20225000Y-43540000D03*
%TD*%
D10*
%TO.C,V10*%
X25050000Y-29775000D03*
X20200000Y-24225000D03*
X25050000Y-24225000D03*
X20200000Y-29775000D03*
D11*
X31775000Y-29540000D03*
X31775000Y-24460000D03*
%TD*%
D10*
%TO.C,V9*%
X26950000Y-64225000D03*
X31800000Y-69775000D03*
X26950000Y-69775000D03*
X31800000Y-64225000D03*
D11*
X20225000Y-64460000D03*
X20225000Y-69540000D03*
%TD*%
D10*
%TO.C,V8*%
X25050000Y-55775000D03*
X20200000Y-50225000D03*
X25050000Y-50225000D03*
X20200000Y-55775000D03*
D11*
X31775000Y-55540000D03*
X31775000Y-50460000D03*
%TD*%
D10*
%TO.C,V7*%
X26950000Y-90225000D03*
X31800000Y-95775000D03*
X26950000Y-95775000D03*
X31800000Y-90225000D03*
D11*
X20225000Y-90460000D03*
X20225000Y-95540000D03*
%TD*%
D10*
%TO.C,V6*%
X25050000Y-81775000D03*
X20200000Y-76225000D03*
X25050000Y-76225000D03*
X20200000Y-81775000D03*
D11*
X31775000Y-81540000D03*
X31775000Y-76460000D03*
%TD*%
D10*
%TO.C,V5*%
X113050000Y-29775000D03*
X108200000Y-24225000D03*
X113050000Y-24225000D03*
X108200000Y-29775000D03*
D11*
X119775000Y-29540000D03*
X119775000Y-24460000D03*
%TD*%
D10*
%TO.C,V4*%
X114950000Y-38225000D03*
X119800000Y-43775000D03*
X114950000Y-43775000D03*
X119800000Y-38225000D03*
D11*
X108225000Y-38460000D03*
X108225000Y-43540000D03*
%TD*%
D10*
%TO.C,V3*%
X113050000Y-55775000D03*
X108200000Y-50225000D03*
X113050000Y-50225000D03*
X108200000Y-55775000D03*
D11*
X119775000Y-55540000D03*
X119775000Y-50460000D03*
%TD*%
D10*
%TO.C,V2*%
X114950000Y-64225000D03*
X119800000Y-69775000D03*
X114950000Y-69775000D03*
X119800000Y-64225000D03*
D11*
X108225000Y-64460000D03*
X108225000Y-69540000D03*
%TD*%
D10*
%TO.C,V1*%
X113050000Y-81775000D03*
X108200000Y-76225000D03*
X113050000Y-76225000D03*
X108200000Y-81775000D03*
D11*
X119775000Y-81540000D03*
X119775000Y-76460000D03*
%TD*%
D10*
%TO.C,V0*%
X114950000Y-90225000D03*
X119800000Y-95775000D03*
X114950000Y-95775000D03*
X119800000Y-90225000D03*
D11*
X108225000Y-90460000D03*
X108225000Y-95540000D03*
%TD*%
M02*
