M48
; DRILL file {KiCad (5.1.6)-1} date 10/06/20 11:03:22
; FORMAT={-:-/ absolute / inch / decimal}
; #@! TF.CreationDate,2020-10-06T11:03:22+02:00
; #@! TF.GenerationSoftware,Kicad,Pcbnew,(5.1.6)-1
; #@! TF.FileFunction,Plated,1,2,PTH
FMAT,2
INCH
T1C0.0157
T2C0.0236
T3C0.0315
T4C0.0394
T5C0.0472
T6C0.0787
T7C0.1063
T8C0.1575
%
G90
G05
T1
X0.7087Y-1.378
X0.7087Y-1.4173
X0.7087Y-1.4567
X0.7087Y-1.4961
X0.7087Y-1.5354
X0.7087Y-2.4016
X0.7087Y-2.4409
X0.7087Y-2.4803
X0.7087Y-2.5197
X0.7087Y-2.5591
X0.7087Y-3.4252
X0.7087Y-3.4646
X0.7087Y-3.5039
X0.7087Y-3.5433
X0.7087Y-3.5827
X0.748Y-1.378
X0.748Y-1.4173
X0.748Y-1.4567
X0.748Y-1.4961
X0.748Y-1.5354
X0.748Y-2.4016
X0.748Y-2.4409
X0.748Y-2.4803
X0.748Y-2.5197
X0.748Y-2.5591
X0.748Y-3.4252
X0.748Y-3.4646
X0.748Y-3.5039
X0.748Y-3.5433
X0.748Y-3.5827
X0.7874Y-1.378
X0.7874Y-1.4173
X0.7874Y-1.4567
X0.7874Y-1.4961
X0.7874Y-1.5354
X0.7874Y-2.4016
X0.7874Y-2.4409
X0.7874Y-2.4803
X0.7874Y-2.5197
X0.7874Y-2.5591
X0.7874Y-3.4252
X0.7874Y-3.4646
X0.7874Y-3.5039
X0.7874Y-3.5433
X0.7874Y-3.5827
X0.8071Y-2.6575
X0.8268Y-1.4173
X0.8268Y-1.4567
X0.8268Y-1.4961
X0.8268Y-1.5354
X0.8268Y-1.6535
X0.8268Y-2.4409
X0.8268Y-2.4803
X0.8268Y-2.5197
X0.8268Y-2.5591
X0.8268Y-3.4646
X0.8268Y-3.5039
X0.8268Y-3.5433
X0.8268Y-3.5827
X0.8268Y-3.7008
X0.8661Y-1.4961
X0.8661Y-1.5354
X0.8661Y-2.5197
X0.8661Y-2.5591
X0.8661Y-3.5433
X0.8661Y-3.5827
X0.9764Y-0.9331
X0.9764Y-0.9685
X0.9764Y-1.0
X0.9764Y-1.0354
X0.9764Y-1.9606
X0.9764Y-1.9961
X0.9764Y-2.0276
X0.9764Y-2.063
X0.9764Y-2.9803
X0.9764Y-3.0157
X0.9764Y-3.0472
X0.9764Y-3.0827
X0.9961Y-2.4409
X0.9961Y-2.4764
X0.9961Y-2.5118
X0.9961Y-2.5472
X0.9961Y-3.4646
X0.9961Y-3.5
X0.9961Y-3.5354
X0.9961Y-3.5709
X1.0Y-1.4173
X1.0Y-1.4528
X1.0Y-1.4882
X1.0Y-1.5236
X1.0118Y-0.9331
X1.0118Y-0.9685
X1.0118Y-1.0
X1.0118Y-1.0354
X1.0118Y-1.9606
X1.0118Y-1.9961
X1.0118Y-2.0276
X1.0118Y-2.063
X1.0118Y-2.9803
X1.0118Y-3.0157
X1.0118Y-3.0472
X1.0118Y-3.0827
X1.0315Y-2.4409
X1.0315Y-2.4764
X1.0315Y-2.5118
X1.0315Y-2.5472
X1.0315Y-3.4646
X1.0315Y-3.5
X1.0315Y-3.5354
X1.0315Y-3.5709
X1.0354Y-1.4173
X1.0354Y-1.4528
X1.0354Y-1.4882
X1.0354Y-1.5236
X1.0472Y-0.9331
X1.0472Y-0.9685
X1.0472Y-1.0
X1.0472Y-1.0354
X1.0472Y-1.9606
X1.0472Y-1.9961
X1.0472Y-2.0276
X1.0472Y-2.063
X1.0472Y-2.9803
X1.0472Y-3.0157
X1.0472Y-3.0472
X1.0472Y-3.0827
X1.0669Y-2.4409
X1.0669Y-2.4764
X1.0669Y-2.5118
X1.0669Y-2.5472
X1.0669Y-3.4646
X1.0669Y-3.5
X1.0669Y-3.5354
X1.0669Y-3.5709
X1.0709Y-1.4173
X1.0709Y-1.4528
X1.0709Y-1.4882
X1.0709Y-1.5236
X1.1004Y-3.2323
X1.1004Y-3.2677
X1.1004Y-3.3031
X1.1004Y-3.3386
X1.1024Y-2.4409
X1.1024Y-2.4764
X1.1024Y-2.5118
X1.1024Y-2.5472
X1.1024Y-3.4646
X1.1024Y-3.5
X1.1024Y-3.5354
X1.1024Y-3.5709
X1.1043Y-1.1772
X1.1043Y-1.2126
X1.1043Y-1.248
X1.1043Y-1.2835
X1.1043Y-2.2047
X1.1043Y-2.2402
X1.1043Y-2.2756
X1.1043Y-2.311
X1.1063Y-1.4173
X1.1063Y-1.4528
X1.1063Y-1.4882
X1.1063Y-1.5236
X1.1358Y-3.2323
X1.1358Y-3.2677
X1.1358Y-3.3031
X1.1358Y-3.3386
X1.1378Y-2.4409
X1.1378Y-2.4764
X1.1378Y-2.5118
X1.1378Y-2.5472
X1.1378Y-3.4646
X1.1378Y-3.5
X1.1378Y-3.5354
X1.1378Y-3.5709
X1.1398Y-1.1772
X1.1398Y-1.2126
X1.1398Y-1.248
X1.1398Y-1.2835
X1.1398Y-2.2047
X1.1398Y-2.2402
X1.1398Y-2.2756
X1.1398Y-2.311
X1.1417Y-1.4173
X1.1417Y-1.4528
X1.1417Y-1.4882
X1.1417Y-1.5236
X1.1417Y-2.0472
X1.1457Y-1.0295
X1.1457Y-1.0728
X1.1535Y-3.0827
X1.1555Y-3.122
X1.1713Y-3.2323
X1.1713Y-3.2677
X1.1713Y-3.3031
X1.1713Y-3.3386
X1.1732Y-2.4409
X1.1732Y-2.4764
X1.1732Y-2.5118
X1.1732Y-2.5472
X1.1732Y-3.4646
X1.1732Y-3.5
X1.1732Y-3.5354
X1.1732Y-3.5709
X1.1752Y-1.1772
X1.1752Y-1.2126
X1.1752Y-1.248
X1.1752Y-1.2835
X1.1752Y-2.2047
X1.1752Y-2.2402
X1.1752Y-2.2756
X1.1752Y-2.311
X1.1772Y-1.4173
X1.1772Y-1.4528
X1.1772Y-1.4882
X1.1772Y-1.5236
X1.2008Y-2.0276
X1.2067Y-3.2323
X1.2067Y-3.2677
X1.2087Y-2.4409
X1.2087Y-2.4764
X1.2087Y-2.5118
X1.2087Y-2.5472
X1.2087Y-3.4646
X1.2087Y-3.5
X1.2087Y-3.5354
X1.2087Y-3.5709
X1.2106Y-1.1772
X1.2106Y-1.2126
X1.2106Y-2.2047
X1.2106Y-2.2402
X1.2126Y-1.4173
X1.2126Y-1.4528
X1.2126Y-1.4882
X1.2126Y-1.5236
X1.2441Y-2.4409
X1.2441Y-2.4764
X1.2441Y-2.5118
X1.2441Y-2.5472
X1.2441Y-3.4646
X1.2441Y-3.5
X1.2441Y-3.5354
X1.2441Y-3.5709
X1.248Y-1.4173
X1.248Y-1.4528
X1.248Y-1.4882
X1.248Y-1.5236
X1.2795Y-2.4409
X1.2795Y-2.4764
X1.2795Y-2.5118
X1.2795Y-2.5472
X1.2795Y-3.4646
X1.2795Y-3.5
X1.2795Y-3.5354
X1.2795Y-3.5709
X1.2835Y-1.4173
X1.2835Y-1.4528
X1.2835Y-1.4882
X1.2835Y-1.5236
X1.315Y-2.4409
X1.315Y-2.4764
X1.315Y-2.5118
X1.315Y-2.5472
X1.315Y-3.4646
X1.315Y-3.5
X1.315Y-3.5354
X1.315Y-3.5709
X1.3189Y-1.4173
X1.3189Y-1.4528
X1.3189Y-1.4882
X1.3189Y-1.5236
X1.41Y-3.7953
X1.4154Y-2.7539
X1.4173Y-1.9961
X1.4213Y-2.8898
X1.4252Y-3.0039
X1.4272Y-2.185
X1.437Y-1.6811
X1.437Y-1.878
X1.4409Y-3.122
X1.4409Y-3.185
X1.4409Y-3.874
X1.4488Y-1.0906
X1.4528Y-1.4134
X1.4531Y-1.5128
X1.4567Y-2.5551
X1.4606Y-1.1654
X1.4961Y-1.2795
X1.4961Y-2.3031
X1.4961Y-3.3071
X1.5237Y-1.1384
X1.5256Y-3.002
X1.5394Y-1.9094
X1.5551Y-3.189
X1.561Y-2.9134
X1.563Y-1.1575
X1.563Y-1.2244
X1.5669Y-2.2165
X1.5669Y-3.0925
X1.5748Y-3.8701
X1.5906Y-1.4232
X1.5945Y-1.4646
X1.6024Y-1.9646
X1.6122Y-3.5906
X1.6132Y-1.1441
X1.6142Y-0.4331
X1.6142Y-2.6083
X1.6161Y-3.7402
X1.628Y-2.514
X1.6339Y-3.1969
X1.6376Y-2.5522
X1.6417Y-1.5157
X1.6437Y-1.4587
X1.6467Y-1.1854
X1.6535Y-0.4331
X1.6535Y-0.4724
X1.6535Y-2.1496
X1.6535Y-3.4646
X1.6654Y-1.5866
X1.6732Y-1.8465
X1.685Y-2.0669
X1.685Y-1.9449
X1.689Y-1.7795
X1.6929Y-0.4331
X1.6929Y-0.4724
X1.6929Y-0.5118
X1.6929Y-1.1535
X1.6929Y-1.6772
X1.6969Y-1.3386
X1.6969Y-1.3858
X1.7096Y-1.2589
X1.7323Y-0.4331
X1.7323Y-0.4724
X1.7323Y-0.5118
X1.7323Y-3.4528
X1.7535Y-0.9996
X1.7559Y-3.0236
X1.7618Y-3.5945
X1.7717Y-0.4331
X1.7717Y-0.4724
X1.7717Y-0.5118
X1.7756Y-2.7067
X1.7992Y-3.2402
X1.811Y-0.4331
X1.811Y-0.4724
X1.811Y-0.5118
X1.8307Y-1.7638
X1.8346Y-3.2795
X1.8406Y-2.3327
X1.8425Y-1.1024
X1.8504Y-0.4331
X1.8504Y-0.4724
X1.8504Y-0.5118
X1.874Y-3.3937
X1.8819Y-2.0748
X1.8898Y-0.4331
X1.8898Y-0.4724
X1.8898Y-0.5118
X1.8937Y-1.7323
X1.9055Y-1.4213
X1.9134Y-1.1142
X1.9173Y-1.9291
X1.9213Y-3.7677
X1.9291Y-0.4331
X1.9291Y-0.4724
X1.9291Y-0.5118
X1.9311Y-1.9833
X1.9331Y-3.1063
X1.9409Y-2.5472
X1.9528Y-2.3858
X1.9567Y-1.6299
X1.9587Y-2.3031
X1.9606Y-1.563
X1.9646Y-1.4291
X1.9646Y-3.0512
X1.9675Y-2.187
X1.9685Y-0.4331
X1.9685Y-0.4724
X1.9685Y-0.5118
X1.9728Y-1.1409
X1.9803Y-1.3583
X1.9872Y-1.9882
X1.9882Y-2.9311
X2.0Y-1.7598
X2.003Y-2.0729
X2.0079Y-0.4331
X2.0079Y-0.4724
X2.0079Y-0.5118
X2.0079Y-1.0039
X2.0118Y-3.4449
X2.0157Y-3.5354
X2.0177Y-2.5394
X2.0177Y-3.7697
X2.0276Y-2.7638
X2.0354Y-2.1496
X2.0354Y-2.6457
X2.0433Y-2.2244
X2.0463Y-1.4134
X2.0472Y-0.4331
X2.0472Y-0.4724
X2.0472Y-0.5118
X2.0472Y-1.811
X2.0571Y-2.4016
X2.06Y-1.9961
X2.063Y-1.2283
X2.0665Y-1.0031
X2.0748Y-1.4567
X2.0768Y-2.1703
X2.0778Y-2.2648
X2.0827Y-1.311
X2.0827Y-1.8386
X2.0866Y-0.4331
X2.0866Y-0.4724
X2.0866Y-0.5118
X2.0945Y-3.8465
X2.1024Y-2.5394
X2.1053Y-2.3022
X2.1068Y-3.6048
X2.126Y-0.4331
X2.126Y-0.4724
X2.126Y-0.5118
X2.126Y-3.1614
X2.1299Y-3.6693
X2.1299Y-3.8878
X2.162Y-3.0796
X2.1654Y-0.4331
X2.1654Y-0.4724
X2.1654Y-0.5118
X2.1713Y-1.1781
X2.1772Y-1.3425
X2.185Y-3.6654
X2.193Y-3.2963
X2.2047Y-0.4331
X2.2047Y-0.4724
X2.2047Y-0.5118
X2.2047Y-2.5591
X2.2283Y-3.2677
X2.2293Y-2.1339
X2.2307Y-3.3248
X2.2323Y-2.2608
X2.2343Y-2.6673
X2.2441Y-0.4331
X2.2441Y-0.4724
X2.2441Y-0.5118
X2.2441Y-1.5059
X2.2539Y-3.7972
X2.2559Y-2.4094
X2.2638Y-2.0079
X2.2638Y-2.2126
X2.2667Y-2.0896
X2.2736Y-1.4173
X2.2756Y-3.3622
X2.2795Y-2.2638
X2.2803Y-3.2106
X2.2835Y-0.4331
X2.2835Y-0.4724
X2.2835Y-0.5118
X2.2866Y-3.4737
X2.2953Y-1.5945
X2.2972Y-1.2244
X2.2992Y-1.7323
X2.3031Y-2.7165
X2.3071Y-2.9961
X2.3076Y-3.2392
X2.3091Y-2.1358
X2.311Y-1.1476
X2.3228Y-0.4331
X2.3228Y-0.4724
X2.3228Y-0.5118
X2.3228Y-3.3504
X2.3287Y-3.1142
X2.3307Y-1.5157
X2.3346Y-2.3701
X2.3352Y-2.5266
X2.3386Y-3.1594
X2.3406Y-3.7972
X2.3443Y-2.7881
X2.3569Y-3.493
X2.3573Y-2.5758
X2.3622Y-0.4331
X2.3622Y-0.4724
X2.3622Y-0.5118
X2.3701Y-2.3976
X2.374Y-1.3976
X2.378Y-1.8583
X2.3898Y-2.1388
X2.4016Y-0.4331
X2.4016Y-0.4724
X2.4016Y-0.5118
X2.4016Y-2.7362
X2.4193Y-1.1909
X2.4215Y-2.5275
X2.4291Y-1.7362
X2.4409Y-0.4331
X2.4409Y-0.4724
X2.4409Y-0.5118
X2.4409Y-1.5906
X2.4409Y-3.3071
X2.4488Y-3.1555
X2.4562Y-2.8932
X2.4567Y-1.8543
X2.4608Y-2.528
X2.4622Y-2.8166
X2.4646Y-1.5118
X2.4699Y-2.8552
X2.4762Y-2.9606
X2.4798Y-3.065
X2.4803Y-0.4331
X2.4803Y-0.4724
X2.4803Y-0.5118
X2.4862Y-3.122
X2.4882Y-2.2165
X2.4937Y-2.0492
X2.4999Y-2.9075
X2.5036Y-3.4951
X2.5039Y-1.3031
X2.5039Y-2.3504
X2.5079Y-1.4016
X2.5079Y-1.9724
X2.5138Y-2.9723
X2.5197Y-0.4331
X2.5197Y-0.4724
X2.5197Y-0.5118
X2.5197Y-1.0827
X2.5394Y-2.5197
X2.5413Y-3.3563
X2.5564Y-3.0355
X2.5591Y-0.4331
X2.5591Y-0.4724
X2.5591Y-0.5118
X2.5591Y-2.6378
X2.5709Y-1.563
X2.5748Y-3.2756
X2.5866Y-1.4016
X2.5925Y-2.0413
X2.5955Y-3.1395
X2.5984Y-0.4331
X2.5984Y-0.4724
X2.5984Y-0.5118
X2.599Y-1.3117
X2.5994Y-2.1043
X2.6024Y-3.374
X2.6102Y-3.7835
X2.6142Y-3.6339
X2.6242Y-2.9577
X2.628Y-1.9193
X2.6329Y-3.315
X2.6339Y-2.9961
X2.6378Y-0.4331
X2.6378Y-0.4724
X2.6378Y-0.5118
X2.6378Y-3.4409
X2.6476Y-2.4016
X2.6515Y-3.0421
X2.6673Y-2.6378
X2.6772Y-0.4331
X2.6772Y-0.4724
X2.6772Y-1.811
X2.6772Y-2.2205
X2.6813Y-2.9671
X2.6922Y-3.4127
X2.6953Y-3.3734
X2.6969Y-1.9685
X2.6969Y-2.313
X2.7165Y-0.4331
X2.7244Y-3.8957
X2.7303Y-3.7795
X2.7326Y-3.3276
X2.7352Y-3.1469
X2.7362Y-1.0748
X2.7362Y-2.4803
X2.7402Y-1.7165
X2.7441Y-3.8228
X2.7469Y-3.0255
X2.748Y-3.6142
X2.752Y-1.5906
X2.755Y-1.22
X2.755Y-1.41
X2.7559Y-0.4331
X2.7638Y-3.8957
X2.7657Y-3.7795
X2.7677Y-2.9921
X2.7706Y-1.1485
X2.7756Y-1.9783
X2.7795Y-3.0632
X2.7854Y-1.8504
X2.7953Y-0.4331
X2.7953Y-3.3661
X2.8051Y-2.8051
X2.8071Y-2.6181
X2.8189Y-1.6969
X2.8228Y-2.2402
X2.8228Y-2.5079
X2.8268Y-3.2244
X2.8307Y-2.3307
X2.8346Y-0.4331
X2.8346Y-0.4724
X2.85Y-1.3947
X2.8701Y-3.4016
X2.8701Y-3.5197
X2.874Y-0.4331
X2.874Y-0.4724
X2.874Y-0.5118
X2.8937Y-3.2283
X2.9016Y-2.6732
X2.9064Y-2.9439
X2.9134Y-0.4331
X2.9134Y-0.4724
X2.9134Y-0.5118
X2.9144Y-2.749
X2.9173Y-2.4213
X2.9252Y-1.4557
X2.9252Y-1.9055
X2.9322Y-2.976
X2.937Y-1.9606
X2.937Y-2.1639
X2.9409Y-2.7165
X2.9449Y-1.5787
X2.9528Y-0.4331
X2.9528Y-0.4724
X2.9528Y-0.5118
X2.9528Y-3.3425
X2.9615Y-3.0649
X2.9692Y-2.1961
X2.9724Y-1.0866
X2.9764Y-3.2402
X2.9843Y-1.2992
X2.9921Y-0.4331
X2.9921Y-0.4724
X2.9921Y-0.5118
X2.9921Y-2.9331
X2.9921Y-3.5276
X3.0Y-2.3504
X3.0039Y-2.7559
X3.0236Y-2.7205
X3.0236Y-3.1102
X3.0315Y-0.4331
X3.0315Y-0.4724
X3.0315Y-0.5118
X3.0433Y-2.311
X3.0472Y-2.8543
X3.0482Y-2.9715
X3.061Y-1.7421
X3.0659Y-1.3376
X3.0709Y-0.4331
X3.0709Y-0.4724
X3.0709Y-0.5118
X3.0709Y-1.2008
X3.0866Y-1.4557
X3.0984Y-2.1024
X3.0984Y-2.6732
X3.1024Y-1.8386
X3.1024Y-3.5236
X3.1063Y-2.5197
X3.1102Y-0.4331
X3.1102Y-0.4724
X3.1102Y-0.5118
X3.1142Y-2.4055
X3.1142Y-3.4055
X3.1181Y-2.2087
X3.1496Y-0.4331
X3.1496Y-0.4724
X3.1496Y-0.5118
X3.1649Y-3.2436
X3.17Y-1.375
X3.1732Y-3.3898
X3.1811Y-3.5236
X3.189Y-0.4331
X3.189Y-0.4724
X3.189Y-0.5118
X3.1978Y-1.7313
X3.1988Y-1.0827
X3.2205Y-3.5197
X3.2224Y-1.2953
X3.2283Y-0.4331
X3.2283Y-0.4724
X3.2283Y-0.5118
X3.2421Y-1.6073
X3.2518Y-2.9897
X3.252Y-3.2992
X3.2598Y-2.4449
X3.2598Y-3.3819
X3.2598Y-3.5591
X3.2677Y-0.4331
X3.2677Y-0.4724
X3.2677Y-0.5118
X3.2756Y-2.6496
X3.2874Y-2.7648
X3.2913Y-3.5945
X3.292Y-3.2517
X3.3031Y-2.3622
X3.3071Y-0.4331
X3.3071Y-0.4724
X3.3071Y-0.5118
X3.3071Y-1.0925
X3.3071Y-2.4843
X3.311Y-3.6339
X3.3169Y-1.2106
X3.3337Y-1.7185
X3.3465Y-0.4331
X3.3465Y-0.4724
X3.3465Y-0.5118
X3.3465Y-3.2953
X3.3474Y-1.4724
X3.3504Y-1.2677
X3.3543Y-3.8622
X3.3819Y-3.5157
X3.3823Y-3.048
X3.3858Y-0.4331
X3.3858Y-0.4724
X3.3858Y-0.5118
X3.3898Y-2.5433
X3.3969Y-3.2689
X3.4055Y-1.8425
X3.4154Y-1.3878
X3.4173Y-3.5433
X3.4209Y-2.7941
X3.4252Y-0.4331
X3.4252Y-0.4724
X3.4252Y-0.5118
X3.4331Y-2.0866
X3.435Y-1.752
X3.437Y-3.6929
X3.4409Y-1.5728
X3.4455Y-2.3392
X3.4646Y-0.4331
X3.4646Y-0.4724
X3.4646Y-0.5118
X3.4646Y-3.7323
X3.4961Y-3.5354
X3.5Y-2.4646
X3.5039Y-0.4331
X3.5039Y-0.4724
X3.5039Y-0.5118
X3.5051Y-3.1105
X3.5079Y-2.4134
X3.5354Y-2.7323
X3.5354Y-3.6339
X3.5433Y-0.4331
X3.5433Y-0.4724
X3.5433Y-0.5118
X3.5467Y-2.2844
X3.5512Y-3.3051
X3.5709Y-1.6496
X3.5748Y-1.5
X3.5787Y-1.1969
X3.5827Y-0.4331
X3.5827Y-0.4724
X3.5827Y-0.5118
X3.5827Y-1.748
X3.5827Y-3.4606
X3.5866Y-1.2795
X3.5866Y-1.3819
X3.5906Y-2.6732
X3.5984Y-3.5945
X3.5984Y-3.6575
X3.622Y-0.4331
X3.622Y-0.4724
X3.622Y-0.5118
X3.6228Y-3.0992
X3.6339Y-1.1772
X3.6339Y-2.2323
X3.6378Y-2.2795
X3.6378Y-2.5
X3.6457Y-2.4055
X3.6614Y-0.4331
X3.6614Y-0.4724
X3.6614Y-0.5118
X3.6732Y-3.752
X3.6772Y-3.4567
X3.6791Y-2.785
X3.6839Y-3.2118
X3.7008Y-0.4331
X3.7008Y-0.4724
X3.7008Y-0.5118
X3.7008Y-1.6339
X3.7106Y-2.0571
X3.7126Y-1.5669
X3.7283Y-1.9291
X3.7323Y-1.8661
X3.7402Y-0.4331
X3.7402Y-0.4724
X3.7402Y-0.5118
X3.7402Y-3.4882
X3.7754Y-1.4013
X3.7795Y-0.4331
X3.7795Y-0.4724
X3.7795Y-0.5118
X3.7815Y-3.1646
X3.7928Y-2.1393
X3.7933Y-1.5846
X3.7992Y-3.315
X3.8031Y-1.8386
X3.815Y-3.4921
X3.8189Y-0.4331
X3.8189Y-0.4724
X3.8189Y-0.5118
X3.8268Y-2.7402
X3.8287Y-1.6486
X3.8504Y-1.9606
X3.8543Y-1.5945
X3.8543Y-3.5591
X3.8583Y-0.4331
X3.8583Y-0.4724
X3.8583Y-0.5118
X3.8583Y-2.5236
X3.8622Y-1.7126
X3.8622Y-3.689
X3.8661Y-3.7835
X3.878Y-1.5
X3.8976Y-0.4331
X3.8976Y-0.4724
X3.8976Y-0.5118
X3.8996Y-1.2244
X3.9016Y-2.189
X3.9016Y-3.8543
X3.9154Y-1.1575
X3.9173Y-2.685
X3.937Y-0.4331
X3.937Y-0.4724
X3.937Y-0.5118
X3.9409Y-1.8346
X3.9567Y-2.9803
X3.9606Y-3.1142
X3.9646Y-2.9016
X3.9764Y-0.4331
X3.9764Y-0.4724
X4.0157Y-0.4331
X4.0157Y-1.3976
X4.0157Y-2.9764
X4.0157Y-3.4252
X4.0197Y-2.0276
X4.0197Y-2.4173
X4.0236Y-1.9685
X4.0472Y-1.1398
X4.0551Y-3.5787
X4.0669Y-3.8661
X4.0827Y-1.5315
X4.0827Y-1.6142
X4.0827Y-3.7087
X4.0906Y-1.7559
X4.1024Y-1.8898
X4.1339Y-2.0492
X4.1929Y-2.1732
X4.1929Y-2.2087
X4.1929Y-2.2441
X4.1929Y-2.2795
X4.1929Y-3.1929
X4.1929Y-3.2283
X4.1929Y-3.2638
X4.1929Y-3.2992
X4.1969Y-1.1496
X4.1969Y-1.185
X4.1969Y-1.2205
X4.1969Y-1.2559
X4.2283Y-2.1732
X4.2283Y-2.2087
X4.2283Y-2.2441
X4.2283Y-2.2795
X4.2283Y-3.1929
X4.2283Y-3.2283
X4.2283Y-3.2638
X4.2283Y-3.2992
X4.2323Y-1.1496
X4.2323Y-1.185
X4.2323Y-1.2205
X4.2323Y-1.2559
X4.2638Y-2.1732
X4.2638Y-2.2087
X4.2638Y-2.2441
X4.2638Y-2.2795
X4.2638Y-3.1929
X4.2638Y-3.2283
X4.2638Y-3.2638
X4.2638Y-3.2992
X4.2677Y-1.1496
X4.2677Y-1.185
X4.2677Y-1.2205
X4.2677Y-1.2559
X4.2894Y-3.7047
X4.2953Y-1.4567
X4.2953Y-1.4921
X4.2953Y-2.4803
X4.2953Y-2.5157
X4.2953Y-3.5039
X4.2953Y-3.5394
X4.2992Y-2.1732
X4.2992Y-2.2087
X4.2992Y-2.2441
X4.2992Y-2.2795
X4.2992Y-3.1929
X4.2992Y-3.2283
X4.2992Y-3.2638
X4.2992Y-3.2992
X4.3018Y-1.6732
X4.3018Y-2.6969
X4.3031Y-1.1496
X4.3031Y-1.185
X4.3031Y-1.2205
X4.3031Y-1.2559
X4.3215Y-3.7008
X4.3307Y-1.3858
X4.3307Y-1.4213
X4.3307Y-1.4567
X4.3307Y-1.4921
X4.3307Y-2.4094
X4.3307Y-2.4449
X4.3307Y-2.4803
X4.3307Y-2.5157
X4.3307Y-3.4331
X4.3307Y-3.4685
X4.3307Y-3.5039
X4.3307Y-3.5394
X4.3346Y-2.1732
X4.3346Y-2.2087
X4.3346Y-2.2441
X4.3346Y-2.2795
X4.3346Y-3.1929
X4.3346Y-3.2283
X4.3346Y-3.2638
X4.3346Y-3.2992
X4.3386Y-1.1496
X4.3386Y-1.185
X4.3386Y-1.2205
X4.3386Y-1.2559
X4.3504Y-1.6732
X4.3661Y-1.3858
X4.3661Y-1.4213
X4.3661Y-1.4567
X4.3661Y-1.4921
X4.3661Y-2.4094
X4.3661Y-2.4449
X4.3661Y-2.4803
X4.3661Y-2.5157
X4.3661Y-3.4331
X4.3661Y-3.4685
X4.3661Y-3.5039
X4.3681Y-2.6965
X4.3701Y-2.1732
X4.3701Y-2.2087
X4.3701Y-2.2441
X4.3701Y-2.2795
X4.3701Y-3.1929
X4.3701Y-3.2283
X4.3701Y-3.2638
X4.3701Y-3.2992
X4.374Y-1.1496
X4.374Y-1.185
X4.374Y-1.2205
X4.374Y-1.2559
X4.4016Y-1.3858
X4.4016Y-1.4213
X4.4016Y-1.4567
X4.4016Y-2.4094
X4.4016Y-2.4449
X4.4016Y-2.4803
X4.4016Y-3.4331
X4.4016Y-3.4685
X4.4016Y-3.5039
X4.4016Y-3.5394
X4.4055Y-2.1732
X4.4055Y-2.2087
X4.4055Y-2.2441
X4.4055Y-2.2795
X4.4055Y-3.1929
X4.4055Y-3.2283
X4.4055Y-3.2638
X4.4055Y-3.2992
X4.4055Y-3.6811
X4.4055Y-3.7165
X4.4055Y-3.748
X4.4055Y-3.7835
X4.4094Y-1.1496
X4.4094Y-1.185
X4.4094Y-1.2205
X4.4094Y-1.2559
X4.4409Y-2.1732
X4.4409Y-2.2087
X4.4409Y-2.2441
X4.4409Y-2.2795
X4.4409Y-3.1929
X4.4409Y-3.2283
X4.4409Y-3.2638
X4.4409Y-3.2992
X4.4409Y-3.6811
X4.4409Y-3.7165
X4.4409Y-3.748
X4.4409Y-3.7835
X4.4449Y-1.1496
X4.4449Y-1.185
X4.4449Y-1.2205
X4.4449Y-1.2559
X4.4646Y-1.6417
X4.4646Y-1.6772
X4.4646Y-1.7087
X4.4646Y-1.7441
X4.4646Y-2.6654
X4.4646Y-2.7008
X4.4646Y-2.7323
X4.4646Y-2.7677
X4.4764Y-2.1732
X4.4764Y-2.2087
X4.4764Y-2.2441
X4.4764Y-2.2795
X4.4764Y-3.1929
X4.4764Y-3.2283
X4.4764Y-3.2638
X4.4764Y-3.2992
X4.4764Y-3.6811
X4.4764Y-3.7165
X4.4764Y-3.748
X4.4764Y-3.7835
X4.4803Y-1.1496
X4.4803Y-1.185
X4.4803Y-1.2205
X4.4803Y-1.2559
X4.5Y-1.6417
X4.5Y-1.6772
X4.5Y-1.7087
X4.5Y-1.7441
X4.5Y-2.6654
X4.5Y-2.7008
X4.5Y-2.7323
X4.5Y-2.7677
X4.5118Y-2.1732
X4.5118Y-2.2087
X4.5118Y-2.2441
X4.5118Y-2.2795
X4.5118Y-3.1929
X4.5118Y-3.2283
X4.5118Y-3.2638
X4.5118Y-3.2992
X4.5157Y-1.1496
X4.5157Y-1.185
X4.5157Y-1.2205
X4.5157Y-1.2559
X4.5354Y-1.6417
X4.5354Y-1.6772
X4.5354Y-1.7087
X4.5354Y-1.7441
X4.5354Y-2.6654
X4.5354Y-2.7008
X4.5354Y-2.7323
X4.5354Y-2.7677
X4.5984Y-1.9606
X4.6004Y-0.9075
X4.6063Y-2.9331
X4.6457Y-1.1417
X4.6457Y-1.1811
X4.6457Y-2.1654
X4.6457Y-2.2047
X4.6457Y-3.189
X4.6457Y-3.2283
X4.685Y-1.1417
X4.685Y-1.1811
X4.685Y-1.2205
X4.685Y-1.2598
X4.685Y-2.1654
X4.685Y-2.2047
X4.685Y-2.2441
X4.685Y-2.2835
X4.685Y-3.189
X4.685Y-3.2283
X4.685Y-3.2677
X4.685Y-3.3071
X4.7244Y-1.1417
X4.7244Y-1.1811
X4.7244Y-1.2205
X4.7244Y-1.2598
X4.7244Y-1.2992
X4.7244Y-2.1654
X4.7244Y-2.2047
X4.7244Y-2.2441
X4.7244Y-2.2835
X4.7244Y-2.3228
X4.7244Y-3.189
X4.7244Y-3.2283
X4.7244Y-3.2677
X4.7244Y-3.3071
X4.7244Y-3.3465
X4.7638Y-1.1417
X4.7638Y-1.1811
X4.7638Y-1.2205
X4.7638Y-1.2598
X4.7638Y-1.2992
X4.7638Y-2.1654
X4.7638Y-2.2047
X4.7638Y-2.2441
X4.7638Y-2.2835
X4.7638Y-2.3228
X4.7638Y-3.189
X4.7638Y-3.2283
X4.7638Y-3.2677
X4.7638Y-3.3071
X4.7638Y-3.3465
X4.8031Y-1.1417
X4.8031Y-1.1811
X4.8031Y-1.2205
X4.8031Y-1.2598
X4.8031Y-1.2992
X4.8031Y-2.1654
X4.8031Y-2.2047
X4.8031Y-2.2441
X4.8031Y-2.2835
X4.8031Y-2.3228
X4.8031Y-3.189
X4.8031Y-3.2283
X4.8031Y-3.2677
X4.8031Y-3.3071
X4.8031Y-3.3465
T2
X4.9606Y-0.4331
X5.0441Y-0.4677
X5.0787Y-0.5512
X0.4331Y-0.5512
X0.4677Y-0.4677
X0.5512Y-0.4331
X0.4331Y-3.7795
X0.4677Y-3.863
X0.5512Y-3.8976
X4.9606Y-3.8976
X5.0441Y-3.863
X5.0787Y-3.7795
T3
X4.7835Y-1.3386
X4.9213Y-1.3386
X0.9449Y-2.3622
X1.0827Y-2.3622
X3.9764Y-1.5945
X3.9764Y-1.7323
X4.7835Y-2.3622
X4.9213Y-2.3622
X3.9764Y-3.6614
X3.9764Y-3.7992
X4.7835Y-3.3858
X4.9213Y-3.3858
X0.5906Y-3.3858
X0.7283Y-3.3858
X1.4803Y-3.6535
X1.4803Y-3.7913
X4.4291Y-3.3858
X4.5669Y-3.3858
X0.5906Y-2.3622
X0.7283Y-2.3622
X1.5354Y-2.6378
X1.5354Y-2.7756
X0.9449Y-1.3386
X1.0827Y-1.3386
X4.4291Y-1.3386
X4.5669Y-1.3386
X0.5906Y-1.3386
X0.7283Y-1.3386
X1.5354Y-1.6142
X1.5354Y-1.752
X4.4291Y-2.3622
X4.5669Y-2.3622
X3.9996Y-2.5921
X3.9996Y-2.7299
X0.9449Y-3.3858
X1.0827Y-3.3858
T4
X2.1984Y-3.8583
X2.2984Y-3.8583
X2.3984Y-3.8583
X2.4984Y-3.8583
X2.5984Y-3.8583
X3.5189Y-2.561
X3.7157Y-2.561
X2.8283Y-3.8583
X2.9283Y-3.8583
X3.0283Y-3.8583
X3.1283Y-3.8583
X3.2283Y-3.8583
X3.8516Y-2.8453
X3.8516Y-2.9453
X3.8516Y-3.0453
X3.8516Y-3.1453
X3.8516Y-3.2453
X1.6961Y-3.8583
X1.7961Y-3.8583
X1.8961Y-3.8583
X1.9961Y-3.8583
X3.1228Y-2.8461
X3.1228Y-2.9461
X3.1228Y-3.0461
X3.1228Y-3.1461
X3.4823Y-1.1047
X3.4823Y-1.3016
X3.1315Y-1.5807
X3.3283Y-1.5807
X1.8327Y-3.4843
X2.0886Y-3.4843
X3.4724Y-3.8583
X3.5724Y-3.8583
X3.6724Y-3.8583
X3.7724Y-3.8583
T5
X3.2555Y-0.5861
X3.2555Y-0.783
X1.7004Y-0.5901
X1.7004Y-0.7869
X3.8087Y-0.5861
X3.8087Y-0.783
X2.2535Y-0.5901
X2.2535Y-0.7869
T6
X1.2598Y-3.3465
X1.2598Y-2.3228
X1.2598Y-1.2992
X4.252Y-1.378
X4.252Y-3.4252
X4.252Y-2.4016
T7
X2.7559Y-0.5276
X2.7559Y-0.8661
T8
X4.9606Y-0.5512
X0.5512Y-0.5512
X0.5512Y-3.7795
X4.9606Y-3.7795
T0
M30
