%TF.GenerationSoftware,KiCad,Pcbnew,(6.0.0)*%
%TF.CreationDate,2022-06-09T22:04:04+02:00*%
%TF.ProjectId,Bobbycontroller,426f6262-7963-46f6-9e74-726f6c6c6572,rev?*%
%TF.SameCoordinates,Original*%
%TF.FileFunction,Paste,Bot*%
%TF.FilePolarity,Positive*%
%FSLAX46Y46*%
G04 Gerber Fmt 4.6, Leading zero omitted, Abs format (unit mm)*
G04 Created by KiCad (PCBNEW (6.0.0)) date 2022-06-09 22:04:04*
%MOMM*%
%LPD*%
G01*
G04 APERTURE LIST*
G04 Aperture macros list*
%AMRoundRect*
0 Rectangle with rounded corners*
0 $1 Rounding radius*
0 $2 $3 $4 $5 $6 $7 $8 $9 X,Y pos of 4 corners*
0 Add a 4 corners polygon primitive as box body*
4,1,4,$2,$3,$4,$5,$6,$7,$8,$9,$2,$3,0*
0 Add four circle primitives for the rounded corners*
1,1,$1+$1,$2,$3*
1,1,$1+$1,$4,$5*
1,1,$1+$1,$6,$7*
1,1,$1+$1,$8,$9*
0 Add four rect primitives between the rounded corners*
20,1,$1+$1,$2,$3,$4,$5,0*
20,1,$1+$1,$4,$5,$6,$7,0*
20,1,$1+$1,$6,$7,$8,$9,0*
20,1,$1+$1,$8,$9,$2,$3,0*%
G04 Aperture macros list end*
%ADD10R,4.550000X5.250000*%
%ADD11R,4.600000X1.100000*%
%ADD12RoundRect,0.250000X0.375000X0.625000X-0.375000X0.625000X-0.375000X-0.625000X0.375000X-0.625000X0*%
%ADD13RoundRect,0.250000X-0.375000X-0.625000X0.375000X-0.625000X0.375000X0.625000X-0.375000X0.625000X0*%
%ADD14RoundRect,0.250000X0.625000X-0.375000X0.625000X0.375000X-0.625000X0.375000X-0.625000X-0.375000X0*%
%ADD15R,2.000000X0.900000*%
%ADD16R,0.900000X2.000000*%
%ADD17R,5.000000X5.000000*%
%ADD18RoundRect,0.250000X-0.725000X0.600000X-0.725000X-0.600000X0.725000X-0.600000X0.725000X0.600000X0*%
%ADD19RoundRect,0.425000X-0.550000X0.425000X-0.550000X-0.425000X0.550000X-0.425000X0.550000X0.425000X0*%
G04 APERTURE END LIST*
D10*
%TO.C,V8*%
X25050000Y-81775000D03*
X20200000Y-76225000D03*
X25050000Y-76225000D03*
X20200000Y-81775000D03*
D11*
X31775000Y-76460000D03*
X31775000Y-81540000D03*
%TD*%
D10*
%TO.C,V9*%
X26950000Y-95775000D03*
X31800000Y-90225000D03*
X26950000Y-90225000D03*
X31800000Y-95775000D03*
D11*
X20225000Y-95540000D03*
X20225000Y-90460000D03*
%TD*%
D10*
%TO.C,V10*%
X25050000Y-50225000D03*
X20200000Y-55775000D03*
X20200000Y-50225000D03*
X25050000Y-55775000D03*
D11*
X31775000Y-50460000D03*
X31775000Y-55540000D03*
%TD*%
D10*
%TO.C,V11*%
X31800000Y-69775000D03*
X31800000Y-64225000D03*
X26950000Y-69775000D03*
X26950000Y-64225000D03*
D11*
X20225000Y-69540000D03*
X20225000Y-64460000D03*
%TD*%
D10*
%TO.C,V13*%
X31800000Y-43775000D03*
X26950000Y-38225000D03*
X31800000Y-38225000D03*
X26950000Y-43775000D03*
D11*
X20225000Y-43540000D03*
X20225000Y-38460000D03*
%TD*%
D10*
%TO.C,V12*%
X25050000Y-29775000D03*
X25050000Y-24225000D03*
X20200000Y-24225000D03*
X20200000Y-29775000D03*
D11*
X31775000Y-24460000D03*
X31775000Y-29540000D03*
%TD*%
D10*
%TO.C,V5*%
X119800000Y-38225000D03*
X119800000Y-43775000D03*
X114950000Y-38225000D03*
X114950000Y-43775000D03*
D11*
X108225000Y-43540000D03*
X108225000Y-38460000D03*
%TD*%
D10*
%TO.C,V2*%
X113050000Y-81775000D03*
X108200000Y-81775000D03*
X113050000Y-76225000D03*
X108200000Y-76225000D03*
D11*
X119775000Y-76460000D03*
X119775000Y-81540000D03*
%TD*%
D10*
%TO.C,V6*%
X108200000Y-29775000D03*
X113050000Y-29775000D03*
X113050000Y-24225000D03*
X108200000Y-24225000D03*
D11*
X119775000Y-24460000D03*
X119775000Y-29540000D03*
%TD*%
D10*
%TO.C,V3*%
X114950000Y-64225000D03*
X119800000Y-64225000D03*
X114950000Y-69775000D03*
X119800000Y-69775000D03*
D11*
X108225000Y-69540000D03*
X108225000Y-64460000D03*
%TD*%
D10*
%TO.C,V4*%
X113050000Y-50225000D03*
X113050000Y-55775000D03*
X108200000Y-55775000D03*
X108200000Y-50225000D03*
D11*
X119775000Y-50460000D03*
X119775000Y-55540000D03*
%TD*%
D10*
%TO.C,V1*%
X114950000Y-95775000D03*
X114950000Y-90225000D03*
X119800000Y-90225000D03*
X119800000Y-95775000D03*
D11*
X108225000Y-95540000D03*
X108225000Y-90460000D03*
%TD*%
D12*
%TO.C,C40*%
X124700000Y-31500000D03*
X121900000Y-31500000D03*
%TD*%
%TO.C,C44*%
X124700000Y-83500000D03*
X121900000Y-83500000D03*
%TD*%
%TO.C,C48*%
X124700000Y-57500000D03*
X121900000Y-57500000D03*
%TD*%
D13*
%TO.C,C64*%
X15800000Y-62600000D03*
X18600000Y-62600000D03*
%TD*%
%TO.C,C68*%
X15700000Y-88400000D03*
X18500000Y-88400000D03*
%TD*%
%TO.C,C72*%
X15800000Y-36500000D03*
X18600000Y-36500000D03*
%TD*%
D14*
%TO.C,C7*%
X51300000Y-17890000D03*
X51300000Y-15090000D03*
%TD*%
%TO.C,C10*%
X49000000Y-17890000D03*
X49000000Y-15090000D03*
%TD*%
%TO.C,C18*%
X60330000Y-17980000D03*
X60330000Y-15180000D03*
%TD*%
%TO.C,C17*%
X77300000Y-17900000D03*
X77300000Y-15100000D03*
%TD*%
%TO.C,C16*%
X62600000Y-17980000D03*
X62600000Y-15180000D03*
%TD*%
%TO.C,C13*%
X79600000Y-17900000D03*
X79600000Y-15100000D03*
%TD*%
%TO.C,C8*%
X75000000Y-17900000D03*
X75000000Y-15100000D03*
%TD*%
%TO.C,C4*%
X53600000Y-17900000D03*
X53600000Y-15100000D03*
%TD*%
%TO.C,C12*%
X64900000Y-17980000D03*
X64900000Y-15180000D03*
%TD*%
%TO.C,C9*%
X86600000Y-17900000D03*
X86600000Y-15100000D03*
%TD*%
%TO.C,C5*%
X88820000Y-17900000D03*
X88820000Y-15100000D03*
%TD*%
%TO.C,C2*%
X91100000Y-17900000D03*
X91100000Y-15100000D03*
%TD*%
%TO.C,C1*%
X93400000Y-17900000D03*
X93400000Y-15100000D03*
%TD*%
%TO.C,C15*%
X46700000Y-17900000D03*
X46700000Y-15100000D03*
%TD*%
D15*
%TO.C,U18*%
X78500000Y-40995000D03*
X78500000Y-42265000D03*
X78500000Y-43535000D03*
X78500000Y-44805000D03*
X78500000Y-46075000D03*
X78500000Y-47345000D03*
X78500000Y-48615000D03*
X78500000Y-49885000D03*
X78500000Y-51155000D03*
X78500000Y-52425000D03*
X78500000Y-53695000D03*
X78500000Y-54965000D03*
X78500000Y-56235000D03*
X78500000Y-57505000D03*
D16*
X75715000Y-58505000D03*
X74445000Y-58505000D03*
X73175000Y-58505000D03*
X71905000Y-58505000D03*
X70635000Y-58505000D03*
X69365000Y-58505000D03*
X68095000Y-58505000D03*
X66825000Y-58505000D03*
X65555000Y-58505000D03*
X64285000Y-58505000D03*
D15*
X61500000Y-57505000D03*
X61500000Y-56235000D03*
X61500000Y-54965000D03*
X61500000Y-53695000D03*
X61500000Y-52425000D03*
X61500000Y-51155000D03*
X61500000Y-49885000D03*
X61500000Y-48615000D03*
X61500000Y-47345000D03*
X61500000Y-46075000D03*
X61500000Y-44805000D03*
X61500000Y-43535000D03*
X61500000Y-42265000D03*
X61500000Y-40995000D03*
D17*
X71000000Y-48495000D03*
%TD*%
D18*
%TO.C,J20*%
X58300000Y-41000000D03*
X58300000Y-43500000D03*
X58300000Y-46000000D03*
D19*
X58300000Y-48500000D03*
X58300000Y-51000000D03*
X58300000Y-53500000D03*
%TD*%
M02*
