M48
; DRILL file {KiCad (6.0.0)} date Thu Jun  9 22:04:04 2022
; FORMAT={-:-/ absolute / inch / decimal}
; #@! TF.CreationDate,2022-06-09T22:04:04+02:00
; #@! TF.GenerationSoftware,Kicad,Pcbnew,(6.0.0)
; #@! TF.FileFunction,Plated,1,2,PTH
FMAT,2
INCH
; #@! TA.AperFunction,Plated,PTH,ViaDrill
T1C0.0157
; #@! TA.AperFunction,Plated,PTH,ComponentDrill
T2C0.0236
; #@! TA.AperFunction,Plated,PTH,ComponentDrill
T3C0.0315
; #@! TA.AperFunction,Plated,PTH,ComponentDrill
T4C0.0354
; #@! TA.AperFunction,Plated,PTH,ComponentDrill
T5C0.0374
; #@! TA.AperFunction,Plated,PTH,ComponentDrill
T6C0.0394
; #@! TA.AperFunction,Plated,PTH,ComponentDrill
T7C0.0423
; #@! TA.AperFunction,Plated,PTH,ComponentDrill
T8C0.0472
; #@! TA.AperFunction,Plated,PTH,ComponentDrill
T9C0.0551
; #@! TA.AperFunction,Plated,PTH,ComponentDrill
T10C0.1063
; #@! TA.AperFunction,Plated,PTH,ComponentDrill
T11C0.1181
; #@! TA.AperFunction,Plated,PTH,ComponentDrill
T12C0.1575
%
G90
G05
T1
X0.7087Y-1.378
X0.7087Y-1.4173
X0.7087Y-1.4567
X0.7087Y-1.4961
X0.7087Y-1.5354
X0.7087Y-2.4016
X0.7087Y-2.4409
X0.7087Y-2.4803
X0.7087Y-2.5197
X0.7087Y-2.5591
X0.7087Y-3.4252
X0.7087Y-3.4646
X0.7087Y-3.5039
X0.7087Y-3.5433
X0.7087Y-3.5827
X0.748Y-1.378
X0.748Y-1.4173
X0.748Y-1.4567
X0.748Y-1.4961
X0.748Y-1.5354
X0.748Y-2.4016
X0.748Y-2.4409
X0.748Y-2.4803
X0.748Y-2.5197
X0.748Y-2.5591
X0.748Y-3.4252
X0.748Y-3.4646
X0.748Y-3.5039
X0.748Y-3.5433
X0.748Y-3.5827
X0.7874Y-1.378
X0.7874Y-1.4173
X0.7874Y-1.4567
X0.7874Y-1.4961
X0.7874Y-1.5354
X0.7874Y-2.4016
X0.7874Y-2.4409
X0.7874Y-2.4803
X0.7874Y-2.5197
X0.7874Y-2.5591
X0.7874Y-3.4252
X0.7874Y-3.4646
X0.7874Y-3.5039
X0.7874Y-3.5433
X0.7874Y-3.5827
X0.8268Y-1.4173
X0.8268Y-1.4567
X0.8268Y-1.4961
X0.8268Y-1.5354
X0.8268Y-2.4409
X0.8268Y-2.4803
X0.8268Y-2.5197
X0.8268Y-2.5591
X0.8268Y-3.4646
X0.8268Y-3.5039
X0.8268Y-3.5433
X0.8268Y-3.5827
X0.8661Y-1.4961
X0.8661Y-1.5354
X0.8661Y-2.5197
X0.8661Y-2.5591
X0.8661Y-3.5433
X0.8661Y-3.5827
X0.9055Y-1.7165
X0.9055Y-3.7598
X0.9134Y-2.7283
X0.9764Y-0.9331
X0.9764Y-0.9685
X0.9764Y-1.0
X0.9764Y-1.0354
X0.9764Y-1.9606
X0.9764Y-1.9961
X0.9764Y-2.0276
X0.9764Y-2.063
X0.9961Y-2.4409
X0.9961Y-2.4764
X0.9961Y-2.5118
X0.9961Y-2.5472
X0.9961Y-3.4646
X0.9961Y-3.5
X0.9961Y-3.5354
X0.9961Y-3.5709
X1.0Y-1.4173
X1.0Y-1.4528
X1.0Y-1.4882
X1.0Y-1.5236
X1.0118Y-0.9331
X1.0118Y-0.9685
X1.0118Y-1.0
X1.0118Y-1.0354
X1.0118Y-1.9606
X1.0118Y-1.9961
X1.0118Y-2.0276
X1.0118Y-2.063
X1.0315Y-2.4409
X1.0315Y-2.4764
X1.0315Y-2.5118
X1.0315Y-2.5472
X1.0315Y-3.4646
X1.0315Y-3.5
X1.0315Y-3.5354
X1.0315Y-3.5709
X1.0354Y-1.4173
X1.0354Y-1.4528
X1.0354Y-1.4882
X1.0354Y-1.5236
X1.0472Y-0.9331
X1.0472Y-0.9685
X1.0472Y-1.0
X1.0472Y-1.0354
X1.0472Y-1.9606
X1.0472Y-1.9961
X1.0472Y-2.0276
X1.0472Y-2.063
X1.0669Y-2.4409
X1.0669Y-2.4764
X1.0669Y-2.5118
X1.0669Y-2.5472
X1.0669Y-3.4646
X1.0669Y-3.5
X1.0669Y-3.5354
X1.0669Y-3.5709
X1.0709Y-1.4173
X1.0709Y-1.4528
X1.0709Y-1.4882
X1.0709Y-1.5236
X1.1004Y-3.2323
X1.1004Y-3.2677
X1.1004Y-3.3031
X1.1004Y-3.3386
X1.1024Y-2.4409
X1.1024Y-2.4764
X1.1024Y-2.5118
X1.1024Y-2.5472
X1.1024Y-3.4646
X1.1024Y-3.5
X1.1024Y-3.5354
X1.1024Y-3.5709
X1.1043Y-1.1772
X1.1043Y-1.2126
X1.1043Y-1.248
X1.1043Y-1.2835
X1.1043Y-2.2047
X1.1043Y-2.2402
X1.1043Y-2.2756
X1.1043Y-2.311
X1.1063Y-1.4173
X1.1063Y-1.4528
X1.1063Y-1.4882
X1.1063Y-1.5236
X1.1358Y-3.2323
X1.1358Y-3.2677
X1.1358Y-3.3031
X1.1358Y-3.3386
X1.1378Y-2.4409
X1.1378Y-2.4764
X1.1378Y-2.5118
X1.1378Y-2.5472
X1.1378Y-3.4646
X1.1378Y-3.5
X1.1378Y-3.5354
X1.1378Y-3.5709
X1.1398Y-1.1772
X1.1398Y-1.2126
X1.1398Y-1.248
X1.1398Y-1.2835
X1.1398Y-2.2047
X1.1398Y-2.2402
X1.1398Y-2.2756
X1.1398Y-2.311
X1.1417Y-1.4173
X1.1417Y-1.4528
X1.1417Y-1.4882
X1.1417Y-1.5236
X1.1417Y-2.0472
X1.1457Y-1.0295
X1.1457Y-1.0728
X1.1535Y-3.0827
X1.1555Y-3.122
X1.1713Y-3.2323
X1.1713Y-3.2677
X1.1713Y-3.3031
X1.1713Y-3.3386
X1.1732Y-2.4409
X1.1732Y-2.4764
X1.1732Y-2.5118
X1.1732Y-2.5472
X1.1732Y-3.4646
X1.1732Y-3.5
X1.1732Y-3.5354
X1.1732Y-3.5709
X1.1752Y-1.1772
X1.1752Y-1.2126
X1.1752Y-1.248
X1.1752Y-1.2835
X1.1752Y-2.2047
X1.1752Y-2.2402
X1.1752Y-2.2756
X1.1752Y-2.311
X1.1772Y-1.4173
X1.1772Y-1.4528
X1.1772Y-1.4882
X1.1772Y-1.5236
X1.2008Y-2.0276
X1.2067Y-3.2323
X1.2067Y-3.2677
X1.2087Y-2.4409
X1.2087Y-2.4764
X1.2087Y-2.5118
X1.2087Y-2.5472
X1.2087Y-3.4646
X1.2087Y-3.5
X1.2087Y-3.5354
X1.2087Y-3.5709
X1.2106Y-1.1772
X1.2106Y-1.2126
X1.2106Y-2.2047
X1.2106Y-2.2402
X1.2126Y-1.4173
X1.2126Y-1.4528
X1.2126Y-1.4882
X1.2126Y-1.5236
X1.2441Y-2.4409
X1.2441Y-2.4764
X1.2441Y-2.5118
X1.2441Y-2.5472
X1.2441Y-3.4646
X1.2441Y-3.5
X1.2441Y-3.5354
X1.2441Y-3.5709
X1.248Y-1.4173
X1.248Y-1.4528
X1.248Y-1.4882
X1.248Y-1.5236
X1.2795Y-2.4409
X1.2795Y-2.4764
X1.2795Y-2.5118
X1.2795Y-2.5472
X1.2795Y-3.4646
X1.2795Y-3.5
X1.2795Y-3.5354
X1.2795Y-3.5709
X1.2835Y-1.4173
X1.2835Y-1.4528
X1.2835Y-1.4882
X1.2835Y-1.5236
X1.315Y-2.4409
X1.315Y-2.4764
X1.315Y-2.5118
X1.315Y-2.5472
X1.315Y-3.4646
X1.315Y-3.5
X1.315Y-3.5354
X1.315Y-3.5709
X1.3189Y-1.4173
X1.3189Y-1.4528
X1.3189Y-1.4882
X1.3189Y-1.5236
X1.3937Y-2.7933
X1.4016Y-2.0354
X1.4213Y-1.8543
X1.4213Y-2.8898
X1.4272Y-2.185
X1.4273Y-2.7096
X1.4291Y-1.1122
X1.4322Y-2.7492
X1.4365Y-2.5328
X1.437Y-1.6811
X1.4393Y-2.6721
X1.4409Y-3.122
X1.4409Y-3.185
X1.4528Y-1.4134
X1.4531Y-1.5128
X1.4587Y-2.4606
X1.4606Y-1.1654
X1.4891Y-2.3032
X1.4961Y-1.2795
X1.4961Y-3.3071
X1.5276Y-3.0118
X1.5276Y-3.7717
X1.5394Y-1.9094
X1.5551Y-3.189
X1.561Y-2.9134
X1.5616Y-1.2247
X1.5669Y-3.0925
X1.5706Y-2.2127
X1.5709Y-2.8583
X1.5748Y-3.8701
X1.5945Y-2.4469
X1.6024Y-1.9646
X1.6043Y-2.6378
X1.6122Y-3.5906
X1.6142Y-0.4331
X1.6161Y-3.7402
X1.6184Y-2.5021
X1.6339Y-3.1969
X1.6437Y-2.6988
X1.6457Y-2.813
X1.6458Y-1.5237
X1.6467Y-1.1854
X1.6508Y-1.1287
X1.6531Y-2.5207
X1.6532Y-1.476
X1.6535Y-0.4331
X1.6535Y-0.4724
X1.6583Y-1.4179
X1.6584Y-2.1496
X1.6624Y-1.7795
X1.6654Y-1.5866
X1.6831Y-3.0807
X1.685Y-1.9449
X1.6859Y-2.0699
X1.691Y-1.6773
X1.6929Y-0.4331
X1.6929Y-0.4724
X1.6929Y-0.5118
X1.6949Y-2.3976
X1.7008Y-3.6496
X1.7028Y-2.9921
X1.7087Y-3.7441
X1.7096Y-1.2589
X1.7204Y-1.3602
X1.7312Y-2.0649
X1.7323Y-0.4331
X1.7323Y-0.4724
X1.7323Y-0.5118
X1.7323Y-3.4528
X1.7618Y-3.5945
X1.7717Y-0.4331
X1.7717Y-0.4724
X1.7717Y-0.5118
X1.7854Y-2.7953
X1.7992Y-3.2402
X1.811Y-0.4331
X1.811Y-0.4724
X1.811Y-0.5118
X1.8228Y-2.0689
X1.8346Y-3.2795
X1.8445Y-2.3031
X1.8504Y-0.4331
X1.8504Y-0.4724
X1.8504Y-0.5118
X1.8701Y-1.4941
X1.874Y-2.5
X1.874Y-3.3937
X1.8799Y-2.7067
X1.8799Y-2.7854
X1.8819Y-2.0748
X1.8858Y-1.4252
X1.8898Y-0.4331
X1.8898Y-0.4724
X1.8898Y-0.5118
X1.9134Y-1.1142
X1.9134Y-1.5886
X1.9154Y-1.7087
X1.9173Y-1.9291
X1.9291Y-0.4331
X1.9291Y-0.4724
X1.9291Y-0.5118
X1.939Y-2.7854
X1.9409Y-1.9646
X1.9513Y-2.1723
X1.9685Y-0.4331
X1.9685Y-0.4724
X1.9685Y-0.5118
X1.9685Y-1.6339
X1.9697Y-1.3583
X1.9783Y-2.3228
X1.9843Y-1.502
X2.0Y-1.3917
X2.003Y-2.0729
X2.0063Y-2.1157
X2.0077Y-1.2047
X2.0079Y-0.4331
X2.0079Y-0.4724
X2.0079Y-0.5118
X2.0079Y-1.9724
X2.0118Y-3.4449
X2.0157Y-3.5354
X2.0197Y-1.8287
X2.0256Y-2.9055
X2.0276Y-2.3228
X2.0276Y-2.6969
X2.0335Y-1.8858
X2.0374Y-1.6378
X2.0374Y-1.7402
X2.0457Y-2.226
X2.0472Y-0.4331
X2.0472Y-0.4724
X2.0472Y-0.5118
X2.063Y-1.9724
X2.0665Y-1.0031
X2.073Y-2.1715
X2.0739Y-2.2635
X2.0746Y-1.2406
X2.0787Y-2.6693
X2.0827Y-1.311
X2.0827Y-1.5039
X2.0827Y-2.0157
X2.0866Y-0.4331
X2.0866Y-0.4724
X2.0866Y-0.5118
X2.0929Y-1.6705
X2.0929Y-1.7491
X2.0929Y-1.8287
X2.0929Y-1.9186
X2.0945Y-3.8465
X2.1068Y-3.6048
X2.1164Y-2.2976
X2.1214Y-1.3951
X2.126Y-0.4331
X2.126Y-0.4724
X2.126Y-0.5118
X2.128Y-1.2185
X2.1299Y-3.6693
X2.1299Y-3.8878
X2.131Y-2.261
X2.1457Y-3.1004
X2.1516Y-1.2618
X2.1654Y-0.4331
X2.1654Y-0.4724
X2.1654Y-0.5118
X2.1693Y-2.3268
X2.1713Y-1.1781
X2.1732Y-3.6811
X2.1801Y-1.4508
X2.1811Y-3.5669
X2.193Y-3.2963
X2.1949Y-3.1201
X2.1949Y-3.1791
X2.1969Y-2.3622
X2.2047Y-0.4331
X2.2047Y-0.4724
X2.2047Y-0.5118
X2.2047Y-2.5591
X2.2047Y-3.0413
X2.2126Y-2.7008
X2.2146Y-1.3031
X2.2205Y-1.3878
X2.2283Y-3.2677
X2.2307Y-3.3248
X2.2382Y-2.1357
X2.2417Y-2.5132
X2.2441Y-0.4331
X2.2441Y-0.4724
X2.2441Y-0.5118
X2.2441Y-3.0413
X2.2499Y-1.9585
X2.2512Y-2.056
X2.2539Y-3.7972
X2.2539Y-2.3712
X2.2559Y-1.4783
X2.2577Y-2.6551
X2.2638Y-1.1614
X2.2803Y-3.2106
X2.2835Y-0.4331
X2.2835Y-0.4724
X2.2835Y-0.5118
X2.2866Y-3.4737
X2.3031Y-2.7657
X2.3044Y-2.1715
X2.3076Y-3.2392
X2.3209Y-2.2366
X2.3228Y-0.4331
X2.3228Y-0.4724
X2.3228Y-0.5118
X2.3267Y-2.2755
X2.3272Y-2.6914
X2.3294Y-2.3708
X2.332Y-2.5
X2.3321Y-2.5987
X2.3327Y-2.7264
X2.3386Y-2.313
X2.3406Y-3.7972
X2.3504Y-1.4646
X2.3504Y-3.1772
X2.3509Y-1.9498
X2.3543Y-3.4803
X2.3546Y-3.3776
X2.3594Y-2.5286
X2.3622Y-0.4331
X2.3622Y-0.4724
X2.3622Y-0.5118
X2.3622Y-2.7638
X2.3711Y-2.6037
X2.3792Y-2.3715
X2.3927Y-3.2569
X2.3954Y-3.4125
X2.3996Y-2.5748
X2.4016Y-0.4331
X2.4016Y-0.4724
X2.4016Y-0.5118
X2.4016Y-2.7362
X2.4178Y-2.3641
X2.4213Y-3.3386
X2.4409Y-0.4331
X2.4409Y-0.4724
X2.4409Y-0.5118
X2.4409Y-1.5196
X2.4417Y-3.3049
X2.4488Y-3.1555
X2.4562Y-2.8932
X2.4622Y-2.8166
X2.4699Y-2.8552
X2.4699Y-2.5472
X2.4754Y-3.122
X2.4762Y-2.9606
X2.4764Y-1.1654
X2.4798Y-3.065
X2.4803Y-0.4331
X2.4803Y-0.4724
X2.4803Y-0.5118
X2.4862Y-1.8917
X2.4999Y-2.9075
X2.5014Y-1.8564
X2.5079Y-2.0787
X2.5138Y-2.9723
X2.5197Y-0.4331
X2.5197Y-0.4724
X2.5197Y-0.5118
X2.5197Y-1.0827
X2.5197Y-3.4843
X2.5276Y-1.9094
X2.5335Y-1.9626
X2.5374Y-1.8406
X2.5413Y-3.3671
X2.5472Y-1.7028
X2.5564Y-3.0355
X2.5591Y-0.4331
X2.5591Y-0.4724
X2.5591Y-0.5118
X2.5638Y-2.2399
X2.565Y-1.1201
X2.5709Y-2.0669
X2.5709Y-2.5906
X2.5728Y-1.9213
X2.5748Y-1.8169
X2.5748Y-3.2756
X2.5768Y-2.173
X2.5847Y-2.7037
X2.5955Y-3.1395
X2.5984Y-0.4331
X2.5984Y-0.4724
X2.5984Y-0.5118
X2.5998Y-2.5149
X2.6024Y-3.374
X2.6102Y-1.9547
X2.6102Y-3.7835
X2.6161Y-1.7008
X2.6181Y-1.7756
X2.622Y-3.6063
X2.6242Y-2.9577
X2.6329Y-3.315
X2.6339Y-1.1555
X2.6339Y-2.9961
X2.6341Y-2.2237
X2.6378Y-0.4331
X2.6378Y-0.4724
X2.6378Y-0.5118
X2.6378Y-3.4242
X2.6439Y-2.6249
X2.6457Y-2.5797
X2.6476Y-2.7067
X2.6515Y-3.0421
X2.6516Y-1.6417
X2.6575Y-2.0689
X2.6623Y-2.3804
X2.6772Y-0.4331
X2.6772Y-0.4724
X2.6772Y-2.1358
X2.6813Y-2.9671
X2.6922Y-3.4127
X2.6953Y-3.3734
X2.7015Y-2.3775
X2.7018Y-1.555
X2.7165Y-0.4331
X2.7165Y-1.6476
X2.7244Y-3.8957
X2.7262Y-3.1545
X2.7303Y-3.7795
X2.7322Y-1.7775
X2.7326Y-3.3276
X2.7362Y-1.0748
X2.7416Y-2.3686
X2.7427Y-3.0327
X2.7441Y-3.8386
X2.748Y-3.6142
X2.7559Y-0.4331
X2.7616Y-2.9982
X2.7638Y-3.8957
X2.7657Y-3.7795
X2.7756Y-2.2106
X2.7786Y-3.0632
X2.7798Y-2.3781
X2.7953Y-0.4331
X2.7953Y-3.3652
X2.813Y-1.7618
X2.815Y-1.7224
X2.8268Y-3.2244
X2.8327Y-1.5197
X2.8346Y-0.4331
X2.8346Y-0.4724
X2.8504Y-1.1358
X2.8504Y-3.5
X2.8504Y-3.685
X2.8662Y-3.4016
X2.874Y-0.4331
X2.874Y-0.4724
X2.874Y-0.5118
X2.9064Y-2.6297
X2.9064Y-2.9439
X2.9075Y-1.187
X2.9082Y-2.6919
X2.9123Y-2.752
X2.9134Y-0.4331
X2.9134Y-0.4724
X2.9134Y-0.5118
X2.9291Y-1.5965
X2.9311Y-2.2087
X2.9313Y-2.6601
X2.9322Y-2.976
X2.9331Y-2.3819
X2.9358Y-2.7205
X2.937Y-2.4528
X2.9528Y-0.4331
X2.9528Y-0.4724
X2.9528Y-0.5118
X2.9528Y-3.3425
X2.9547Y-1.8543
X2.9606Y-1.9961
X2.9615Y-3.0649
X2.9646Y-2.0906
X2.9914Y-1.6484
X2.9921Y-0.4331
X2.9921Y-0.4724
X2.9921Y-0.5118
X2.9921Y-2.9331
X3.001Y-2.7605
X3.0079Y-1.6929
X3.0118Y-3.2579
X3.0229Y-2.7278
X3.0236Y-3.1102
X3.0269Y-2.6887
X3.0276Y-1.6299
X3.0315Y-0.4331
X3.0315Y-0.4724
X3.0315Y-0.5118
X3.0472Y-2.8543
X3.0482Y-2.9715
X3.0531Y-3.4897
X3.0669Y-3.7992
X3.0709Y-0.4331
X3.0709Y-0.4724
X3.0709Y-0.5118
X3.0829Y-2.4632
X3.0984Y-2.6732
X3.1004Y-1.2539
X3.1102Y-0.4331
X3.1102Y-0.4724
X3.1102Y-0.5118
X3.1215Y-3.4858
X3.1235Y-3.3918
X3.1317Y-2.56
X3.1319Y-2.5206
X3.1496Y-0.4331
X3.1496Y-0.4724
X3.1496Y-0.5118
X3.1644Y-3.249
X3.1732Y-2.2008
X3.1732Y-3.3898
X3.1732Y-1.5374
X3.189Y-0.4331
X3.189Y-0.4724
X3.189Y-0.5118
X3.1978Y-1.7313
X3.2106Y-1.6535
X3.2244Y-2.4154
X3.2283Y-0.4331
X3.2283Y-0.4724
X3.2283Y-0.5118
X3.233Y-2.6961
X3.2421Y-2.7636
X3.2438Y-2.3353
X3.248Y-2.4508
X3.252Y-1.2736
X3.2549Y-2.6417
X3.2559Y-1.4469
X3.2598Y-3.5906
X3.2638Y-3.252
X3.2677Y-0.4331
X3.2677Y-0.4724
X3.2677Y-0.5118
X3.2686Y-2.7129
X3.2803Y-2.5426
X3.2972Y-2.8425
X3.2972Y-2.8937
X3.298Y-2.5065
X3.2992Y-3.6142
X3.3047Y-2.3618
X3.3071Y-0.4331
X3.3071Y-0.4724
X3.3071Y-0.5118
X3.3071Y-1.0925
X3.3248Y-1.6299
X3.3268Y-1.315
X3.3327Y-3.1063
X3.333Y-2.7685
X3.3337Y-1.7185
X3.3465Y-0.4331
X3.3465Y-0.4724
X3.3465Y-0.5118
X3.3465Y-3.6319
X3.3543Y-2.9724
X3.3543Y-3.8622
X3.3583Y-3.2638
X3.3631Y-2.8715
X3.3701Y-1.2205
X3.3756Y-1.5006
X3.3858Y-0.4331
X3.3858Y-0.4724
X3.3858Y-0.5118
X3.3898Y-2.5433
X3.3898Y-3.4666
X3.4055Y-1.8425
X3.4105Y-3.3809
X3.4252Y-0.4331
X3.4252Y-0.4724
X3.4252Y-0.5118
X3.4286Y-3.4605
X3.4331Y-2.0866
X3.435Y-1.752
X3.437Y-3.0236
X3.4455Y-2.5762
X3.4488Y-3.3809
X3.4611Y-1.3588
X3.4646Y-0.4331
X3.4646Y-0.4724
X3.4646Y-0.5118
X3.4921Y-3.3819
X3.4921Y-3.4606
X3.4951Y-2.4773
X3.5039Y-0.4331
X3.5039Y-0.4724
X3.5039Y-0.5118
X3.5071Y-2.3947
X3.5354Y-2.7323
X3.5394Y-1.8012
X3.5433Y-0.4331
X3.5433Y-0.4724
X3.5433Y-0.5118
X3.5709Y-2.6551
X3.5787Y-1.1969
X3.5827Y-0.4331
X3.5827Y-0.4724
X3.5827Y-0.5118
X3.5866Y-1.2795
X3.5906Y-2.3976
X3.5945Y-2.9764
X3.5945Y-3.2953
X3.5984Y-2.8071
X3.5984Y-2.874
X3.6102Y-1.3622
X3.6102Y-1.4803
X3.6102Y-1.9094
X3.622Y-0.4331
X3.622Y-0.4724
X3.622Y-0.5118
X3.629Y-2.3691
X3.6339Y-1.1772
X3.6378Y-2.5
X3.6476Y-3.4744
X3.6476Y-2.1811
X3.6594Y-1.4587
X3.6614Y-0.4331
X3.6614Y-0.4724
X3.6614Y-0.5118
X3.6772Y-2.126
X3.689Y-1.6535
X3.689Y-2.3386
X3.7008Y-0.4331
X3.7008Y-0.4724
X3.7008Y-0.5118
X3.7245Y-2.2628
X3.7283Y-1.9291
X3.7323Y-1.871
X3.7402Y-0.4331
X3.7402Y-0.4724
X3.7402Y-0.5118
X3.7677Y-2.8543
X3.7754Y-1.4013
X3.7795Y-0.4331
X3.7795Y-0.4724
X3.7795Y-0.5118
X3.7874Y-2.0276
X3.7874Y-2.9685
X3.7933Y-1.5846
X3.8036Y-1.8381
X3.8071Y-3.0591
X3.815Y-3.3071
X3.815Y-3.4921
X3.8189Y-0.4331
X3.8189Y-0.4724
X3.8189Y-0.5118
X3.8287Y-1.6486
X3.8346Y-3.2126
X3.8465Y-2.1417
X3.8543Y-1.5945
X3.8543Y-2.8543
X3.8543Y-3.5591
X3.8583Y-0.4331
X3.8583Y-0.4724
X3.8583Y-0.5118
X3.8583Y-2.5236
X3.8622Y-1.7126
X3.8622Y-2.9646
X3.8622Y-3.689
X3.8661Y-3.7835
X3.878Y-1.5
X3.8976Y-0.4331
X3.8976Y-0.4724
X3.8976Y-0.5118
X3.8996Y-1.2244
X3.9016Y-2.189
X3.9016Y-3.8543
X3.9154Y-1.1575
X3.9173Y-2.0906
X3.9173Y-2.685
X3.937Y-0.4331
X3.937Y-0.4724
X3.937Y-0.5118
X3.9409Y-1.8346
X3.9764Y-0.4331
X3.9764Y-0.4724
X4.0126Y-2.0285
X4.0138Y-1.9766
X4.0157Y-0.4331
X4.0157Y-1.3976
X4.0157Y-3.4252
X4.0197Y-2.4173
X4.0472Y-1.1398
X4.0551Y-3.5787
X4.0669Y-3.8661
X4.0827Y-1.5315
X4.0827Y-1.6142
X4.0827Y-3.7087
X4.084Y-2.6023
X4.0906Y-1.7559
X4.0906Y-2.563
X4.0912Y-2.5233
X4.1019Y-2.808
X4.1339Y-2.0492
X4.1929Y-2.1732
X4.1929Y-2.2087
X4.1929Y-2.2441
X4.1929Y-2.2795
X4.1929Y-3.1929
X4.1929Y-3.2283
X4.1929Y-3.2638
X4.1929Y-3.2992
X4.1969Y-1.1496
X4.1969Y-1.185
X4.1969Y-1.2205
X4.1969Y-1.2559
X4.2283Y-2.1732
X4.2283Y-2.2087
X4.2283Y-2.2441
X4.2283Y-2.2795
X4.2283Y-3.1929
X4.2283Y-3.2283
X4.2283Y-3.2638
X4.2283Y-3.2992
X4.2323Y-1.1496
X4.2323Y-1.185
X4.2323Y-1.2205
X4.2323Y-1.2559
X4.2638Y-2.1732
X4.2638Y-2.2087
X4.2638Y-2.2441
X4.2638Y-2.2795
X4.2638Y-3.1929
X4.2638Y-3.2283
X4.2638Y-3.2638
X4.2638Y-3.2992
X4.2677Y-1.1496
X4.2677Y-1.185
X4.2677Y-1.2205
X4.2677Y-1.2559
X4.2854Y-2.6929
X4.2894Y-3.7047
X4.2953Y-1.4567
X4.2953Y-1.4921
X4.2953Y-2.4803
X4.2953Y-2.5157
X4.2953Y-3.5039
X4.2953Y-3.5394
X4.2992Y-2.1732
X4.2992Y-2.2087
X4.2992Y-2.2441
X4.2992Y-2.2795
X4.2992Y-3.1929
X4.2992Y-3.2283
X4.2992Y-3.2638
X4.2992Y-3.2992
X4.3018Y-1.6732
X4.3031Y-1.1496
X4.3031Y-1.185
X4.3031Y-1.2205
X4.3031Y-1.2559
X4.3215Y-3.7008
X4.3248Y-2.6909
X4.3307Y-1.3858
X4.3307Y-1.4213
X4.3307Y-1.4567
X4.3307Y-1.4921
X4.3307Y-2.4094
X4.3307Y-2.4449
X4.3307Y-2.4803
X4.3307Y-2.5157
X4.3307Y-3.4331
X4.3307Y-3.4685
X4.3307Y-3.5039
X4.3307Y-3.5394
X4.3346Y-2.1732
X4.3346Y-2.2087
X4.3346Y-2.2441
X4.3346Y-2.2795
X4.3346Y-3.1929
X4.3346Y-3.2283
X4.3346Y-3.2638
X4.3346Y-3.2992
X4.3386Y-1.1496
X4.3386Y-1.185
X4.3386Y-1.2205
X4.3386Y-1.2559
X4.3504Y-1.6732
X4.3656Y-2.5147
X4.3661Y-1.3858
X4.3661Y-1.4213
X4.3661Y-1.4567
X4.3661Y-1.4921
X4.3661Y-2.4094
X4.3661Y-2.4449
X4.3661Y-2.4803
X4.3661Y-3.4331
X4.3661Y-3.4685
X4.3661Y-3.5039
X4.3701Y-2.1732
X4.3701Y-2.2087
X4.3701Y-2.2441
X4.3701Y-2.2795
X4.3701Y-3.1929
X4.3701Y-3.2283
X4.3701Y-3.2638
X4.3701Y-3.2992
X4.374Y-1.1496
X4.374Y-1.185
X4.374Y-1.2205
X4.374Y-1.2559
X4.4016Y-1.3858
X4.4016Y-1.4213
X4.4016Y-1.4567
X4.4016Y-2.4094
X4.4016Y-2.4449
X4.4016Y-2.4803
X4.4016Y-3.4331
X4.4016Y-3.4685
X4.4016Y-3.5039
X4.4016Y-3.5394
X4.4055Y-2.1732
X4.4055Y-2.2087
X4.4055Y-2.2441
X4.4055Y-2.2795
X4.4055Y-3.1929
X4.4055Y-3.2283
X4.4055Y-3.2638
X4.4055Y-3.2992
X4.4094Y-1.1496
X4.4094Y-1.185
X4.4094Y-1.2205
X4.4094Y-1.2559
X4.4409Y-2.1732
X4.4409Y-2.2087
X4.4409Y-2.2441
X4.4409Y-2.2795
X4.4409Y-3.1929
X4.4409Y-3.2283
X4.4409Y-3.2638
X4.4409Y-3.2992
X4.4449Y-1.1496
X4.4449Y-1.185
X4.4449Y-1.2205
X4.4449Y-1.2559
X4.4646Y-1.6417
X4.4646Y-1.6772
X4.4646Y-1.7087
X4.4646Y-1.7441
X4.4764Y-2.1732
X4.4764Y-2.2087
X4.4764Y-2.2441
X4.4764Y-2.2795
X4.4764Y-3.1929
X4.4764Y-3.2283
X4.4764Y-3.2638
X4.4764Y-3.2992
X4.4803Y-1.1496
X4.4803Y-1.185
X4.4803Y-1.2205
X4.4803Y-1.2559
X4.5Y-1.6417
X4.5Y-1.6772
X4.5Y-1.7087
X4.5Y-1.7441
X4.5118Y-2.1732
X4.5118Y-2.2087
X4.5118Y-2.2441
X4.5118Y-2.2795
X4.5118Y-3.1929
X4.5118Y-3.2283
X4.5118Y-3.2638
X4.5118Y-3.2992
X4.5157Y-1.1496
X4.5157Y-1.185
X4.5157Y-1.2205
X4.5157Y-1.2559
X4.5354Y-1.6417
X4.5354Y-1.6772
X4.5354Y-1.7087
X4.5354Y-1.7441
X4.5984Y-1.9606
X4.6004Y-0.9075
X4.6063Y-2.9331
X4.6457Y-1.1417
X4.6457Y-1.1811
X4.6457Y-2.1654
X4.6457Y-2.2047
X4.6457Y-3.189
X4.6457Y-3.2283
X4.685Y-1.1417
X4.685Y-1.1811
X4.685Y-1.2205
X4.685Y-1.2598
X4.685Y-2.1654
X4.685Y-2.2047
X4.685Y-2.2441
X4.685Y-2.2835
X4.685Y-3.189
X4.685Y-3.2283
X4.685Y-3.2677
X4.685Y-3.3071
X4.7244Y-1.1417
X4.7244Y-1.1811
X4.7244Y-1.2205
X4.7244Y-1.2598
X4.7244Y-1.2992
X4.7244Y-2.1654
X4.7244Y-2.2047
X4.7244Y-2.2441
X4.7244Y-2.2835
X4.7244Y-2.3228
X4.7244Y-3.189
X4.7244Y-3.2283
X4.7244Y-3.2677
X4.7244Y-3.3071
X4.7244Y-3.3465
X4.7638Y-1.1417
X4.7638Y-1.1811
X4.7638Y-1.2205
X4.7638Y-1.2598
X4.7638Y-1.2992
X4.7638Y-2.1654
X4.7638Y-2.2047
X4.7638Y-2.2441
X4.7638Y-2.2835
X4.7638Y-2.3228
X4.7638Y-3.189
X4.7638Y-3.2283
X4.7638Y-3.2677
X4.7638Y-3.3071
X4.7638Y-3.3465
X4.8031Y-1.1417
X4.8031Y-1.1811
X4.8031Y-1.2205
X4.8031Y-1.2598
X4.8031Y-1.2992
X4.8031Y-2.1654
X4.8031Y-2.2047
X4.8031Y-2.2441
X4.8031Y-2.2835
X4.8031Y-2.3228
X4.8031Y-3.189
X4.8031Y-3.2283
X4.8031Y-3.2677
X4.8031Y-3.3071
X4.8031Y-3.3465
T2
X0.4331Y-0.5512
X0.4331Y-3.7795
X0.4677Y-0.4677
X0.4677Y-3.863
X0.5512Y-0.4331
X0.5512Y-3.8976
X4.9606Y-0.4331
X4.9606Y-3.8976
X5.0441Y-0.4677
X5.0441Y-3.863
X5.0787Y-0.5512
X5.0787Y-3.7795
T3
X0.5906Y-1.3386
X0.5906Y-2.3622
X0.5906Y-3.3858
X0.7283Y-1.3386
X0.7283Y-2.3622
X0.7283Y-3.3858
X0.9449Y-1.3386
X0.9449Y-2.3622
X0.9449Y-3.3858
X1.0827Y-1.3386
X1.0827Y-2.3622
X1.0827Y-3.3858
X1.4134Y-3.6988
X1.4134Y-3.8366
X1.5354Y-1.6142
X1.5354Y-1.752
X1.5354Y-2.6378
X1.5354Y-2.7756
X3.9764Y-1.5945
X3.9764Y-1.7323
X3.9764Y-3.6614
X3.9764Y-3.7992
X3.9996Y-2.5921
X3.9996Y-2.7299
X4.4291Y-1.3386
X4.4291Y-2.3622
X4.4291Y-3.3858
X4.5669Y-1.3386
X4.5669Y-2.3622
X4.5669Y-3.3858
X4.7835Y-1.3386
X4.7835Y-2.3622
X4.7835Y-3.3858
X4.9213Y-1.3386
X4.9213Y-2.3622
X4.9213Y-3.3858
T4
X0.5008Y-1.9976
X0.5108Y-3.0176
X0.5992Y-1.7024
X0.6092Y-2.7224
X0.6308Y-0.8896
X0.9092Y-0.7504
X4.7756Y-0.6508
X4.8644Y-0.9492
X4.9208Y-1.9976
X4.9208Y-3.0176
X5.0192Y-1.7024
X5.0192Y-2.7224
T5
X1.7008Y-3.8583
X1.7992Y-3.8583
X1.8976Y-3.8583
X1.9961Y-3.8583
X2.2047Y-3.8583
X2.3031Y-3.8583
X2.4016Y-3.8583
X2.5Y-3.8583
X2.5984Y-3.8583
X2.8346Y-3.8583
X2.9331Y-3.8583
X3.0315Y-3.8583
X3.1299Y-3.8583
X3.2283Y-3.8583
X3.4449Y-3.8583
X3.5433Y-3.8583
X3.6417Y-3.8583
X3.6929Y-2.9173
X3.6929Y-3.0157
X3.6929Y-3.1142
X3.6929Y-3.2126
X3.7402Y-3.8583
X3.9321Y-2.9173
X3.9321Y-3.0157
X3.9321Y-3.1142
X3.9321Y-3.2126
T6
X1.4961Y-1.0502
X1.5945Y-1.0502
X1.8327Y-3.4843
X2.0886Y-3.4843
X3.1228Y-2.8461
X3.1228Y-2.9461
X3.1228Y-3.0461
X3.1228Y-3.1461
X3.2362Y-1.5787
X3.4331Y-1.5787
X3.4921Y-1.0906
X3.4921Y-1.2874
X3.5197Y-2.561
X3.7165Y-2.561
T7
X1.9872Y-1.1124
X1.9872Y-2.5175
X2.9577Y-1.1124
X2.9577Y-2.5175
T8
X1.7004Y-0.5901
X1.7004Y-0.7869
X2.2535Y-0.5901
X2.2535Y-0.7869
X3.2555Y-0.5861
X3.2555Y-0.783
X3.8087Y-0.5861
X3.8087Y-0.783
T9
X2.0669Y-2.8051
T10
X2.7559Y-0.5276
T11
X1.2598Y-1.2992
X1.2598Y-2.3228
X1.2598Y-3.3465
X2.7559Y-0.8661
X4.252Y-1.378
X4.252Y-2.4016
X4.252Y-3.4252
T12
X0.5512Y-0.5512
X0.5512Y-3.7795
X4.9606Y-0.5512
X4.9606Y-3.7795
T0
M30
