%TF.GenerationSoftware,KiCad,Pcbnew,(6.0.0)*%
%TF.CreationDate,2022-06-09T22:04:04+02:00*%
%TF.ProjectId,Bobbycontroller,426f6262-7963-46f6-9e74-726f6c6c6572,rev?*%
%TF.SameCoordinates,Original*%
%TF.FileFunction,Other,Comment*%
%FSLAX46Y46*%
G04 Gerber Fmt 4.6, Leading zero omitted, Abs format (unit mm)*
G04 Created by KiCad (PCBNEW (6.0.0)) date 2022-06-09 22:04:04*
%MOMM*%
%LPD*%
G01*
G04 APERTURE LIST*
%ADD10C,0.150000*%
%ADD11C,0.100000*%
G04 APERTURE END LIST*
D10*
%TO.C,U18*%
X67238095Y-36416666D02*
X67714285Y-36416666D01*
X67142857Y-36702380D02*
X67476190Y-35702380D01*
X67809523Y-36702380D01*
X68142857Y-36035714D02*
X68142857Y-36702380D01*
X68142857Y-36130952D02*
X68190476Y-36083333D01*
X68285714Y-36035714D01*
X68428571Y-36035714D01*
X68523809Y-36083333D01*
X68571428Y-36178571D01*
X68571428Y-36702380D01*
X68904761Y-36035714D02*
X69285714Y-36035714D01*
X69047619Y-35702380D02*
X69047619Y-36559523D01*
X69095238Y-36654761D01*
X69190476Y-36702380D01*
X69285714Y-36702380D01*
X70000000Y-36654761D02*
X69904761Y-36702380D01*
X69714285Y-36702380D01*
X69619047Y-36654761D01*
X69571428Y-36559523D01*
X69571428Y-36178571D01*
X69619047Y-36083333D01*
X69714285Y-36035714D01*
X69904761Y-36035714D01*
X70000000Y-36083333D01*
X70047619Y-36178571D01*
X70047619Y-36273809D01*
X69571428Y-36369047D01*
X70476190Y-36035714D02*
X70476190Y-36702380D01*
X70476190Y-36130952D02*
X70523809Y-36083333D01*
X70619047Y-36035714D01*
X70761904Y-36035714D01*
X70857142Y-36083333D01*
X70904761Y-36178571D01*
X70904761Y-36702380D01*
X71380952Y-36035714D02*
X71380952Y-36702380D01*
X71380952Y-36130952D02*
X71428571Y-36083333D01*
X71523809Y-36035714D01*
X71666666Y-36035714D01*
X71761904Y-36083333D01*
X71809523Y-36178571D01*
X71809523Y-36702380D01*
X72714285Y-36702380D02*
X72714285Y-36178571D01*
X72666666Y-36083333D01*
X72571428Y-36035714D01*
X72380952Y-36035714D01*
X72285714Y-36083333D01*
X72714285Y-36654761D02*
X72619047Y-36702380D01*
X72380952Y-36702380D01*
X72285714Y-36654761D01*
X72238095Y-36559523D01*
X72238095Y-36464285D01*
X72285714Y-36369047D01*
X72380952Y-36321428D01*
X72619047Y-36321428D01*
X72714285Y-36273809D01*
D11*
X57461904Y-34601190D02*
X57223809Y-34601190D01*
X57200000Y-34839285D01*
X57223809Y-34815476D01*
X57271428Y-34791666D01*
X57390476Y-34791666D01*
X57438095Y-34815476D01*
X57461904Y-34839285D01*
X57485714Y-34886904D01*
X57485714Y-35005952D01*
X57461904Y-35053571D01*
X57438095Y-35077380D01*
X57390476Y-35101190D01*
X57271428Y-35101190D01*
X57223809Y-35077380D01*
X57200000Y-35053571D01*
X58080952Y-35101190D02*
X58080952Y-34767857D01*
X58080952Y-34815476D02*
X58104761Y-34791666D01*
X58152380Y-34767857D01*
X58223809Y-34767857D01*
X58271428Y-34791666D01*
X58295238Y-34839285D01*
X58295238Y-35101190D01*
X58295238Y-34839285D02*
X58319047Y-34791666D01*
X58366666Y-34767857D01*
X58438095Y-34767857D01*
X58485714Y-34791666D01*
X58509523Y-34839285D01*
X58509523Y-35101190D01*
X58747619Y-35101190D02*
X58747619Y-34767857D01*
X58747619Y-34815476D02*
X58771428Y-34791666D01*
X58819047Y-34767857D01*
X58890476Y-34767857D01*
X58938095Y-34791666D01*
X58961904Y-34839285D01*
X58961904Y-35101190D01*
X58961904Y-34839285D02*
X58985714Y-34791666D01*
X59033333Y-34767857D01*
X59104761Y-34767857D01*
X59152380Y-34791666D01*
X59176190Y-34839285D01*
X59176190Y-35101190D01*
X61926190Y-30913095D02*
X61926190Y-31151190D01*
X62164285Y-31175000D01*
X62140476Y-31151190D01*
X62116666Y-31103571D01*
X62116666Y-30984523D01*
X62140476Y-30936904D01*
X62164285Y-30913095D01*
X62211904Y-30889285D01*
X62330952Y-30889285D01*
X62378571Y-30913095D01*
X62402380Y-30936904D01*
X62426190Y-30984523D01*
X62426190Y-31103571D01*
X62402380Y-31151190D01*
X62378571Y-31175000D01*
X62426190Y-30294047D02*
X62092857Y-30294047D01*
X62140476Y-30294047D02*
X62116666Y-30270238D01*
X62092857Y-30222619D01*
X62092857Y-30151190D01*
X62116666Y-30103571D01*
X62164285Y-30079761D01*
X62426190Y-30079761D01*
X62164285Y-30079761D02*
X62116666Y-30055952D01*
X62092857Y-30008333D01*
X62092857Y-29936904D01*
X62116666Y-29889285D01*
X62164285Y-29865476D01*
X62426190Y-29865476D01*
X62426190Y-29627380D02*
X62092857Y-29627380D01*
X62140476Y-29627380D02*
X62116666Y-29603571D01*
X62092857Y-29555952D01*
X62092857Y-29484523D01*
X62116666Y-29436904D01*
X62164285Y-29413095D01*
X62426190Y-29413095D01*
X62164285Y-29413095D02*
X62116666Y-29389285D01*
X62092857Y-29341666D01*
X62092857Y-29270238D01*
X62116666Y-29222619D01*
X62164285Y-29198809D01*
X62426190Y-29198809D01*
D10*
X63928571Y-30702380D02*
X63928571Y-29702380D01*
X64500000Y-30702380D02*
X64071428Y-30130952D01*
X64500000Y-29702380D02*
X63928571Y-30273809D01*
X64928571Y-30178571D02*
X65261904Y-30178571D01*
X65404761Y-30702380D02*
X64928571Y-30702380D01*
X64928571Y-29702380D01*
X65404761Y-29702380D01*
X65833333Y-30178571D02*
X66166666Y-30178571D01*
X66309523Y-30702380D02*
X65833333Y-30702380D01*
X65833333Y-29702380D01*
X66309523Y-29702380D01*
X66738095Y-30702380D02*
X66738095Y-29702380D01*
X67119047Y-29702380D01*
X67214285Y-29750000D01*
X67261904Y-29797619D01*
X67309523Y-29892857D01*
X67309523Y-30035714D01*
X67261904Y-30130952D01*
X67214285Y-30178571D01*
X67119047Y-30226190D01*
X66738095Y-30226190D01*
X67738095Y-30321428D02*
X68500000Y-30321428D01*
X69166666Y-29702380D02*
X69357142Y-29702380D01*
X69452380Y-29750000D01*
X69547619Y-29845238D01*
X69595238Y-30035714D01*
X69595238Y-30369047D01*
X69547619Y-30559523D01*
X69452380Y-30654761D01*
X69357142Y-30702380D01*
X69166666Y-30702380D01*
X69071428Y-30654761D01*
X68976190Y-30559523D01*
X68928571Y-30369047D01*
X68928571Y-30035714D01*
X68976190Y-29845238D01*
X69071428Y-29750000D01*
X69166666Y-29702380D01*
X70023809Y-29702380D02*
X70023809Y-30511904D01*
X70071428Y-30607142D01*
X70119047Y-30654761D01*
X70214285Y-30702380D01*
X70404761Y-30702380D01*
X70500000Y-30654761D01*
X70547619Y-30607142D01*
X70595238Y-30511904D01*
X70595238Y-29702380D01*
X70928571Y-29702380D02*
X71500000Y-29702380D01*
X71214285Y-30702380D02*
X71214285Y-29702380D01*
X72500000Y-29702380D02*
X73166666Y-29702380D01*
X72500000Y-30702380D01*
X73166666Y-30702380D01*
X73738095Y-29702380D02*
X73928571Y-29702380D01*
X74023809Y-29750000D01*
X74119047Y-29845238D01*
X74166666Y-30035714D01*
X74166666Y-30369047D01*
X74119047Y-30559523D01*
X74023809Y-30654761D01*
X73928571Y-30702380D01*
X73738095Y-30702380D01*
X73642857Y-30654761D01*
X73547619Y-30559523D01*
X73500000Y-30369047D01*
X73500000Y-30035714D01*
X73547619Y-29845238D01*
X73642857Y-29750000D01*
X73738095Y-29702380D01*
X74595238Y-30702380D02*
X74595238Y-29702380D01*
X75166666Y-30702380D01*
X75166666Y-29702380D01*
X75642857Y-30178571D02*
X75976190Y-30178571D01*
X76119047Y-30702380D02*
X75642857Y-30702380D01*
X75642857Y-29702380D01*
X76119047Y-29702380D01*
D11*
X80461904Y-34601190D02*
X80223809Y-34601190D01*
X80200000Y-34839285D01*
X80223809Y-34815476D01*
X80271428Y-34791666D01*
X80390476Y-34791666D01*
X80438095Y-34815476D01*
X80461904Y-34839285D01*
X80485714Y-34886904D01*
X80485714Y-35005952D01*
X80461904Y-35053571D01*
X80438095Y-35077380D01*
X80390476Y-35101190D01*
X80271428Y-35101190D01*
X80223809Y-35077380D01*
X80200000Y-35053571D01*
X81080952Y-35101190D02*
X81080952Y-34767857D01*
X81080952Y-34815476D02*
X81104761Y-34791666D01*
X81152380Y-34767857D01*
X81223809Y-34767857D01*
X81271428Y-34791666D01*
X81295238Y-34839285D01*
X81295238Y-35101190D01*
X81295238Y-34839285D02*
X81319047Y-34791666D01*
X81366666Y-34767857D01*
X81438095Y-34767857D01*
X81485714Y-34791666D01*
X81509523Y-34839285D01*
X81509523Y-35101190D01*
X81747619Y-35101190D02*
X81747619Y-34767857D01*
X81747619Y-34815476D02*
X81771428Y-34791666D01*
X81819047Y-34767857D01*
X81890476Y-34767857D01*
X81938095Y-34791666D01*
X81961904Y-34839285D01*
X81961904Y-35101190D01*
X81961904Y-34839285D02*
X81985714Y-34791666D01*
X82033333Y-34767857D01*
X82104761Y-34767857D01*
X82152380Y-34791666D01*
X82176190Y-34839285D01*
X82176190Y-35101190D01*
D10*
%TO.C,J7*%
X72700000Y-13400000D02*
G75*
G03*
X72700000Y-13400000I-2700000J0D01*
G01*
%TO.C,J9*%
X18000000Y-14000000D02*
G75*
G03*
X18000000Y-14000000I-4000000J0D01*
G01*
%TO.C,J11*%
X130000000Y-96000000D02*
G75*
G03*
X130000000Y-96000000I-4000000J0D01*
G01*
%TO.C,J12*%
X18000000Y-96000000D02*
G75*
G03*
X18000000Y-96000000I-4000000J0D01*
G01*
%TO.C,J10*%
X130000000Y-14000000D02*
G75*
G03*
X130000000Y-14000000I-4000000J0D01*
G01*
%TO.C,J8*%
X72700000Y-22000000D02*
G75*
G03*
X72700000Y-22000000I-2700000J0D01*
G01*
D11*
%TO.C,U18*%
X60800000Y-35375000D02*
X60600000Y-35575000D01*
X61600000Y-33250000D02*
X61600000Y-28650000D01*
X61600000Y-28650000D02*
X61400000Y-28850000D01*
X61600000Y-28650000D02*
X61800000Y-28850000D01*
X79200000Y-35375000D02*
X79400000Y-35175000D01*
X60800000Y-35375000D02*
X60600000Y-35175000D01*
X61600000Y-33250000D02*
X61400000Y-33050000D01*
X56200000Y-35375000D02*
X56400000Y-35175000D01*
X83800000Y-35375000D02*
X83600000Y-35175000D01*
X83800000Y-35375000D02*
X83600000Y-35575000D01*
X79200000Y-35375000D02*
X79400000Y-35575000D01*
X83800000Y-35375000D02*
X79200000Y-35375000D01*
X60800000Y-35375000D02*
X56200000Y-35375000D01*
X56200000Y-35375000D02*
X56400000Y-35575000D01*
X61600000Y-33250000D02*
X61800000Y-33050000D01*
%TD*%
M02*
