%TF.GenerationSoftware,KiCad,Pcbnew,9.0.3*%
%TF.CreationDate,2025-08-09T21:22:20+02:00*%
%TF.ProjectId,Bobbycontroller,426f6262-7963-46f6-9e74-726f6c6c6572,rev?*%
%TF.SameCoordinates,Original*%
%TF.FileFunction,Soldermask,Top*%
%TF.FilePolarity,Negative*%
%FSLAX46Y46*%
G04 Gerber Fmt 4.6, Leading zero omitted, Abs format (unit mm)*
G04 Created by KiCad (PCBNEW 9.0.3) date 2025-08-09 21:22:20*
%MOMM*%
%LPD*%
G01*
G04 APERTURE LIST*
G04 Aperture macros list*
%AMRoundRect*
0 Rectangle with rounded corners*
0 $1 Rounding radius*
0 $2 $3 $4 $5 $6 $7 $8 $9 X,Y pos of 4 corners*
0 Add a 4 corners polygon primitive as box body*
4,1,4,$2,$3,$4,$5,$6,$7,$8,$9,$2,$3,0*
0 Add four circle primitives for the rounded corners*
1,1,$1+$1,$2,$3*
1,1,$1+$1,$4,$5*
1,1,$1+$1,$6,$7*
1,1,$1+$1,$8,$9*
0 Add four rect primitives between the rounded corners*
20,1,$1+$1,$2,$3,$4,$5,0*
20,1,$1+$1,$4,$5,$6,$7,0*
20,1,$1+$1,$6,$7,$8,$9,0*
20,1,$1+$1,$8,$9,$2,$3,0*%
%AMFreePoly0*
4,1,39,0.535355,0.785355,0.550000,0.750000,0.550000,-0.750000,0.535355,-0.785355,0.500000,-0.800000,0.000000,-0.800000,-0.010328,-0.795722,-0.065263,-0.795722,-0.078204,-0.794018,-0.204283,-0.760236,-0.216342,-0.755241,-0.329381,-0.689978,-0.339736,-0.682032,-0.432032,-0.589736,-0.439978,-0.579381,-0.505241,-0.466342,-0.510236,-0.454283,-0.544018,-0.328204,-0.545722,-0.315263,-0.545722,-0.260327,
-0.550000,-0.250000,-0.550000,0.250000,-0.545722,0.260327,-0.545722,0.315263,-0.544018,0.328204,-0.510236,0.454283,-0.505241,0.466342,-0.439978,0.579381,-0.432032,0.589736,-0.339736,0.682032,-0.329381,0.689978,-0.216342,0.755241,-0.204283,0.760236,-0.078204,0.794018,-0.065263,0.795722,-0.010328,0.795722,0.000000,0.800000,0.500000,0.800000,0.535355,0.785355,0.535355,0.785355,
$1*%
%AMFreePoly1*
4,1,39,0.010328,0.795722,0.065263,0.795722,0.078204,0.794018,0.204283,0.760236,0.216342,0.755241,0.329381,0.689978,0.339736,0.682032,0.432032,0.589736,0.439978,0.579381,0.505241,0.466342,0.510236,0.454283,0.544018,0.328204,0.545722,0.315263,0.545722,0.260327,0.550000,0.250000,0.550000,-0.250000,0.545722,-0.260327,0.545722,-0.315263,0.544018,-0.328204,0.510236,-0.454283,
0.505241,-0.466342,0.439978,-0.579381,0.432032,-0.589736,0.339736,-0.682032,0.329381,-0.689978,0.216342,-0.755241,0.204283,-0.760236,0.078204,-0.794018,0.065263,-0.795722,0.010328,-0.795722,0.000000,-0.800000,-0.500000,-0.800000,-0.535355,-0.785355,-0.550000,-0.750000,-0.550000,0.750000,-0.535355,0.785355,-0.500000,0.800000,0.000000,0.800000,0.010328,0.795722,0.010328,0.795722,
$1*%
G04 Aperture macros list end*
%ADD10RoundRect,0.050000X-0.800000X0.800000X-0.800000X-0.800000X0.800000X-0.800000X0.800000X0.800000X0*%
%ADD11C,1.700000*%
%ADD12RoundRect,0.050000X0.800000X0.800000X-0.800000X0.800000X-0.800000X-0.800000X0.800000X-0.800000X0*%
%ADD13RoundRect,0.050000X-0.800000X-0.800000X0.800000X-0.800000X0.800000X0.800000X-0.800000X0.800000X0*%
%ADD14RoundRect,0.050000X-1.000000X-1.000000X1.000000X-1.000000X1.000000X1.000000X-1.000000X1.000000X0*%
%ADD15C,2.100000*%
%ADD16RoundRect,0.050000X1.200000X-1.200000X1.200000X1.200000X-1.200000X1.200000X-1.200000X-1.200000X0*%
%ADD17C,2.500000*%
%ADD18C,4.100000*%
%ADD19RoundRect,0.270000X0.405000X0.655000X-0.405000X0.655000X-0.405000X-0.655000X0.405000X-0.655000X0*%
%ADD20RoundRect,0.268517X0.456483X1.456483X-0.456483X1.456483X-0.456483X-1.456483X0.456483X-1.456483X0*%
%ADD21RoundRect,0.268517X-0.456483X-1.456483X0.456483X-1.456483X0.456483X1.456483X-0.456483X1.456483X0*%
%ADD22RoundRect,0.050000X1.000000X0.750000X-1.000000X0.750000X-1.000000X-0.750000X1.000000X-0.750000X0*%
%ADD23RoundRect,0.050000X1.000000X1.900000X-1.000000X1.900000X-1.000000X-1.900000X1.000000X-1.900000X0*%
%ADD24RoundRect,0.100000X-0.725000X-0.100000X0.725000X-0.100000X0.725000X0.100000X-0.725000X0.100000X0*%
%ADD25RoundRect,0.100000X-0.100000X-0.725000X0.100000X-0.725000X0.100000X0.725000X-0.100000X0.725000X0*%
%ADD26RoundRect,0.175000X-0.175000X0.850000X-0.175000X-0.850000X0.175000X-0.850000X0.175000X0.850000X0*%
%ADD27RoundRect,0.175000X-0.850000X-0.175000X0.850000X-0.175000X0.850000X0.175000X-0.850000X0.175000X0*%
%ADD28RoundRect,0.175000X0.850000X0.175000X-0.850000X0.175000X-0.850000X-0.175000X0.850000X-0.175000X0*%
%ADD29RoundRect,0.050000X-1.650000X-1.250000X1.650000X-1.250000X1.650000X1.250000X-1.650000X1.250000X0*%
%ADD30RoundRect,0.050000X-1.150000X1.250000X-1.150000X-1.250000X1.150000X-1.250000X1.150000X1.250000X0*%
%ADD31RoundRect,0.243750X-0.243750X-0.281250X0.243750X-0.281250X0.243750X0.281250X-0.243750X0.281250X0*%
%ADD32RoundRect,0.264706X0.635294X0.760294X-0.635294X0.760294X-0.635294X-0.760294X0.635294X-0.760294X0*%
%ADD33O,1.800000X2.050000*%
%ADD34RoundRect,0.243750X0.243750X0.281250X-0.243750X0.281250X-0.243750X-0.281250X0.243750X-0.281250X0*%
%ADD35RoundRect,0.243750X0.281250X-0.243750X0.281250X0.243750X-0.281250X0.243750X-0.281250X-0.243750X0*%
%ADD36RoundRect,0.243750X-0.281250X0.243750X-0.281250X-0.243750X0.281250X-0.243750X0.281250X0.243750X0*%
%ADD37RoundRect,0.050000X0.450000X0.600000X-0.450000X0.600000X-0.450000X-0.600000X0.450000X-0.600000X0*%
%ADD38RoundRect,0.050000X-0.450000X-0.600000X0.450000X-0.600000X0.450000X0.600000X-0.450000X0.600000X0*%
%ADD39RoundRect,0.050000X-0.450000X-0.400000X0.450000X-0.400000X0.450000X0.400000X-0.450000X0.400000X0*%
%ADD40RoundRect,0.270000X-0.405000X-0.655000X0.405000X-0.655000X0.405000X0.655000X-0.405000X0.655000X0*%
%ADD41RoundRect,0.050000X0.600000X-0.450000X0.600000X0.450000X-0.600000X0.450000X-0.600000X-0.450000X0*%
%ADD42RoundRect,0.268750X-0.268750X-0.481250X0.268750X-0.481250X0.268750X0.481250X-0.268750X0.481250X0*%
%ADD43RoundRect,0.268750X-0.481250X0.268750X-0.481250X-0.268750X0.481250X-0.268750X0.481250X0.268750X0*%
%ADD44RoundRect,0.268750X0.481250X-0.268750X0.481250X0.268750X-0.481250X0.268750X-0.481250X-0.268750X0*%
%ADD45RoundRect,0.270000X0.655000X-0.405000X0.655000X0.405000X-0.655000X0.405000X-0.655000X-0.405000X0*%
%ADD46RoundRect,0.050000X0.850000X0.850000X-0.850000X0.850000X-0.850000X-0.850000X0.850000X-0.850000X0*%
%ADD47O,1.800000X1.800000*%
%ADD48FreePoly0,270.000000*%
%ADD49FreePoly1,270.000000*%
%ADD50RoundRect,0.050000X1.150000X-1.250000X1.150000X1.250000X-1.150000X1.250000X-1.150000X-1.250000X0*%
%ADD51RoundRect,0.050000X1.000000X-1.000000X1.000000X1.000000X-1.000000X1.000000X-1.000000X-1.000000X0*%
%ADD52C,5.500000*%
%ADD53C,1.000000*%
%ADD54C,7.100000*%
%ADD55RoundRect,0.050000X0.550000X-2.300000X0.550000X2.300000X-0.550000X2.300000X-0.550000X-2.300000X0*%
%ADD56RoundRect,0.050000X5.400000X-4.700000X5.400000X4.700000X-5.400000X4.700000X-5.400000X-4.700000X0*%
%ADD57RoundRect,0.050000X0.325000X-0.530000X0.325000X0.530000X-0.325000X0.530000X-0.325000X-0.530000X0*%
%ADD58RoundRect,0.050000X-0.530000X-0.325000X0.530000X-0.325000X0.530000X0.325000X-0.530000X0.325000X0*%
%ADD59RoundRect,0.050000X-1.250000X-1.150000X1.250000X-1.150000X1.250000X1.150000X-1.250000X1.150000X0*%
%ADD60RoundRect,0.050000X-0.500000X-0.450000X0.500000X-0.450000X0.500000X0.450000X-0.500000X0.450000X0*%
%ADD61RoundRect,0.270000X-0.655000X0.405000X-0.655000X-0.405000X0.655000X-0.405000X0.655000X0.405000X0*%
%ADD62RoundRect,0.250000X-0.275000X0.250000X-0.275000X-0.250000X0.275000X-0.250000X0.275000X0.250000X0*%
%ADD63RoundRect,0.271738X-1.128262X0.353262X-1.128262X-0.353262X1.128262X-0.353262X1.128262X0.353262X0*%
%ADD64RoundRect,0.271738X-0.353262X-1.128262X0.353262X-1.128262X0.353262X1.128262X-0.353262X1.128262X0*%
%ADD65RoundRect,0.250000X-0.250000X-0.275000X0.250000X-0.275000X0.250000X0.275000X-0.250000X0.275000X0*%
%ADD66RoundRect,0.275000X-0.275000X-0.500000X0.275000X-0.500000X0.275000X0.500000X-0.275000X0.500000X0*%
%ADD67C,2.700000*%
%ADD68RoundRect,0.225000X-0.225000X-0.300000X0.225000X-0.300000X0.225000X0.300000X-0.225000X0.300000X0*%
%ADD69RoundRect,0.272219X-0.340281X-0.652781X0.340281X-0.652781X0.340281X0.652781X-0.340281X0.652781X0*%
%ADD70RoundRect,0.050000X0.400000X-0.450000X0.400000X0.450000X-0.400000X0.450000X-0.400000X-0.450000X0*%
%ADD71RoundRect,0.050000X-0.600000X1.100000X-0.600000X-1.100000X0.600000X-1.100000X0.600000X1.100000X0*%
%ADD72RoundRect,0.050000X-2.900000X3.200000X-2.900000X-3.200000X2.900000X-3.200000X2.900000X3.200000X0*%
%ADD73RoundRect,0.050000X-0.225000X0.300000X-0.225000X-0.300000X0.225000X-0.300000X0.225000X0.300000X0*%
%ADD74RoundRect,0.264706X-0.635294X-0.785294X0.635294X-0.785294X0.635294X0.785294X-0.635294X0.785294X0*%
%ADD75O,1.800000X2.100000*%
%ADD76RoundRect,0.250000X0.250000X0.275000X-0.250000X0.275000X-0.250000X-0.275000X0.250000X-0.275000X0*%
%ADD77RoundRect,0.050000X-0.600000X0.450000X-0.600000X-0.450000X0.600000X-0.450000X0.600000X0.450000X0*%
%ADD78RoundRect,0.275000X-0.500000X0.275000X-0.500000X-0.275000X0.500000X-0.275000X0.500000X0.275000X0*%
%ADD79RoundRect,0.225000X0.300000X-0.225000X0.300000X0.225000X-0.300000X0.225000X-0.300000X-0.225000X0*%
%ADD80RoundRect,0.225000X-0.300000X0.225000X-0.300000X-0.225000X0.300000X-0.225000X0.300000X0.225000X0*%
%ADD81RoundRect,0.050000X0.225000X0.725000X-0.225000X0.725000X-0.225000X-0.725000X0.225000X-0.725000X0*%
%ADD82RoundRect,0.264706X0.760294X-0.635294X0.760294X0.635294X-0.760294X0.635294X-0.760294X-0.635294X0*%
%ADD83O,2.050000X1.800000*%
%ADD84RoundRect,0.250000X0.275000X-0.250000X0.275000X0.250000X-0.275000X0.250000X-0.275000X-0.250000X0*%
%ADD85RoundRect,0.225000X0.225000X0.300000X-0.225000X0.300000X-0.225000X-0.300000X0.225000X-0.300000X0*%
%ADD86RoundRect,0.050000X-0.225000X-0.725000X0.225000X-0.725000X0.225000X0.725000X-0.225000X0.725000X0*%
%ADD87RoundRect,0.050000X1.250000X-1.650000X1.250000X1.650000X-1.250000X1.650000X-1.250000X-1.650000X0*%
G04 APERTURE END LIST*
D10*
%TO.C,C42*%
X101000000Y-93000000D03*
D11*
X101000000Y-96500000D03*
%TD*%
D12*
%TO.C,C43*%
X116000000Y-60000000D03*
D11*
X112500000Y-60000000D03*
%TD*%
D10*
%TO.C,C46*%
X39000000Y-67000000D03*
D11*
X39000000Y-70500000D03*
%TD*%
D12*
%TO.C,C47*%
X116000000Y-34000000D03*
D11*
X112500000Y-34000000D03*
%TD*%
D10*
%TO.C,C62*%
X39000000Y-41000000D03*
D11*
X39000000Y-44500000D03*
%TD*%
D13*
%TO.C,C63*%
X24000000Y-86000000D03*
D11*
X27500000Y-86000000D03*
%TD*%
D10*
%TO.C,C66*%
X101590000Y-65840000D03*
D11*
X101590000Y-69340000D03*
%TD*%
D13*
%TO.C,C67*%
X24000000Y-60000000D03*
D11*
X27500000Y-60000000D03*
%TD*%
D13*
%TO.C,C71*%
X24000000Y-34000000D03*
D11*
X27500000Y-34000000D03*
%TD*%
D14*
%TO.C,C85*%
X89400000Y-65050000D03*
D15*
X94400000Y-65050000D03*
%TD*%
D16*
%TO.C,C3*%
X82690000Y-19887918D03*
D17*
X82690000Y-14887918D03*
%TD*%
D16*
%TO.C,C6*%
X96740000Y-19887918D03*
D17*
X96740000Y-14887918D03*
%TD*%
D16*
%TO.C,C14*%
X57240000Y-19987918D03*
D17*
X57240000Y-14987918D03*
%TD*%
D12*
%TO.C,C41*%
X125000000Y-60000000D03*
D11*
X121500000Y-60000000D03*
%TD*%
D12*
%TO.C,C45*%
X125000000Y-86000000D03*
D11*
X121500000Y-86000000D03*
%TD*%
D12*
%TO.C,C49*%
X125000000Y-34000000D03*
D11*
X121500000Y-34000000D03*
%TD*%
D13*
%TO.C,C65*%
X15000000Y-34000000D03*
D11*
X18500000Y-34000000D03*
%TD*%
D13*
%TO.C,C69*%
X15000000Y-86000000D03*
D11*
X18500000Y-86000000D03*
%TD*%
D13*
%TO.C,C73*%
X15000000Y-60000000D03*
D11*
X18500000Y-60000000D03*
%TD*%
D14*
%TO.C,C83*%
X82200000Y-40100000D03*
D15*
X87200000Y-40100000D03*
%TD*%
D18*
%TO.C,J4*%
X32000000Y-85000000D03*
%TD*%
%TO.C,J5*%
X32000000Y-59000000D03*
%TD*%
D14*
%TO.C,LS1*%
X46550000Y-88500000D03*
D15*
X53050000Y-88500000D03*
%TD*%
D19*
%TO.C,R47*%
X115400000Y-76000000D03*
X112600000Y-76000000D03*
%TD*%
%TO.C,R46*%
X109500000Y-93000000D03*
X106700000Y-93000000D03*
%TD*%
%TO.C,R52*%
X109604000Y-67000000D03*
X106804000Y-67000000D03*
%TD*%
%TO.C,R53*%
X115400000Y-51000000D03*
X112600000Y-51000000D03*
%TD*%
%TO.C,R58*%
X109500000Y-41000000D03*
X106700000Y-41000000D03*
%TD*%
D20*
%TO.C,R3*%
X110830000Y-18890000D03*
X105030000Y-18890000D03*
%TD*%
D21*
%TO.C,R4*%
X29480000Y-19000000D03*
X35280000Y-19000000D03*
%TD*%
D20*
%TO.C,R1*%
X110830000Y-14000000D03*
X105030000Y-14000000D03*
%TD*%
D21*
%TO.C,R2*%
X29480000Y-14110000D03*
X35280000Y-14110000D03*
%TD*%
D22*
%TO.C,U17*%
X72350000Y-63600000D03*
X72350000Y-61300000D03*
D23*
X66050000Y-61300000D03*
D22*
X72350000Y-59000000D03*
%TD*%
D24*
%TO.C,U10*%
X60775000Y-72080000D03*
X60775000Y-72580000D03*
X60775000Y-73080000D03*
X60775000Y-73580000D03*
X60775000Y-74080000D03*
X60775000Y-74580000D03*
X60775000Y-75080000D03*
X60775000Y-75580000D03*
X60775000Y-76080000D03*
X60775000Y-76580000D03*
X60775000Y-77080000D03*
X60775000Y-77580000D03*
X60775000Y-78080000D03*
X60775000Y-78580000D03*
X60775000Y-79080000D03*
X60775000Y-79580000D03*
D25*
X62700000Y-81505000D03*
X63200000Y-81505000D03*
X63700000Y-81505000D03*
X64200000Y-81505000D03*
X64700000Y-81505000D03*
X65200000Y-81505000D03*
X65700000Y-81505000D03*
X66200000Y-81505000D03*
X66700000Y-81505000D03*
X67200000Y-81505000D03*
X67700000Y-81505000D03*
X68200000Y-81505000D03*
X68700000Y-81505000D03*
X69200000Y-81505000D03*
X69700000Y-81505000D03*
X70200000Y-81505000D03*
D24*
X72125000Y-79580000D03*
X72125000Y-79080000D03*
X72125000Y-78580000D03*
X72125000Y-78080000D03*
X72125000Y-77580000D03*
X72125000Y-77080000D03*
X72125000Y-76580000D03*
X72125000Y-76080000D03*
X72125000Y-75580000D03*
X72125000Y-75080000D03*
X72125000Y-74580000D03*
X72125000Y-74080000D03*
X72125000Y-73580000D03*
X72125000Y-73080000D03*
X72125000Y-72580000D03*
X72125000Y-72080000D03*
D25*
X70200000Y-70155000D03*
X69700000Y-70155000D03*
X69200000Y-70155000D03*
X68700000Y-70155000D03*
X68200000Y-70155000D03*
X67700000Y-70155000D03*
X67200000Y-70155000D03*
X66700000Y-70155000D03*
X66200000Y-70155000D03*
X65700000Y-70155000D03*
X65200000Y-70155000D03*
X64700000Y-70155000D03*
X64200000Y-70155000D03*
X63700000Y-70155000D03*
X63200000Y-70155000D03*
X62700000Y-70155000D03*
%TD*%
D26*
%TO.C,U15*%
X47755000Y-49375000D03*
X46485000Y-49375000D03*
X45215000Y-49375000D03*
X43945000Y-49375000D03*
X43945000Y-54325000D03*
X45215000Y-54325000D03*
X46485000Y-54325000D03*
X47755000Y-54325000D03*
%TD*%
%TO.C,U9*%
X95155000Y-46125000D03*
X93885000Y-46125000D03*
X92615000Y-46125000D03*
X91345000Y-46125000D03*
X91345000Y-51075000D03*
X92615000Y-51075000D03*
X93885000Y-51075000D03*
X95155000Y-51075000D03*
%TD*%
D27*
%TO.C,U6*%
X98525000Y-85095000D03*
X98525000Y-86365000D03*
X98525000Y-87635000D03*
X98525000Y-88905000D03*
X103475000Y-88905000D03*
X103475000Y-87635000D03*
X103475000Y-86365000D03*
X103475000Y-85095000D03*
%TD*%
%TO.C,U7*%
X98525000Y-59095000D03*
X98525000Y-60365000D03*
X98525000Y-61635000D03*
X98525000Y-62905000D03*
X103475000Y-62905000D03*
X103475000Y-61635000D03*
X103475000Y-60365000D03*
X103475000Y-59095000D03*
%TD*%
%TO.C,U8*%
X98525000Y-33095000D03*
X98525000Y-34365000D03*
X98525000Y-35635000D03*
X98525000Y-36905000D03*
X103475000Y-36905000D03*
X103475000Y-35635000D03*
X103475000Y-34365000D03*
X103475000Y-33095000D03*
%TD*%
D28*
%TO.C,U12*%
X41475000Y-86405000D03*
X41475000Y-85135000D03*
X41475000Y-83865000D03*
X41475000Y-82595000D03*
X36525000Y-82595000D03*
X36525000Y-83865000D03*
X36525000Y-85135000D03*
X36525000Y-86405000D03*
%TD*%
%TO.C,U14*%
X41475000Y-34905000D03*
X41475000Y-33635000D03*
X41475000Y-32365000D03*
X41475000Y-31095000D03*
X36525000Y-31095000D03*
X36525000Y-32365000D03*
X36525000Y-33635000D03*
X36525000Y-34905000D03*
%TD*%
D27*
%TO.C,U5*%
X61575000Y-33045000D03*
X61575000Y-34315000D03*
X61575000Y-35585000D03*
X61575000Y-36855000D03*
X66525000Y-36855000D03*
X66525000Y-35585000D03*
X66525000Y-34315000D03*
X66525000Y-33045000D03*
%TD*%
D18*
%TO.C,J6*%
X32000000Y-33000000D03*
%TD*%
%TO.C,J3*%
X108000000Y-35000000D03*
%TD*%
%TO.C,J2*%
X108000000Y-61000000D03*
%TD*%
%TO.C,J1*%
X108000000Y-87000000D03*
%TD*%
D12*
%TO.C,C39*%
X116000000Y-86000000D03*
D11*
X112500000Y-86000000D03*
%TD*%
D19*
%TO.C,R59*%
X115400000Y-25000000D03*
X112600000Y-25000000D03*
%TD*%
D29*
%TO.C,D39*%
X57600000Y-39950000D03*
X57600000Y-46750000D03*
%TD*%
D30*
%TO.C,D41*%
X73500000Y-44800000D03*
X73500000Y-49100000D03*
%TD*%
D31*
%TO.C,R70*%
X55462500Y-76000000D03*
X57037500Y-76000000D03*
%TD*%
D10*
%TO.C,C70*%
X35900000Y-93950000D03*
D11*
X35900000Y-97450000D03*
%TD*%
D32*
%TO.C,HALL_L1*%
X82000000Y-98000000D03*
D33*
X79500000Y-98000000D03*
X77000000Y-98000000D03*
X74500000Y-98000000D03*
X72000000Y-98000000D03*
%TD*%
D32*
%TO.C,J14*%
X50700000Y-98000000D03*
D33*
X48200000Y-98000000D03*
X45700000Y-98000000D03*
X43200000Y-98000000D03*
%TD*%
D34*
%TO.C,C23*%
X71337500Y-94500000D03*
X69762500Y-94500000D03*
%TD*%
D35*
%TO.C,C79*%
X89250000Y-59787500D03*
X89250000Y-58212500D03*
%TD*%
D36*
%TO.C,C50*%
X96100000Y-54412500D03*
X96100000Y-55987500D03*
%TD*%
D35*
%TO.C,C74*%
X49850000Y-54137500D03*
X49850000Y-52562500D03*
%TD*%
%TO.C,C33*%
X68650000Y-32687500D03*
X68650000Y-31112500D03*
%TD*%
D36*
%TO.C,D27*%
X95250000Y-88462500D03*
X95250000Y-90037500D03*
%TD*%
D37*
%TO.C,D20*%
X104150000Y-57000000D03*
X100850000Y-57000000D03*
%TD*%
%TO.C,D21*%
X104150000Y-31000000D03*
X100850000Y-31000000D03*
%TD*%
D38*
%TO.C,D32*%
X35850000Y-88500000D03*
X39150000Y-88500000D03*
%TD*%
%TO.C,D33*%
X35850000Y-63000000D03*
X39150000Y-63000000D03*
%TD*%
%TO.C,D34*%
X35850000Y-37000000D03*
X39150000Y-37000000D03*
%TD*%
%TO.C,D2*%
X67750000Y-90150000D03*
X71050000Y-90150000D03*
%TD*%
%TO.C,D26*%
X48850000Y-86000000D03*
X52150000Y-86000000D03*
%TD*%
D39*
%TO.C,Q1*%
X50500000Y-91050000D03*
X50500000Y-92950000D03*
X52500000Y-92000000D03*
%TD*%
D34*
%TO.C,R60*%
X97837500Y-30950000D03*
X96262500Y-30950000D03*
%TD*%
%TO.C,R61*%
X97837500Y-29300000D03*
X96262500Y-29300000D03*
%TD*%
%TO.C,R62*%
X101000000Y-50000000D03*
X99425000Y-50000000D03*
%TD*%
%TO.C,R63*%
X100987500Y-51550000D03*
X99412500Y-51550000D03*
%TD*%
D36*
%TO.C,R64*%
X94650000Y-30962500D03*
X94650000Y-32537500D03*
%TD*%
%TO.C,R66*%
X89700000Y-47612500D03*
X89700000Y-49187500D03*
%TD*%
D31*
%TO.C,R67*%
X91312500Y-57800000D03*
X92887500Y-57800000D03*
%TD*%
D35*
%TO.C,R68*%
X95850000Y-44037500D03*
X95850000Y-42462500D03*
%TD*%
D36*
%TO.C,R69*%
X94550000Y-53162500D03*
X94550000Y-54737500D03*
%TD*%
D40*
%TO.C,R85*%
X30600000Y-79000000D03*
X33400000Y-79000000D03*
%TD*%
%TO.C,R86*%
X24100000Y-95500000D03*
X26900000Y-95500000D03*
%TD*%
D31*
%TO.C,R105*%
X46200000Y-41700000D03*
X47775000Y-41700000D03*
%TD*%
D36*
%TO.C,R103*%
X44400000Y-39962500D03*
X44400000Y-41537500D03*
%TD*%
D31*
%TO.C,R99*%
X42862500Y-38450000D03*
X44437500Y-38450000D03*
%TD*%
D35*
%TO.C,R107*%
X48800000Y-46637500D03*
X48800000Y-45062500D03*
%TD*%
D31*
%TO.C,R100*%
X42862500Y-36900000D03*
X44437500Y-36900000D03*
%TD*%
D35*
%TO.C,R106*%
X48850000Y-58587500D03*
X48850000Y-57012500D03*
%TD*%
D40*
%TO.C,R91*%
X30600000Y-53000000D03*
X33400000Y-53000000D03*
%TD*%
D31*
%TO.C,R101*%
X43112500Y-64600000D03*
X44687500Y-64600000D03*
%TD*%
D34*
%TO.C,R108*%
X47637500Y-61450000D03*
X46062500Y-61450000D03*
%TD*%
D31*
%TO.C,R102*%
X43112500Y-63000000D03*
X44687500Y-63000000D03*
%TD*%
D40*
%TO.C,R92*%
X24600000Y-69050000D03*
X27400000Y-69050000D03*
%TD*%
%TO.C,R97*%
X30600000Y-27000000D03*
X33400000Y-27000000D03*
%TD*%
%TO.C,R98*%
X24100000Y-43500000D03*
X26900000Y-43500000D03*
%TD*%
D36*
%TO.C,R9*%
X45800000Y-94212500D03*
X45800000Y-95787500D03*
%TD*%
%TO.C,R15*%
X47900000Y-94212500D03*
X47900000Y-95787500D03*
%TD*%
D35*
%TO.C,R110*%
X52525000Y-28737500D03*
X52525000Y-27162500D03*
%TD*%
D36*
%TO.C,R111*%
X54025000Y-27162500D03*
X54025000Y-28737500D03*
%TD*%
%TO.C,R112*%
X55525000Y-27162500D03*
X55525000Y-28737500D03*
%TD*%
D35*
%TO.C,R73*%
X48000000Y-92787500D03*
X48000000Y-91212500D03*
%TD*%
D36*
%TO.C,R10*%
X81500000Y-93712500D03*
X81500000Y-95287500D03*
%TD*%
%TO.C,R18*%
X61800000Y-93712500D03*
X61800000Y-95287500D03*
%TD*%
%TO.C,R21*%
X75100000Y-93712500D03*
X75100000Y-95287500D03*
%TD*%
%TO.C,R22*%
X65000000Y-93712500D03*
X65000000Y-95287500D03*
%TD*%
D35*
%TO.C,R29*%
X63400000Y-95287500D03*
X63400000Y-93712500D03*
%TD*%
%TO.C,R26*%
X76700000Y-95287500D03*
X76700000Y-93712500D03*
%TD*%
%TO.C,R27*%
X60200000Y-95287500D03*
X60200000Y-93712500D03*
%TD*%
%TO.C,R23*%
X79900000Y-95287500D03*
X79900000Y-93712500D03*
%TD*%
%TO.C,R24*%
X57000000Y-95287500D03*
X57000000Y-93712500D03*
%TD*%
D31*
%TO.C,R35*%
X59362500Y-31250000D03*
X60937500Y-31250000D03*
%TD*%
D35*
%TO.C,R41*%
X68650000Y-35637500D03*
X68650000Y-34062500D03*
%TD*%
%TO.C,R33*%
X60900000Y-29587500D03*
X60900000Y-28012500D03*
%TD*%
D36*
%TO.C,C52*%
X58600000Y-75112500D03*
X58600000Y-76687500D03*
%TD*%
D31*
%TO.C,C22*%
X66712500Y-94500000D03*
X68287500Y-94500000D03*
%TD*%
D38*
%TO.C,D1*%
X67750000Y-92550000D03*
X71050000Y-92550000D03*
%TD*%
D35*
%TO.C,D5*%
X81500000Y-91087500D03*
X81500000Y-89512500D03*
%TD*%
%TO.C,D6*%
X58587500Y-91100000D03*
X58587500Y-89525000D03*
%TD*%
%TO.C,D7*%
X78300000Y-91087500D03*
X78300000Y-89512500D03*
%TD*%
%TO.C,D8*%
X61800000Y-91087500D03*
X61800000Y-89512500D03*
%TD*%
%TO.C,D10*%
X65000000Y-91087500D03*
X65000000Y-89512500D03*
%TD*%
D19*
%TO.C,R44*%
X109450000Y-96600000D03*
X106650000Y-96600000D03*
%TD*%
%TO.C,R45*%
X115400000Y-73650000D03*
X112600000Y-73650000D03*
%TD*%
%TO.C,R51*%
X115400000Y-48600000D03*
X112600000Y-48600000D03*
%TD*%
%TO.C,R56*%
X109500000Y-44100000D03*
X106700000Y-44100000D03*
%TD*%
%TO.C,R57*%
X115400000Y-22650000D03*
X112600000Y-22650000D03*
%TD*%
D40*
%TO.C,R83*%
X30600000Y-76000000D03*
X33400000Y-76000000D03*
%TD*%
%TO.C,R84*%
X24100000Y-97900000D03*
X26900000Y-97900000D03*
%TD*%
%TO.C,R89*%
X30600000Y-49950000D03*
X33400000Y-49950000D03*
%TD*%
%TO.C,R90*%
X24600000Y-71400000D03*
X27400000Y-71400000D03*
%TD*%
%TO.C,R95*%
X30600000Y-24650000D03*
X33400000Y-24650000D03*
%TD*%
%TO.C,R96*%
X24100000Y-45850000D03*
X26900000Y-45850000D03*
%TD*%
D35*
%TO.C,R28*%
X73500000Y-95287500D03*
X73500000Y-93712500D03*
%TD*%
D41*
%TO.C,D19*%
X104400000Y-81150000D03*
X104400000Y-77850000D03*
%TD*%
D34*
%TO.C,D29*%
X49312500Y-31950000D03*
X47737500Y-31950000D03*
%TD*%
%TO.C,D30*%
X49312500Y-33450000D03*
X47737500Y-33450000D03*
%TD*%
%TO.C,D31*%
X49312500Y-34950000D03*
X47737500Y-34950000D03*
%TD*%
D31*
%TO.C,R80*%
X44737500Y-34950000D03*
X46312500Y-34950000D03*
%TD*%
%TO.C,R77*%
X44737500Y-30450000D03*
X46312500Y-30450000D03*
%TD*%
%TO.C,R79*%
X44737500Y-33450000D03*
X46312500Y-33450000D03*
%TD*%
%TO.C,R78*%
X44737500Y-31950000D03*
X46312500Y-31950000D03*
%TD*%
D34*
%TO.C,D28*%
X49312500Y-30450000D03*
X47737500Y-30450000D03*
%TD*%
D16*
%TO.C,C11*%
X43190000Y-19987918D03*
D17*
X43190000Y-14987918D03*
%TD*%
D34*
%TO.C,C84*%
X85287500Y-68000000D03*
X83712500Y-68000000D03*
%TD*%
D31*
%TO.C,C56*%
X61875000Y-67900000D03*
X63450000Y-67900000D03*
%TD*%
D34*
%TO.C,C54*%
X70937500Y-84150000D03*
X69362500Y-84150000D03*
%TD*%
D42*
%TO.C,C57*%
X62212500Y-66200000D03*
X64087500Y-66200000D03*
%TD*%
D34*
%TO.C,C53*%
X64540000Y-84010000D03*
X62965000Y-84010000D03*
%TD*%
D36*
%TO.C,C58*%
X59100000Y-78112500D03*
X59100000Y-79687500D03*
%TD*%
D43*
%TO.C,C59*%
X57300000Y-78362500D03*
X57300000Y-80237500D03*
%TD*%
D44*
%TO.C,C31*%
X85800000Y-79737500D03*
X85800000Y-77862500D03*
%TD*%
D36*
%TO.C,C19*%
X83600000Y-76612500D03*
X83600000Y-78187500D03*
%TD*%
D31*
%TO.C,C20*%
X84500000Y-69500000D03*
X86075000Y-69500000D03*
%TD*%
D36*
%TO.C,C21*%
X83600000Y-79712500D03*
X83600000Y-81287500D03*
%TD*%
D41*
%TO.C,D40*%
X85350000Y-66260000D03*
X85350000Y-62960000D03*
%TD*%
D45*
%TO.C,F1*%
X50500000Y-39600000D03*
X50500000Y-36800000D03*
%TD*%
D46*
%TO.C,J17*%
X79320000Y-79910000D03*
D47*
X79320000Y-77370000D03*
X79320000Y-74830000D03*
X79320000Y-72290000D03*
%TD*%
D48*
%TO.C,JP1*%
X89800000Y-70950000D03*
D49*
X89800000Y-72250000D03*
%TD*%
D48*
%TO.C,JP2*%
X89800000Y-73750000D03*
D49*
X89800000Y-75050000D03*
%TD*%
D36*
%TO.C,R5*%
X82000000Y-76612500D03*
X82000000Y-78187500D03*
%TD*%
%TO.C,R6*%
X82000000Y-79712500D03*
X82000000Y-81287500D03*
%TD*%
%TO.C,C55*%
X75150000Y-71412500D03*
X75150000Y-72987500D03*
%TD*%
D32*
%TO.C,HALL_R1*%
X66000000Y-98000000D03*
D33*
X63500000Y-98000000D03*
X61000000Y-98000000D03*
X58500000Y-98000000D03*
X56000000Y-98000000D03*
%TD*%
D34*
%TO.C,C82*%
X77587500Y-61200000D03*
X76012500Y-61200000D03*
%TD*%
D37*
%TO.C,D4*%
X46850000Y-81300000D03*
X43550000Y-81300000D03*
%TD*%
D50*
%TO.C,D14*%
X89000000Y-81850000D03*
X89000000Y-77550000D03*
%TD*%
D36*
%TO.C,C76*%
X61950000Y-42412500D03*
X61950000Y-43987500D03*
%TD*%
D35*
%TO.C,C81*%
X61468000Y-53619500D03*
X61468000Y-52044500D03*
%TD*%
D34*
%TO.C,R43*%
X95187500Y-86500000D03*
X93612500Y-86500000D03*
%TD*%
%TO.C,R49*%
X96387500Y-57800000D03*
X94812500Y-57800000D03*
%TD*%
D36*
%TO.C,R54*%
X96200000Y-36912500D03*
X96200000Y-38487500D03*
%TD*%
%TO.C,R55*%
X96400000Y-32912500D03*
X96400000Y-34487500D03*
%TD*%
D31*
%TO.C,R82*%
X52612500Y-82000000D03*
X54187500Y-82000000D03*
%TD*%
D34*
%TO.C,R88*%
X40700000Y-53300000D03*
X39125000Y-53300000D03*
%TD*%
D36*
%TO.C,R93*%
X48600000Y-37112500D03*
X48600000Y-38687500D03*
%TD*%
%TO.C,R94*%
X40700000Y-36512500D03*
X40700000Y-38087500D03*
%TD*%
D34*
%TO.C,R48*%
X96387500Y-59500000D03*
X94812500Y-59500000D03*
%TD*%
%TO.C,R42*%
X95187500Y-84900000D03*
X93612500Y-84900000D03*
%TD*%
D10*
%TO.C,C38*%
X101000000Y-40500000D03*
D11*
X101000000Y-44000000D03*
%TD*%
D28*
%TO.C,U13*%
X41475000Y-60905000D03*
X41475000Y-59635000D03*
X41475000Y-58365000D03*
X41475000Y-57095000D03*
X36525000Y-57095000D03*
X36525000Y-58365000D03*
X36525000Y-59635000D03*
X36525000Y-60905000D03*
%TD*%
D34*
%TO.C,R87*%
X40687500Y-55000000D03*
X39112500Y-55000000D03*
%TD*%
D31*
%TO.C,R81*%
X48512500Y-81100000D03*
X50087500Y-81100000D03*
%TD*%
D51*
%TO.C,C78*%
X88700000Y-32700000D03*
D15*
X88700000Y-27700000D03*
%TD*%
D52*
%TO.C,J7*%
X70000000Y-13400000D03*
%TD*%
D36*
%TO.C,R8*%
X57000000Y-89512500D03*
X57000000Y-91087500D03*
%TD*%
%TO.C,R13*%
X76700000Y-89512500D03*
X76700000Y-91087500D03*
%TD*%
%TO.C,R14*%
X60200000Y-89512500D03*
X60200000Y-91087500D03*
%TD*%
%TO.C,R20*%
X63400000Y-89512500D03*
X63400000Y-91087500D03*
%TD*%
%TO.C,R7*%
X79900000Y-89512500D03*
X79900000Y-91087500D03*
%TD*%
%TO.C,R19*%
X73500000Y-89512500D03*
X73500000Y-91087500D03*
%TD*%
D53*
%TO.C,J9*%
X11000000Y-14000000D03*
D54*
X14000000Y-14000000D03*
D53*
X11878680Y-11878680D03*
X14000000Y-11000000D03*
%TD*%
%TO.C,J11*%
X129000000Y-96000000D03*
D54*
X126000000Y-96000000D03*
D53*
X128121320Y-98121320D03*
X126000000Y-99000000D03*
%TD*%
%TO.C,J12*%
X14000000Y-99000000D03*
D54*
X14000000Y-96000000D03*
D53*
X11878680Y-98121320D03*
X11000000Y-96000000D03*
%TD*%
%TO.C,J10*%
X126000000Y-11000000D03*
D54*
X126000000Y-14000000D03*
D53*
X128121320Y-11878680D03*
X129000000Y-14000000D03*
%TD*%
D52*
%TO.C,J8*%
X70000000Y-22000000D03*
%TD*%
D36*
%TO.C,R11*%
X58600000Y-93712500D03*
X58600000Y-95287500D03*
%TD*%
D35*
%TO.C,D9*%
X75100000Y-91087500D03*
X75100000Y-89512500D03*
%TD*%
D55*
%TO.C,U16*%
X80270000Y-59415000D03*
D56*
X82810000Y-50265000D03*
D55*
X85350000Y-59415000D03*
%TD*%
D57*
%TO.C,U2*%
X83050000Y-95700000D03*
X84000000Y-95700000D03*
X84950000Y-95700000D03*
X84950000Y-93500000D03*
X84000000Y-93500000D03*
X83050000Y-93500000D03*
%TD*%
D58*
%TO.C,U3*%
X53200000Y-94250000D03*
X53200000Y-95200000D03*
X53200000Y-96150000D03*
X55400000Y-96150000D03*
X55400000Y-95200000D03*
X55400000Y-94250000D03*
%TD*%
D36*
%TO.C,R17*%
X78300000Y-93712500D03*
X78300000Y-95287500D03*
%TD*%
D59*
%TO.C,D42*%
X104600000Y-74250000D03*
X108900000Y-74250000D03*
%TD*%
%TO.C,D43*%
X104022000Y-48768000D03*
X108322000Y-48768000D03*
%TD*%
%TO.C,D44*%
X36750000Y-75800000D03*
X41050000Y-75800000D03*
%TD*%
D50*
%TO.C,D46*%
X68400000Y-48350000D03*
X68400000Y-44050000D03*
%TD*%
D59*
%TO.C,D45*%
X36550000Y-49500000D03*
X40850000Y-49500000D03*
%TD*%
D35*
%TO.C,C77*%
X76090000Y-58027500D03*
X76090000Y-56452500D03*
%TD*%
D60*
%TO.C,X1*%
X56950000Y-73650000D03*
X58650000Y-73650000D03*
X58650000Y-72350000D03*
X56950000Y-72350000D03*
%TD*%
D61*
%TO.C,R109*%
X53000000Y-36800000D03*
X53000000Y-39600000D03*
%TD*%
D62*
%TO.C,C51*%
X55400000Y-73025000D03*
X55400000Y-74575000D03*
%TD*%
D63*
%TO.C,C75*%
X64350000Y-41675000D03*
X64350000Y-44625000D03*
%TD*%
D64*
%TO.C,C80*%
X49325000Y-61150000D03*
X52275000Y-61150000D03*
%TD*%
D11*
%TO.C,RV3*%
X123554972Y-24108791D03*
X121301028Y-16531209D03*
%TD*%
%TO.C,RV4*%
X23093534Y-19060233D03*
X16022466Y-22595767D03*
%TD*%
%TO.C,RV6*%
X12720000Y-50740000D03*
X15220000Y-43240000D03*
%TD*%
%TO.C,RV5*%
X12974000Y-76648000D03*
X15474000Y-69148000D03*
%TD*%
%TO.C,RV2*%
X124988000Y-76648000D03*
X127488000Y-69148000D03*
%TD*%
%TO.C,RV1*%
X124988000Y-50740000D03*
X127488000Y-43240000D03*
%TD*%
D65*
%TO.C,C60*%
X53225000Y-68500000D03*
X54775000Y-68500000D03*
%TD*%
D66*
%TO.C,C61*%
X55050000Y-70250000D03*
X56950000Y-70250000D03*
%TD*%
D67*
%TO.C,J18*%
X52500000Y-71250000D03*
%TD*%
D68*
%TO.C,R74*%
X73175000Y-82500000D03*
X74825000Y-82500000D03*
%TD*%
%TO.C,R75*%
X73175000Y-81000000D03*
X74825000Y-81000000D03*
%TD*%
D69*
%TO.C,R76*%
X48037500Y-66250000D03*
X50962500Y-66250000D03*
%TD*%
D57*
%TO.C,U11*%
X52800000Y-66850000D03*
X53750000Y-66850000D03*
X54700000Y-66850000D03*
X54700000Y-64650000D03*
X52800000Y-64650000D03*
%TD*%
D70*
%TO.C,D12*%
X95350000Y-70900000D03*
X97250000Y-70900000D03*
X96300000Y-68900000D03*
%TD*%
D27*
%TO.C,U1*%
X82275000Y-71095000D03*
X82275000Y-72365000D03*
X82275000Y-73635000D03*
X82275000Y-74905000D03*
X87225000Y-74905000D03*
X87225000Y-73635000D03*
X87225000Y-72365000D03*
X87225000Y-71095000D03*
%TD*%
D71*
%TO.C,V7*%
X49280000Y-68800000D03*
D72*
X47000000Y-75100000D03*
D71*
X44720000Y-68800000D03*
%TD*%
D35*
%TO.C,R104*%
X46300000Y-64637500D03*
X46300000Y-63062500D03*
%TD*%
D19*
%TO.C,R50*%
X109650000Y-69900000D03*
X106850000Y-69900000D03*
%TD*%
D36*
%TO.C,R72*%
X93750000Y-88462500D03*
X93750000Y-90037500D03*
%TD*%
D34*
%TO.C,R65*%
X100987500Y-48400000D03*
X99412500Y-48400000D03*
%TD*%
D62*
%TO.C,C28*%
X49400000Y-94225000D03*
X49400000Y-95775000D03*
%TD*%
D68*
%TO.C,R25*%
X66275000Y-88400000D03*
X67925000Y-88400000D03*
%TD*%
D73*
%TO.C,D11*%
X51000000Y-94050000D03*
X51000000Y-96150000D03*
%TD*%
D74*
%TO.C,J19*%
X38000000Y-26675000D03*
D75*
X40500000Y-26675000D03*
%TD*%
D76*
%TO.C,C29*%
X73875000Y-92400000D03*
X72325000Y-92400000D03*
%TD*%
D77*
%TO.C,D38*%
X46600000Y-56550000D03*
X46600000Y-59850000D03*
%TD*%
D76*
%TO.C,C25*%
X56875000Y-92300000D03*
X55325000Y-92300000D03*
%TD*%
D78*
%TO.C,C87*%
X78350000Y-38700000D03*
X78350000Y-40600000D03*
%TD*%
D79*
%TO.C,R71*%
X66200000Y-66625000D03*
X66200000Y-64975000D03*
%TD*%
D80*
%TO.C,R40*%
X71000000Y-34025000D03*
X71000000Y-35675000D03*
%TD*%
D81*
%TO.C,U20*%
X26275000Y-75650000D03*
X25625000Y-75650000D03*
X24975000Y-75650000D03*
X24325000Y-75650000D03*
X24325000Y-80050000D03*
X24975000Y-80050000D03*
X25625000Y-80050000D03*
X26275000Y-80050000D03*
%TD*%
D77*
%TO.C,D25*%
X92500000Y-53000000D03*
X92500000Y-56300000D03*
%TD*%
%TO.C,D35*%
X44600000Y-43300000D03*
X44600000Y-46600000D03*
%TD*%
D41*
%TO.C,D15*%
X82450000Y-34000000D03*
X82450000Y-30700000D03*
%TD*%
D62*
%TO.C,C35*%
X68650000Y-37025000D03*
X68650000Y-38575000D03*
%TD*%
D79*
%TO.C,R30*%
X80800000Y-29275000D03*
X80800000Y-27625000D03*
%TD*%
D41*
%TO.C,D23*%
X93500000Y-44150000D03*
X93500000Y-40850000D03*
%TD*%
D76*
%TO.C,C91*%
X59775000Y-53450000D03*
X58225000Y-53450000D03*
%TD*%
D65*
%TO.C,C26*%
X76325000Y-92400000D03*
X77875000Y-92400000D03*
%TD*%
D76*
%TO.C,C27*%
X60475000Y-92300000D03*
X58925000Y-92300000D03*
%TD*%
D82*
%TO.C,J16*%
X99875000Y-81600000D03*
D83*
X99875000Y-79100000D03*
X99875000Y-76600000D03*
X99875000Y-74100000D03*
%TD*%
D84*
%TO.C,C32*%
X71000000Y-32675000D03*
X71000000Y-31125000D03*
%TD*%
D79*
%TO.C,R37*%
X59450000Y-35725000D03*
X59450000Y-34075000D03*
%TD*%
D78*
%TO.C,C86*%
X71650000Y-40600000D03*
X71650000Y-42500000D03*
%TD*%
D62*
%TO.C,C34*%
X71000000Y-37025000D03*
X71000000Y-38575000D03*
%TD*%
%TO.C,C89*%
X28050000Y-78575000D03*
X28050000Y-80125000D03*
%TD*%
D85*
%TO.C,R39*%
X66425000Y-31400000D03*
X64775000Y-31400000D03*
%TD*%
D77*
%TO.C,D22*%
X91200000Y-40850000D03*
X91200000Y-44150000D03*
%TD*%
D41*
%TO.C,D24*%
X90200000Y-56300000D03*
X90200000Y-53000000D03*
%TD*%
D77*
%TO.C,D48*%
X97500000Y-49650000D03*
X97500000Y-52950000D03*
%TD*%
D80*
%TO.C,R36*%
X80500000Y-33925000D03*
X80500000Y-35575000D03*
%TD*%
D84*
%TO.C,C90*%
X111950000Y-67975000D03*
X111950000Y-66425000D03*
%TD*%
D41*
%TO.C,D47*%
X90600000Y-38950000D03*
X90600000Y-35650000D03*
%TD*%
D79*
%TO.C,R34*%
X80450000Y-32275000D03*
X80450000Y-30625000D03*
%TD*%
D65*
%TO.C,C37*%
X63525000Y-38500000D03*
X65075000Y-38500000D03*
%TD*%
D82*
%TO.C,J15*%
X93800000Y-81600000D03*
D83*
X93800000Y-79100000D03*
X93800000Y-76600000D03*
X93800000Y-74100000D03*
%TD*%
D80*
%TO.C,R12*%
X89200000Y-92275000D03*
X89200000Y-93925000D03*
%TD*%
D41*
%TO.C,D37*%
X44300000Y-59600000D03*
X44300000Y-56300000D03*
%TD*%
D68*
%TO.C,R38*%
X74825000Y-38600000D03*
X76475000Y-38600000D03*
%TD*%
D79*
%TO.C,R32*%
X59450000Y-29625000D03*
X59450000Y-27975000D03*
%TD*%
D41*
%TO.C,D49*%
X46500000Y-40150000D03*
X46500000Y-36850000D03*
%TD*%
%TO.C,D36*%
X46900000Y-46600000D03*
X46900000Y-43300000D03*
%TD*%
D27*
%TO.C,U19*%
X57075000Y-55195000D03*
X57075000Y-56465000D03*
X57075000Y-57735000D03*
X57075000Y-59005000D03*
X62025000Y-59005000D03*
X62025000Y-57735000D03*
X62025000Y-56465000D03*
X62025000Y-55195000D03*
%TD*%
D38*
%TO.C,D3*%
X92350000Y-92500000D03*
X95650000Y-92500000D03*
%TD*%
D76*
%TO.C,C88*%
X76425000Y-40100000D03*
X74875000Y-40100000D03*
%TD*%
D38*
%TO.C,D50*%
X43350000Y-66400000D03*
X46650000Y-66400000D03*
%TD*%
D84*
%TO.C,C92*%
X55100000Y-55650000D03*
X55100000Y-54100000D03*
%TD*%
%TO.C,C36*%
X73400000Y-40075000D03*
X73400000Y-38525000D03*
%TD*%
D80*
%TO.C,R16*%
X90800000Y-92275000D03*
X90800000Y-93925000D03*
%TD*%
D65*
%TO.C,C30*%
X64225000Y-92400000D03*
X65775000Y-92400000D03*
%TD*%
D86*
%TO.C,U21*%
X113475000Y-70000000D03*
X114125000Y-70000000D03*
X114775000Y-70000000D03*
X115425000Y-70000000D03*
X115425000Y-65600000D03*
X114775000Y-65600000D03*
X114125000Y-65600000D03*
X113475000Y-65600000D03*
%TD*%
D32*
%TO.C,J13*%
X95000000Y-98000000D03*
D33*
X92500000Y-98000000D03*
X90000000Y-98000000D03*
X87500000Y-98000000D03*
%TD*%
D41*
%TO.C,D17*%
X77450000Y-31000000D03*
X77450000Y-27700000D03*
%TD*%
D65*
%TO.C,C24*%
X80225000Y-92400000D03*
X81775000Y-92400000D03*
%TD*%
D85*
%TO.C,R114*%
X63625000Y-60650000D03*
X61975000Y-60650000D03*
%TD*%
D87*
%TO.C,D13*%
X84000000Y-87900000D03*
X90800000Y-87900000D03*
%TD*%
D68*
%TO.C,R113*%
X73275000Y-42350000D03*
X74925000Y-42350000D03*
%TD*%
D41*
%TO.C,D18*%
X62850000Y-31350000D03*
X62850000Y-28050000D03*
%TD*%
D28*
%TO.C,U4*%
X78075000Y-36855000D03*
X78075000Y-35585000D03*
X78075000Y-34315000D03*
X78075000Y-33045000D03*
X73125000Y-33045000D03*
X73125000Y-34315000D03*
X73125000Y-35585000D03*
X73125000Y-36855000D03*
%TD*%
D79*
%TO.C,R31*%
X79350000Y-29275000D03*
X79350000Y-27625000D03*
%TD*%
D41*
%TO.C,D16*%
X57500000Y-31350000D03*
X57500000Y-28050000D03*
%TD*%
D15*
%TO.C,PS1*%
X75125000Y-28255000D03*
X50475000Y-28255000D03*
X75125000Y-63945000D03*
X50475000Y-63945000D03*
%TD*%
M02*
