%TF.GenerationSoftware,KiCad,Pcbnew,9.0.3*%
%TF.CreationDate,2025-08-09T20:59:16+02:00*%
%TF.ProjectId,Bobbycontroller,426f6262-7963-46f6-9e74-726f6c6c6572,rev?*%
%TF.SameCoordinates,Original*%
%TF.FileFunction,Soldermask,Bot*%
%TF.FilePolarity,Negative*%
%FSLAX46Y46*%
G04 Gerber Fmt 4.6, Leading zero omitted, Abs format (unit mm)*
G04 Created by KiCad (PCBNEW 9.0.3) date 2025-08-09 20:59:16*
%MOMM*%
%LPD*%
G01*
G04 APERTURE LIST*
G04 Aperture macros list*
%AMRoundRect*
0 Rectangle with rounded corners*
0 $1 Rounding radius*
0 $2 $3 $4 $5 $6 $7 $8 $9 X,Y pos of 4 corners*
0 Add a 4 corners polygon primitive as box body*
4,1,4,$2,$3,$4,$5,$6,$7,$8,$9,$2,$3,0*
0 Add four circle primitives for the rounded corners*
1,1,$1+$1,$2,$3*
1,1,$1+$1,$4,$5*
1,1,$1+$1,$6,$7*
1,1,$1+$1,$8,$9*
0 Add four rect primitives between the rounded corners*
20,1,$1+$1,$2,$3,$4,$5,0*
20,1,$1+$1,$4,$5,$6,$7,0*
20,1,$1+$1,$6,$7,$8,$9,0*
20,1,$1+$1,$8,$9,$2,$3,0*%
%AMFreePoly0*
4,1,39,0.535355,0.785355,0.550000,0.750000,0.550000,-0.750000,0.535355,-0.785355,0.500000,-0.800000,0.000000,-0.800000,-0.010328,-0.795722,-0.065263,-0.795722,-0.078204,-0.794018,-0.204283,-0.760236,-0.216342,-0.755241,-0.329381,-0.689978,-0.339736,-0.682032,-0.432032,-0.589736,-0.439978,-0.579381,-0.505241,-0.466342,-0.510236,-0.454283,-0.544018,-0.328204,-0.545722,-0.315263,-0.545722,-0.260327,
-0.550000,-0.250000,-0.550000,0.250000,-0.545722,0.260327,-0.545722,0.315263,-0.544018,0.328204,-0.510236,0.454283,-0.505241,0.466342,-0.439978,0.579381,-0.432032,0.589736,-0.339736,0.682032,-0.329381,0.689978,-0.216342,0.755241,-0.204283,0.760236,-0.078204,0.794018,-0.065263,0.795722,-0.010328,0.795722,0.000000,0.800000,0.500000,0.800000,0.535355,0.785355,0.535355,0.785355,
$1*%
%AMFreePoly1*
4,1,39,0.010328,0.795722,0.065263,0.795722,0.078204,0.794018,0.204283,0.760236,0.216342,0.755241,0.329381,0.689978,0.339736,0.682032,0.432032,0.589736,0.439978,0.579381,0.505241,0.466342,0.510236,0.454283,0.544018,0.328204,0.545722,0.315263,0.545722,0.260327,0.550000,0.250000,0.550000,-0.250000,0.545722,-0.260327,0.545722,-0.315263,0.544018,-0.328204,0.510236,-0.454283,
0.505241,-0.466342,0.439978,-0.579381,0.432032,-0.589736,0.339736,-0.682032,0.329381,-0.689978,0.216342,-0.755241,0.204283,-0.760236,0.078204,-0.794018,0.065263,-0.795722,0.010328,-0.795722,0.000000,-0.800000,-0.500000,-0.800000,-0.535355,-0.785355,-0.550000,-0.750000,-0.550000,0.750000,-0.535355,0.785355,-0.500000,0.800000,0.000000,0.800000,0.010328,0.795722,0.010328,0.795722,
$1*%
G04 Aperture macros list end*
%ADD10RoundRect,0.050000X-0.800000X0.800000X-0.800000X-0.800000X0.800000X-0.800000X0.800000X0.800000X0*%
%ADD11C,1.700000*%
%ADD12RoundRect,0.050000X0.800000X0.800000X-0.800000X0.800000X-0.800000X-0.800000X0.800000X-0.800000X0*%
%ADD13RoundRect,0.050000X-0.800000X-0.800000X0.800000X-0.800000X0.800000X0.800000X-0.800000X0.800000X0*%
%ADD14RoundRect,0.050000X-1.000000X-1.000000X1.000000X-1.000000X1.000000X1.000000X-1.000000X1.000000X0*%
%ADD15C,2.100000*%
%ADD16RoundRect,0.050000X1.200000X-1.200000X1.200000X1.200000X-1.200000X1.200000X-1.200000X-1.200000X0*%
%ADD17C,2.500000*%
%ADD18C,4.100000*%
%ADD19RoundRect,0.264706X0.635294X0.760294X-0.635294X0.760294X-0.635294X-0.760294X0.635294X-0.760294X0*%
%ADD20O,1.800000X2.050000*%
%ADD21RoundRect,0.050000X0.850000X0.850000X-0.850000X0.850000X-0.850000X-0.850000X0.850000X-0.850000X0*%
%ADD22O,1.800000X1.800000*%
%ADD23RoundRect,0.050000X1.000000X-1.000000X1.000000X1.000000X-1.000000X1.000000X-1.000000X-1.000000X0*%
%ADD24C,5.500000*%
%ADD25C,1.000000*%
%ADD26C,2.700000*%
%ADD27RoundRect,0.264706X-0.635294X-0.785294X0.635294X-0.785294X0.635294X0.785294X-0.635294X0.785294X0*%
%ADD28O,1.800000X2.100000*%
%ADD29RoundRect,0.264706X0.760294X-0.635294X0.760294X0.635294X-0.760294X0.635294X-0.760294X-0.635294X0*%
%ADD30O,2.050000X1.800000*%
%ADD31RoundRect,0.050000X2.300000X0.550000X-2.300000X0.550000X-2.300000X-0.550000X2.300000X-0.550000X0*%
%ADD32RoundRect,0.050000X4.700000X5.400000X-4.700000X5.400000X-4.700000X-5.400000X4.700000X-5.400000X0*%
%ADD33RoundRect,0.050000X-2.300000X-0.550000X2.300000X-0.550000X2.300000X0.550000X-2.300000X0.550000X0*%
%ADD34RoundRect,0.050000X-4.700000X-5.400000X4.700000X-5.400000X4.700000X5.400000X-4.700000X5.400000X0*%
%ADD35RoundRect,0.270000X0.405000X0.655000X-0.405000X0.655000X-0.405000X-0.655000X0.405000X-0.655000X0*%
%ADD36RoundRect,0.270000X-0.405000X-0.655000X0.405000X-0.655000X0.405000X0.655000X-0.405000X0.655000X0*%
%ADD37RoundRect,0.270000X0.655000X-0.405000X0.655000X0.405000X-0.655000X0.405000X-0.655000X-0.405000X0*%
%ADD38RoundRect,0.050000X1.000000X0.450000X-1.000000X0.450000X-1.000000X-0.450000X1.000000X-0.450000X0*%
%ADD39RoundRect,0.050000X0.450000X-1.000000X0.450000X1.000000X-0.450000X1.000000X-0.450000X-1.000000X0*%
%ADD40RoundRect,0.050000X2.500000X2.500000X-2.500000X2.500000X-2.500000X-2.500000X2.500000X-2.500000X0*%
%ADD41RoundRect,0.264706X-0.760294X0.635294X-0.760294X-0.635294X0.760294X-0.635294X0.760294X0.635294X0*%
%ADD42RoundRect,0.450000X-0.575000X0.450000X-0.575000X-0.450000X0.575000X-0.450000X0.575000X0.450000X0*%
%ADD43FreePoly0,180.000000*%
%ADD44FreePoly1,180.000000*%
G04 APERTURE END LIST*
D10*
%TO.C,C42*%
X101000000Y-93000000D03*
D11*
X101000000Y-96500000D03*
%TD*%
D12*
%TO.C,C43*%
X116000000Y-60000000D03*
D11*
X112500000Y-60000000D03*
%TD*%
D10*
%TO.C,C46*%
X39000000Y-67000000D03*
D11*
X39000000Y-70500000D03*
%TD*%
D12*
%TO.C,C47*%
X116000000Y-34000000D03*
D11*
X112500000Y-34000000D03*
%TD*%
D10*
%TO.C,C62*%
X39000000Y-41000000D03*
D11*
X39000000Y-44500000D03*
%TD*%
D13*
%TO.C,C63*%
X24000000Y-86000000D03*
D11*
X27500000Y-86000000D03*
%TD*%
D10*
%TO.C,C66*%
X101590000Y-65840000D03*
D11*
X101590000Y-69340000D03*
%TD*%
D13*
%TO.C,C67*%
X24000000Y-60000000D03*
D11*
X27500000Y-60000000D03*
%TD*%
D13*
%TO.C,C71*%
X24000000Y-34000000D03*
D11*
X27500000Y-34000000D03*
%TD*%
D14*
%TO.C,C85*%
X89400000Y-65050000D03*
D15*
X94400000Y-65050000D03*
%TD*%
D16*
%TO.C,C3*%
X82690000Y-19887918D03*
D17*
X82690000Y-14887918D03*
%TD*%
D16*
%TO.C,C6*%
X96740000Y-19887918D03*
D17*
X96740000Y-14887918D03*
%TD*%
D16*
%TO.C,C14*%
X57240000Y-19987918D03*
D17*
X57240000Y-14987918D03*
%TD*%
D12*
%TO.C,C41*%
X125000000Y-60000000D03*
D11*
X121500000Y-60000000D03*
%TD*%
D12*
%TO.C,C45*%
X125000000Y-86000000D03*
D11*
X121500000Y-86000000D03*
%TD*%
D12*
%TO.C,C49*%
X125000000Y-34000000D03*
D11*
X121500000Y-34000000D03*
%TD*%
D13*
%TO.C,C65*%
X15000000Y-34000000D03*
D11*
X18500000Y-34000000D03*
%TD*%
D13*
%TO.C,C69*%
X15000000Y-86000000D03*
D11*
X18500000Y-86000000D03*
%TD*%
D13*
%TO.C,C73*%
X15000000Y-60000000D03*
D11*
X18500000Y-60000000D03*
%TD*%
D14*
%TO.C,C83*%
X82200000Y-40100000D03*
D15*
X87200000Y-40100000D03*
%TD*%
D18*
%TO.C,J4*%
X32000000Y-85000000D03*
%TD*%
%TO.C,J5*%
X32000000Y-59000000D03*
%TD*%
D14*
%TO.C,LS1*%
X46550000Y-88500000D03*
D15*
X53050000Y-88500000D03*
%TD*%
D18*
%TO.C,J6*%
X32000000Y-33000000D03*
%TD*%
%TO.C,J3*%
X108000000Y-35000000D03*
%TD*%
%TO.C,J2*%
X108000000Y-61000000D03*
%TD*%
%TO.C,J1*%
X108000000Y-87000000D03*
%TD*%
D12*
%TO.C,C39*%
X116000000Y-86000000D03*
D11*
X112500000Y-86000000D03*
%TD*%
D10*
%TO.C,C70*%
X35900000Y-93950000D03*
D11*
X35900000Y-97450000D03*
%TD*%
D19*
%TO.C,HALL_L1*%
X82000000Y-98000000D03*
D20*
X79500000Y-98000000D03*
X77000000Y-98000000D03*
X74500000Y-98000000D03*
X72000000Y-98000000D03*
%TD*%
D19*
%TO.C,J14*%
X50700000Y-98000000D03*
D20*
X48200000Y-98000000D03*
X45700000Y-98000000D03*
X43200000Y-98000000D03*
%TD*%
D16*
%TO.C,C11*%
X43190000Y-19987918D03*
D17*
X43190000Y-14987918D03*
%TD*%
D21*
%TO.C,J17*%
X79320000Y-79910000D03*
D22*
X79320000Y-77370000D03*
X79320000Y-74830000D03*
X79320000Y-72290000D03*
%TD*%
D19*
%TO.C,HALL_R1*%
X66000000Y-98000000D03*
D20*
X63500000Y-98000000D03*
X61000000Y-98000000D03*
X58500000Y-98000000D03*
X56000000Y-98000000D03*
%TD*%
D10*
%TO.C,C38*%
X101000000Y-40500000D03*
D11*
X101000000Y-44000000D03*
%TD*%
D23*
%TO.C,C78*%
X88700000Y-32700000D03*
D15*
X88700000Y-27700000D03*
%TD*%
D24*
%TO.C,J7*%
X70000000Y-13400000D03*
%TD*%
D25*
%TO.C,J9*%
X11000000Y-14000000D03*
X11878680Y-11878680D03*
X14000000Y-11000000D03*
%TD*%
%TO.C,J11*%
X129000000Y-96000000D03*
X128121320Y-98121320D03*
X126000000Y-99000000D03*
%TD*%
%TO.C,J12*%
X14000000Y-99000000D03*
X11878680Y-98121320D03*
X11000000Y-96000000D03*
%TD*%
%TO.C,J10*%
X126000000Y-11000000D03*
X128121320Y-11878680D03*
X129000000Y-14000000D03*
%TD*%
D24*
%TO.C,J8*%
X70000000Y-22000000D03*
%TD*%
D11*
%TO.C,RV3*%
X123554972Y-24108791D03*
X121301028Y-16531209D03*
%TD*%
%TO.C,RV4*%
X23093534Y-19060233D03*
X16022466Y-22595767D03*
%TD*%
%TO.C,RV6*%
X12720000Y-50740000D03*
X15220000Y-43240000D03*
%TD*%
%TO.C,RV5*%
X12974000Y-76648000D03*
X15474000Y-69148000D03*
%TD*%
%TO.C,RV2*%
X124988000Y-76648000D03*
X127488000Y-69148000D03*
%TD*%
%TO.C,RV1*%
X124988000Y-50740000D03*
X127488000Y-43240000D03*
%TD*%
D26*
%TO.C,J18*%
X52500000Y-71250000D03*
%TD*%
D27*
%TO.C,J19*%
X38000000Y-26675000D03*
D28*
X40500000Y-26675000D03*
%TD*%
D29*
%TO.C,J16*%
X99875000Y-81600000D03*
D30*
X99875000Y-79100000D03*
X99875000Y-76600000D03*
X99875000Y-74100000D03*
%TD*%
D29*
%TO.C,J15*%
X93800000Y-81600000D03*
D30*
X93800000Y-79100000D03*
X93800000Y-76600000D03*
X93800000Y-74100000D03*
%TD*%
D19*
%TO.C,J13*%
X95000000Y-98000000D03*
D20*
X92500000Y-98000000D03*
X90000000Y-98000000D03*
X87500000Y-98000000D03*
%TD*%
D31*
%TO.C,V8*%
X31775000Y-76460000D03*
D32*
X22625000Y-79000000D03*
D31*
X31775000Y-81540000D03*
%TD*%
D33*
%TO.C,V9*%
X20225000Y-95540000D03*
D34*
X29375000Y-93000000D03*
D33*
X20225000Y-90460000D03*
%TD*%
D31*
%TO.C,V10*%
X31775000Y-50460000D03*
D32*
X22625000Y-53000000D03*
D31*
X31775000Y-55540000D03*
%TD*%
D33*
%TO.C,V11*%
X20225000Y-69540000D03*
D34*
X29375000Y-67000000D03*
D33*
X20225000Y-64460000D03*
%TD*%
%TO.C,V13*%
X20225000Y-43540000D03*
D34*
X29375000Y-41000000D03*
D33*
X20225000Y-38460000D03*
%TD*%
D31*
%TO.C,V12*%
X31775000Y-24460000D03*
D32*
X22625000Y-27000000D03*
D31*
X31775000Y-29540000D03*
%TD*%
D33*
%TO.C,V5*%
X108225000Y-43540000D03*
D34*
X117375000Y-41000000D03*
D33*
X108225000Y-38460000D03*
%TD*%
D31*
%TO.C,V2*%
X119775000Y-76460000D03*
D32*
X110625000Y-79000000D03*
D31*
X119775000Y-81540000D03*
%TD*%
%TO.C,V6*%
X119775000Y-24460000D03*
D32*
X110625000Y-27000000D03*
D31*
X119775000Y-29540000D03*
%TD*%
D33*
%TO.C,V3*%
X108225000Y-69540000D03*
D34*
X117375000Y-67000000D03*
D33*
X108225000Y-64460000D03*
%TD*%
D31*
%TO.C,V4*%
X119775000Y-50460000D03*
D32*
X110625000Y-53000000D03*
D31*
X119775000Y-55540000D03*
%TD*%
D33*
%TO.C,V1*%
X108225000Y-95540000D03*
D34*
X117375000Y-93000000D03*
D33*
X108225000Y-90460000D03*
%TD*%
D35*
%TO.C,C40*%
X124700000Y-31500000D03*
X121900000Y-31500000D03*
%TD*%
%TO.C,C44*%
X124700000Y-83500000D03*
X121900000Y-83500000D03*
%TD*%
%TO.C,C48*%
X124700000Y-57500000D03*
X121900000Y-57500000D03*
%TD*%
D36*
%TO.C,C64*%
X15800000Y-62600000D03*
X18600000Y-62600000D03*
%TD*%
%TO.C,C68*%
X15700000Y-88400000D03*
X18500000Y-88400000D03*
%TD*%
%TO.C,C72*%
X15800000Y-36500000D03*
X18600000Y-36500000D03*
%TD*%
D37*
%TO.C,C7*%
X51300000Y-17890000D03*
X51300000Y-15090000D03*
%TD*%
%TO.C,C10*%
X49000000Y-17890000D03*
X49000000Y-15090000D03*
%TD*%
%TO.C,C18*%
X60330000Y-17980000D03*
X60330000Y-15180000D03*
%TD*%
%TO.C,C17*%
X77300000Y-17900000D03*
X77300000Y-15100000D03*
%TD*%
%TO.C,C16*%
X62600000Y-17980000D03*
X62600000Y-15180000D03*
%TD*%
%TO.C,C13*%
X79600000Y-17900000D03*
X79600000Y-15100000D03*
%TD*%
%TO.C,C8*%
X75000000Y-17900000D03*
X75000000Y-15100000D03*
%TD*%
%TO.C,C4*%
X53600000Y-17900000D03*
X53600000Y-15100000D03*
%TD*%
%TO.C,C12*%
X64900000Y-17980000D03*
X64900000Y-15180000D03*
%TD*%
%TO.C,C9*%
X86600000Y-17900000D03*
X86600000Y-15100000D03*
%TD*%
%TO.C,C5*%
X88820000Y-17900000D03*
X88820000Y-15100000D03*
%TD*%
%TO.C,C2*%
X91100000Y-17900000D03*
X91100000Y-15100000D03*
%TD*%
%TO.C,C1*%
X93400000Y-17900000D03*
X93400000Y-15100000D03*
%TD*%
%TO.C,C15*%
X46700000Y-17900000D03*
X46700000Y-15100000D03*
%TD*%
D38*
%TO.C,U18*%
X78500000Y-40995000D03*
X78500000Y-42265000D03*
X78500000Y-43535000D03*
X78500000Y-44805000D03*
X78500000Y-46075000D03*
X78500000Y-47345000D03*
X78500000Y-48615000D03*
X78500000Y-49885000D03*
X78500000Y-51155000D03*
X78500000Y-52425000D03*
X78500000Y-53695000D03*
X78500000Y-54965000D03*
X78500000Y-56235000D03*
X78500000Y-57505000D03*
D39*
X75715000Y-58505000D03*
X74445000Y-58505000D03*
X73175000Y-58505000D03*
X71905000Y-58505000D03*
X70635000Y-58505000D03*
X69365000Y-58505000D03*
X68095000Y-58505000D03*
X66825000Y-58505000D03*
X65555000Y-58505000D03*
X64285000Y-58505000D03*
D38*
X61500000Y-57505000D03*
X61500000Y-56235000D03*
X61500000Y-54965000D03*
X61500000Y-53695000D03*
X61500000Y-52425000D03*
X61500000Y-51155000D03*
X61500000Y-49885000D03*
X61500000Y-48615000D03*
X61500000Y-47345000D03*
X61500000Y-46075000D03*
X61500000Y-44805000D03*
X61500000Y-43535000D03*
X61500000Y-42265000D03*
X61500000Y-40995000D03*
D40*
X71000000Y-48495000D03*
%TD*%
D41*
%TO.C,J20*%
X58300000Y-41000000D03*
X58300000Y-43500000D03*
X58300000Y-46000000D03*
D42*
X58300000Y-48500000D03*
X58300000Y-51000000D03*
X58300000Y-53500000D03*
%TD*%
D15*
%TO.C,PS1*%
X75125000Y-28255000D03*
X50475000Y-28255000D03*
X75125000Y-63945000D03*
X50475000Y-63945000D03*
%TD*%
D43*
%TO.C,JP3*%
X40050000Y-29050000D03*
D44*
X38750000Y-29050000D03*
%TD*%
M02*
