%TF.GenerationSoftware,KiCad,Pcbnew,(6.0.0)*%
%TF.CreationDate,2022-06-09T22:04:04+02:00*%
%TF.ProjectId,Bobbycontroller,426f6262-7963-46f6-9e74-726f6c6c6572,rev?*%
%TF.SameCoordinates,Original*%
%TF.FileFunction,Paste,Top*%
%TF.FilePolarity,Positive*%
%FSLAX46Y46*%
G04 Gerber Fmt 4.6, Leading zero omitted, Abs format (unit mm)*
G04 Created by KiCad (PCBNEW (6.0.0)) date 2022-06-09 22:04:04*
%MOMM*%
%LPD*%
G01*
G04 APERTURE LIST*
G04 Aperture macros list*
%AMRoundRect*
0 Rectangle with rounded corners*
0 $1 Rounding radius*
0 $2 $3 $4 $5 $6 $7 $8 $9 X,Y pos of 4 corners*
0 Add a 4 corners polygon primitive as box body*
4,1,4,$2,$3,$4,$5,$6,$7,$8,$9,$2,$3,0*
0 Add four circle primitives for the rounded corners*
1,1,$1+$1,$2,$3*
1,1,$1+$1,$4,$5*
1,1,$1+$1,$6,$7*
1,1,$1+$1,$8,$9*
0 Add four rect primitives between the rounded corners*
20,1,$1+$1,$2,$3,$4,$5,0*
20,1,$1+$1,$4,$5,$6,$7,0*
20,1,$1+$1,$6,$7,$8,$9,0*
20,1,$1+$1,$8,$9,$2,$3,0*%
G04 Aperture macros list end*
%ADD10RoundRect,0.250000X0.375000X0.625000X-0.375000X0.625000X-0.375000X-0.625000X0.375000X-0.625000X0*%
%ADD11RoundRect,0.249999X0.425001X1.425001X-0.425001X1.425001X-0.425001X-1.425001X0.425001X-1.425001X0*%
%ADD12RoundRect,0.249999X-0.425001X-1.425001X0.425001X-1.425001X0.425001X1.425001X-0.425001X1.425001X0*%
%ADD13R,2.000000X1.500000*%
%ADD14R,2.000000X3.800000*%
%ADD15RoundRect,0.075000X-0.700000X-0.075000X0.700000X-0.075000X0.700000X0.075000X-0.700000X0.075000X0*%
%ADD16RoundRect,0.075000X-0.075000X-0.700000X0.075000X-0.700000X0.075000X0.700000X-0.075000X0.700000X0*%
%ADD17RoundRect,0.150000X-0.150000X0.825000X-0.150000X-0.825000X0.150000X-0.825000X0.150000X0.825000X0*%
%ADD18RoundRect,0.150000X-0.825000X-0.150000X0.825000X-0.150000X0.825000X0.150000X-0.825000X0.150000X0*%
%ADD19RoundRect,0.150000X0.825000X0.150000X-0.825000X0.150000X-0.825000X-0.150000X0.825000X-0.150000X0*%
%ADD20R,3.300000X2.500000*%
%ADD21R,2.300000X2.500000*%
%ADD22RoundRect,0.218750X-0.218750X-0.256250X0.218750X-0.256250X0.218750X0.256250X-0.218750X0.256250X0*%
%ADD23RoundRect,0.218750X0.218750X0.256250X-0.218750X0.256250X-0.218750X-0.256250X0.218750X-0.256250X0*%
%ADD24RoundRect,0.218750X0.256250X-0.218750X0.256250X0.218750X-0.256250X0.218750X-0.256250X-0.218750X0*%
%ADD25RoundRect,0.218750X-0.256250X0.218750X-0.256250X-0.218750X0.256250X-0.218750X0.256250X0.218750X0*%
%ADD26R,0.900000X1.200000*%
%ADD27R,0.900000X0.800000*%
%ADD28RoundRect,0.250000X-0.375000X-0.625000X0.375000X-0.625000X0.375000X0.625000X-0.375000X0.625000X0*%
%ADD29R,1.200000X0.900000*%
%ADD30RoundRect,0.243750X-0.243750X-0.456250X0.243750X-0.456250X0.243750X0.456250X-0.243750X0.456250X0*%
%ADD31RoundRect,0.243750X-0.456250X0.243750X-0.456250X-0.243750X0.456250X-0.243750X0.456250X0.243750X0*%
%ADD32RoundRect,0.243750X0.456250X-0.243750X0.456250X0.243750X-0.456250X0.243750X-0.456250X-0.243750X0*%
%ADD33RoundRect,0.250000X0.625000X-0.375000X0.625000X0.375000X-0.625000X0.375000X-0.625000X-0.375000X0*%
%ADD34R,5.250000X4.550000*%
%ADD35R,1.100000X4.600000*%
%ADD36R,0.650000X1.060000*%
%ADD37R,1.060000X0.650000*%
%ADD38R,2.500000X2.300000*%
%ADD39R,1.000000X0.900000*%
%ADD40RoundRect,0.250000X-0.625000X0.375000X-0.625000X-0.375000X0.625000X-0.375000X0.625000X0.375000X0*%
%ADD41RoundRect,0.225000X-0.250000X0.225000X-0.250000X-0.225000X0.250000X-0.225000X0.250000X0.225000X0*%
%ADD42RoundRect,0.249999X-1.100001X0.325001X-1.100001X-0.325001X1.100001X-0.325001X1.100001X0.325001X0*%
%ADD43RoundRect,0.249999X-0.325001X-1.100001X0.325001X-1.100001X0.325001X1.100001X-0.325001X1.100001X0*%
%ADD44RoundRect,0.225000X-0.225000X-0.250000X0.225000X-0.250000X0.225000X0.250000X-0.225000X0.250000X0*%
%ADD45RoundRect,0.250000X-0.250000X-0.475000X0.250000X-0.475000X0.250000X0.475000X-0.250000X0.475000X0*%
%ADD46RoundRect,0.200000X-0.200000X-0.275000X0.200000X-0.275000X0.200000X0.275000X-0.200000X0.275000X0*%
%ADD47RoundRect,0.249997X-0.312503X-0.625003X0.312503X-0.625003X0.312503X0.625003X-0.312503X0.625003X0*%
%ADD48R,0.800000X0.900000*%
%ADD49R,2.750000X3.050000*%
%ADD50R,1.200000X2.200000*%
%ADD51R,0.450000X0.600000*%
%ADD52RoundRect,0.225000X0.225000X0.250000X-0.225000X0.250000X-0.225000X-0.250000X0.225000X-0.250000X0*%
%ADD53RoundRect,0.250000X-0.475000X0.250000X-0.475000X-0.250000X0.475000X-0.250000X0.475000X0.250000X0*%
%ADD54RoundRect,0.200000X0.275000X-0.200000X0.275000X0.200000X-0.275000X0.200000X-0.275000X-0.200000X0*%
%ADD55RoundRect,0.200000X-0.275000X0.200000X-0.275000X-0.200000X0.275000X-0.200000X0.275000X0.200000X0*%
%ADD56R,0.450000X1.450000*%
%ADD57RoundRect,0.225000X0.250000X-0.225000X0.250000X0.225000X-0.250000X0.225000X-0.250000X-0.225000X0*%
%ADD58RoundRect,0.200000X0.200000X0.275000X-0.200000X0.275000X-0.200000X-0.275000X0.200000X-0.275000X0*%
%ADD59R,2.500000X3.300000*%
G04 APERTURE END LIST*
D10*
%TO.C,R47*%
X115400000Y-76000000D03*
X112600000Y-76000000D03*
%TD*%
%TO.C,R46*%
X109500000Y-93000000D03*
X106700000Y-93000000D03*
%TD*%
%TO.C,R52*%
X109604000Y-67000000D03*
X106804000Y-67000000D03*
%TD*%
%TO.C,R53*%
X115400000Y-51000000D03*
X112600000Y-51000000D03*
%TD*%
%TO.C,R58*%
X109500000Y-41000000D03*
X106700000Y-41000000D03*
%TD*%
D11*
%TO.C,R3*%
X110830000Y-18890000D03*
X105030000Y-18890000D03*
%TD*%
D12*
%TO.C,R4*%
X29480000Y-19000000D03*
X35280000Y-19000000D03*
%TD*%
D11*
%TO.C,R1*%
X110830000Y-14000000D03*
X105030000Y-14000000D03*
%TD*%
D12*
%TO.C,R2*%
X29480000Y-14110000D03*
X35280000Y-14110000D03*
%TD*%
D13*
%TO.C,U17*%
X72350000Y-63600000D03*
D14*
X66050000Y-61300000D03*
D13*
X72350000Y-61300000D03*
X72350000Y-59000000D03*
%TD*%
D15*
%TO.C,U10*%
X60775000Y-72080000D03*
X60775000Y-72580000D03*
X60775000Y-73080000D03*
X60775000Y-73580000D03*
X60775000Y-74080000D03*
X60775000Y-74580000D03*
X60775000Y-75080000D03*
X60775000Y-75580000D03*
X60775000Y-76080000D03*
X60775000Y-76580000D03*
X60775000Y-77080000D03*
X60775000Y-77580000D03*
X60775000Y-78080000D03*
X60775000Y-78580000D03*
X60775000Y-79080000D03*
X60775000Y-79580000D03*
D16*
X62700000Y-81505000D03*
X63200000Y-81505000D03*
X63700000Y-81505000D03*
X64200000Y-81505000D03*
X64700000Y-81505000D03*
X65200000Y-81505000D03*
X65700000Y-81505000D03*
X66200000Y-81505000D03*
X66700000Y-81505000D03*
X67200000Y-81505000D03*
X67700000Y-81505000D03*
X68200000Y-81505000D03*
X68700000Y-81505000D03*
X69200000Y-81505000D03*
X69700000Y-81505000D03*
X70200000Y-81505000D03*
D15*
X72125000Y-79580000D03*
X72125000Y-79080000D03*
X72125000Y-78580000D03*
X72125000Y-78080000D03*
X72125000Y-77580000D03*
X72125000Y-77080000D03*
X72125000Y-76580000D03*
X72125000Y-76080000D03*
X72125000Y-75580000D03*
X72125000Y-75080000D03*
X72125000Y-74580000D03*
X72125000Y-74080000D03*
X72125000Y-73580000D03*
X72125000Y-73080000D03*
X72125000Y-72580000D03*
X72125000Y-72080000D03*
D16*
X70200000Y-70155000D03*
X69700000Y-70155000D03*
X69200000Y-70155000D03*
X68700000Y-70155000D03*
X68200000Y-70155000D03*
X67700000Y-70155000D03*
X67200000Y-70155000D03*
X66700000Y-70155000D03*
X66200000Y-70155000D03*
X65700000Y-70155000D03*
X65200000Y-70155000D03*
X64700000Y-70155000D03*
X64200000Y-70155000D03*
X63700000Y-70155000D03*
X63200000Y-70155000D03*
X62700000Y-70155000D03*
%TD*%
D17*
%TO.C,U15*%
X47755000Y-49375000D03*
X46485000Y-49375000D03*
X45215000Y-49375000D03*
X43945000Y-49375000D03*
X43945000Y-54325000D03*
X45215000Y-54325000D03*
X46485000Y-54325000D03*
X47755000Y-54325000D03*
%TD*%
%TO.C,U9*%
X95155000Y-46125000D03*
X93885000Y-46125000D03*
X92615000Y-46125000D03*
X91345000Y-46125000D03*
X91345000Y-51075000D03*
X92615000Y-51075000D03*
X93885000Y-51075000D03*
X95155000Y-51075000D03*
%TD*%
D18*
%TO.C,U6*%
X98525000Y-85095000D03*
X98525000Y-86365000D03*
X98525000Y-87635000D03*
X98525000Y-88905000D03*
X103475000Y-88905000D03*
X103475000Y-87635000D03*
X103475000Y-86365000D03*
X103475000Y-85095000D03*
%TD*%
%TO.C,U7*%
X98525000Y-59095000D03*
X98525000Y-60365000D03*
X98525000Y-61635000D03*
X98525000Y-62905000D03*
X103475000Y-62905000D03*
X103475000Y-61635000D03*
X103475000Y-60365000D03*
X103475000Y-59095000D03*
%TD*%
%TO.C,U8*%
X98525000Y-33095000D03*
X98525000Y-34365000D03*
X98525000Y-35635000D03*
X98525000Y-36905000D03*
X103475000Y-36905000D03*
X103475000Y-35635000D03*
X103475000Y-34365000D03*
X103475000Y-33095000D03*
%TD*%
D19*
%TO.C,U12*%
X41475000Y-86405000D03*
X41475000Y-85135000D03*
X41475000Y-83865000D03*
X41475000Y-82595000D03*
X36525000Y-82595000D03*
X36525000Y-83865000D03*
X36525000Y-85135000D03*
X36525000Y-86405000D03*
%TD*%
%TO.C,U14*%
X41475000Y-34905000D03*
X41475000Y-33635000D03*
X41475000Y-32365000D03*
X41475000Y-31095000D03*
X36525000Y-31095000D03*
X36525000Y-32365000D03*
X36525000Y-33635000D03*
X36525000Y-34905000D03*
%TD*%
D18*
%TO.C,U5*%
X61575000Y-33045000D03*
X61575000Y-34315000D03*
X61575000Y-35585000D03*
X61575000Y-36855000D03*
X66525000Y-36855000D03*
X66525000Y-35585000D03*
X66525000Y-34315000D03*
X66525000Y-33045000D03*
%TD*%
D10*
%TO.C,R59*%
X115400000Y-25000000D03*
X112600000Y-25000000D03*
%TD*%
D20*
%TO.C,D39*%
X57600000Y-39950000D03*
X57600000Y-46750000D03*
%TD*%
D21*
%TO.C,D41*%
X73500000Y-44800000D03*
X73500000Y-49100000D03*
%TD*%
D22*
%TO.C,R70*%
X55462500Y-76000000D03*
X57037500Y-76000000D03*
%TD*%
D23*
%TO.C,C23*%
X71337500Y-94500000D03*
X69762500Y-94500000D03*
%TD*%
D24*
%TO.C,C79*%
X89250000Y-59787500D03*
X89250000Y-58212500D03*
%TD*%
D25*
%TO.C,C50*%
X96100000Y-54412500D03*
X96100000Y-55987500D03*
%TD*%
D24*
%TO.C,C74*%
X49850000Y-54137500D03*
X49850000Y-52562500D03*
%TD*%
%TO.C,C33*%
X68650000Y-32687500D03*
X68650000Y-31112500D03*
%TD*%
D25*
%TO.C,D27*%
X95250000Y-88462500D03*
X95250000Y-90037500D03*
%TD*%
D26*
%TO.C,D20*%
X104150000Y-57000000D03*
X100850000Y-57000000D03*
%TD*%
%TO.C,D21*%
X104150000Y-31000000D03*
X100850000Y-31000000D03*
%TD*%
%TO.C,D32*%
X35850000Y-88500000D03*
X39150000Y-88500000D03*
%TD*%
%TO.C,D33*%
X35850000Y-63000000D03*
X39150000Y-63000000D03*
%TD*%
%TO.C,D34*%
X35850000Y-37000000D03*
X39150000Y-37000000D03*
%TD*%
%TO.C,D2*%
X67750000Y-90150000D03*
X71050000Y-90150000D03*
%TD*%
%TO.C,D26*%
X48850000Y-86000000D03*
X52150000Y-86000000D03*
%TD*%
D27*
%TO.C,Q1*%
X50500000Y-91050000D03*
X50500000Y-92950000D03*
X52500000Y-92000000D03*
%TD*%
D23*
%TO.C,R60*%
X97837500Y-30950000D03*
X96262500Y-30950000D03*
%TD*%
%TO.C,R61*%
X97837500Y-29300000D03*
X96262500Y-29300000D03*
%TD*%
%TO.C,R62*%
X101000000Y-50000000D03*
X99425000Y-50000000D03*
%TD*%
%TO.C,R63*%
X100987500Y-51550000D03*
X99412500Y-51550000D03*
%TD*%
D25*
%TO.C,R64*%
X94650000Y-30962500D03*
X94650000Y-32537500D03*
%TD*%
%TO.C,R66*%
X89700000Y-47612500D03*
X89700000Y-49187500D03*
%TD*%
D22*
%TO.C,R67*%
X91312500Y-57800000D03*
X92887500Y-57800000D03*
%TD*%
D24*
%TO.C,R68*%
X95850000Y-44037500D03*
X95850000Y-42462500D03*
%TD*%
D25*
%TO.C,R69*%
X94550000Y-53162500D03*
X94550000Y-54737500D03*
%TD*%
D28*
%TO.C,R85*%
X30600000Y-79000000D03*
X33400000Y-79000000D03*
%TD*%
%TO.C,R86*%
X24100000Y-95500000D03*
X26900000Y-95500000D03*
%TD*%
D22*
%TO.C,R105*%
X46200000Y-41700000D03*
X47775000Y-41700000D03*
%TD*%
D25*
%TO.C,R103*%
X44400000Y-39962500D03*
X44400000Y-41537500D03*
%TD*%
D22*
%TO.C,R99*%
X42862500Y-38450000D03*
X44437500Y-38450000D03*
%TD*%
D24*
%TO.C,R107*%
X48800000Y-46637500D03*
X48800000Y-45062500D03*
%TD*%
D22*
%TO.C,R100*%
X42862500Y-36900000D03*
X44437500Y-36900000D03*
%TD*%
D24*
%TO.C,R106*%
X48850000Y-58587500D03*
X48850000Y-57012500D03*
%TD*%
D28*
%TO.C,R91*%
X30600000Y-53000000D03*
X33400000Y-53000000D03*
%TD*%
D22*
%TO.C,R101*%
X43112500Y-64600000D03*
X44687500Y-64600000D03*
%TD*%
D23*
%TO.C,R108*%
X47637500Y-61450000D03*
X46062500Y-61450000D03*
%TD*%
D22*
%TO.C,R102*%
X43112500Y-63000000D03*
X44687500Y-63000000D03*
%TD*%
D28*
%TO.C,R92*%
X24600000Y-69050000D03*
X27400000Y-69050000D03*
%TD*%
%TO.C,R97*%
X30600000Y-27000000D03*
X33400000Y-27000000D03*
%TD*%
%TO.C,R98*%
X24100000Y-43500000D03*
X26900000Y-43500000D03*
%TD*%
D25*
%TO.C,R9*%
X45800000Y-94212500D03*
X45800000Y-95787500D03*
%TD*%
%TO.C,R15*%
X47900000Y-94212500D03*
X47900000Y-95787500D03*
%TD*%
D24*
%TO.C,R110*%
X52525000Y-28737500D03*
X52525000Y-27162500D03*
%TD*%
D25*
%TO.C,R111*%
X54025000Y-27162500D03*
X54025000Y-28737500D03*
%TD*%
%TO.C,R112*%
X55525000Y-27162500D03*
X55525000Y-28737500D03*
%TD*%
D24*
%TO.C,R73*%
X48000000Y-92787500D03*
X48000000Y-91212500D03*
%TD*%
D25*
%TO.C,R10*%
X81500000Y-93712500D03*
X81500000Y-95287500D03*
%TD*%
%TO.C,R18*%
X61800000Y-93712500D03*
X61800000Y-95287500D03*
%TD*%
%TO.C,R21*%
X75100000Y-93712500D03*
X75100000Y-95287500D03*
%TD*%
%TO.C,R22*%
X65000000Y-93712500D03*
X65000000Y-95287500D03*
%TD*%
D24*
%TO.C,R29*%
X63400000Y-95287500D03*
X63400000Y-93712500D03*
%TD*%
%TO.C,R26*%
X76700000Y-95287500D03*
X76700000Y-93712500D03*
%TD*%
%TO.C,R27*%
X60200000Y-95287500D03*
X60200000Y-93712500D03*
%TD*%
%TO.C,R23*%
X79900000Y-95287500D03*
X79900000Y-93712500D03*
%TD*%
%TO.C,R24*%
X57000000Y-95287500D03*
X57000000Y-93712500D03*
%TD*%
D22*
%TO.C,R35*%
X59362500Y-31250000D03*
X60937500Y-31250000D03*
%TD*%
D24*
%TO.C,R41*%
X68650000Y-35637500D03*
X68650000Y-34062500D03*
%TD*%
%TO.C,R33*%
X60900000Y-29587500D03*
X60900000Y-28012500D03*
%TD*%
D25*
%TO.C,C52*%
X58600000Y-75112500D03*
X58600000Y-76687500D03*
%TD*%
D22*
%TO.C,C22*%
X66712500Y-94500000D03*
X68287500Y-94500000D03*
%TD*%
D26*
%TO.C,D1*%
X67750000Y-92550000D03*
X71050000Y-92550000D03*
%TD*%
D24*
%TO.C,D5*%
X81500000Y-91087500D03*
X81500000Y-89512500D03*
%TD*%
%TO.C,D6*%
X58587500Y-91100000D03*
X58587500Y-89525000D03*
%TD*%
%TO.C,D7*%
X78300000Y-91087500D03*
X78300000Y-89512500D03*
%TD*%
%TO.C,D8*%
X61800000Y-91087500D03*
X61800000Y-89512500D03*
%TD*%
%TO.C,D10*%
X65000000Y-91087500D03*
X65000000Y-89512500D03*
%TD*%
D10*
%TO.C,R44*%
X109450000Y-96600000D03*
X106650000Y-96600000D03*
%TD*%
%TO.C,R45*%
X115400000Y-73650000D03*
X112600000Y-73650000D03*
%TD*%
%TO.C,R51*%
X115400000Y-48600000D03*
X112600000Y-48600000D03*
%TD*%
%TO.C,R56*%
X109500000Y-44100000D03*
X106700000Y-44100000D03*
%TD*%
%TO.C,R57*%
X115400000Y-22650000D03*
X112600000Y-22650000D03*
%TD*%
D28*
%TO.C,R83*%
X30600000Y-76000000D03*
X33400000Y-76000000D03*
%TD*%
%TO.C,R84*%
X24100000Y-97900000D03*
X26900000Y-97900000D03*
%TD*%
%TO.C,R89*%
X30600000Y-49950000D03*
X33400000Y-49950000D03*
%TD*%
%TO.C,R90*%
X24600000Y-71400000D03*
X27400000Y-71400000D03*
%TD*%
%TO.C,R95*%
X30600000Y-24650000D03*
X33400000Y-24650000D03*
%TD*%
%TO.C,R96*%
X24100000Y-45850000D03*
X26900000Y-45850000D03*
%TD*%
D24*
%TO.C,R28*%
X73500000Y-95287500D03*
X73500000Y-93712500D03*
%TD*%
D29*
%TO.C,D19*%
X104400000Y-81150000D03*
X104400000Y-77850000D03*
%TD*%
D23*
%TO.C,D29*%
X49312500Y-31950000D03*
X47737500Y-31950000D03*
%TD*%
%TO.C,D30*%
X49312500Y-33450000D03*
X47737500Y-33450000D03*
%TD*%
%TO.C,D31*%
X49312500Y-34950000D03*
X47737500Y-34950000D03*
%TD*%
D22*
%TO.C,R80*%
X44737500Y-34950000D03*
X46312500Y-34950000D03*
%TD*%
%TO.C,R77*%
X44737500Y-30450000D03*
X46312500Y-30450000D03*
%TD*%
%TO.C,R79*%
X44737500Y-33450000D03*
X46312500Y-33450000D03*
%TD*%
%TO.C,R78*%
X44737500Y-31950000D03*
X46312500Y-31950000D03*
%TD*%
D23*
%TO.C,D28*%
X49312500Y-30450000D03*
X47737500Y-30450000D03*
%TD*%
%TO.C,C84*%
X85287500Y-68000000D03*
X83712500Y-68000000D03*
%TD*%
D22*
%TO.C,C56*%
X61875000Y-67900000D03*
X63450000Y-67900000D03*
%TD*%
D23*
%TO.C,C54*%
X70937500Y-84150000D03*
X69362500Y-84150000D03*
%TD*%
D30*
%TO.C,C57*%
X62212500Y-66200000D03*
X64087500Y-66200000D03*
%TD*%
D23*
%TO.C,C53*%
X64540000Y-84010000D03*
X62965000Y-84010000D03*
%TD*%
D25*
%TO.C,C58*%
X59100000Y-78112500D03*
X59100000Y-79687500D03*
%TD*%
D31*
%TO.C,C59*%
X57300000Y-78362500D03*
X57300000Y-80237500D03*
%TD*%
D32*
%TO.C,C31*%
X85800000Y-79737500D03*
X85800000Y-77862500D03*
%TD*%
D25*
%TO.C,C19*%
X83600000Y-76612500D03*
X83600000Y-78187500D03*
%TD*%
D22*
%TO.C,C20*%
X84500000Y-69500000D03*
X86075000Y-69500000D03*
%TD*%
D25*
%TO.C,C21*%
X83600000Y-79712500D03*
X83600000Y-81287500D03*
%TD*%
D29*
%TO.C,D40*%
X85350000Y-66260000D03*
X85350000Y-62960000D03*
%TD*%
D33*
%TO.C,F1*%
X50500000Y-39600000D03*
X50500000Y-36800000D03*
%TD*%
D25*
%TO.C,R5*%
X82000000Y-76612500D03*
X82000000Y-78187500D03*
%TD*%
%TO.C,R6*%
X82000000Y-79712500D03*
X82000000Y-81287500D03*
%TD*%
%TO.C,C55*%
X75150000Y-71412500D03*
X75150000Y-72987500D03*
%TD*%
D23*
%TO.C,C82*%
X77587500Y-61200000D03*
X76012500Y-61200000D03*
%TD*%
D26*
%TO.C,D4*%
X46850000Y-81300000D03*
X43550000Y-81300000D03*
%TD*%
D21*
%TO.C,D14*%
X89000000Y-81850000D03*
X89000000Y-77550000D03*
%TD*%
D25*
%TO.C,C76*%
X61950000Y-42412500D03*
X61950000Y-43987500D03*
%TD*%
D24*
%TO.C,C81*%
X61468000Y-53619500D03*
X61468000Y-52044500D03*
%TD*%
D23*
%TO.C,R43*%
X95187500Y-86500000D03*
X93612500Y-86500000D03*
%TD*%
%TO.C,R49*%
X96387500Y-57800000D03*
X94812500Y-57800000D03*
%TD*%
D25*
%TO.C,R54*%
X96200000Y-36912500D03*
X96200000Y-38487500D03*
%TD*%
%TO.C,R55*%
X96400000Y-32912500D03*
X96400000Y-34487500D03*
%TD*%
D22*
%TO.C,R82*%
X52612500Y-82000000D03*
X54187500Y-82000000D03*
%TD*%
D23*
%TO.C,R88*%
X40700000Y-53300000D03*
X39125000Y-53300000D03*
%TD*%
D25*
%TO.C,R93*%
X48600000Y-37112500D03*
X48600000Y-38687500D03*
%TD*%
%TO.C,R94*%
X40700000Y-36512500D03*
X40700000Y-38087500D03*
%TD*%
D23*
%TO.C,R48*%
X96387500Y-59500000D03*
X94812500Y-59500000D03*
%TD*%
%TO.C,R42*%
X95187500Y-84900000D03*
X93612500Y-84900000D03*
%TD*%
D19*
%TO.C,U13*%
X41475000Y-60905000D03*
X41475000Y-59635000D03*
X41475000Y-58365000D03*
X41475000Y-57095000D03*
X36525000Y-57095000D03*
X36525000Y-58365000D03*
X36525000Y-59635000D03*
X36525000Y-60905000D03*
%TD*%
D23*
%TO.C,R87*%
X40687500Y-55000000D03*
X39112500Y-55000000D03*
%TD*%
D22*
%TO.C,R81*%
X48512500Y-81100000D03*
X50087500Y-81100000D03*
%TD*%
D25*
%TO.C,R8*%
X57000000Y-89512500D03*
X57000000Y-91087500D03*
%TD*%
%TO.C,R13*%
X76700000Y-89512500D03*
X76700000Y-91087500D03*
%TD*%
%TO.C,R14*%
X60200000Y-89512500D03*
X60200000Y-91087500D03*
%TD*%
%TO.C,R20*%
X63400000Y-89512500D03*
X63400000Y-91087500D03*
%TD*%
%TO.C,R7*%
X79900000Y-89512500D03*
X79900000Y-91087500D03*
%TD*%
%TO.C,R19*%
X73500000Y-89512500D03*
X73500000Y-91087500D03*
%TD*%
%TO.C,R11*%
X58600000Y-93712500D03*
X58600000Y-95287500D03*
%TD*%
D24*
%TO.C,D9*%
X75100000Y-91087500D03*
X75100000Y-89512500D03*
%TD*%
D34*
%TO.C,U16*%
X80035000Y-47840000D03*
X80035000Y-52690000D03*
X85585000Y-47840000D03*
X85585000Y-52690000D03*
D35*
X80270000Y-59415000D03*
X85350000Y-59415000D03*
%TD*%
D36*
%TO.C,U2*%
X83050000Y-95700000D03*
X84000000Y-95700000D03*
X84950000Y-95700000D03*
X84950000Y-93500000D03*
X84000000Y-93500000D03*
X83050000Y-93500000D03*
%TD*%
D37*
%TO.C,U3*%
X53200000Y-94250000D03*
X53200000Y-95200000D03*
X53200000Y-96150000D03*
X55400000Y-96150000D03*
X55400000Y-95200000D03*
X55400000Y-94250000D03*
%TD*%
D25*
%TO.C,R17*%
X78300000Y-93712500D03*
X78300000Y-95287500D03*
%TD*%
D38*
%TO.C,D42*%
X104600000Y-74250000D03*
X108900000Y-74250000D03*
%TD*%
%TO.C,D43*%
X104022000Y-48768000D03*
X108322000Y-48768000D03*
%TD*%
%TO.C,D44*%
X36750000Y-75800000D03*
X41050000Y-75800000D03*
%TD*%
D21*
%TO.C,D46*%
X68400000Y-48350000D03*
X68400000Y-44050000D03*
%TD*%
D38*
%TO.C,D45*%
X36550000Y-49500000D03*
X40850000Y-49500000D03*
%TD*%
D24*
%TO.C,C77*%
X76090000Y-58027500D03*
X76090000Y-56452500D03*
%TD*%
D39*
%TO.C,X1*%
X56950000Y-73650000D03*
X58650000Y-73650000D03*
X58650000Y-72350000D03*
X56950000Y-72350000D03*
%TD*%
D40*
%TO.C,R109*%
X53000000Y-36800000D03*
X53000000Y-39600000D03*
%TD*%
D41*
%TO.C,C51*%
X55400000Y-73025000D03*
X55400000Y-74575000D03*
%TD*%
D42*
%TO.C,C75*%
X64350000Y-41675000D03*
X64350000Y-44625000D03*
%TD*%
D43*
%TO.C,C80*%
X49325000Y-61150000D03*
X52275000Y-61150000D03*
%TD*%
D44*
%TO.C,C60*%
X53225000Y-68500000D03*
X54775000Y-68500000D03*
%TD*%
D45*
%TO.C,C61*%
X55050000Y-70250000D03*
X56950000Y-70250000D03*
%TD*%
D46*
%TO.C,R74*%
X73175000Y-82500000D03*
X74825000Y-82500000D03*
%TD*%
%TO.C,R75*%
X73175000Y-81000000D03*
X74825000Y-81000000D03*
%TD*%
D47*
%TO.C,R76*%
X48037500Y-66250000D03*
X50962500Y-66250000D03*
%TD*%
D36*
%TO.C,U11*%
X52800000Y-66850000D03*
X53750000Y-66850000D03*
X54700000Y-66850000D03*
X54700000Y-64650000D03*
X52800000Y-64650000D03*
%TD*%
D48*
%TO.C,D12*%
X95350000Y-70900000D03*
X97250000Y-70900000D03*
X96300000Y-68900000D03*
%TD*%
D18*
%TO.C,U1*%
X82275000Y-71095000D03*
X82275000Y-72365000D03*
X82275000Y-73635000D03*
X82275000Y-74905000D03*
X87225000Y-74905000D03*
X87225000Y-73635000D03*
X87225000Y-72365000D03*
X87225000Y-71095000D03*
%TD*%
D49*
%TO.C,V7*%
X48525000Y-76775000D03*
X45475000Y-76775000D03*
X45475000Y-73425000D03*
X48525000Y-73425000D03*
D50*
X49280000Y-68800000D03*
X44720000Y-68800000D03*
%TD*%
D24*
%TO.C,R104*%
X46300000Y-64637500D03*
X46300000Y-63062500D03*
%TD*%
D10*
%TO.C,R50*%
X109650000Y-69900000D03*
X106850000Y-69900000D03*
%TD*%
D25*
%TO.C,R72*%
X93750000Y-88462500D03*
X93750000Y-90037500D03*
%TD*%
D23*
%TO.C,R65*%
X100987500Y-48400000D03*
X99412500Y-48400000D03*
%TD*%
D41*
%TO.C,C28*%
X49400000Y-94225000D03*
X49400000Y-95775000D03*
%TD*%
D46*
%TO.C,R25*%
X66275000Y-88400000D03*
X67925000Y-88400000D03*
%TD*%
D51*
%TO.C,D11*%
X51000000Y-94050000D03*
X51000000Y-96150000D03*
%TD*%
D52*
%TO.C,C29*%
X73875000Y-92400000D03*
X72325000Y-92400000D03*
%TD*%
D29*
%TO.C,D38*%
X46600000Y-56550000D03*
X46600000Y-59850000D03*
%TD*%
D52*
%TO.C,C25*%
X56875000Y-92300000D03*
X55325000Y-92300000D03*
%TD*%
D53*
%TO.C,C87*%
X78350000Y-38700000D03*
X78350000Y-40600000D03*
%TD*%
D54*
%TO.C,R71*%
X66200000Y-66625000D03*
X66200000Y-64975000D03*
%TD*%
D55*
%TO.C,R40*%
X71000000Y-34025000D03*
X71000000Y-35675000D03*
%TD*%
D56*
%TO.C,U20*%
X26275000Y-75650000D03*
X25625000Y-75650000D03*
X24975000Y-75650000D03*
X24325000Y-75650000D03*
X24325000Y-80050000D03*
X24975000Y-80050000D03*
X25625000Y-80050000D03*
X26275000Y-80050000D03*
%TD*%
D29*
%TO.C,D25*%
X92500000Y-53000000D03*
X92500000Y-56300000D03*
%TD*%
%TO.C,D35*%
X44600000Y-43300000D03*
X44600000Y-46600000D03*
%TD*%
%TO.C,D15*%
X82450000Y-34000000D03*
X82450000Y-30700000D03*
%TD*%
D41*
%TO.C,C35*%
X68650000Y-37025000D03*
X68650000Y-38575000D03*
%TD*%
D54*
%TO.C,R30*%
X80800000Y-29275000D03*
X80800000Y-27625000D03*
%TD*%
D29*
%TO.C,D23*%
X93500000Y-44150000D03*
X93500000Y-40850000D03*
%TD*%
D52*
%TO.C,C91*%
X59775000Y-53450000D03*
X58225000Y-53450000D03*
%TD*%
D44*
%TO.C,C26*%
X76325000Y-92400000D03*
X77875000Y-92400000D03*
%TD*%
D52*
%TO.C,C27*%
X60475000Y-92300000D03*
X58925000Y-92300000D03*
%TD*%
D57*
%TO.C,C32*%
X71000000Y-32675000D03*
X71000000Y-31125000D03*
%TD*%
D54*
%TO.C,R37*%
X59450000Y-35725000D03*
X59450000Y-34075000D03*
%TD*%
D53*
%TO.C,C86*%
X71650000Y-40600000D03*
X71650000Y-42500000D03*
%TD*%
D41*
%TO.C,C34*%
X71000000Y-37025000D03*
X71000000Y-38575000D03*
%TD*%
%TO.C,C89*%
X28050000Y-78575000D03*
X28050000Y-80125000D03*
%TD*%
D58*
%TO.C,R39*%
X66425000Y-31400000D03*
X64775000Y-31400000D03*
%TD*%
D29*
%TO.C,D22*%
X91200000Y-40850000D03*
X91200000Y-44150000D03*
%TD*%
%TO.C,D24*%
X90200000Y-56300000D03*
X90200000Y-53000000D03*
%TD*%
%TO.C,D48*%
X97500000Y-49650000D03*
X97500000Y-52950000D03*
%TD*%
D55*
%TO.C,R36*%
X80500000Y-33925000D03*
X80500000Y-35575000D03*
%TD*%
D57*
%TO.C,C90*%
X111950000Y-67975000D03*
X111950000Y-66425000D03*
%TD*%
D29*
%TO.C,D47*%
X90600000Y-38950000D03*
X90600000Y-35650000D03*
%TD*%
D54*
%TO.C,R34*%
X80450000Y-32275000D03*
X80450000Y-30625000D03*
%TD*%
D44*
%TO.C,C37*%
X63525000Y-38500000D03*
X65075000Y-38500000D03*
%TD*%
D55*
%TO.C,R12*%
X89200000Y-92275000D03*
X89200000Y-93925000D03*
%TD*%
D29*
%TO.C,D37*%
X44300000Y-59600000D03*
X44300000Y-56300000D03*
%TD*%
D46*
%TO.C,R38*%
X74825000Y-38600000D03*
X76475000Y-38600000D03*
%TD*%
D54*
%TO.C,R32*%
X59450000Y-29625000D03*
X59450000Y-27975000D03*
%TD*%
D29*
%TO.C,D49*%
X46500000Y-40150000D03*
X46500000Y-36850000D03*
%TD*%
%TO.C,D36*%
X46900000Y-46600000D03*
X46900000Y-43300000D03*
%TD*%
D18*
%TO.C,U19*%
X57075000Y-55195000D03*
X57075000Y-56465000D03*
X57075000Y-57735000D03*
X57075000Y-59005000D03*
X62025000Y-59005000D03*
X62025000Y-57735000D03*
X62025000Y-56465000D03*
X62025000Y-55195000D03*
%TD*%
D26*
%TO.C,D3*%
X92350000Y-92500000D03*
X95650000Y-92500000D03*
%TD*%
D52*
%TO.C,C88*%
X76425000Y-40100000D03*
X74875000Y-40100000D03*
%TD*%
D26*
%TO.C,D50*%
X43350000Y-66400000D03*
X46650000Y-66400000D03*
%TD*%
D57*
%TO.C,C92*%
X55100000Y-55650000D03*
X55100000Y-54100000D03*
%TD*%
%TO.C,C36*%
X73400000Y-40075000D03*
X73400000Y-38525000D03*
%TD*%
D55*
%TO.C,R16*%
X90800000Y-92275000D03*
X90800000Y-93925000D03*
%TD*%
D44*
%TO.C,C30*%
X64225000Y-92400000D03*
X65775000Y-92400000D03*
%TD*%
D56*
%TO.C,U21*%
X113475000Y-70000000D03*
X114125000Y-70000000D03*
X114775000Y-70000000D03*
X115425000Y-70000000D03*
X115425000Y-65600000D03*
X114775000Y-65600000D03*
X114125000Y-65600000D03*
X113475000Y-65600000D03*
%TD*%
D29*
%TO.C,D17*%
X77450000Y-31000000D03*
X77450000Y-27700000D03*
%TD*%
D44*
%TO.C,C24*%
X80225000Y-92400000D03*
X81775000Y-92400000D03*
%TD*%
D58*
%TO.C,R114*%
X63625000Y-60650000D03*
X61975000Y-60650000D03*
%TD*%
D59*
%TO.C,D13*%
X84000000Y-87900000D03*
X90800000Y-87900000D03*
%TD*%
D46*
%TO.C,R113*%
X73275000Y-42350000D03*
X74925000Y-42350000D03*
%TD*%
D29*
%TO.C,D18*%
X62850000Y-31350000D03*
X62850000Y-28050000D03*
%TD*%
D19*
%TO.C,U4*%
X78075000Y-36855000D03*
X78075000Y-35585000D03*
X78075000Y-34315000D03*
X78075000Y-33045000D03*
X73125000Y-33045000D03*
X73125000Y-34315000D03*
X73125000Y-35585000D03*
X73125000Y-36855000D03*
%TD*%
D54*
%TO.C,R31*%
X79350000Y-29275000D03*
X79350000Y-27625000D03*
%TD*%
D29*
%TO.C,D16*%
X57500000Y-31350000D03*
X57500000Y-28050000D03*
%TD*%
M02*
