%TF.GenerationSoftware,KiCad,Pcbnew,9.0.3*%
%TF.CreationDate,2025-08-09T20:59:16+02:00*%
%TF.ProjectId,Bobbycontroller,426f6262-7963-46f6-9e74-726f6c6c6572,rev?*%
%TF.SameCoordinates,Original*%
%TF.FileFunction,Legend,Bot*%
%TF.FilePolarity,Positive*%
%FSLAX46Y46*%
G04 Gerber Fmt 4.6, Leading zero omitted, Abs format (unit mm)*
G04 Created by KiCad (PCBNEW 9.0.3) date 2025-08-09 20:59:16*
%MOMM*%
%LPD*%
G01*
G04 APERTURE LIST*
G04 Aperture macros list*
%AMRoundRect*
0 Rectangle with rounded corners*
0 $1 Rounding radius*
0 $2 $3 $4 $5 $6 $7 $8 $9 X,Y pos of 4 corners*
0 Add a 4 corners polygon primitive as box body*
4,1,4,$2,$3,$4,$5,$6,$7,$8,$9,$2,$3,0*
0 Add four circle primitives for the rounded corners*
1,1,$1+$1,$2,$3*
1,1,$1+$1,$4,$5*
1,1,$1+$1,$6,$7*
1,1,$1+$1,$8,$9*
0 Add four rect primitives between the rounded corners*
20,1,$1+$1,$2,$3,$4,$5,0*
20,1,$1+$1,$4,$5,$6,$7,0*
20,1,$1+$1,$6,$7,$8,$9,0*
20,1,$1+$1,$8,$9,$2,$3,0*%
%AMFreePoly0*
4,1,39,0.535355,0.785355,0.550000,0.750000,0.550000,-0.750000,0.535355,-0.785355,0.500000,-0.800000,0.000000,-0.800000,-0.010328,-0.795722,-0.065263,-0.795722,-0.078204,-0.794018,-0.204283,-0.760236,-0.216342,-0.755241,-0.329381,-0.689978,-0.339736,-0.682032,-0.432032,-0.589736,-0.439978,-0.579381,-0.505241,-0.466342,-0.510236,-0.454283,-0.544018,-0.328204,-0.545722,-0.315263,-0.545722,-0.260327,
-0.550000,-0.250000,-0.550000,0.250000,-0.545722,0.260327,-0.545722,0.315263,-0.544018,0.328204,-0.510236,0.454283,-0.505241,0.466342,-0.439978,0.579381,-0.432032,0.589736,-0.339736,0.682032,-0.329381,0.689978,-0.216342,0.755241,-0.204283,0.760236,-0.078204,0.794018,-0.065263,0.795722,-0.010328,0.795722,0.000000,0.800000,0.500000,0.800000,0.535355,0.785355,0.535355,0.785355,
$1*%
%AMFreePoly1*
4,1,39,0.010328,0.795722,0.065263,0.795722,0.078204,0.794018,0.204283,0.760236,0.216342,0.755241,0.329381,0.689978,0.339736,0.682032,0.432032,0.589736,0.439978,0.579381,0.505241,0.466342,0.510236,0.454283,0.544018,0.328204,0.545722,0.315263,0.545722,0.260327,0.550000,0.250000,0.550000,-0.250000,0.545722,-0.260327,0.545722,-0.315263,0.544018,-0.328204,0.510236,-0.454283,
0.505241,-0.466342,0.439978,-0.579381,0.432032,-0.589736,0.339736,-0.682032,0.329381,-0.689978,0.216342,-0.755241,0.204283,-0.760236,0.078204,-0.794018,0.065263,-0.795722,0.010328,-0.795722,0.000000,-0.800000,-0.500000,-0.800000,-0.535355,-0.785355,-0.550000,-0.750000,-0.550000,0.750000,-0.535355,0.785355,-0.500000,0.800000,0.000000,0.800000,0.010328,0.795722,0.010328,0.795722,
$1*%
G04 Aperture macros list end*
%ADD10C,0.150000*%
%ADD11C,0.120000*%
%ADD12RoundRect,0.050000X-0.800000X0.800000X-0.800000X-0.800000X0.800000X-0.800000X0.800000X0.800000X0*%
%ADD13C,1.700000*%
%ADD14RoundRect,0.050000X0.800000X0.800000X-0.800000X0.800000X-0.800000X-0.800000X0.800000X-0.800000X0*%
%ADD15RoundRect,0.050000X-0.800000X-0.800000X0.800000X-0.800000X0.800000X0.800000X-0.800000X0.800000X0*%
%ADD16RoundRect,0.050000X-1.000000X-1.000000X1.000000X-1.000000X1.000000X1.000000X-1.000000X1.000000X0*%
%ADD17C,2.100000*%
%ADD18RoundRect,0.050000X1.200000X-1.200000X1.200000X1.200000X-1.200000X1.200000X-1.200000X-1.200000X0*%
%ADD19C,2.500000*%
%ADD20C,4.100000*%
%ADD21RoundRect,0.264706X0.635294X0.760294X-0.635294X0.760294X-0.635294X-0.760294X0.635294X-0.760294X0*%
%ADD22O,1.800000X2.050000*%
%ADD23RoundRect,0.050000X0.850000X0.850000X-0.850000X0.850000X-0.850000X-0.850000X0.850000X-0.850000X0*%
%ADD24O,1.800000X1.800000*%
%ADD25RoundRect,0.050000X1.000000X-1.000000X1.000000X1.000000X-1.000000X1.000000X-1.000000X-1.000000X0*%
%ADD26C,5.500000*%
%ADD27C,1.000000*%
%ADD28C,2.700000*%
%ADD29RoundRect,0.264706X-0.635294X-0.785294X0.635294X-0.785294X0.635294X0.785294X-0.635294X0.785294X0*%
%ADD30O,1.800000X2.100000*%
%ADD31RoundRect,0.264706X0.760294X-0.635294X0.760294X0.635294X-0.760294X0.635294X-0.760294X-0.635294X0*%
%ADD32O,2.050000X1.800000*%
%ADD33RoundRect,0.050000X2.300000X0.550000X-2.300000X0.550000X-2.300000X-0.550000X2.300000X-0.550000X0*%
%ADD34RoundRect,0.050000X4.700000X5.400000X-4.700000X5.400000X-4.700000X-5.400000X4.700000X-5.400000X0*%
%ADD35RoundRect,0.050000X-2.300000X-0.550000X2.300000X-0.550000X2.300000X0.550000X-2.300000X0.550000X0*%
%ADD36RoundRect,0.050000X-4.700000X-5.400000X4.700000X-5.400000X4.700000X5.400000X-4.700000X5.400000X0*%
%ADD37RoundRect,0.270000X0.405000X0.655000X-0.405000X0.655000X-0.405000X-0.655000X0.405000X-0.655000X0*%
%ADD38RoundRect,0.270000X-0.405000X-0.655000X0.405000X-0.655000X0.405000X0.655000X-0.405000X0.655000X0*%
%ADD39RoundRect,0.270000X0.655000X-0.405000X0.655000X0.405000X-0.655000X0.405000X-0.655000X-0.405000X0*%
%ADD40RoundRect,0.050000X1.000000X0.450000X-1.000000X0.450000X-1.000000X-0.450000X1.000000X-0.450000X0*%
%ADD41RoundRect,0.050000X0.450000X-1.000000X0.450000X1.000000X-0.450000X1.000000X-0.450000X-1.000000X0*%
%ADD42RoundRect,0.050000X2.500000X2.500000X-2.500000X2.500000X-2.500000X-2.500000X2.500000X-2.500000X0*%
%ADD43RoundRect,0.264706X-0.760294X0.635294X-0.760294X-0.635294X0.760294X-0.635294X0.760294X0.635294X0*%
%ADD44RoundRect,0.450000X-0.575000X0.450000X-0.575000X-0.450000X0.575000X-0.450000X0.575000X0.450000X0*%
%ADD45FreePoly0,180.000000*%
%ADD46FreePoly1,180.000000*%
G04 APERTURE END LIST*
D10*
X97591792Y-75033941D02*
X97639411Y-75095846D01*
X97639411Y-75095846D02*
X97782268Y-75157750D01*
X97782268Y-75157750D02*
X97877506Y-75157750D01*
X97877506Y-75157750D02*
X98020363Y-75095846D01*
X98020363Y-75095846D02*
X98115601Y-74972036D01*
X98115601Y-74972036D02*
X98163220Y-74848226D01*
X98163220Y-74848226D02*
X98210839Y-74600607D01*
X98210839Y-74600607D02*
X98210839Y-74414893D01*
X98210839Y-74414893D02*
X98163220Y-74167274D01*
X98163220Y-74167274D02*
X98115601Y-74043465D01*
X98115601Y-74043465D02*
X98020363Y-73919655D01*
X98020363Y-73919655D02*
X97877506Y-73857750D01*
X97877506Y-73857750D02*
X97782268Y-73857750D01*
X97782268Y-73857750D02*
X97639411Y-73919655D01*
X97639411Y-73919655D02*
X97591792Y-73981560D01*
X97210839Y-74786322D02*
X96734649Y-74786322D01*
X97306077Y-75157750D02*
X96972744Y-73857750D01*
X96972744Y-73857750D02*
X96639411Y-75157750D01*
X96306077Y-75157750D02*
X96306077Y-73857750D01*
X96306077Y-73857750D02*
X95734649Y-75157750D01*
X95734649Y-75157750D02*
X95734649Y-73857750D01*
X95258458Y-75157750D02*
X95258458Y-73857750D01*
X95258458Y-74476798D02*
X94687030Y-74476798D01*
X94687030Y-75157750D02*
X94687030Y-73857750D01*
X97591792Y-77126868D02*
X97639411Y-77188773D01*
X97639411Y-77188773D02*
X97782268Y-77250677D01*
X97782268Y-77250677D02*
X97877506Y-77250677D01*
X97877506Y-77250677D02*
X98020363Y-77188773D01*
X98020363Y-77188773D02*
X98115601Y-77064963D01*
X98115601Y-77064963D02*
X98163220Y-76941153D01*
X98163220Y-76941153D02*
X98210839Y-76693534D01*
X98210839Y-76693534D02*
X98210839Y-76507820D01*
X98210839Y-76507820D02*
X98163220Y-76260201D01*
X98163220Y-76260201D02*
X98115601Y-76136392D01*
X98115601Y-76136392D02*
X98020363Y-76012582D01*
X98020363Y-76012582D02*
X97877506Y-75950677D01*
X97877506Y-75950677D02*
X97782268Y-75950677D01*
X97782268Y-75950677D02*
X97639411Y-76012582D01*
X97639411Y-76012582D02*
X97591792Y-76074487D01*
X97210839Y-76879249D02*
X96734649Y-76879249D01*
X97306077Y-77250677D02*
X96972744Y-75950677D01*
X96972744Y-75950677D02*
X96639411Y-77250677D01*
X96306077Y-77250677D02*
X96306077Y-75950677D01*
X96306077Y-75950677D02*
X95734649Y-77250677D01*
X95734649Y-77250677D02*
X95734649Y-75950677D01*
X94782268Y-77250677D02*
X95258458Y-77250677D01*
X95258458Y-77250677D02*
X95258458Y-75950677D01*
X97639411Y-79343604D02*
X98210839Y-79343604D01*
X97925125Y-79343604D02*
X97925125Y-78043604D01*
X97925125Y-78043604D02*
X98020363Y-78229319D01*
X98020363Y-78229319D02*
X98115601Y-78353128D01*
X98115601Y-78353128D02*
X98210839Y-78415033D01*
X97258458Y-78167414D02*
X97210839Y-78105509D01*
X97210839Y-78105509D02*
X97115601Y-78043604D01*
X97115601Y-78043604D02*
X96877506Y-78043604D01*
X96877506Y-78043604D02*
X96782268Y-78105509D01*
X96782268Y-78105509D02*
X96734649Y-78167414D01*
X96734649Y-78167414D02*
X96687030Y-78291223D01*
X96687030Y-78291223D02*
X96687030Y-78415033D01*
X96687030Y-78415033D02*
X96734649Y-78600747D01*
X96734649Y-78600747D02*
X97306077Y-79343604D01*
X97306077Y-79343604D02*
X96687030Y-79343604D01*
X96401315Y-78043604D02*
X96067982Y-79343604D01*
X96067982Y-79343604D02*
X95734649Y-78043604D01*
X97639411Y-80198436D02*
X97734649Y-80136531D01*
X97734649Y-80136531D02*
X97877506Y-80136531D01*
X97877506Y-80136531D02*
X98020363Y-80198436D01*
X98020363Y-80198436D02*
X98115601Y-80322246D01*
X98115601Y-80322246D02*
X98163220Y-80446055D01*
X98163220Y-80446055D02*
X98210839Y-80693674D01*
X98210839Y-80693674D02*
X98210839Y-80879388D01*
X98210839Y-80879388D02*
X98163220Y-81127007D01*
X98163220Y-81127007D02*
X98115601Y-81250817D01*
X98115601Y-81250817D02*
X98020363Y-81374627D01*
X98020363Y-81374627D02*
X97877506Y-81436531D01*
X97877506Y-81436531D02*
X97782268Y-81436531D01*
X97782268Y-81436531D02*
X97639411Y-81374627D01*
X97639411Y-81374627D02*
X97591792Y-81312722D01*
X97591792Y-81312722D02*
X97591792Y-80879388D01*
X97591792Y-80879388D02*
X97782268Y-80879388D01*
X97163220Y-81436531D02*
X97163220Y-80136531D01*
X97163220Y-80136531D02*
X96591792Y-81436531D01*
X96591792Y-81436531D02*
X96591792Y-80136531D01*
X96115601Y-81436531D02*
X96115601Y-80136531D01*
X96115601Y-80136531D02*
X95877506Y-80136531D01*
X95877506Y-80136531D02*
X95734649Y-80198436D01*
X95734649Y-80198436D02*
X95639411Y-80322246D01*
X95639411Y-80322246D02*
X95591792Y-80446055D01*
X95591792Y-80446055D02*
X95544173Y-80693674D01*
X95544173Y-80693674D02*
X95544173Y-80879388D01*
X95544173Y-80879388D02*
X95591792Y-81127007D01*
X95591792Y-81127007D02*
X95639411Y-81250817D01*
X95639411Y-81250817D02*
X95734649Y-81374627D01*
X95734649Y-81374627D02*
X95877506Y-81436531D01*
X95877506Y-81436531D02*
X96115601Y-81436531D01*
X92704819Y-47838095D02*
X93514342Y-47838095D01*
X93514342Y-47838095D02*
X93609580Y-47885714D01*
X93609580Y-47885714D02*
X93657200Y-47933333D01*
X93657200Y-47933333D02*
X93704819Y-48028571D01*
X93704819Y-48028571D02*
X93704819Y-48219047D01*
X93704819Y-48219047D02*
X93657200Y-48314285D01*
X93657200Y-48314285D02*
X93609580Y-48361904D01*
X93609580Y-48361904D02*
X93514342Y-48409523D01*
X93514342Y-48409523D02*
X92704819Y-48409523D01*
X93704819Y-48933333D02*
X93704819Y-49123809D01*
X93704819Y-49123809D02*
X93657200Y-49219047D01*
X93657200Y-49219047D02*
X93609580Y-49266666D01*
X93609580Y-49266666D02*
X93466723Y-49361904D01*
X93466723Y-49361904D02*
X93276247Y-49409523D01*
X93276247Y-49409523D02*
X92895295Y-49409523D01*
X92895295Y-49409523D02*
X92800057Y-49361904D01*
X92800057Y-49361904D02*
X92752438Y-49314285D01*
X92752438Y-49314285D02*
X92704819Y-49219047D01*
X92704819Y-49219047D02*
X92704819Y-49028571D01*
X92704819Y-49028571D02*
X92752438Y-48933333D01*
X92752438Y-48933333D02*
X92800057Y-48885714D01*
X92800057Y-48885714D02*
X92895295Y-48838095D01*
X92895295Y-48838095D02*
X93133390Y-48838095D01*
X93133390Y-48838095D02*
X93228628Y-48885714D01*
X93228628Y-48885714D02*
X93276247Y-48933333D01*
X93276247Y-48933333D02*
X93323866Y-49028571D01*
X93323866Y-49028571D02*
X93323866Y-49219047D01*
X93323866Y-49219047D02*
X93276247Y-49314285D01*
X93276247Y-49314285D02*
X93228628Y-49361904D01*
X93228628Y-49361904D02*
X93133390Y-49409523D01*
X59359580Y-78357142D02*
X59407200Y-78309523D01*
X59407200Y-78309523D02*
X59454819Y-78166666D01*
X59454819Y-78166666D02*
X59454819Y-78071428D01*
X59454819Y-78071428D02*
X59407200Y-77928571D01*
X59407200Y-77928571D02*
X59311961Y-77833333D01*
X59311961Y-77833333D02*
X59216723Y-77785714D01*
X59216723Y-77785714D02*
X59026247Y-77738095D01*
X59026247Y-77738095D02*
X58883390Y-77738095D01*
X58883390Y-77738095D02*
X58692914Y-77785714D01*
X58692914Y-77785714D02*
X58597676Y-77833333D01*
X58597676Y-77833333D02*
X58502438Y-77928571D01*
X58502438Y-77928571D02*
X58454819Y-78071428D01*
X58454819Y-78071428D02*
X58454819Y-78166666D01*
X58454819Y-78166666D02*
X58502438Y-78309523D01*
X58502438Y-78309523D02*
X58550057Y-78357142D01*
X58454819Y-79261904D02*
X58454819Y-78785714D01*
X58454819Y-78785714D02*
X58931009Y-78738095D01*
X58931009Y-78738095D02*
X58883390Y-78785714D01*
X58883390Y-78785714D02*
X58835771Y-78880952D01*
X58835771Y-78880952D02*
X58835771Y-79119047D01*
X58835771Y-79119047D02*
X58883390Y-79214285D01*
X58883390Y-79214285D02*
X58931009Y-79261904D01*
X58931009Y-79261904D02*
X59026247Y-79309523D01*
X59026247Y-79309523D02*
X59264342Y-79309523D01*
X59264342Y-79309523D02*
X59359580Y-79261904D01*
X59359580Y-79261904D02*
X59407200Y-79214285D01*
X59407200Y-79214285D02*
X59454819Y-79119047D01*
X59454819Y-79119047D02*
X59454819Y-78880952D01*
X59454819Y-78880952D02*
X59407200Y-78785714D01*
X59407200Y-78785714D02*
X59359580Y-78738095D01*
X58883390Y-79880952D02*
X58835771Y-79785714D01*
X58835771Y-79785714D02*
X58788152Y-79738095D01*
X58788152Y-79738095D02*
X58692914Y-79690476D01*
X58692914Y-79690476D02*
X58645295Y-79690476D01*
X58645295Y-79690476D02*
X58550057Y-79738095D01*
X58550057Y-79738095D02*
X58502438Y-79785714D01*
X58502438Y-79785714D02*
X58454819Y-79880952D01*
X58454819Y-79880952D02*
X58454819Y-80071428D01*
X58454819Y-80071428D02*
X58502438Y-80166666D01*
X58502438Y-80166666D02*
X58550057Y-80214285D01*
X58550057Y-80214285D02*
X58645295Y-80261904D01*
X58645295Y-80261904D02*
X58692914Y-80261904D01*
X58692914Y-80261904D02*
X58788152Y-80214285D01*
X58788152Y-80214285D02*
X58835771Y-80166666D01*
X58835771Y-80166666D02*
X58883390Y-80071428D01*
X58883390Y-80071428D02*
X58883390Y-79880952D01*
X58883390Y-79880952D02*
X58931009Y-79785714D01*
X58931009Y-79785714D02*
X58978628Y-79738095D01*
X58978628Y-79738095D02*
X59073866Y-79690476D01*
X59073866Y-79690476D02*
X59264342Y-79690476D01*
X59264342Y-79690476D02*
X59359580Y-79738095D01*
X59359580Y-79738095D02*
X59407200Y-79785714D01*
X59407200Y-79785714D02*
X59454819Y-79880952D01*
X59454819Y-79880952D02*
X59454819Y-80071428D01*
X59454819Y-80071428D02*
X59407200Y-80166666D01*
X59407200Y-80166666D02*
X59359580Y-80214285D01*
X59359580Y-80214285D02*
X59264342Y-80261904D01*
X59264342Y-80261904D02*
X59073866Y-80261904D01*
X59073866Y-80261904D02*
X58978628Y-80214285D01*
X58978628Y-80214285D02*
X58931009Y-80166666D01*
X58931009Y-80166666D02*
X58883390Y-80071428D01*
X57609580Y-78607142D02*
X57657200Y-78559523D01*
X57657200Y-78559523D02*
X57704819Y-78416666D01*
X57704819Y-78416666D02*
X57704819Y-78321428D01*
X57704819Y-78321428D02*
X57657200Y-78178571D01*
X57657200Y-78178571D02*
X57561961Y-78083333D01*
X57561961Y-78083333D02*
X57466723Y-78035714D01*
X57466723Y-78035714D02*
X57276247Y-77988095D01*
X57276247Y-77988095D02*
X57133390Y-77988095D01*
X57133390Y-77988095D02*
X56942914Y-78035714D01*
X56942914Y-78035714D02*
X56847676Y-78083333D01*
X56847676Y-78083333D02*
X56752438Y-78178571D01*
X56752438Y-78178571D02*
X56704819Y-78321428D01*
X56704819Y-78321428D02*
X56704819Y-78416666D01*
X56704819Y-78416666D02*
X56752438Y-78559523D01*
X56752438Y-78559523D02*
X56800057Y-78607142D01*
X56704819Y-79511904D02*
X56704819Y-79035714D01*
X56704819Y-79035714D02*
X57181009Y-78988095D01*
X57181009Y-78988095D02*
X57133390Y-79035714D01*
X57133390Y-79035714D02*
X57085771Y-79130952D01*
X57085771Y-79130952D02*
X57085771Y-79369047D01*
X57085771Y-79369047D02*
X57133390Y-79464285D01*
X57133390Y-79464285D02*
X57181009Y-79511904D01*
X57181009Y-79511904D02*
X57276247Y-79559523D01*
X57276247Y-79559523D02*
X57514342Y-79559523D01*
X57514342Y-79559523D02*
X57609580Y-79511904D01*
X57609580Y-79511904D02*
X57657200Y-79464285D01*
X57657200Y-79464285D02*
X57704819Y-79369047D01*
X57704819Y-79369047D02*
X57704819Y-79130952D01*
X57704819Y-79130952D02*
X57657200Y-79035714D01*
X57657200Y-79035714D02*
X57609580Y-78988095D01*
X57704819Y-80035714D02*
X57704819Y-80226190D01*
X57704819Y-80226190D02*
X57657200Y-80321428D01*
X57657200Y-80321428D02*
X57609580Y-80369047D01*
X57609580Y-80369047D02*
X57466723Y-80464285D01*
X57466723Y-80464285D02*
X57276247Y-80511904D01*
X57276247Y-80511904D02*
X56895295Y-80511904D01*
X56895295Y-80511904D02*
X56800057Y-80464285D01*
X56800057Y-80464285D02*
X56752438Y-80416666D01*
X56752438Y-80416666D02*
X56704819Y-80321428D01*
X56704819Y-80321428D02*
X56704819Y-80130952D01*
X56704819Y-80130952D02*
X56752438Y-80035714D01*
X56752438Y-80035714D02*
X56800057Y-79988095D01*
X56800057Y-79988095D02*
X56895295Y-79940476D01*
X56895295Y-79940476D02*
X57133390Y-79940476D01*
X57133390Y-79940476D02*
X57228628Y-79988095D01*
X57228628Y-79988095D02*
X57276247Y-80035714D01*
X57276247Y-80035714D02*
X57323866Y-80130952D01*
X57323866Y-80130952D02*
X57323866Y-80321428D01*
X57323866Y-80321428D02*
X57276247Y-80416666D01*
X57276247Y-80416666D02*
X57228628Y-80464285D01*
X57228628Y-80464285D02*
X57133390Y-80511904D01*
X83859580Y-76757142D02*
X83907200Y-76709523D01*
X83907200Y-76709523D02*
X83954819Y-76566666D01*
X83954819Y-76566666D02*
X83954819Y-76471428D01*
X83954819Y-76471428D02*
X83907200Y-76328571D01*
X83907200Y-76328571D02*
X83811961Y-76233333D01*
X83811961Y-76233333D02*
X83716723Y-76185714D01*
X83716723Y-76185714D02*
X83526247Y-76138095D01*
X83526247Y-76138095D02*
X83383390Y-76138095D01*
X83383390Y-76138095D02*
X83192914Y-76185714D01*
X83192914Y-76185714D02*
X83097676Y-76233333D01*
X83097676Y-76233333D02*
X83002438Y-76328571D01*
X83002438Y-76328571D02*
X82954819Y-76471428D01*
X82954819Y-76471428D02*
X82954819Y-76566666D01*
X82954819Y-76566666D02*
X83002438Y-76709523D01*
X83002438Y-76709523D02*
X83050057Y-76757142D01*
X83954819Y-77709523D02*
X83954819Y-77138095D01*
X83954819Y-77423809D02*
X82954819Y-77423809D01*
X82954819Y-77423809D02*
X83097676Y-77328571D01*
X83097676Y-77328571D02*
X83192914Y-77233333D01*
X83192914Y-77233333D02*
X83240533Y-77138095D01*
X83954819Y-78185714D02*
X83954819Y-78376190D01*
X83954819Y-78376190D02*
X83907200Y-78471428D01*
X83907200Y-78471428D02*
X83859580Y-78519047D01*
X83859580Y-78519047D02*
X83716723Y-78614285D01*
X83716723Y-78614285D02*
X83526247Y-78661904D01*
X83526247Y-78661904D02*
X83145295Y-78661904D01*
X83145295Y-78661904D02*
X83050057Y-78614285D01*
X83050057Y-78614285D02*
X83002438Y-78566666D01*
X83002438Y-78566666D02*
X82954819Y-78471428D01*
X82954819Y-78471428D02*
X82954819Y-78280952D01*
X82954819Y-78280952D02*
X83002438Y-78185714D01*
X83002438Y-78185714D02*
X83050057Y-78138095D01*
X83050057Y-78138095D02*
X83145295Y-78090476D01*
X83145295Y-78090476D02*
X83383390Y-78090476D01*
X83383390Y-78090476D02*
X83478628Y-78138095D01*
X83478628Y-78138095D02*
X83526247Y-78185714D01*
X83526247Y-78185714D02*
X83573866Y-78280952D01*
X83573866Y-78280952D02*
X83573866Y-78471428D01*
X83573866Y-78471428D02*
X83526247Y-78566666D01*
X83526247Y-78566666D02*
X83478628Y-78614285D01*
X83478628Y-78614285D02*
X83383390Y-78661904D01*
X84079580Y-79887142D02*
X84127200Y-79839523D01*
X84127200Y-79839523D02*
X84174819Y-79696666D01*
X84174819Y-79696666D02*
X84174819Y-79601428D01*
X84174819Y-79601428D02*
X84127200Y-79458571D01*
X84127200Y-79458571D02*
X84031961Y-79363333D01*
X84031961Y-79363333D02*
X83936723Y-79315714D01*
X83936723Y-79315714D02*
X83746247Y-79268095D01*
X83746247Y-79268095D02*
X83603390Y-79268095D01*
X83603390Y-79268095D02*
X83412914Y-79315714D01*
X83412914Y-79315714D02*
X83317676Y-79363333D01*
X83317676Y-79363333D02*
X83222438Y-79458571D01*
X83222438Y-79458571D02*
X83174819Y-79601428D01*
X83174819Y-79601428D02*
X83174819Y-79696666D01*
X83174819Y-79696666D02*
X83222438Y-79839523D01*
X83222438Y-79839523D02*
X83270057Y-79887142D01*
X83270057Y-80268095D02*
X83222438Y-80315714D01*
X83222438Y-80315714D02*
X83174819Y-80410952D01*
X83174819Y-80410952D02*
X83174819Y-80649047D01*
X83174819Y-80649047D02*
X83222438Y-80744285D01*
X83222438Y-80744285D02*
X83270057Y-80791904D01*
X83270057Y-80791904D02*
X83365295Y-80839523D01*
X83365295Y-80839523D02*
X83460533Y-80839523D01*
X83460533Y-80839523D02*
X83603390Y-80791904D01*
X83603390Y-80791904D02*
X84174819Y-80220476D01*
X84174819Y-80220476D02*
X84174819Y-80839523D01*
X84174819Y-81791904D02*
X84174819Y-81220476D01*
X84174819Y-81506190D02*
X83174819Y-81506190D01*
X83174819Y-81506190D02*
X83317676Y-81410952D01*
X83317676Y-81410952D02*
X83412914Y-81315714D01*
X83412914Y-81315714D02*
X83460533Y-81220476D01*
X82454819Y-77233333D02*
X81978628Y-76900000D01*
X82454819Y-76661905D02*
X81454819Y-76661905D01*
X81454819Y-76661905D02*
X81454819Y-77042857D01*
X81454819Y-77042857D02*
X81502438Y-77138095D01*
X81502438Y-77138095D02*
X81550057Y-77185714D01*
X81550057Y-77185714D02*
X81645295Y-77233333D01*
X81645295Y-77233333D02*
X81788152Y-77233333D01*
X81788152Y-77233333D02*
X81883390Y-77185714D01*
X81883390Y-77185714D02*
X81931009Y-77138095D01*
X81931009Y-77138095D02*
X81978628Y-77042857D01*
X81978628Y-77042857D02*
X81978628Y-76661905D01*
X81454819Y-78138095D02*
X81454819Y-77661905D01*
X81454819Y-77661905D02*
X81931009Y-77614286D01*
X81931009Y-77614286D02*
X81883390Y-77661905D01*
X81883390Y-77661905D02*
X81835771Y-77757143D01*
X81835771Y-77757143D02*
X81835771Y-77995238D01*
X81835771Y-77995238D02*
X81883390Y-78090476D01*
X81883390Y-78090476D02*
X81931009Y-78138095D01*
X81931009Y-78138095D02*
X82026247Y-78185714D01*
X82026247Y-78185714D02*
X82264342Y-78185714D01*
X82264342Y-78185714D02*
X82359580Y-78138095D01*
X82359580Y-78138095D02*
X82407200Y-78090476D01*
X82407200Y-78090476D02*
X82454819Y-77995238D01*
X82454819Y-77995238D02*
X82454819Y-77757143D01*
X82454819Y-77757143D02*
X82407200Y-77661905D01*
X82407200Y-77661905D02*
X82359580Y-77614286D01*
X82434819Y-80373333D02*
X81958628Y-80040000D01*
X82434819Y-79801905D02*
X81434819Y-79801905D01*
X81434819Y-79801905D02*
X81434819Y-80182857D01*
X81434819Y-80182857D02*
X81482438Y-80278095D01*
X81482438Y-80278095D02*
X81530057Y-80325714D01*
X81530057Y-80325714D02*
X81625295Y-80373333D01*
X81625295Y-80373333D02*
X81768152Y-80373333D01*
X81768152Y-80373333D02*
X81863390Y-80325714D01*
X81863390Y-80325714D02*
X81911009Y-80278095D01*
X81911009Y-80278095D02*
X81958628Y-80182857D01*
X81958628Y-80182857D02*
X81958628Y-79801905D01*
X81434819Y-81230476D02*
X81434819Y-81040000D01*
X81434819Y-81040000D02*
X81482438Y-80944762D01*
X81482438Y-80944762D02*
X81530057Y-80897143D01*
X81530057Y-80897143D02*
X81672914Y-80801905D01*
X81672914Y-80801905D02*
X81863390Y-80754286D01*
X81863390Y-80754286D02*
X82244342Y-80754286D01*
X82244342Y-80754286D02*
X82339580Y-80801905D01*
X82339580Y-80801905D02*
X82387200Y-80849524D01*
X82387200Y-80849524D02*
X82434819Y-80944762D01*
X82434819Y-80944762D02*
X82434819Y-81135238D01*
X82434819Y-81135238D02*
X82387200Y-81230476D01*
X82387200Y-81230476D02*
X82339580Y-81278095D01*
X82339580Y-81278095D02*
X82244342Y-81325714D01*
X82244342Y-81325714D02*
X82006247Y-81325714D01*
X82006247Y-81325714D02*
X81911009Y-81278095D01*
X81911009Y-81278095D02*
X81863390Y-81230476D01*
X81863390Y-81230476D02*
X81815771Y-81135238D01*
X81815771Y-81135238D02*
X81815771Y-80944762D01*
X81815771Y-80944762D02*
X81863390Y-80849524D01*
X81863390Y-80849524D02*
X81911009Y-80801905D01*
X81911009Y-80801905D02*
X82006247Y-80754286D01*
X90014285Y-80154819D02*
X90014285Y-79154819D01*
X90014285Y-79154819D02*
X89776190Y-79154819D01*
X89776190Y-79154819D02*
X89633333Y-79202438D01*
X89633333Y-79202438D02*
X89538095Y-79297676D01*
X89538095Y-79297676D02*
X89490476Y-79392914D01*
X89490476Y-79392914D02*
X89442857Y-79583390D01*
X89442857Y-79583390D02*
X89442857Y-79726247D01*
X89442857Y-79726247D02*
X89490476Y-79916723D01*
X89490476Y-79916723D02*
X89538095Y-80011961D01*
X89538095Y-80011961D02*
X89633333Y-80107200D01*
X89633333Y-80107200D02*
X89776190Y-80154819D01*
X89776190Y-80154819D02*
X90014285Y-80154819D01*
X88490476Y-80154819D02*
X89061904Y-80154819D01*
X88776190Y-80154819D02*
X88776190Y-79154819D01*
X88776190Y-79154819D02*
X88871428Y-79297676D01*
X88871428Y-79297676D02*
X88966666Y-79392914D01*
X88966666Y-79392914D02*
X89061904Y-79440533D01*
X87633333Y-79488152D02*
X87633333Y-80154819D01*
X87871428Y-79107200D02*
X88109523Y-79821485D01*
X88109523Y-79821485D02*
X87490476Y-79821485D01*
X94992857Y-87054819D02*
X95326190Y-86578628D01*
X95564285Y-87054819D02*
X95564285Y-86054819D01*
X95564285Y-86054819D02*
X95183333Y-86054819D01*
X95183333Y-86054819D02*
X95088095Y-86102438D01*
X95088095Y-86102438D02*
X95040476Y-86150057D01*
X95040476Y-86150057D02*
X94992857Y-86245295D01*
X94992857Y-86245295D02*
X94992857Y-86388152D01*
X94992857Y-86388152D02*
X95040476Y-86483390D01*
X95040476Y-86483390D02*
X95088095Y-86531009D01*
X95088095Y-86531009D02*
X95183333Y-86578628D01*
X95183333Y-86578628D02*
X95564285Y-86578628D01*
X94135714Y-86388152D02*
X94135714Y-87054819D01*
X94373809Y-86007200D02*
X94611904Y-86721485D01*
X94611904Y-86721485D02*
X93992857Y-86721485D01*
X93707142Y-86054819D02*
X93088095Y-86054819D01*
X93088095Y-86054819D02*
X93421428Y-86435771D01*
X93421428Y-86435771D02*
X93278571Y-86435771D01*
X93278571Y-86435771D02*
X93183333Y-86483390D01*
X93183333Y-86483390D02*
X93135714Y-86531009D01*
X93135714Y-86531009D02*
X93088095Y-86626247D01*
X93088095Y-86626247D02*
X93088095Y-86864342D01*
X93088095Y-86864342D02*
X93135714Y-86959580D01*
X93135714Y-86959580D02*
X93183333Y-87007200D01*
X93183333Y-87007200D02*
X93278571Y-87054819D01*
X93278571Y-87054819D02*
X93564285Y-87054819D01*
X93564285Y-87054819D02*
X93659523Y-87007200D01*
X93659523Y-87007200D02*
X93707142Y-86959580D01*
X95242857Y-85354819D02*
X95576190Y-84878628D01*
X95814285Y-85354819D02*
X95814285Y-84354819D01*
X95814285Y-84354819D02*
X95433333Y-84354819D01*
X95433333Y-84354819D02*
X95338095Y-84402438D01*
X95338095Y-84402438D02*
X95290476Y-84450057D01*
X95290476Y-84450057D02*
X95242857Y-84545295D01*
X95242857Y-84545295D02*
X95242857Y-84688152D01*
X95242857Y-84688152D02*
X95290476Y-84783390D01*
X95290476Y-84783390D02*
X95338095Y-84831009D01*
X95338095Y-84831009D02*
X95433333Y-84878628D01*
X95433333Y-84878628D02*
X95814285Y-84878628D01*
X94385714Y-84688152D02*
X94385714Y-85354819D01*
X94623809Y-84307200D02*
X94861904Y-85021485D01*
X94861904Y-85021485D02*
X94242857Y-85021485D01*
X93909523Y-84450057D02*
X93861904Y-84402438D01*
X93861904Y-84402438D02*
X93766666Y-84354819D01*
X93766666Y-84354819D02*
X93528571Y-84354819D01*
X93528571Y-84354819D02*
X93433333Y-84402438D01*
X93433333Y-84402438D02*
X93385714Y-84450057D01*
X93385714Y-84450057D02*
X93338095Y-84545295D01*
X93338095Y-84545295D02*
X93338095Y-84640533D01*
X93338095Y-84640533D02*
X93385714Y-84783390D01*
X93385714Y-84783390D02*
X93957142Y-85354819D01*
X93957142Y-85354819D02*
X93338095Y-85354819D01*
X54961904Y-94704819D02*
X54961904Y-95514342D01*
X54961904Y-95514342D02*
X54914285Y-95609580D01*
X54914285Y-95609580D02*
X54866666Y-95657200D01*
X54866666Y-95657200D02*
X54771428Y-95704819D01*
X54771428Y-95704819D02*
X54580952Y-95704819D01*
X54580952Y-95704819D02*
X54485714Y-95657200D01*
X54485714Y-95657200D02*
X54438095Y-95609580D01*
X54438095Y-95609580D02*
X54390476Y-95514342D01*
X54390476Y-95514342D02*
X54390476Y-94704819D01*
X54009523Y-94704819D02*
X53390476Y-94704819D01*
X53390476Y-94704819D02*
X53723809Y-95085771D01*
X53723809Y-95085771D02*
X53580952Y-95085771D01*
X53580952Y-95085771D02*
X53485714Y-95133390D01*
X53485714Y-95133390D02*
X53438095Y-95181009D01*
X53438095Y-95181009D02*
X53390476Y-95276247D01*
X53390476Y-95276247D02*
X53390476Y-95514342D01*
X53390476Y-95514342D02*
X53438095Y-95609580D01*
X53438095Y-95609580D02*
X53485714Y-95657200D01*
X53485714Y-95657200D02*
X53580952Y-95704819D01*
X53580952Y-95704819D02*
X53866666Y-95704819D01*
X53866666Y-95704819D02*
X53961904Y-95657200D01*
X53961904Y-95657200D02*
X54009523Y-95609580D01*
X97504285Y-70434819D02*
X97504285Y-69434819D01*
X97504285Y-69434819D02*
X97266190Y-69434819D01*
X97266190Y-69434819D02*
X97123333Y-69482438D01*
X97123333Y-69482438D02*
X97028095Y-69577676D01*
X97028095Y-69577676D02*
X96980476Y-69672914D01*
X96980476Y-69672914D02*
X96932857Y-69863390D01*
X96932857Y-69863390D02*
X96932857Y-70006247D01*
X96932857Y-70006247D02*
X96980476Y-70196723D01*
X96980476Y-70196723D02*
X97028095Y-70291961D01*
X97028095Y-70291961D02*
X97123333Y-70387200D01*
X97123333Y-70387200D02*
X97266190Y-70434819D01*
X97266190Y-70434819D02*
X97504285Y-70434819D01*
X95980476Y-70434819D02*
X96551904Y-70434819D01*
X96266190Y-70434819D02*
X96266190Y-69434819D01*
X96266190Y-69434819D02*
X96361428Y-69577676D01*
X96361428Y-69577676D02*
X96456666Y-69672914D01*
X96456666Y-69672914D02*
X96551904Y-69720533D01*
X95599523Y-69530057D02*
X95551904Y-69482438D01*
X95551904Y-69482438D02*
X95456666Y-69434819D01*
X95456666Y-69434819D02*
X95218571Y-69434819D01*
X95218571Y-69434819D02*
X95123333Y-69482438D01*
X95123333Y-69482438D02*
X95075714Y-69530057D01*
X95075714Y-69530057D02*
X95028095Y-69625295D01*
X95028095Y-69625295D02*
X95028095Y-69720533D01*
X95028095Y-69720533D02*
X95075714Y-69863390D01*
X95075714Y-69863390D02*
X95647142Y-70434819D01*
X95647142Y-70434819D02*
X95028095Y-70434819D01*
X94204819Y-88607142D02*
X93728628Y-88273809D01*
X94204819Y-88035714D02*
X93204819Y-88035714D01*
X93204819Y-88035714D02*
X93204819Y-88416666D01*
X93204819Y-88416666D02*
X93252438Y-88511904D01*
X93252438Y-88511904D02*
X93300057Y-88559523D01*
X93300057Y-88559523D02*
X93395295Y-88607142D01*
X93395295Y-88607142D02*
X93538152Y-88607142D01*
X93538152Y-88607142D02*
X93633390Y-88559523D01*
X93633390Y-88559523D02*
X93681009Y-88511904D01*
X93681009Y-88511904D02*
X93728628Y-88416666D01*
X93728628Y-88416666D02*
X93728628Y-88035714D01*
X93204819Y-88940476D02*
X93204819Y-89607142D01*
X93204819Y-89607142D02*
X94204819Y-89178571D01*
X93300057Y-89940476D02*
X93252438Y-89988095D01*
X93252438Y-89988095D02*
X93204819Y-90083333D01*
X93204819Y-90083333D02*
X93204819Y-90321428D01*
X93204819Y-90321428D02*
X93252438Y-90416666D01*
X93252438Y-90416666D02*
X93300057Y-90464285D01*
X93300057Y-90464285D02*
X93395295Y-90511904D01*
X93395295Y-90511904D02*
X93490533Y-90511904D01*
X93490533Y-90511904D02*
X93633390Y-90464285D01*
X93633390Y-90464285D02*
X94204819Y-89892857D01*
X94204819Y-89892857D02*
X94204819Y-90511904D01*
X14009523Y-62154819D02*
X13676190Y-63154819D01*
X13676190Y-63154819D02*
X13342857Y-62154819D01*
X12866666Y-62583390D02*
X12961904Y-62535771D01*
X12961904Y-62535771D02*
X13009523Y-62488152D01*
X13009523Y-62488152D02*
X13057142Y-62392914D01*
X13057142Y-62392914D02*
X13057142Y-62345295D01*
X13057142Y-62345295D02*
X13009523Y-62250057D01*
X13009523Y-62250057D02*
X12961904Y-62202438D01*
X12961904Y-62202438D02*
X12866666Y-62154819D01*
X12866666Y-62154819D02*
X12676190Y-62154819D01*
X12676190Y-62154819D02*
X12580952Y-62202438D01*
X12580952Y-62202438D02*
X12533333Y-62250057D01*
X12533333Y-62250057D02*
X12485714Y-62345295D01*
X12485714Y-62345295D02*
X12485714Y-62392914D01*
X12485714Y-62392914D02*
X12533333Y-62488152D01*
X12533333Y-62488152D02*
X12580952Y-62535771D01*
X12580952Y-62535771D02*
X12676190Y-62583390D01*
X12676190Y-62583390D02*
X12866666Y-62583390D01*
X12866666Y-62583390D02*
X12961904Y-62631009D01*
X12961904Y-62631009D02*
X13009523Y-62678628D01*
X13009523Y-62678628D02*
X13057142Y-62773866D01*
X13057142Y-62773866D02*
X13057142Y-62964342D01*
X13057142Y-62964342D02*
X13009523Y-63059580D01*
X13009523Y-63059580D02*
X12961904Y-63107200D01*
X12961904Y-63107200D02*
X12866666Y-63154819D01*
X12866666Y-63154819D02*
X12676190Y-63154819D01*
X12676190Y-63154819D02*
X12580952Y-63107200D01*
X12580952Y-63107200D02*
X12533333Y-63059580D01*
X12533333Y-63059580D02*
X12485714Y-62964342D01*
X12485714Y-62964342D02*
X12485714Y-62773866D01*
X12485714Y-62773866D02*
X12533333Y-62678628D01*
X12533333Y-62678628D02*
X12580952Y-62631009D01*
X12580952Y-62631009D02*
X12676190Y-62583390D01*
X16109523Y-92554819D02*
X15776190Y-93554819D01*
X15776190Y-93554819D02*
X15442857Y-92554819D01*
X15061904Y-93554819D02*
X14871428Y-93554819D01*
X14871428Y-93554819D02*
X14776190Y-93507200D01*
X14776190Y-93507200D02*
X14728571Y-93459580D01*
X14728571Y-93459580D02*
X14633333Y-93316723D01*
X14633333Y-93316723D02*
X14585714Y-93126247D01*
X14585714Y-93126247D02*
X14585714Y-92745295D01*
X14585714Y-92745295D02*
X14633333Y-92650057D01*
X14633333Y-92650057D02*
X14680952Y-92602438D01*
X14680952Y-92602438D02*
X14776190Y-92554819D01*
X14776190Y-92554819D02*
X14966666Y-92554819D01*
X14966666Y-92554819D02*
X15061904Y-92602438D01*
X15061904Y-92602438D02*
X15109523Y-92650057D01*
X15109523Y-92650057D02*
X15157142Y-92745295D01*
X15157142Y-92745295D02*
X15157142Y-92983390D01*
X15157142Y-92983390D02*
X15109523Y-93078628D01*
X15109523Y-93078628D02*
X15061904Y-93126247D01*
X15061904Y-93126247D02*
X14966666Y-93173866D01*
X14966666Y-93173866D02*
X14776190Y-93173866D01*
X14776190Y-93173866D02*
X14680952Y-93126247D01*
X14680952Y-93126247D02*
X14633333Y-93078628D01*
X14633333Y-93078628D02*
X14585714Y-92983390D01*
X17385713Y-52654819D02*
X17052380Y-53654819D01*
X17052380Y-53654819D02*
X16719047Y-52654819D01*
X15861904Y-53654819D02*
X16433332Y-53654819D01*
X16147618Y-53654819D02*
X16147618Y-52654819D01*
X16147618Y-52654819D02*
X16242856Y-52797676D01*
X16242856Y-52797676D02*
X16338094Y-52892914D01*
X16338094Y-52892914D02*
X16433332Y-52940533D01*
X15242856Y-52654819D02*
X15147618Y-52654819D01*
X15147618Y-52654819D02*
X15052380Y-52702438D01*
X15052380Y-52702438D02*
X15004761Y-52750057D01*
X15004761Y-52750057D02*
X14957142Y-52845295D01*
X14957142Y-52845295D02*
X14909523Y-53035771D01*
X14909523Y-53035771D02*
X14909523Y-53273866D01*
X14909523Y-53273866D02*
X14957142Y-53464342D01*
X14957142Y-53464342D02*
X15004761Y-53559580D01*
X15004761Y-53559580D02*
X15052380Y-53607200D01*
X15052380Y-53607200D02*
X15147618Y-53654819D01*
X15147618Y-53654819D02*
X15242856Y-53654819D01*
X15242856Y-53654819D02*
X15338094Y-53607200D01*
X15338094Y-53607200D02*
X15385713Y-53559580D01*
X15385713Y-53559580D02*
X15433332Y-53464342D01*
X15433332Y-53464342D02*
X15480951Y-53273866D01*
X15480951Y-53273866D02*
X15480951Y-53035771D01*
X15480951Y-53035771D02*
X15433332Y-52845295D01*
X15433332Y-52845295D02*
X15385713Y-52750057D01*
X15385713Y-52750057D02*
X15338094Y-52702438D01*
X15338094Y-52702438D02*
X15242856Y-52654819D01*
X17185713Y-78554819D02*
X16852380Y-79554819D01*
X16852380Y-79554819D02*
X16519047Y-78554819D01*
X15661904Y-79554819D02*
X16233332Y-79554819D01*
X15947618Y-79554819D02*
X15947618Y-78554819D01*
X15947618Y-78554819D02*
X16042856Y-78697676D01*
X16042856Y-78697676D02*
X16138094Y-78792914D01*
X16138094Y-78792914D02*
X16233332Y-78840533D01*
X14709523Y-79554819D02*
X15280951Y-79554819D01*
X14995237Y-79554819D02*
X14995237Y-78554819D01*
X14995237Y-78554819D02*
X15090475Y-78697676D01*
X15090475Y-78697676D02*
X15185713Y-78792914D01*
X15185713Y-78792914D02*
X15280951Y-78840533D01*
X17285713Y-40854819D02*
X16952380Y-41854819D01*
X16952380Y-41854819D02*
X16619047Y-40854819D01*
X15761904Y-41854819D02*
X16333332Y-41854819D01*
X16047618Y-41854819D02*
X16047618Y-40854819D01*
X16047618Y-40854819D02*
X16142856Y-40997676D01*
X16142856Y-40997676D02*
X16238094Y-41092914D01*
X16238094Y-41092914D02*
X16333332Y-41140533D01*
X15428570Y-40854819D02*
X14809523Y-40854819D01*
X14809523Y-40854819D02*
X15142856Y-41235771D01*
X15142856Y-41235771D02*
X14999999Y-41235771D01*
X14999999Y-41235771D02*
X14904761Y-41283390D01*
X14904761Y-41283390D02*
X14857142Y-41331009D01*
X14857142Y-41331009D02*
X14809523Y-41426247D01*
X14809523Y-41426247D02*
X14809523Y-41664342D01*
X14809523Y-41664342D02*
X14857142Y-41759580D01*
X14857142Y-41759580D02*
X14904761Y-41807200D01*
X14904761Y-41807200D02*
X14999999Y-41854819D01*
X14999999Y-41854819D02*
X15285713Y-41854819D01*
X15285713Y-41854819D02*
X15380951Y-41807200D01*
X15380951Y-41807200D02*
X15428570Y-41759580D01*
X16685713Y-26054819D02*
X16352380Y-27054819D01*
X16352380Y-27054819D02*
X16019047Y-26054819D01*
X15161904Y-27054819D02*
X15733332Y-27054819D01*
X15447618Y-27054819D02*
X15447618Y-26054819D01*
X15447618Y-26054819D02*
X15542856Y-26197676D01*
X15542856Y-26197676D02*
X15638094Y-26292914D01*
X15638094Y-26292914D02*
X15733332Y-26340533D01*
X14780951Y-26150057D02*
X14733332Y-26102438D01*
X14733332Y-26102438D02*
X14638094Y-26054819D01*
X14638094Y-26054819D02*
X14399999Y-26054819D01*
X14399999Y-26054819D02*
X14304761Y-26102438D01*
X14304761Y-26102438D02*
X14257142Y-26150057D01*
X14257142Y-26150057D02*
X14209523Y-26245295D01*
X14209523Y-26245295D02*
X14209523Y-26340533D01*
X14209523Y-26340533D02*
X14257142Y-26483390D01*
X14257142Y-26483390D02*
X14828570Y-27054819D01*
X14828570Y-27054819D02*
X14209523Y-27054819D01*
X125309523Y-40654819D02*
X124976190Y-41654819D01*
X124976190Y-41654819D02*
X124642857Y-40654819D01*
X123833333Y-40654819D02*
X124309523Y-40654819D01*
X124309523Y-40654819D02*
X124357142Y-41131009D01*
X124357142Y-41131009D02*
X124309523Y-41083390D01*
X124309523Y-41083390D02*
X124214285Y-41035771D01*
X124214285Y-41035771D02*
X123976190Y-41035771D01*
X123976190Y-41035771D02*
X123880952Y-41083390D01*
X123880952Y-41083390D02*
X123833333Y-41131009D01*
X123833333Y-41131009D02*
X123785714Y-41226247D01*
X123785714Y-41226247D02*
X123785714Y-41464342D01*
X123785714Y-41464342D02*
X123833333Y-41559580D01*
X123833333Y-41559580D02*
X123880952Y-41607200D01*
X123880952Y-41607200D02*
X123976190Y-41654819D01*
X123976190Y-41654819D02*
X124214285Y-41654819D01*
X124214285Y-41654819D02*
X124309523Y-41607200D01*
X124309523Y-41607200D02*
X124357142Y-41559580D01*
X124609523Y-78654819D02*
X124276190Y-79654819D01*
X124276190Y-79654819D02*
X123942857Y-78654819D01*
X123657142Y-78750057D02*
X123609523Y-78702438D01*
X123609523Y-78702438D02*
X123514285Y-78654819D01*
X123514285Y-78654819D02*
X123276190Y-78654819D01*
X123276190Y-78654819D02*
X123180952Y-78702438D01*
X123180952Y-78702438D02*
X123133333Y-78750057D01*
X123133333Y-78750057D02*
X123085714Y-78845295D01*
X123085714Y-78845295D02*
X123085714Y-78940533D01*
X123085714Y-78940533D02*
X123133333Y-79083390D01*
X123133333Y-79083390D02*
X123704761Y-79654819D01*
X123704761Y-79654819D02*
X123085714Y-79654819D01*
X124809523Y-26554819D02*
X124476190Y-27554819D01*
X124476190Y-27554819D02*
X124142857Y-26554819D01*
X123380952Y-26554819D02*
X123571428Y-26554819D01*
X123571428Y-26554819D02*
X123666666Y-26602438D01*
X123666666Y-26602438D02*
X123714285Y-26650057D01*
X123714285Y-26650057D02*
X123809523Y-26792914D01*
X123809523Y-26792914D02*
X123857142Y-26983390D01*
X123857142Y-26983390D02*
X123857142Y-27364342D01*
X123857142Y-27364342D02*
X123809523Y-27459580D01*
X123809523Y-27459580D02*
X123761904Y-27507200D01*
X123761904Y-27507200D02*
X123666666Y-27554819D01*
X123666666Y-27554819D02*
X123476190Y-27554819D01*
X123476190Y-27554819D02*
X123380952Y-27507200D01*
X123380952Y-27507200D02*
X123333333Y-27459580D01*
X123333333Y-27459580D02*
X123285714Y-27364342D01*
X123285714Y-27364342D02*
X123285714Y-27126247D01*
X123285714Y-27126247D02*
X123333333Y-27031009D01*
X123333333Y-27031009D02*
X123380952Y-26983390D01*
X123380952Y-26983390D02*
X123476190Y-26935771D01*
X123476190Y-26935771D02*
X123666666Y-26935771D01*
X123666666Y-26935771D02*
X123761904Y-26983390D01*
X123761904Y-26983390D02*
X123809523Y-27031009D01*
X123809523Y-27031009D02*
X123857142Y-27126247D01*
X124609523Y-66054819D02*
X124276190Y-67054819D01*
X124276190Y-67054819D02*
X123942857Y-66054819D01*
X123704761Y-66054819D02*
X123085714Y-66054819D01*
X123085714Y-66054819D02*
X123419047Y-66435771D01*
X123419047Y-66435771D02*
X123276190Y-66435771D01*
X123276190Y-66435771D02*
X123180952Y-66483390D01*
X123180952Y-66483390D02*
X123133333Y-66531009D01*
X123133333Y-66531009D02*
X123085714Y-66626247D01*
X123085714Y-66626247D02*
X123085714Y-66864342D01*
X123085714Y-66864342D02*
X123133333Y-66959580D01*
X123133333Y-66959580D02*
X123180952Y-67007200D01*
X123180952Y-67007200D02*
X123276190Y-67054819D01*
X123276190Y-67054819D02*
X123561904Y-67054819D01*
X123561904Y-67054819D02*
X123657142Y-67007200D01*
X123657142Y-67007200D02*
X123704761Y-66959580D01*
X124809523Y-52554819D02*
X124476190Y-53554819D01*
X124476190Y-53554819D02*
X124142857Y-52554819D01*
X123380952Y-52888152D02*
X123380952Y-53554819D01*
X123619047Y-52507200D02*
X123857142Y-53221485D01*
X123857142Y-53221485D02*
X123238095Y-53221485D01*
X124409523Y-92654819D02*
X124076190Y-93654819D01*
X124076190Y-93654819D02*
X123742857Y-92654819D01*
X122885714Y-93654819D02*
X123457142Y-93654819D01*
X123171428Y-93654819D02*
X123171428Y-92654819D01*
X123171428Y-92654819D02*
X123266666Y-92797676D01*
X123266666Y-92797676D02*
X123361904Y-92892914D01*
X123361904Y-92892914D02*
X123457142Y-92940533D01*
X127742857Y-31859580D02*
X127790476Y-31907200D01*
X127790476Y-31907200D02*
X127933333Y-31954819D01*
X127933333Y-31954819D02*
X128028571Y-31954819D01*
X128028571Y-31954819D02*
X128171428Y-31907200D01*
X128171428Y-31907200D02*
X128266666Y-31811961D01*
X128266666Y-31811961D02*
X128314285Y-31716723D01*
X128314285Y-31716723D02*
X128361904Y-31526247D01*
X128361904Y-31526247D02*
X128361904Y-31383390D01*
X128361904Y-31383390D02*
X128314285Y-31192914D01*
X128314285Y-31192914D02*
X128266666Y-31097676D01*
X128266666Y-31097676D02*
X128171428Y-31002438D01*
X128171428Y-31002438D02*
X128028571Y-30954819D01*
X128028571Y-30954819D02*
X127933333Y-30954819D01*
X127933333Y-30954819D02*
X127790476Y-31002438D01*
X127790476Y-31002438D02*
X127742857Y-31050057D01*
X126885714Y-31288152D02*
X126885714Y-31954819D01*
X127123809Y-30907200D02*
X127361904Y-31621485D01*
X127361904Y-31621485D02*
X126742857Y-31621485D01*
X126171428Y-30954819D02*
X126076190Y-30954819D01*
X126076190Y-30954819D02*
X125980952Y-31002438D01*
X125980952Y-31002438D02*
X125933333Y-31050057D01*
X125933333Y-31050057D02*
X125885714Y-31145295D01*
X125885714Y-31145295D02*
X125838095Y-31335771D01*
X125838095Y-31335771D02*
X125838095Y-31573866D01*
X125838095Y-31573866D02*
X125885714Y-31764342D01*
X125885714Y-31764342D02*
X125933333Y-31859580D01*
X125933333Y-31859580D02*
X125980952Y-31907200D01*
X125980952Y-31907200D02*
X126076190Y-31954819D01*
X126076190Y-31954819D02*
X126171428Y-31954819D01*
X126171428Y-31954819D02*
X126266666Y-31907200D01*
X126266666Y-31907200D02*
X126314285Y-31859580D01*
X126314285Y-31859580D02*
X126361904Y-31764342D01*
X126361904Y-31764342D02*
X126409523Y-31573866D01*
X126409523Y-31573866D02*
X126409523Y-31335771D01*
X126409523Y-31335771D02*
X126361904Y-31145295D01*
X126361904Y-31145295D02*
X126314285Y-31050057D01*
X126314285Y-31050057D02*
X126266666Y-31002438D01*
X126266666Y-31002438D02*
X126171428Y-30954819D01*
X128042857Y-84059580D02*
X128090476Y-84107200D01*
X128090476Y-84107200D02*
X128233333Y-84154819D01*
X128233333Y-84154819D02*
X128328571Y-84154819D01*
X128328571Y-84154819D02*
X128471428Y-84107200D01*
X128471428Y-84107200D02*
X128566666Y-84011961D01*
X128566666Y-84011961D02*
X128614285Y-83916723D01*
X128614285Y-83916723D02*
X128661904Y-83726247D01*
X128661904Y-83726247D02*
X128661904Y-83583390D01*
X128661904Y-83583390D02*
X128614285Y-83392914D01*
X128614285Y-83392914D02*
X128566666Y-83297676D01*
X128566666Y-83297676D02*
X128471428Y-83202438D01*
X128471428Y-83202438D02*
X128328571Y-83154819D01*
X128328571Y-83154819D02*
X128233333Y-83154819D01*
X128233333Y-83154819D02*
X128090476Y-83202438D01*
X128090476Y-83202438D02*
X128042857Y-83250057D01*
X127185714Y-83488152D02*
X127185714Y-84154819D01*
X127423809Y-83107200D02*
X127661904Y-83821485D01*
X127661904Y-83821485D02*
X127042857Y-83821485D01*
X126233333Y-83488152D02*
X126233333Y-84154819D01*
X126471428Y-83107200D02*
X126709523Y-83821485D01*
X126709523Y-83821485D02*
X126090476Y-83821485D01*
X128042857Y-57959580D02*
X128090476Y-58007200D01*
X128090476Y-58007200D02*
X128233333Y-58054819D01*
X128233333Y-58054819D02*
X128328571Y-58054819D01*
X128328571Y-58054819D02*
X128471428Y-58007200D01*
X128471428Y-58007200D02*
X128566666Y-57911961D01*
X128566666Y-57911961D02*
X128614285Y-57816723D01*
X128614285Y-57816723D02*
X128661904Y-57626247D01*
X128661904Y-57626247D02*
X128661904Y-57483390D01*
X128661904Y-57483390D02*
X128614285Y-57292914D01*
X128614285Y-57292914D02*
X128566666Y-57197676D01*
X128566666Y-57197676D02*
X128471428Y-57102438D01*
X128471428Y-57102438D02*
X128328571Y-57054819D01*
X128328571Y-57054819D02*
X128233333Y-57054819D01*
X128233333Y-57054819D02*
X128090476Y-57102438D01*
X128090476Y-57102438D02*
X128042857Y-57150057D01*
X127185714Y-57388152D02*
X127185714Y-58054819D01*
X127423809Y-57007200D02*
X127661904Y-57721485D01*
X127661904Y-57721485D02*
X127042857Y-57721485D01*
X126519047Y-57483390D02*
X126614285Y-57435771D01*
X126614285Y-57435771D02*
X126661904Y-57388152D01*
X126661904Y-57388152D02*
X126709523Y-57292914D01*
X126709523Y-57292914D02*
X126709523Y-57245295D01*
X126709523Y-57245295D02*
X126661904Y-57150057D01*
X126661904Y-57150057D02*
X126614285Y-57102438D01*
X126614285Y-57102438D02*
X126519047Y-57054819D01*
X126519047Y-57054819D02*
X126328571Y-57054819D01*
X126328571Y-57054819D02*
X126233333Y-57102438D01*
X126233333Y-57102438D02*
X126185714Y-57150057D01*
X126185714Y-57150057D02*
X126138095Y-57245295D01*
X126138095Y-57245295D02*
X126138095Y-57292914D01*
X126138095Y-57292914D02*
X126185714Y-57388152D01*
X126185714Y-57388152D02*
X126233333Y-57435771D01*
X126233333Y-57435771D02*
X126328571Y-57483390D01*
X126328571Y-57483390D02*
X126519047Y-57483390D01*
X126519047Y-57483390D02*
X126614285Y-57531009D01*
X126614285Y-57531009D02*
X126661904Y-57578628D01*
X126661904Y-57578628D02*
X126709523Y-57673866D01*
X126709523Y-57673866D02*
X126709523Y-57864342D01*
X126709523Y-57864342D02*
X126661904Y-57959580D01*
X126661904Y-57959580D02*
X126614285Y-58007200D01*
X126614285Y-58007200D02*
X126519047Y-58054819D01*
X126519047Y-58054819D02*
X126328571Y-58054819D01*
X126328571Y-58054819D02*
X126233333Y-58007200D01*
X126233333Y-58007200D02*
X126185714Y-57959580D01*
X126185714Y-57959580D02*
X126138095Y-57864342D01*
X126138095Y-57864342D02*
X126138095Y-57673866D01*
X126138095Y-57673866D02*
X126185714Y-57578628D01*
X126185714Y-57578628D02*
X126233333Y-57531009D01*
X126233333Y-57531009D02*
X126328571Y-57483390D01*
X17842857Y-64779580D02*
X17890476Y-64827200D01*
X17890476Y-64827200D02*
X18033333Y-64874819D01*
X18033333Y-64874819D02*
X18128571Y-64874819D01*
X18128571Y-64874819D02*
X18271428Y-64827200D01*
X18271428Y-64827200D02*
X18366666Y-64731961D01*
X18366666Y-64731961D02*
X18414285Y-64636723D01*
X18414285Y-64636723D02*
X18461904Y-64446247D01*
X18461904Y-64446247D02*
X18461904Y-64303390D01*
X18461904Y-64303390D02*
X18414285Y-64112914D01*
X18414285Y-64112914D02*
X18366666Y-64017676D01*
X18366666Y-64017676D02*
X18271428Y-63922438D01*
X18271428Y-63922438D02*
X18128571Y-63874819D01*
X18128571Y-63874819D02*
X18033333Y-63874819D01*
X18033333Y-63874819D02*
X17890476Y-63922438D01*
X17890476Y-63922438D02*
X17842857Y-63970057D01*
X16985714Y-63874819D02*
X17176190Y-63874819D01*
X17176190Y-63874819D02*
X17271428Y-63922438D01*
X17271428Y-63922438D02*
X17319047Y-63970057D01*
X17319047Y-63970057D02*
X17414285Y-64112914D01*
X17414285Y-64112914D02*
X17461904Y-64303390D01*
X17461904Y-64303390D02*
X17461904Y-64684342D01*
X17461904Y-64684342D02*
X17414285Y-64779580D01*
X17414285Y-64779580D02*
X17366666Y-64827200D01*
X17366666Y-64827200D02*
X17271428Y-64874819D01*
X17271428Y-64874819D02*
X17080952Y-64874819D01*
X17080952Y-64874819D02*
X16985714Y-64827200D01*
X16985714Y-64827200D02*
X16938095Y-64779580D01*
X16938095Y-64779580D02*
X16890476Y-64684342D01*
X16890476Y-64684342D02*
X16890476Y-64446247D01*
X16890476Y-64446247D02*
X16938095Y-64351009D01*
X16938095Y-64351009D02*
X16985714Y-64303390D01*
X16985714Y-64303390D02*
X17080952Y-64255771D01*
X17080952Y-64255771D02*
X17271428Y-64255771D01*
X17271428Y-64255771D02*
X17366666Y-64303390D01*
X17366666Y-64303390D02*
X17414285Y-64351009D01*
X17414285Y-64351009D02*
X17461904Y-64446247D01*
X16033333Y-64208152D02*
X16033333Y-64874819D01*
X16271428Y-63827200D02*
X16509523Y-64541485D01*
X16509523Y-64541485D02*
X15890476Y-64541485D01*
X13442857Y-88859580D02*
X13490476Y-88907200D01*
X13490476Y-88907200D02*
X13633333Y-88954819D01*
X13633333Y-88954819D02*
X13728571Y-88954819D01*
X13728571Y-88954819D02*
X13871428Y-88907200D01*
X13871428Y-88907200D02*
X13966666Y-88811961D01*
X13966666Y-88811961D02*
X14014285Y-88716723D01*
X14014285Y-88716723D02*
X14061904Y-88526247D01*
X14061904Y-88526247D02*
X14061904Y-88383390D01*
X14061904Y-88383390D02*
X14014285Y-88192914D01*
X14014285Y-88192914D02*
X13966666Y-88097676D01*
X13966666Y-88097676D02*
X13871428Y-88002438D01*
X13871428Y-88002438D02*
X13728571Y-87954819D01*
X13728571Y-87954819D02*
X13633333Y-87954819D01*
X13633333Y-87954819D02*
X13490476Y-88002438D01*
X13490476Y-88002438D02*
X13442857Y-88050057D01*
X12585714Y-87954819D02*
X12776190Y-87954819D01*
X12776190Y-87954819D02*
X12871428Y-88002438D01*
X12871428Y-88002438D02*
X12919047Y-88050057D01*
X12919047Y-88050057D02*
X13014285Y-88192914D01*
X13014285Y-88192914D02*
X13061904Y-88383390D01*
X13061904Y-88383390D02*
X13061904Y-88764342D01*
X13061904Y-88764342D02*
X13014285Y-88859580D01*
X13014285Y-88859580D02*
X12966666Y-88907200D01*
X12966666Y-88907200D02*
X12871428Y-88954819D01*
X12871428Y-88954819D02*
X12680952Y-88954819D01*
X12680952Y-88954819D02*
X12585714Y-88907200D01*
X12585714Y-88907200D02*
X12538095Y-88859580D01*
X12538095Y-88859580D02*
X12490476Y-88764342D01*
X12490476Y-88764342D02*
X12490476Y-88526247D01*
X12490476Y-88526247D02*
X12538095Y-88431009D01*
X12538095Y-88431009D02*
X12585714Y-88383390D01*
X12585714Y-88383390D02*
X12680952Y-88335771D01*
X12680952Y-88335771D02*
X12871428Y-88335771D01*
X12871428Y-88335771D02*
X12966666Y-88383390D01*
X12966666Y-88383390D02*
X13014285Y-88431009D01*
X13014285Y-88431009D02*
X13061904Y-88526247D01*
X11919047Y-88383390D02*
X12014285Y-88335771D01*
X12014285Y-88335771D02*
X12061904Y-88288152D01*
X12061904Y-88288152D02*
X12109523Y-88192914D01*
X12109523Y-88192914D02*
X12109523Y-88145295D01*
X12109523Y-88145295D02*
X12061904Y-88050057D01*
X12061904Y-88050057D02*
X12014285Y-88002438D01*
X12014285Y-88002438D02*
X11919047Y-87954819D01*
X11919047Y-87954819D02*
X11728571Y-87954819D01*
X11728571Y-87954819D02*
X11633333Y-88002438D01*
X11633333Y-88002438D02*
X11585714Y-88050057D01*
X11585714Y-88050057D02*
X11538095Y-88145295D01*
X11538095Y-88145295D02*
X11538095Y-88192914D01*
X11538095Y-88192914D02*
X11585714Y-88288152D01*
X11585714Y-88288152D02*
X11633333Y-88335771D01*
X11633333Y-88335771D02*
X11728571Y-88383390D01*
X11728571Y-88383390D02*
X11919047Y-88383390D01*
X11919047Y-88383390D02*
X12014285Y-88431009D01*
X12014285Y-88431009D02*
X12061904Y-88478628D01*
X12061904Y-88478628D02*
X12109523Y-88573866D01*
X12109523Y-88573866D02*
X12109523Y-88764342D01*
X12109523Y-88764342D02*
X12061904Y-88859580D01*
X12061904Y-88859580D02*
X12014285Y-88907200D01*
X12014285Y-88907200D02*
X11919047Y-88954819D01*
X11919047Y-88954819D02*
X11728571Y-88954819D01*
X11728571Y-88954819D02*
X11633333Y-88907200D01*
X11633333Y-88907200D02*
X11585714Y-88859580D01*
X11585714Y-88859580D02*
X11538095Y-88764342D01*
X11538095Y-88764342D02*
X11538095Y-88573866D01*
X11538095Y-88573866D02*
X11585714Y-88478628D01*
X11585714Y-88478628D02*
X11633333Y-88431009D01*
X11633333Y-88431009D02*
X11728571Y-88383390D01*
X13642857Y-36959580D02*
X13690476Y-37007200D01*
X13690476Y-37007200D02*
X13833333Y-37054819D01*
X13833333Y-37054819D02*
X13928571Y-37054819D01*
X13928571Y-37054819D02*
X14071428Y-37007200D01*
X14071428Y-37007200D02*
X14166666Y-36911961D01*
X14166666Y-36911961D02*
X14214285Y-36816723D01*
X14214285Y-36816723D02*
X14261904Y-36626247D01*
X14261904Y-36626247D02*
X14261904Y-36483390D01*
X14261904Y-36483390D02*
X14214285Y-36292914D01*
X14214285Y-36292914D02*
X14166666Y-36197676D01*
X14166666Y-36197676D02*
X14071428Y-36102438D01*
X14071428Y-36102438D02*
X13928571Y-36054819D01*
X13928571Y-36054819D02*
X13833333Y-36054819D01*
X13833333Y-36054819D02*
X13690476Y-36102438D01*
X13690476Y-36102438D02*
X13642857Y-36150057D01*
X13309523Y-36054819D02*
X12642857Y-36054819D01*
X12642857Y-36054819D02*
X13071428Y-37054819D01*
X12309523Y-36150057D02*
X12261904Y-36102438D01*
X12261904Y-36102438D02*
X12166666Y-36054819D01*
X12166666Y-36054819D02*
X11928571Y-36054819D01*
X11928571Y-36054819D02*
X11833333Y-36102438D01*
X11833333Y-36102438D02*
X11785714Y-36150057D01*
X11785714Y-36150057D02*
X11738095Y-36245295D01*
X11738095Y-36245295D02*
X11738095Y-36340533D01*
X11738095Y-36340533D02*
X11785714Y-36483390D01*
X11785714Y-36483390D02*
X12357142Y-37054819D01*
X12357142Y-37054819D02*
X11738095Y-37054819D01*
X51659580Y-20133333D02*
X51707200Y-20085714D01*
X51707200Y-20085714D02*
X51754819Y-19942857D01*
X51754819Y-19942857D02*
X51754819Y-19847619D01*
X51754819Y-19847619D02*
X51707200Y-19704762D01*
X51707200Y-19704762D02*
X51611961Y-19609524D01*
X51611961Y-19609524D02*
X51516723Y-19561905D01*
X51516723Y-19561905D02*
X51326247Y-19514286D01*
X51326247Y-19514286D02*
X51183390Y-19514286D01*
X51183390Y-19514286D02*
X50992914Y-19561905D01*
X50992914Y-19561905D02*
X50897676Y-19609524D01*
X50897676Y-19609524D02*
X50802438Y-19704762D01*
X50802438Y-19704762D02*
X50754819Y-19847619D01*
X50754819Y-19847619D02*
X50754819Y-19942857D01*
X50754819Y-19942857D02*
X50802438Y-20085714D01*
X50802438Y-20085714D02*
X50850057Y-20133333D01*
X50754819Y-20466667D02*
X50754819Y-21133333D01*
X50754819Y-21133333D02*
X51754819Y-20704762D01*
X49359580Y-19657142D02*
X49407200Y-19609523D01*
X49407200Y-19609523D02*
X49454819Y-19466666D01*
X49454819Y-19466666D02*
X49454819Y-19371428D01*
X49454819Y-19371428D02*
X49407200Y-19228571D01*
X49407200Y-19228571D02*
X49311961Y-19133333D01*
X49311961Y-19133333D02*
X49216723Y-19085714D01*
X49216723Y-19085714D02*
X49026247Y-19038095D01*
X49026247Y-19038095D02*
X48883390Y-19038095D01*
X48883390Y-19038095D02*
X48692914Y-19085714D01*
X48692914Y-19085714D02*
X48597676Y-19133333D01*
X48597676Y-19133333D02*
X48502438Y-19228571D01*
X48502438Y-19228571D02*
X48454819Y-19371428D01*
X48454819Y-19371428D02*
X48454819Y-19466666D01*
X48454819Y-19466666D02*
X48502438Y-19609523D01*
X48502438Y-19609523D02*
X48550057Y-19657142D01*
X49454819Y-20609523D02*
X49454819Y-20038095D01*
X49454819Y-20323809D02*
X48454819Y-20323809D01*
X48454819Y-20323809D02*
X48597676Y-20228571D01*
X48597676Y-20228571D02*
X48692914Y-20133333D01*
X48692914Y-20133333D02*
X48740533Y-20038095D01*
X48454819Y-21228571D02*
X48454819Y-21323809D01*
X48454819Y-21323809D02*
X48502438Y-21419047D01*
X48502438Y-21419047D02*
X48550057Y-21466666D01*
X48550057Y-21466666D02*
X48645295Y-21514285D01*
X48645295Y-21514285D02*
X48835771Y-21561904D01*
X48835771Y-21561904D02*
X49073866Y-21561904D01*
X49073866Y-21561904D02*
X49264342Y-21514285D01*
X49264342Y-21514285D02*
X49359580Y-21466666D01*
X49359580Y-21466666D02*
X49407200Y-21419047D01*
X49407200Y-21419047D02*
X49454819Y-21323809D01*
X49454819Y-21323809D02*
X49454819Y-21228571D01*
X49454819Y-21228571D02*
X49407200Y-21133333D01*
X49407200Y-21133333D02*
X49359580Y-21085714D01*
X49359580Y-21085714D02*
X49264342Y-21038095D01*
X49264342Y-21038095D02*
X49073866Y-20990476D01*
X49073866Y-20990476D02*
X48835771Y-20990476D01*
X48835771Y-20990476D02*
X48645295Y-21038095D01*
X48645295Y-21038095D02*
X48550057Y-21085714D01*
X48550057Y-21085714D02*
X48502438Y-21133333D01*
X48502438Y-21133333D02*
X48454819Y-21228571D01*
X60659580Y-19657142D02*
X60707200Y-19609523D01*
X60707200Y-19609523D02*
X60754819Y-19466666D01*
X60754819Y-19466666D02*
X60754819Y-19371428D01*
X60754819Y-19371428D02*
X60707200Y-19228571D01*
X60707200Y-19228571D02*
X60611961Y-19133333D01*
X60611961Y-19133333D02*
X60516723Y-19085714D01*
X60516723Y-19085714D02*
X60326247Y-19038095D01*
X60326247Y-19038095D02*
X60183390Y-19038095D01*
X60183390Y-19038095D02*
X59992914Y-19085714D01*
X59992914Y-19085714D02*
X59897676Y-19133333D01*
X59897676Y-19133333D02*
X59802438Y-19228571D01*
X59802438Y-19228571D02*
X59754819Y-19371428D01*
X59754819Y-19371428D02*
X59754819Y-19466666D01*
X59754819Y-19466666D02*
X59802438Y-19609523D01*
X59802438Y-19609523D02*
X59850057Y-19657142D01*
X60754819Y-20609523D02*
X60754819Y-20038095D01*
X60754819Y-20323809D02*
X59754819Y-20323809D01*
X59754819Y-20323809D02*
X59897676Y-20228571D01*
X59897676Y-20228571D02*
X59992914Y-20133333D01*
X59992914Y-20133333D02*
X60040533Y-20038095D01*
X60183390Y-21180952D02*
X60135771Y-21085714D01*
X60135771Y-21085714D02*
X60088152Y-21038095D01*
X60088152Y-21038095D02*
X59992914Y-20990476D01*
X59992914Y-20990476D02*
X59945295Y-20990476D01*
X59945295Y-20990476D02*
X59850057Y-21038095D01*
X59850057Y-21038095D02*
X59802438Y-21085714D01*
X59802438Y-21085714D02*
X59754819Y-21180952D01*
X59754819Y-21180952D02*
X59754819Y-21371428D01*
X59754819Y-21371428D02*
X59802438Y-21466666D01*
X59802438Y-21466666D02*
X59850057Y-21514285D01*
X59850057Y-21514285D02*
X59945295Y-21561904D01*
X59945295Y-21561904D02*
X59992914Y-21561904D01*
X59992914Y-21561904D02*
X60088152Y-21514285D01*
X60088152Y-21514285D02*
X60135771Y-21466666D01*
X60135771Y-21466666D02*
X60183390Y-21371428D01*
X60183390Y-21371428D02*
X60183390Y-21180952D01*
X60183390Y-21180952D02*
X60231009Y-21085714D01*
X60231009Y-21085714D02*
X60278628Y-21038095D01*
X60278628Y-21038095D02*
X60373866Y-20990476D01*
X60373866Y-20990476D02*
X60564342Y-20990476D01*
X60564342Y-20990476D02*
X60659580Y-21038095D01*
X60659580Y-21038095D02*
X60707200Y-21085714D01*
X60707200Y-21085714D02*
X60754819Y-21180952D01*
X60754819Y-21180952D02*
X60754819Y-21371428D01*
X60754819Y-21371428D02*
X60707200Y-21466666D01*
X60707200Y-21466666D02*
X60659580Y-21514285D01*
X60659580Y-21514285D02*
X60564342Y-21561904D01*
X60564342Y-21561904D02*
X60373866Y-21561904D01*
X60373866Y-21561904D02*
X60278628Y-21514285D01*
X60278628Y-21514285D02*
X60231009Y-21466666D01*
X60231009Y-21466666D02*
X60183390Y-21371428D01*
X77659580Y-19557142D02*
X77707200Y-19509523D01*
X77707200Y-19509523D02*
X77754819Y-19366666D01*
X77754819Y-19366666D02*
X77754819Y-19271428D01*
X77754819Y-19271428D02*
X77707200Y-19128571D01*
X77707200Y-19128571D02*
X77611961Y-19033333D01*
X77611961Y-19033333D02*
X77516723Y-18985714D01*
X77516723Y-18985714D02*
X77326247Y-18938095D01*
X77326247Y-18938095D02*
X77183390Y-18938095D01*
X77183390Y-18938095D02*
X76992914Y-18985714D01*
X76992914Y-18985714D02*
X76897676Y-19033333D01*
X76897676Y-19033333D02*
X76802438Y-19128571D01*
X76802438Y-19128571D02*
X76754819Y-19271428D01*
X76754819Y-19271428D02*
X76754819Y-19366666D01*
X76754819Y-19366666D02*
X76802438Y-19509523D01*
X76802438Y-19509523D02*
X76850057Y-19557142D01*
X77754819Y-20509523D02*
X77754819Y-19938095D01*
X77754819Y-20223809D02*
X76754819Y-20223809D01*
X76754819Y-20223809D02*
X76897676Y-20128571D01*
X76897676Y-20128571D02*
X76992914Y-20033333D01*
X76992914Y-20033333D02*
X77040533Y-19938095D01*
X76754819Y-20842857D02*
X76754819Y-21509523D01*
X76754819Y-21509523D02*
X77754819Y-21080952D01*
X62959580Y-19557142D02*
X63007200Y-19509523D01*
X63007200Y-19509523D02*
X63054819Y-19366666D01*
X63054819Y-19366666D02*
X63054819Y-19271428D01*
X63054819Y-19271428D02*
X63007200Y-19128571D01*
X63007200Y-19128571D02*
X62911961Y-19033333D01*
X62911961Y-19033333D02*
X62816723Y-18985714D01*
X62816723Y-18985714D02*
X62626247Y-18938095D01*
X62626247Y-18938095D02*
X62483390Y-18938095D01*
X62483390Y-18938095D02*
X62292914Y-18985714D01*
X62292914Y-18985714D02*
X62197676Y-19033333D01*
X62197676Y-19033333D02*
X62102438Y-19128571D01*
X62102438Y-19128571D02*
X62054819Y-19271428D01*
X62054819Y-19271428D02*
X62054819Y-19366666D01*
X62054819Y-19366666D02*
X62102438Y-19509523D01*
X62102438Y-19509523D02*
X62150057Y-19557142D01*
X63054819Y-20509523D02*
X63054819Y-19938095D01*
X63054819Y-20223809D02*
X62054819Y-20223809D01*
X62054819Y-20223809D02*
X62197676Y-20128571D01*
X62197676Y-20128571D02*
X62292914Y-20033333D01*
X62292914Y-20033333D02*
X62340533Y-19938095D01*
X62054819Y-21366666D02*
X62054819Y-21176190D01*
X62054819Y-21176190D02*
X62102438Y-21080952D01*
X62102438Y-21080952D02*
X62150057Y-21033333D01*
X62150057Y-21033333D02*
X62292914Y-20938095D01*
X62292914Y-20938095D02*
X62483390Y-20890476D01*
X62483390Y-20890476D02*
X62864342Y-20890476D01*
X62864342Y-20890476D02*
X62959580Y-20938095D01*
X62959580Y-20938095D02*
X63007200Y-20985714D01*
X63007200Y-20985714D02*
X63054819Y-21080952D01*
X63054819Y-21080952D02*
X63054819Y-21271428D01*
X63054819Y-21271428D02*
X63007200Y-21366666D01*
X63007200Y-21366666D02*
X62959580Y-21414285D01*
X62959580Y-21414285D02*
X62864342Y-21461904D01*
X62864342Y-21461904D02*
X62626247Y-21461904D01*
X62626247Y-21461904D02*
X62531009Y-21414285D01*
X62531009Y-21414285D02*
X62483390Y-21366666D01*
X62483390Y-21366666D02*
X62435771Y-21271428D01*
X62435771Y-21271428D02*
X62435771Y-21080952D01*
X62435771Y-21080952D02*
X62483390Y-20985714D01*
X62483390Y-20985714D02*
X62531009Y-20938095D01*
X62531009Y-20938095D02*
X62626247Y-20890476D01*
X79959580Y-19657142D02*
X80007200Y-19609523D01*
X80007200Y-19609523D02*
X80054819Y-19466666D01*
X80054819Y-19466666D02*
X80054819Y-19371428D01*
X80054819Y-19371428D02*
X80007200Y-19228571D01*
X80007200Y-19228571D02*
X79911961Y-19133333D01*
X79911961Y-19133333D02*
X79816723Y-19085714D01*
X79816723Y-19085714D02*
X79626247Y-19038095D01*
X79626247Y-19038095D02*
X79483390Y-19038095D01*
X79483390Y-19038095D02*
X79292914Y-19085714D01*
X79292914Y-19085714D02*
X79197676Y-19133333D01*
X79197676Y-19133333D02*
X79102438Y-19228571D01*
X79102438Y-19228571D02*
X79054819Y-19371428D01*
X79054819Y-19371428D02*
X79054819Y-19466666D01*
X79054819Y-19466666D02*
X79102438Y-19609523D01*
X79102438Y-19609523D02*
X79150057Y-19657142D01*
X80054819Y-20609523D02*
X80054819Y-20038095D01*
X80054819Y-20323809D02*
X79054819Y-20323809D01*
X79054819Y-20323809D02*
X79197676Y-20228571D01*
X79197676Y-20228571D02*
X79292914Y-20133333D01*
X79292914Y-20133333D02*
X79340533Y-20038095D01*
X79054819Y-20942857D02*
X79054819Y-21561904D01*
X79054819Y-21561904D02*
X79435771Y-21228571D01*
X79435771Y-21228571D02*
X79435771Y-21371428D01*
X79435771Y-21371428D02*
X79483390Y-21466666D01*
X79483390Y-21466666D02*
X79531009Y-21514285D01*
X79531009Y-21514285D02*
X79626247Y-21561904D01*
X79626247Y-21561904D02*
X79864342Y-21561904D01*
X79864342Y-21561904D02*
X79959580Y-21514285D01*
X79959580Y-21514285D02*
X80007200Y-21466666D01*
X80007200Y-21466666D02*
X80054819Y-21371428D01*
X80054819Y-21371428D02*
X80054819Y-21085714D01*
X80054819Y-21085714D02*
X80007200Y-20990476D01*
X80007200Y-20990476D02*
X79959580Y-20942857D01*
X75359580Y-20133333D02*
X75407200Y-20085714D01*
X75407200Y-20085714D02*
X75454819Y-19942857D01*
X75454819Y-19942857D02*
X75454819Y-19847619D01*
X75454819Y-19847619D02*
X75407200Y-19704762D01*
X75407200Y-19704762D02*
X75311961Y-19609524D01*
X75311961Y-19609524D02*
X75216723Y-19561905D01*
X75216723Y-19561905D02*
X75026247Y-19514286D01*
X75026247Y-19514286D02*
X74883390Y-19514286D01*
X74883390Y-19514286D02*
X74692914Y-19561905D01*
X74692914Y-19561905D02*
X74597676Y-19609524D01*
X74597676Y-19609524D02*
X74502438Y-19704762D01*
X74502438Y-19704762D02*
X74454819Y-19847619D01*
X74454819Y-19847619D02*
X74454819Y-19942857D01*
X74454819Y-19942857D02*
X74502438Y-20085714D01*
X74502438Y-20085714D02*
X74550057Y-20133333D01*
X74883390Y-20704762D02*
X74835771Y-20609524D01*
X74835771Y-20609524D02*
X74788152Y-20561905D01*
X74788152Y-20561905D02*
X74692914Y-20514286D01*
X74692914Y-20514286D02*
X74645295Y-20514286D01*
X74645295Y-20514286D02*
X74550057Y-20561905D01*
X74550057Y-20561905D02*
X74502438Y-20609524D01*
X74502438Y-20609524D02*
X74454819Y-20704762D01*
X74454819Y-20704762D02*
X74454819Y-20895238D01*
X74454819Y-20895238D02*
X74502438Y-20990476D01*
X74502438Y-20990476D02*
X74550057Y-21038095D01*
X74550057Y-21038095D02*
X74645295Y-21085714D01*
X74645295Y-21085714D02*
X74692914Y-21085714D01*
X74692914Y-21085714D02*
X74788152Y-21038095D01*
X74788152Y-21038095D02*
X74835771Y-20990476D01*
X74835771Y-20990476D02*
X74883390Y-20895238D01*
X74883390Y-20895238D02*
X74883390Y-20704762D01*
X74883390Y-20704762D02*
X74931009Y-20609524D01*
X74931009Y-20609524D02*
X74978628Y-20561905D01*
X74978628Y-20561905D02*
X75073866Y-20514286D01*
X75073866Y-20514286D02*
X75264342Y-20514286D01*
X75264342Y-20514286D02*
X75359580Y-20561905D01*
X75359580Y-20561905D02*
X75407200Y-20609524D01*
X75407200Y-20609524D02*
X75454819Y-20704762D01*
X75454819Y-20704762D02*
X75454819Y-20895238D01*
X75454819Y-20895238D02*
X75407200Y-20990476D01*
X75407200Y-20990476D02*
X75359580Y-21038095D01*
X75359580Y-21038095D02*
X75264342Y-21085714D01*
X75264342Y-21085714D02*
X75073866Y-21085714D01*
X75073866Y-21085714D02*
X74978628Y-21038095D01*
X74978628Y-21038095D02*
X74931009Y-20990476D01*
X74931009Y-20990476D02*
X74883390Y-20895238D01*
X54059580Y-20133333D02*
X54107200Y-20085714D01*
X54107200Y-20085714D02*
X54154819Y-19942857D01*
X54154819Y-19942857D02*
X54154819Y-19847619D01*
X54154819Y-19847619D02*
X54107200Y-19704762D01*
X54107200Y-19704762D02*
X54011961Y-19609524D01*
X54011961Y-19609524D02*
X53916723Y-19561905D01*
X53916723Y-19561905D02*
X53726247Y-19514286D01*
X53726247Y-19514286D02*
X53583390Y-19514286D01*
X53583390Y-19514286D02*
X53392914Y-19561905D01*
X53392914Y-19561905D02*
X53297676Y-19609524D01*
X53297676Y-19609524D02*
X53202438Y-19704762D01*
X53202438Y-19704762D02*
X53154819Y-19847619D01*
X53154819Y-19847619D02*
X53154819Y-19942857D01*
X53154819Y-19942857D02*
X53202438Y-20085714D01*
X53202438Y-20085714D02*
X53250057Y-20133333D01*
X53488152Y-20990476D02*
X54154819Y-20990476D01*
X53107200Y-20752381D02*
X53821485Y-20514286D01*
X53821485Y-20514286D02*
X53821485Y-21133333D01*
X65259580Y-19757142D02*
X65307200Y-19709523D01*
X65307200Y-19709523D02*
X65354819Y-19566666D01*
X65354819Y-19566666D02*
X65354819Y-19471428D01*
X65354819Y-19471428D02*
X65307200Y-19328571D01*
X65307200Y-19328571D02*
X65211961Y-19233333D01*
X65211961Y-19233333D02*
X65116723Y-19185714D01*
X65116723Y-19185714D02*
X64926247Y-19138095D01*
X64926247Y-19138095D02*
X64783390Y-19138095D01*
X64783390Y-19138095D02*
X64592914Y-19185714D01*
X64592914Y-19185714D02*
X64497676Y-19233333D01*
X64497676Y-19233333D02*
X64402438Y-19328571D01*
X64402438Y-19328571D02*
X64354819Y-19471428D01*
X64354819Y-19471428D02*
X64354819Y-19566666D01*
X64354819Y-19566666D02*
X64402438Y-19709523D01*
X64402438Y-19709523D02*
X64450057Y-19757142D01*
X65354819Y-20709523D02*
X65354819Y-20138095D01*
X65354819Y-20423809D02*
X64354819Y-20423809D01*
X64354819Y-20423809D02*
X64497676Y-20328571D01*
X64497676Y-20328571D02*
X64592914Y-20233333D01*
X64592914Y-20233333D02*
X64640533Y-20138095D01*
X64450057Y-21090476D02*
X64402438Y-21138095D01*
X64402438Y-21138095D02*
X64354819Y-21233333D01*
X64354819Y-21233333D02*
X64354819Y-21471428D01*
X64354819Y-21471428D02*
X64402438Y-21566666D01*
X64402438Y-21566666D02*
X64450057Y-21614285D01*
X64450057Y-21614285D02*
X64545295Y-21661904D01*
X64545295Y-21661904D02*
X64640533Y-21661904D01*
X64640533Y-21661904D02*
X64783390Y-21614285D01*
X64783390Y-21614285D02*
X65354819Y-21042857D01*
X65354819Y-21042857D02*
X65354819Y-21661904D01*
X86959580Y-20033333D02*
X87007200Y-19985714D01*
X87007200Y-19985714D02*
X87054819Y-19842857D01*
X87054819Y-19842857D02*
X87054819Y-19747619D01*
X87054819Y-19747619D02*
X87007200Y-19604762D01*
X87007200Y-19604762D02*
X86911961Y-19509524D01*
X86911961Y-19509524D02*
X86816723Y-19461905D01*
X86816723Y-19461905D02*
X86626247Y-19414286D01*
X86626247Y-19414286D02*
X86483390Y-19414286D01*
X86483390Y-19414286D02*
X86292914Y-19461905D01*
X86292914Y-19461905D02*
X86197676Y-19509524D01*
X86197676Y-19509524D02*
X86102438Y-19604762D01*
X86102438Y-19604762D02*
X86054819Y-19747619D01*
X86054819Y-19747619D02*
X86054819Y-19842857D01*
X86054819Y-19842857D02*
X86102438Y-19985714D01*
X86102438Y-19985714D02*
X86150057Y-20033333D01*
X87054819Y-20509524D02*
X87054819Y-20700000D01*
X87054819Y-20700000D02*
X87007200Y-20795238D01*
X87007200Y-20795238D02*
X86959580Y-20842857D01*
X86959580Y-20842857D02*
X86816723Y-20938095D01*
X86816723Y-20938095D02*
X86626247Y-20985714D01*
X86626247Y-20985714D02*
X86245295Y-20985714D01*
X86245295Y-20985714D02*
X86150057Y-20938095D01*
X86150057Y-20938095D02*
X86102438Y-20890476D01*
X86102438Y-20890476D02*
X86054819Y-20795238D01*
X86054819Y-20795238D02*
X86054819Y-20604762D01*
X86054819Y-20604762D02*
X86102438Y-20509524D01*
X86102438Y-20509524D02*
X86150057Y-20461905D01*
X86150057Y-20461905D02*
X86245295Y-20414286D01*
X86245295Y-20414286D02*
X86483390Y-20414286D01*
X86483390Y-20414286D02*
X86578628Y-20461905D01*
X86578628Y-20461905D02*
X86626247Y-20509524D01*
X86626247Y-20509524D02*
X86673866Y-20604762D01*
X86673866Y-20604762D02*
X86673866Y-20795238D01*
X86673866Y-20795238D02*
X86626247Y-20890476D01*
X86626247Y-20890476D02*
X86578628Y-20938095D01*
X86578628Y-20938095D02*
X86483390Y-20985714D01*
X89359580Y-20033333D02*
X89407200Y-19985714D01*
X89407200Y-19985714D02*
X89454819Y-19842857D01*
X89454819Y-19842857D02*
X89454819Y-19747619D01*
X89454819Y-19747619D02*
X89407200Y-19604762D01*
X89407200Y-19604762D02*
X89311961Y-19509524D01*
X89311961Y-19509524D02*
X89216723Y-19461905D01*
X89216723Y-19461905D02*
X89026247Y-19414286D01*
X89026247Y-19414286D02*
X88883390Y-19414286D01*
X88883390Y-19414286D02*
X88692914Y-19461905D01*
X88692914Y-19461905D02*
X88597676Y-19509524D01*
X88597676Y-19509524D02*
X88502438Y-19604762D01*
X88502438Y-19604762D02*
X88454819Y-19747619D01*
X88454819Y-19747619D02*
X88454819Y-19842857D01*
X88454819Y-19842857D02*
X88502438Y-19985714D01*
X88502438Y-19985714D02*
X88550057Y-20033333D01*
X88454819Y-20938095D02*
X88454819Y-20461905D01*
X88454819Y-20461905D02*
X88931009Y-20414286D01*
X88931009Y-20414286D02*
X88883390Y-20461905D01*
X88883390Y-20461905D02*
X88835771Y-20557143D01*
X88835771Y-20557143D02*
X88835771Y-20795238D01*
X88835771Y-20795238D02*
X88883390Y-20890476D01*
X88883390Y-20890476D02*
X88931009Y-20938095D01*
X88931009Y-20938095D02*
X89026247Y-20985714D01*
X89026247Y-20985714D02*
X89264342Y-20985714D01*
X89264342Y-20985714D02*
X89359580Y-20938095D01*
X89359580Y-20938095D02*
X89407200Y-20890476D01*
X89407200Y-20890476D02*
X89454819Y-20795238D01*
X89454819Y-20795238D02*
X89454819Y-20557143D01*
X89454819Y-20557143D02*
X89407200Y-20461905D01*
X89407200Y-20461905D02*
X89359580Y-20414286D01*
X91459580Y-20133333D02*
X91507200Y-20085714D01*
X91507200Y-20085714D02*
X91554819Y-19942857D01*
X91554819Y-19942857D02*
X91554819Y-19847619D01*
X91554819Y-19847619D02*
X91507200Y-19704762D01*
X91507200Y-19704762D02*
X91411961Y-19609524D01*
X91411961Y-19609524D02*
X91316723Y-19561905D01*
X91316723Y-19561905D02*
X91126247Y-19514286D01*
X91126247Y-19514286D02*
X90983390Y-19514286D01*
X90983390Y-19514286D02*
X90792914Y-19561905D01*
X90792914Y-19561905D02*
X90697676Y-19609524D01*
X90697676Y-19609524D02*
X90602438Y-19704762D01*
X90602438Y-19704762D02*
X90554819Y-19847619D01*
X90554819Y-19847619D02*
X90554819Y-19942857D01*
X90554819Y-19942857D02*
X90602438Y-20085714D01*
X90602438Y-20085714D02*
X90650057Y-20133333D01*
X90650057Y-20514286D02*
X90602438Y-20561905D01*
X90602438Y-20561905D02*
X90554819Y-20657143D01*
X90554819Y-20657143D02*
X90554819Y-20895238D01*
X90554819Y-20895238D02*
X90602438Y-20990476D01*
X90602438Y-20990476D02*
X90650057Y-21038095D01*
X90650057Y-21038095D02*
X90745295Y-21085714D01*
X90745295Y-21085714D02*
X90840533Y-21085714D01*
X90840533Y-21085714D02*
X90983390Y-21038095D01*
X90983390Y-21038095D02*
X91554819Y-20466667D01*
X91554819Y-20466667D02*
X91554819Y-21085714D01*
X93659580Y-20133333D02*
X93707200Y-20085714D01*
X93707200Y-20085714D02*
X93754819Y-19942857D01*
X93754819Y-19942857D02*
X93754819Y-19847619D01*
X93754819Y-19847619D02*
X93707200Y-19704762D01*
X93707200Y-19704762D02*
X93611961Y-19609524D01*
X93611961Y-19609524D02*
X93516723Y-19561905D01*
X93516723Y-19561905D02*
X93326247Y-19514286D01*
X93326247Y-19514286D02*
X93183390Y-19514286D01*
X93183390Y-19514286D02*
X92992914Y-19561905D01*
X92992914Y-19561905D02*
X92897676Y-19609524D01*
X92897676Y-19609524D02*
X92802438Y-19704762D01*
X92802438Y-19704762D02*
X92754819Y-19847619D01*
X92754819Y-19847619D02*
X92754819Y-19942857D01*
X92754819Y-19942857D02*
X92802438Y-20085714D01*
X92802438Y-20085714D02*
X92850057Y-20133333D01*
X93754819Y-21085714D02*
X93754819Y-20514286D01*
X93754819Y-20800000D02*
X92754819Y-20800000D01*
X92754819Y-20800000D02*
X92897676Y-20704762D01*
X92897676Y-20704762D02*
X92992914Y-20609524D01*
X92992914Y-20609524D02*
X93040533Y-20514286D01*
X47159580Y-19657142D02*
X47207200Y-19609523D01*
X47207200Y-19609523D02*
X47254819Y-19466666D01*
X47254819Y-19466666D02*
X47254819Y-19371428D01*
X47254819Y-19371428D02*
X47207200Y-19228571D01*
X47207200Y-19228571D02*
X47111961Y-19133333D01*
X47111961Y-19133333D02*
X47016723Y-19085714D01*
X47016723Y-19085714D02*
X46826247Y-19038095D01*
X46826247Y-19038095D02*
X46683390Y-19038095D01*
X46683390Y-19038095D02*
X46492914Y-19085714D01*
X46492914Y-19085714D02*
X46397676Y-19133333D01*
X46397676Y-19133333D02*
X46302438Y-19228571D01*
X46302438Y-19228571D02*
X46254819Y-19371428D01*
X46254819Y-19371428D02*
X46254819Y-19466666D01*
X46254819Y-19466666D02*
X46302438Y-19609523D01*
X46302438Y-19609523D02*
X46350057Y-19657142D01*
X47254819Y-20609523D02*
X47254819Y-20038095D01*
X47254819Y-20323809D02*
X46254819Y-20323809D01*
X46254819Y-20323809D02*
X46397676Y-20228571D01*
X46397676Y-20228571D02*
X46492914Y-20133333D01*
X46492914Y-20133333D02*
X46540533Y-20038095D01*
X46254819Y-21514285D02*
X46254819Y-21038095D01*
X46254819Y-21038095D02*
X46731009Y-20990476D01*
X46731009Y-20990476D02*
X46683390Y-21038095D01*
X46683390Y-21038095D02*
X46635771Y-21133333D01*
X46635771Y-21133333D02*
X46635771Y-21371428D01*
X46635771Y-21371428D02*
X46683390Y-21466666D01*
X46683390Y-21466666D02*
X46731009Y-21514285D01*
X46731009Y-21514285D02*
X46826247Y-21561904D01*
X46826247Y-21561904D02*
X47064342Y-21561904D01*
X47064342Y-21561904D02*
X47159580Y-21514285D01*
X47159580Y-21514285D02*
X47207200Y-21466666D01*
X47207200Y-21466666D02*
X47254819Y-21371428D01*
X47254819Y-21371428D02*
X47254819Y-21133333D01*
X47254819Y-21133333D02*
X47207200Y-21038095D01*
X47207200Y-21038095D02*
X47159580Y-20990476D01*
X80064819Y-56441905D02*
X80874342Y-56441905D01*
X80874342Y-56441905D02*
X80969580Y-56489524D01*
X80969580Y-56489524D02*
X81017200Y-56537143D01*
X81017200Y-56537143D02*
X81064819Y-56632381D01*
X81064819Y-56632381D02*
X81064819Y-56822857D01*
X81064819Y-56822857D02*
X81017200Y-56918095D01*
X81017200Y-56918095D02*
X80969580Y-56965714D01*
X80969580Y-56965714D02*
X80874342Y-57013333D01*
X80874342Y-57013333D02*
X80064819Y-57013333D01*
X81064819Y-58013333D02*
X81064819Y-57441905D01*
X81064819Y-57727619D02*
X80064819Y-57727619D01*
X80064819Y-57727619D02*
X80207676Y-57632381D01*
X80207676Y-57632381D02*
X80302914Y-57537143D01*
X80302914Y-57537143D02*
X80350533Y-57441905D01*
X80493390Y-58584762D02*
X80445771Y-58489524D01*
X80445771Y-58489524D02*
X80398152Y-58441905D01*
X80398152Y-58441905D02*
X80302914Y-58394286D01*
X80302914Y-58394286D02*
X80255295Y-58394286D01*
X80255295Y-58394286D02*
X80160057Y-58441905D01*
X80160057Y-58441905D02*
X80112438Y-58489524D01*
X80112438Y-58489524D02*
X80064819Y-58584762D01*
X80064819Y-58584762D02*
X80064819Y-58775238D01*
X80064819Y-58775238D02*
X80112438Y-58870476D01*
X80112438Y-58870476D02*
X80160057Y-58918095D01*
X80160057Y-58918095D02*
X80255295Y-58965714D01*
X80255295Y-58965714D02*
X80302914Y-58965714D01*
X80302914Y-58965714D02*
X80398152Y-58918095D01*
X80398152Y-58918095D02*
X80445771Y-58870476D01*
X80445771Y-58870476D02*
X80493390Y-58775238D01*
X80493390Y-58775238D02*
X80493390Y-58584762D01*
X80493390Y-58584762D02*
X80541009Y-58489524D01*
X80541009Y-58489524D02*
X80588628Y-58441905D01*
X80588628Y-58441905D02*
X80683866Y-58394286D01*
X80683866Y-58394286D02*
X80874342Y-58394286D01*
X80874342Y-58394286D02*
X80969580Y-58441905D01*
X80969580Y-58441905D02*
X81017200Y-58489524D01*
X81017200Y-58489524D02*
X81064819Y-58584762D01*
X81064819Y-58584762D02*
X81064819Y-58775238D01*
X81064819Y-58775238D02*
X81017200Y-58870476D01*
X81017200Y-58870476D02*
X80969580Y-58918095D01*
X80969580Y-58918095D02*
X80874342Y-58965714D01*
X80874342Y-58965714D02*
X80683866Y-58965714D01*
X80683866Y-58965714D02*
X80588628Y-58918095D01*
X80588628Y-58918095D02*
X80541009Y-58870476D01*
X80541009Y-58870476D02*
X80493390Y-58775238D01*
X54204819Y-46440476D02*
X54919104Y-46440476D01*
X54919104Y-46440476D02*
X55061961Y-46392857D01*
X55061961Y-46392857D02*
X55157200Y-46297619D01*
X55157200Y-46297619D02*
X55204819Y-46154762D01*
X55204819Y-46154762D02*
X55204819Y-46059524D01*
X54300057Y-46869048D02*
X54252438Y-46916667D01*
X54252438Y-46916667D02*
X54204819Y-47011905D01*
X54204819Y-47011905D02*
X54204819Y-47250000D01*
X54204819Y-47250000D02*
X54252438Y-47345238D01*
X54252438Y-47345238D02*
X54300057Y-47392857D01*
X54300057Y-47392857D02*
X54395295Y-47440476D01*
X54395295Y-47440476D02*
X54490533Y-47440476D01*
X54490533Y-47440476D02*
X54633390Y-47392857D01*
X54633390Y-47392857D02*
X55204819Y-46821429D01*
X55204819Y-46821429D02*
X55204819Y-47440476D01*
X54204819Y-48059524D02*
X54204819Y-48154762D01*
X54204819Y-48154762D02*
X54252438Y-48250000D01*
X54252438Y-48250000D02*
X54300057Y-48297619D01*
X54300057Y-48297619D02*
X54395295Y-48345238D01*
X54395295Y-48345238D02*
X54585771Y-48392857D01*
X54585771Y-48392857D02*
X54823866Y-48392857D01*
X54823866Y-48392857D02*
X55014342Y-48345238D01*
X55014342Y-48345238D02*
X55109580Y-48297619D01*
X55109580Y-48297619D02*
X55157200Y-48250000D01*
X55157200Y-48250000D02*
X55204819Y-48154762D01*
X55204819Y-48154762D02*
X55204819Y-48059524D01*
X55204819Y-48059524D02*
X55157200Y-47964286D01*
X55157200Y-47964286D02*
X55109580Y-47916667D01*
X55109580Y-47916667D02*
X55014342Y-47869048D01*
X55014342Y-47869048D02*
X54823866Y-47821429D01*
X54823866Y-47821429D02*
X54585771Y-47821429D01*
X54585771Y-47821429D02*
X54395295Y-47869048D01*
X54395295Y-47869048D02*
X54300057Y-47916667D01*
X54300057Y-47916667D02*
X54252438Y-47964286D01*
X54252438Y-47964286D02*
X54204819Y-48059524D01*
X59754819Y-45385714D02*
X58754819Y-45385714D01*
X58754819Y-45385714D02*
X58754819Y-45766666D01*
X58754819Y-45766666D02*
X58802438Y-45861904D01*
X58802438Y-45861904D02*
X58850057Y-45909523D01*
X58850057Y-45909523D02*
X58945295Y-45957142D01*
X58945295Y-45957142D02*
X59088152Y-45957142D01*
X59088152Y-45957142D02*
X59183390Y-45909523D01*
X59183390Y-45909523D02*
X59231009Y-45861904D01*
X59231009Y-45861904D02*
X59278628Y-45766666D01*
X59278628Y-45766666D02*
X59278628Y-45385714D01*
X59707200Y-46338095D02*
X59754819Y-46480952D01*
X59754819Y-46480952D02*
X59754819Y-46719047D01*
X59754819Y-46719047D02*
X59707200Y-46814285D01*
X59707200Y-46814285D02*
X59659580Y-46861904D01*
X59659580Y-46861904D02*
X59564342Y-46909523D01*
X59564342Y-46909523D02*
X59469104Y-46909523D01*
X59469104Y-46909523D02*
X59373866Y-46861904D01*
X59373866Y-46861904D02*
X59326247Y-46814285D01*
X59326247Y-46814285D02*
X59278628Y-46719047D01*
X59278628Y-46719047D02*
X59231009Y-46528571D01*
X59231009Y-46528571D02*
X59183390Y-46433333D01*
X59183390Y-46433333D02*
X59135771Y-46385714D01*
X59135771Y-46385714D02*
X59040533Y-46338095D01*
X59040533Y-46338095D02*
X58945295Y-46338095D01*
X58945295Y-46338095D02*
X58850057Y-46385714D01*
X58850057Y-46385714D02*
X58802438Y-46433333D01*
X58802438Y-46433333D02*
X58754819Y-46528571D01*
X58754819Y-46528571D02*
X58754819Y-46766666D01*
X58754819Y-46766666D02*
X58802438Y-46909523D01*
X59754819Y-47861904D02*
X59754819Y-47290476D01*
X59754819Y-47576190D02*
X58754819Y-47576190D01*
X58754819Y-47576190D02*
X58897676Y-47480952D01*
X58897676Y-47480952D02*
X58992914Y-47385714D01*
X58992914Y-47385714D02*
X59040533Y-47290476D01*
X40283333Y-30754819D02*
X40283333Y-31469104D01*
X40283333Y-31469104D02*
X40330952Y-31611961D01*
X40330952Y-31611961D02*
X40426190Y-31707200D01*
X40426190Y-31707200D02*
X40569047Y-31754819D01*
X40569047Y-31754819D02*
X40664285Y-31754819D01*
X39807142Y-31754819D02*
X39807142Y-30754819D01*
X39807142Y-30754819D02*
X39426190Y-30754819D01*
X39426190Y-30754819D02*
X39330952Y-30802438D01*
X39330952Y-30802438D02*
X39283333Y-30850057D01*
X39283333Y-30850057D02*
X39235714Y-30945295D01*
X39235714Y-30945295D02*
X39235714Y-31088152D01*
X39235714Y-31088152D02*
X39283333Y-31183390D01*
X39283333Y-31183390D02*
X39330952Y-31231009D01*
X39330952Y-31231009D02*
X39426190Y-31278628D01*
X39426190Y-31278628D02*
X39807142Y-31278628D01*
X38902380Y-30754819D02*
X38283333Y-30754819D01*
X38283333Y-30754819D02*
X38616666Y-31135771D01*
X38616666Y-31135771D02*
X38473809Y-31135771D01*
X38473809Y-31135771D02*
X38378571Y-31183390D01*
X38378571Y-31183390D02*
X38330952Y-31231009D01*
X38330952Y-31231009D02*
X38283333Y-31326247D01*
X38283333Y-31326247D02*
X38283333Y-31564342D01*
X38283333Y-31564342D02*
X38330952Y-31659580D01*
X38330952Y-31659580D02*
X38378571Y-31707200D01*
X38378571Y-31707200D02*
X38473809Y-31754819D01*
X38473809Y-31754819D02*
X38759523Y-31754819D01*
X38759523Y-31754819D02*
X38854761Y-31707200D01*
X38854761Y-31707200D02*
X38902380Y-31659580D01*
D11*
%TO.C,V8*%
X27450000Y-73800000D02*
X28950000Y-73800000D01*
X27450000Y-84200000D02*
X28950000Y-84200000D01*
X28950000Y-73800000D02*
X28950000Y-75610000D01*
X28950000Y-75610000D02*
X34075000Y-75610000D01*
X28950000Y-82390000D02*
X30050000Y-82390000D01*
X28950000Y-84200000D02*
X28950000Y-82390000D01*
%TO.C,V9*%
X23050000Y-87800000D02*
X23050000Y-89610000D01*
X23050000Y-89610000D02*
X21950000Y-89610000D01*
X23050000Y-96390000D02*
X17925000Y-96390000D01*
X23050000Y-98200000D02*
X23050000Y-96390000D01*
X24550000Y-87800000D02*
X23050000Y-87800000D01*
X24550000Y-98200000D02*
X23050000Y-98200000D01*
%TO.C,V10*%
X27450000Y-47800000D02*
X28950000Y-47800000D01*
X27450000Y-58200000D02*
X28950000Y-58200000D01*
X28950000Y-47800000D02*
X28950000Y-49610000D01*
X28950000Y-49610000D02*
X34075000Y-49610000D01*
X28950000Y-56390000D02*
X30050000Y-56390000D01*
X28950000Y-58200000D02*
X28950000Y-56390000D01*
%TO.C,V11*%
X23050000Y-61800000D02*
X23050000Y-63610000D01*
X23050000Y-63610000D02*
X21950000Y-63610000D01*
X23050000Y-70390000D02*
X17925000Y-70390000D01*
X23050000Y-72200000D02*
X23050000Y-70390000D01*
X24550000Y-61800000D02*
X23050000Y-61800000D01*
X24550000Y-72200000D02*
X23050000Y-72200000D01*
%TO.C,V13*%
X23050000Y-35800000D02*
X23050000Y-37610000D01*
X23050000Y-37610000D02*
X21950000Y-37610000D01*
X23050000Y-44390000D02*
X17925000Y-44390000D01*
X23050000Y-46200000D02*
X23050000Y-44390000D01*
X24550000Y-35800000D02*
X23050000Y-35800000D01*
X24550000Y-46200000D02*
X23050000Y-46200000D01*
%TO.C,V12*%
X27450000Y-21800000D02*
X28950000Y-21800000D01*
X27450000Y-32200000D02*
X28950000Y-32200000D01*
X28950000Y-21800000D02*
X28950000Y-23610000D01*
X28950000Y-23610000D02*
X34075000Y-23610000D01*
X28950000Y-30390000D02*
X30050000Y-30390000D01*
X28950000Y-32200000D02*
X28950000Y-30390000D01*
%TO.C,V5*%
X111050000Y-35800000D02*
X111050000Y-37610000D01*
X111050000Y-37610000D02*
X109950000Y-37610000D01*
X111050000Y-44390000D02*
X105925000Y-44390000D01*
X111050000Y-46200000D02*
X111050000Y-44390000D01*
X112550000Y-35800000D02*
X111050000Y-35800000D01*
X112550000Y-46200000D02*
X111050000Y-46200000D01*
%TO.C,V2*%
X115450000Y-73800000D02*
X116950000Y-73800000D01*
X115450000Y-84200000D02*
X116950000Y-84200000D01*
X116950000Y-73800000D02*
X116950000Y-75610000D01*
X116950000Y-75610000D02*
X122075000Y-75610000D01*
X116950000Y-82390000D02*
X118050000Y-82390000D01*
X116950000Y-84200000D02*
X116950000Y-82390000D01*
%TO.C,V6*%
X115450000Y-21800000D02*
X116950000Y-21800000D01*
X115450000Y-32200000D02*
X116950000Y-32200000D01*
X116950000Y-21800000D02*
X116950000Y-23610000D01*
X116950000Y-23610000D02*
X122075000Y-23610000D01*
X116950000Y-30390000D02*
X118050000Y-30390000D01*
X116950000Y-32200000D02*
X116950000Y-30390000D01*
%TO.C,V3*%
X111050000Y-61800000D02*
X111050000Y-63610000D01*
X111050000Y-63610000D02*
X109950000Y-63610000D01*
X111050000Y-70390000D02*
X105925000Y-70390000D01*
X111050000Y-72200000D02*
X111050000Y-70390000D01*
X112550000Y-61800000D02*
X111050000Y-61800000D01*
X112550000Y-72200000D02*
X111050000Y-72200000D01*
%TO.C,V4*%
X115450000Y-47800000D02*
X116950000Y-47800000D01*
X115450000Y-58200000D02*
X116950000Y-58200000D01*
X116950000Y-47800000D02*
X116950000Y-49610000D01*
X116950000Y-49610000D02*
X122075000Y-49610000D01*
X116950000Y-56390000D02*
X118050000Y-56390000D01*
X116950000Y-58200000D02*
X116950000Y-56390000D01*
%TO.C,V1*%
X111050000Y-87800000D02*
X111050000Y-89610000D01*
X111050000Y-89610000D02*
X109950000Y-89610000D01*
X111050000Y-96390000D02*
X105925000Y-96390000D01*
X111050000Y-98200000D02*
X111050000Y-96390000D01*
X112550000Y-87800000D02*
X111050000Y-87800000D01*
X112550000Y-98200000D02*
X111050000Y-98200000D01*
%TO.C,C40*%
X123902064Y-30590000D02*
X122697936Y-30590000D01*
X123902064Y-32410000D02*
X122697936Y-32410000D01*
%TO.C,C44*%
X123902064Y-82590000D02*
X122697936Y-82590000D01*
X123902064Y-84410000D02*
X122697936Y-84410000D01*
%TO.C,C48*%
X123902064Y-56590000D02*
X122697936Y-56590000D01*
X123902064Y-58410000D02*
X122697936Y-58410000D01*
%TO.C,C64*%
X16597936Y-61690000D02*
X17802064Y-61690000D01*
X16597936Y-63510000D02*
X17802064Y-63510000D01*
%TO.C,C68*%
X16497936Y-87490000D02*
X17702064Y-87490000D01*
X16497936Y-89310000D02*
X17702064Y-89310000D01*
%TO.C,C72*%
X16597936Y-35590000D02*
X17802064Y-35590000D01*
X16597936Y-37410000D02*
X17802064Y-37410000D01*
%TO.C,C7*%
X50390000Y-17092064D02*
X50390000Y-15887936D01*
X52210000Y-17092064D02*
X52210000Y-15887936D01*
%TO.C,C10*%
X48090000Y-17092064D02*
X48090000Y-15887936D01*
X49910000Y-17092064D02*
X49910000Y-15887936D01*
%TO.C,C18*%
X59420000Y-17182064D02*
X59420000Y-15977936D01*
X61240000Y-17182064D02*
X61240000Y-15977936D01*
%TO.C,C17*%
X76390000Y-17102064D02*
X76390000Y-15897936D01*
X78210000Y-17102064D02*
X78210000Y-15897936D01*
%TO.C,C16*%
X61690000Y-17182064D02*
X61690000Y-15977936D01*
X63510000Y-17182064D02*
X63510000Y-15977936D01*
%TO.C,C13*%
X78690000Y-17102064D02*
X78690000Y-15897936D01*
X80510000Y-17102064D02*
X80510000Y-15897936D01*
%TO.C,C8*%
X74090000Y-17102064D02*
X74090000Y-15897936D01*
X75910000Y-17102064D02*
X75910000Y-15897936D01*
%TO.C,C4*%
X52690000Y-17102064D02*
X52690000Y-15897936D01*
X54510000Y-17102064D02*
X54510000Y-15897936D01*
%TO.C,C12*%
X63990000Y-17182064D02*
X63990000Y-15977936D01*
X65810000Y-17182064D02*
X65810000Y-15977936D01*
%TO.C,C9*%
X85690000Y-17102064D02*
X85690000Y-15897936D01*
X87510000Y-17102064D02*
X87510000Y-15897936D01*
%TO.C,C5*%
X87910000Y-17102064D02*
X87910000Y-15897936D01*
X89730000Y-17102064D02*
X89730000Y-15897936D01*
%TO.C,C2*%
X90190000Y-17102064D02*
X90190000Y-15897936D01*
X92010000Y-17102064D02*
X92010000Y-15897936D01*
%TO.C,C1*%
X92490000Y-17102064D02*
X92490000Y-15897936D01*
X94310000Y-17102064D02*
X94310000Y-15897936D01*
%TO.C,C15*%
X45790000Y-17102064D02*
X45790000Y-15897936D01*
X47610000Y-17102064D02*
X47610000Y-15897936D01*
%TO.C,U18*%
X60880000Y-33385000D02*
X60880000Y-39805000D01*
X60880000Y-58350000D02*
X60880000Y-59130000D01*
X60880000Y-59130000D02*
X61880000Y-59130000D01*
X79120000Y-33385000D02*
X60880000Y-33385000D01*
X79120000Y-33385000D02*
X79120000Y-39805000D01*
X79120000Y-39805000D02*
X79500000Y-39805000D01*
X79120000Y-58350000D02*
X79120000Y-59130000D01*
X79120000Y-59130000D02*
X78120000Y-59130000D01*
%TO.C,J20*%
X55550000Y-38150000D02*
X56800000Y-38150000D01*
X55550000Y-39400000D02*
X55550000Y-38150000D01*
X55840000Y-38440000D02*
X61810000Y-38440000D01*
X55840000Y-56060000D02*
X55840000Y-38440000D01*
X55850000Y-38450000D02*
X56600000Y-38450000D01*
X55850000Y-40250000D02*
X55850000Y-38450000D01*
X55850000Y-41750000D02*
X56600000Y-41750000D01*
X55850000Y-52750000D02*
X55850000Y-41750000D01*
X55850000Y-54250000D02*
X56600000Y-54250000D01*
X55850000Y-56050000D02*
X55850000Y-54250000D01*
X56600000Y-38450000D02*
X56600000Y-40250000D01*
X56600000Y-40250000D02*
X55850000Y-40250000D01*
X56600000Y-41750000D02*
X56600000Y-52750000D01*
X56600000Y-52750000D02*
X55850000Y-52750000D01*
X56600000Y-54250000D02*
X56600000Y-56050000D01*
X56600000Y-56050000D02*
X55850000Y-56050000D01*
X58100000Y-38450000D02*
X58100000Y-39200000D01*
X58100000Y-39200000D02*
X61050000Y-39200000D01*
X58100000Y-55300000D02*
X61050000Y-55300000D01*
X58100000Y-56050000D02*
X58100000Y-55300000D01*
X61050000Y-39200000D02*
X61050000Y-47250000D01*
X61050000Y-55300000D02*
X61050000Y-47250000D01*
X61810000Y-38440000D02*
X61810000Y-56060000D01*
X61810000Y-56060000D02*
X55840000Y-56060000D01*
%TO.C,PS1*%
D10*
X47700000Y-25150000D02*
X77900000Y-25150000D01*
X77900000Y-67050000D01*
X47700000Y-67050000D01*
X47700000Y-25150000D01*
D11*
%TO.C,JP3*%
X38000000Y-28750000D02*
X38000000Y-29350000D01*
X38700000Y-30050000D02*
X40100000Y-30050000D01*
X40100000Y-28050000D02*
X38700000Y-28050000D01*
X40800000Y-29350000D02*
X40800000Y-28750000D01*
X38000000Y-28750000D02*
G75*
G02*
X38700000Y-28050000I700000J0D01*
G01*
X38700000Y-30050000D02*
G75*
G02*
X38000000Y-29350000I0J700000D01*
G01*
X40100000Y-28050000D02*
G75*
G02*
X40800000Y-28750000I1J-699999D01*
G01*
X40800000Y-29350000D02*
G75*
G02*
X40100000Y-30050000I-699999J-1D01*
G01*
%TD*%
%LPC*%
D12*
%TO.C,C42*%
X101000000Y-93000000D03*
D13*
X101000000Y-96500000D03*
%TD*%
D14*
%TO.C,C43*%
X116000000Y-60000000D03*
D13*
X112500000Y-60000000D03*
%TD*%
D12*
%TO.C,C46*%
X39000000Y-67000000D03*
D13*
X39000000Y-70500000D03*
%TD*%
D14*
%TO.C,C47*%
X116000000Y-34000000D03*
D13*
X112500000Y-34000000D03*
%TD*%
D12*
%TO.C,C62*%
X39000000Y-41000000D03*
D13*
X39000000Y-44500000D03*
%TD*%
D15*
%TO.C,C63*%
X24000000Y-86000000D03*
D13*
X27500000Y-86000000D03*
%TD*%
D12*
%TO.C,C66*%
X101590000Y-65840000D03*
D13*
X101590000Y-69340000D03*
%TD*%
D15*
%TO.C,C67*%
X24000000Y-60000000D03*
D13*
X27500000Y-60000000D03*
%TD*%
D15*
%TO.C,C71*%
X24000000Y-34000000D03*
D13*
X27500000Y-34000000D03*
%TD*%
D16*
%TO.C,C85*%
X89400000Y-65050000D03*
D17*
X94400000Y-65050000D03*
%TD*%
D18*
%TO.C,C3*%
X82690000Y-19887918D03*
D19*
X82690000Y-14887918D03*
%TD*%
D18*
%TO.C,C6*%
X96740000Y-19887918D03*
D19*
X96740000Y-14887918D03*
%TD*%
D18*
%TO.C,C14*%
X57240000Y-19987918D03*
D19*
X57240000Y-14987918D03*
%TD*%
D14*
%TO.C,C41*%
X125000000Y-60000000D03*
D13*
X121500000Y-60000000D03*
%TD*%
D14*
%TO.C,C45*%
X125000000Y-86000000D03*
D13*
X121500000Y-86000000D03*
%TD*%
D14*
%TO.C,C49*%
X125000000Y-34000000D03*
D13*
X121500000Y-34000000D03*
%TD*%
D15*
%TO.C,C65*%
X15000000Y-34000000D03*
D13*
X18500000Y-34000000D03*
%TD*%
D15*
%TO.C,C69*%
X15000000Y-86000000D03*
D13*
X18500000Y-86000000D03*
%TD*%
D15*
%TO.C,C73*%
X15000000Y-60000000D03*
D13*
X18500000Y-60000000D03*
%TD*%
D16*
%TO.C,C83*%
X82200000Y-40100000D03*
D17*
X87200000Y-40100000D03*
%TD*%
D20*
%TO.C,J4*%
X32000000Y-85000000D03*
%TD*%
%TO.C,J5*%
X32000000Y-59000000D03*
%TD*%
D16*
%TO.C,LS1*%
X46550000Y-88500000D03*
D17*
X53050000Y-88500000D03*
%TD*%
D20*
%TO.C,J6*%
X32000000Y-33000000D03*
%TD*%
%TO.C,J3*%
X108000000Y-35000000D03*
%TD*%
%TO.C,J2*%
X108000000Y-61000000D03*
%TD*%
%TO.C,J1*%
X108000000Y-87000000D03*
%TD*%
D14*
%TO.C,C39*%
X116000000Y-86000000D03*
D13*
X112500000Y-86000000D03*
%TD*%
D12*
%TO.C,C70*%
X35900000Y-93950000D03*
D13*
X35900000Y-97450000D03*
%TD*%
D21*
%TO.C,HALL_L1*%
X82000000Y-98000000D03*
D22*
X79500000Y-98000000D03*
X77000000Y-98000000D03*
X74500000Y-98000000D03*
X72000000Y-98000000D03*
%TD*%
D21*
%TO.C,J14*%
X50700000Y-98000000D03*
D22*
X48200000Y-98000000D03*
X45700000Y-98000000D03*
X43200000Y-98000000D03*
%TD*%
D18*
%TO.C,C11*%
X43190000Y-19987918D03*
D19*
X43190000Y-14987918D03*
%TD*%
D23*
%TO.C,J17*%
X79320000Y-79910000D03*
D24*
X79320000Y-77370000D03*
X79320000Y-74830000D03*
X79320000Y-72290000D03*
%TD*%
D21*
%TO.C,HALL_R1*%
X66000000Y-98000000D03*
D22*
X63500000Y-98000000D03*
X61000000Y-98000000D03*
X58500000Y-98000000D03*
X56000000Y-98000000D03*
%TD*%
D12*
%TO.C,C38*%
X101000000Y-40500000D03*
D13*
X101000000Y-44000000D03*
%TD*%
D25*
%TO.C,C78*%
X88700000Y-32700000D03*
D17*
X88700000Y-27700000D03*
%TD*%
D26*
%TO.C,J7*%
X70000000Y-13400000D03*
%TD*%
D27*
%TO.C,J9*%
X11000000Y-14000000D03*
X11878680Y-11878680D03*
X14000000Y-11000000D03*
%TD*%
%TO.C,J11*%
X129000000Y-96000000D03*
X128121320Y-98121320D03*
X126000000Y-99000000D03*
%TD*%
%TO.C,J12*%
X14000000Y-99000000D03*
X11878680Y-98121320D03*
X11000000Y-96000000D03*
%TD*%
%TO.C,J10*%
X126000000Y-11000000D03*
X128121320Y-11878680D03*
X129000000Y-14000000D03*
%TD*%
D26*
%TO.C,J8*%
X70000000Y-22000000D03*
%TD*%
D13*
%TO.C,RV3*%
X123554972Y-24108791D03*
X121301028Y-16531209D03*
%TD*%
%TO.C,RV4*%
X23093534Y-19060233D03*
X16022466Y-22595767D03*
%TD*%
%TO.C,RV6*%
X12720000Y-50740000D03*
X15220000Y-43240000D03*
%TD*%
%TO.C,RV5*%
X12974000Y-76648000D03*
X15474000Y-69148000D03*
%TD*%
%TO.C,RV2*%
X124988000Y-76648000D03*
X127488000Y-69148000D03*
%TD*%
%TO.C,RV1*%
X124988000Y-50740000D03*
X127488000Y-43240000D03*
%TD*%
D28*
%TO.C,J18*%
X52500000Y-71250000D03*
%TD*%
D29*
%TO.C,J19*%
X38000000Y-26675000D03*
D30*
X40500000Y-26675000D03*
%TD*%
D31*
%TO.C,J16*%
X99875000Y-81600000D03*
D32*
X99875000Y-79100000D03*
X99875000Y-76600000D03*
X99875000Y-74100000D03*
%TD*%
D31*
%TO.C,J15*%
X93800000Y-81600000D03*
D32*
X93800000Y-79100000D03*
X93800000Y-76600000D03*
X93800000Y-74100000D03*
%TD*%
D21*
%TO.C,J13*%
X95000000Y-98000000D03*
D22*
X92500000Y-98000000D03*
X90000000Y-98000000D03*
X87500000Y-98000000D03*
%TD*%
D33*
%TO.C,V8*%
X31775000Y-76460000D03*
D34*
X22625000Y-79000000D03*
D33*
X31775000Y-81540000D03*
%TD*%
D35*
%TO.C,V9*%
X20225000Y-95540000D03*
D36*
X29375000Y-93000000D03*
D35*
X20225000Y-90460000D03*
%TD*%
D33*
%TO.C,V10*%
X31775000Y-50460000D03*
D34*
X22625000Y-53000000D03*
D33*
X31775000Y-55540000D03*
%TD*%
D35*
%TO.C,V11*%
X20225000Y-69540000D03*
D36*
X29375000Y-67000000D03*
D35*
X20225000Y-64460000D03*
%TD*%
%TO.C,V13*%
X20225000Y-43540000D03*
D36*
X29375000Y-41000000D03*
D35*
X20225000Y-38460000D03*
%TD*%
D33*
%TO.C,V12*%
X31775000Y-24460000D03*
D34*
X22625000Y-27000000D03*
D33*
X31775000Y-29540000D03*
%TD*%
D35*
%TO.C,V5*%
X108225000Y-43540000D03*
D36*
X117375000Y-41000000D03*
D35*
X108225000Y-38460000D03*
%TD*%
D33*
%TO.C,V2*%
X119775000Y-76460000D03*
D34*
X110625000Y-79000000D03*
D33*
X119775000Y-81540000D03*
%TD*%
%TO.C,V6*%
X119775000Y-24460000D03*
D34*
X110625000Y-27000000D03*
D33*
X119775000Y-29540000D03*
%TD*%
D35*
%TO.C,V3*%
X108225000Y-69540000D03*
D36*
X117375000Y-67000000D03*
D35*
X108225000Y-64460000D03*
%TD*%
D33*
%TO.C,V4*%
X119775000Y-50460000D03*
D34*
X110625000Y-53000000D03*
D33*
X119775000Y-55540000D03*
%TD*%
D35*
%TO.C,V1*%
X108225000Y-95540000D03*
D36*
X117375000Y-93000000D03*
D35*
X108225000Y-90460000D03*
%TD*%
D37*
%TO.C,C40*%
X124700000Y-31500000D03*
X121900000Y-31500000D03*
%TD*%
%TO.C,C44*%
X124700000Y-83500000D03*
X121900000Y-83500000D03*
%TD*%
%TO.C,C48*%
X124700000Y-57500000D03*
X121900000Y-57500000D03*
%TD*%
D38*
%TO.C,C64*%
X15800000Y-62600000D03*
X18600000Y-62600000D03*
%TD*%
%TO.C,C68*%
X15700000Y-88400000D03*
X18500000Y-88400000D03*
%TD*%
%TO.C,C72*%
X15800000Y-36500000D03*
X18600000Y-36500000D03*
%TD*%
D39*
%TO.C,C7*%
X51300000Y-17890000D03*
X51300000Y-15090000D03*
%TD*%
%TO.C,C10*%
X49000000Y-17890000D03*
X49000000Y-15090000D03*
%TD*%
%TO.C,C18*%
X60330000Y-17980000D03*
X60330000Y-15180000D03*
%TD*%
%TO.C,C17*%
X77300000Y-17900000D03*
X77300000Y-15100000D03*
%TD*%
%TO.C,C16*%
X62600000Y-17980000D03*
X62600000Y-15180000D03*
%TD*%
%TO.C,C13*%
X79600000Y-17900000D03*
X79600000Y-15100000D03*
%TD*%
%TO.C,C8*%
X75000000Y-17900000D03*
X75000000Y-15100000D03*
%TD*%
%TO.C,C4*%
X53600000Y-17900000D03*
X53600000Y-15100000D03*
%TD*%
%TO.C,C12*%
X64900000Y-17980000D03*
X64900000Y-15180000D03*
%TD*%
%TO.C,C9*%
X86600000Y-17900000D03*
X86600000Y-15100000D03*
%TD*%
%TO.C,C5*%
X88820000Y-17900000D03*
X88820000Y-15100000D03*
%TD*%
%TO.C,C2*%
X91100000Y-17900000D03*
X91100000Y-15100000D03*
%TD*%
%TO.C,C1*%
X93400000Y-17900000D03*
X93400000Y-15100000D03*
%TD*%
%TO.C,C15*%
X46700000Y-17900000D03*
X46700000Y-15100000D03*
%TD*%
D40*
%TO.C,U18*%
X78500000Y-40995000D03*
X78500000Y-42265000D03*
X78500000Y-43535000D03*
X78500000Y-44805000D03*
X78500000Y-46075000D03*
X78500000Y-47345000D03*
X78500000Y-48615000D03*
X78500000Y-49885000D03*
X78500000Y-51155000D03*
X78500000Y-52425000D03*
X78500000Y-53695000D03*
X78500000Y-54965000D03*
X78500000Y-56235000D03*
X78500000Y-57505000D03*
D41*
X75715000Y-58505000D03*
X74445000Y-58505000D03*
X73175000Y-58505000D03*
X71905000Y-58505000D03*
X70635000Y-58505000D03*
X69365000Y-58505000D03*
X68095000Y-58505000D03*
X66825000Y-58505000D03*
X65555000Y-58505000D03*
X64285000Y-58505000D03*
D40*
X61500000Y-57505000D03*
X61500000Y-56235000D03*
X61500000Y-54965000D03*
X61500000Y-53695000D03*
X61500000Y-52425000D03*
X61500000Y-51155000D03*
X61500000Y-49885000D03*
X61500000Y-48615000D03*
X61500000Y-47345000D03*
X61500000Y-46075000D03*
X61500000Y-44805000D03*
X61500000Y-43535000D03*
X61500000Y-42265000D03*
X61500000Y-40995000D03*
D42*
X71000000Y-48495000D03*
%TD*%
D43*
%TO.C,J20*%
X58300000Y-41000000D03*
X58300000Y-43500000D03*
X58300000Y-46000000D03*
D44*
X58300000Y-48500000D03*
X58300000Y-51000000D03*
X58300000Y-53500000D03*
%TD*%
D17*
%TO.C,PS1*%
X75125000Y-28255000D03*
X50475000Y-28255000D03*
X75125000Y-63945000D03*
X50475000Y-63945000D03*
%TD*%
D45*
%TO.C,JP3*%
X40050000Y-29050000D03*
D46*
X38750000Y-29050000D03*
%TD*%
%LPD*%
M02*
